<?xml version="1.0" encoding="UTF-8" standalone="no"?>
<!DOCTYPE svg PUBLIC "-//W3C//DTD SVG 1.1//EN"
 "http://www.w3.org/Graphics/SVG/1.1/DTD/svg11.dtd">
<!-- Generated by graphviz version 2.40.1 (0)
 -->
<!-- Title: AlternativeIndicatorID Pages: 1 -->
<svg width="404pt" height="79pt"
 viewBox="0.00 0.00 404.00 79.00" xmlns="http://www.w3.org/2000/svg" xmlns:xlink="http://www.w3.org/1999/xlink">
<g id="graph0" class="graph" transform="scale(1 1) rotate(0) translate(4 75)">
<title>AlternativeIndicatorID</title>
<polygon fill="#ffffff" stroke="transparent" points="-4,4 -4,-75 400,-75 400,4 -4,4"/>
<!-- AlternativeIndicatorID -->
<g id="node1" class="node">
<title>AlternativeIndicatorID</title>
<g id="a_node1_0"><a xlink:href="/idmef_parser/IODEFv2/AlternativeIndicatorID.html" xlink:title="The AlternativeIndicatorID class lists alternative identifiers for an indicator. ">
<polygon fill="#cecece" stroke="transparent" points="8,-45.5 8,-66.5 192,-66.5 192,-45.5 8,-45.5"/>
<polygon fill="none" stroke="#000000" points="8,-45.5 8,-66.5 192,-66.5 192,-45.5 8,-45.5"/>
<text text-anchor="start" x="35" y="-52.3" font-family="Nimbus Sans L" font-size="14.00" fill="#000000">AlternativeIndicatorID</text>
</a>
</g>
<g id="a_node1_1"><a xlink:href="/idmef_parser/IODEFv2/AlternativeIndicatorID.html" xlink:title="See Section 3.3.1.">
<polygon fill="none" stroke="#000000" points="8,-24.5 8,-45.5 192,-45.5 192,-24.5 8,-24.5"/>
<text text-anchor="start" x="27" y="-31.3" font-family="Nimbus Sans L" font-size="14.00" fill="#000000">[ENUM] restriction (0..1)</text>
</a>
</g>
<g id="a_node1_2"><a xlink:href="/idmef_parser/IODEFv2/AlternativeIndicatorID.html" xlink:title="A means by which to extend the restriction attribute. &#160;See Section 5.1.1.">
<polygon fill="none" stroke="#000000" points="8,-3.5 8,-24.5 192,-24.5 192,-3.5 8,-3.5"/>
<text text-anchor="start" x="11" y="-10.3" font-family="Nimbus Sans L" font-size="14.00" fill="#000000">[STRING] ext&#45;restriction (0..1)</text>
</a>
</g>
</g>
<!-- IndicatorReference -->
<g id="node2" class="node">
<title>IndicatorReference</title>
<g id="a_node2_3"><a xlink:href="/idmef_parser/IODEFv2/IndicatorReference.html" xlink:title="The IndicatorReference describes a reference to an indicator. This reference may be to an indicator described in this IODEF document or in a previously exchanged IODEF document. ">
<polygon fill="#cecece" stroke="transparent" points="267.5,-24.5 267.5,-45.5 388.5,-45.5 388.5,-24.5 267.5,-24.5"/>
<polygon fill="none" stroke="#000000" points="267.5,-24.5 267.5,-45.5 388.5,-45.5 388.5,-24.5 267.5,-24.5"/>
<text text-anchor="start" x="270.5" y="-31.3" font-family="Nimbus Sans L" font-size="14.00" fill="#000000">IndicatorReference</text>
</a>
</g>
</g>
<!-- AlternativeIndicatorID&#45;&gt;IndicatorReference -->
<g id="edge1" class="edge">
<title>AlternativeIndicatorID&#45;&gt;IndicatorReference</title>
<path fill="none" stroke="#000000" d="M200.1159,-35.5C216.3489,-35.5 232.9578,-35.5 248.5943,-35.5"/>
<polygon fill="#000000" stroke="#000000" points="248.7157,-39.0001 258.7156,-35.5 248.7156,-32.0001 248.7157,-39.0001"/>
<text text-anchor="middle" x="229.5" y="-39.3" font-family="Times,serif" font-size="14.00" fill="#000000">1..*</text>
</g>
</g>
</svg>
