<?xml version="1.0" encoding="UTF-8" standalone="no"?>
<!DOCTYPE svg PUBLIC "-//W3C//DTD SVG 1.1//EN"
 "http://www.w3.org/Graphics/SVG/1.1/DTD/svg11.dtd">
<!-- Generated by graphviz version 2.40.1 (0)
 -->
<!-- Title: AlternativeID Pages: 1 -->
<svg width="350pt" height="79pt"
 viewBox="0.00 0.00 350.00 79.00" xmlns="http://www.w3.org/2000/svg" xmlns:xlink="http://www.w3.org/1999/xlink">
<g id="graph0" class="graph" transform="scale(1 1) rotate(0) translate(4 75)">
<title>AlternativeID</title>
<polygon fill="#ffffff" stroke="transparent" points="-4,4 -4,-75 346,-75 346,4 -4,4"/>
<!-- AlternativeID -->
<g id="node1" class="node">
<title>AlternativeID</title>
<g id="a_node1_0"><a xlink:href="/idmef_parser/IODEFv2/AlternativeID.html" xlink:title="The AlternativeID class lists the tracking numbers used by CSIRTs, other than the one generating the document, to refer to the identical activity described in the IODEF document. A tracking number listed as an AlternativeID references the same incident detected by another CSIRT. The tracking numbers of the CSIRT that generated the IODEF document must never be considered an AlternativeID. ">
<polygon fill="#90ac3d" stroke="transparent" points="8,-45.5 8,-66.5 192,-66.5 192,-45.5 8,-45.5"/>
<polygon fill="none" stroke="#000000" points="8,-45.5 8,-66.5 192,-66.5 192,-45.5 8,-45.5"/>
<text text-anchor="start" x="61" y="-52.3" font-family="Nimbus Sans L" font-size="14.00" fill="#000000">AlternativeID</text>
</a>
</g>
<g id="a_node1_1"><a xlink:href="/idmef_parser/IODEFv2/AlternativeID.html" xlink:title="See Section 3.3.1.">
<polygon fill="#b4d74c" stroke="transparent" points="8,-24.5 8,-45.5 192,-45.5 192,-24.5 8,-24.5"/>
<polygon fill="none" stroke="#000000" points="8,-24.5 8,-45.5 192,-45.5 192,-24.5 8,-24.5"/>
<text text-anchor="start" x="27" y="-31.3" font-family="Nimbus Sans L" font-size="14.00" fill="#000000">[ENUM] restriction (0..1)</text>
</a>
</g>
<g id="a_node1_2"><a xlink:href="/idmef_parser/IODEFv2/AlternativeID.html" xlink:title="A means by which to extend the restriction attribute. &#160;See Section 5.1.1.">
<polygon fill="#b4d74c" stroke="transparent" points="8,-3.5 8,-24.5 192,-24.5 192,-3.5 8,-3.5"/>
<polygon fill="none" stroke="#000000" points="8,-3.5 8,-24.5 192,-24.5 192,-3.5 8,-3.5"/>
<text text-anchor="start" x="11" y="-10.3" font-family="Nimbus Sans L" font-size="14.00" fill="#000000">[STRING] ext&#45;restriction (0..1)</text>
</a>
</g>
</g>
<!-- IncidentID -->
<g id="node2" class="node">
<title>IncidentID</title>
<g id="a_node2_3"><a xlink:href="/idmef_parser/IODEFv2/IncidentID.html" xlink:title="The IncidentID class represents a tracking number that is unique in the context of the CSIRT. It serves as an identifier for an incident or a document identifier when sharing indicators. This identifier would serve as an index into a CSIRT&#39;s incident handling or knowledge management system. ">
<polygon fill="#90ac3d" stroke="transparent" points="267.5,-24.5 267.5,-45.5 334.5,-45.5 334.5,-24.5 267.5,-24.5"/>
<polygon fill="none" stroke="#000000" points="267.5,-24.5 267.5,-45.5 334.5,-45.5 334.5,-24.5 267.5,-24.5"/>
<text text-anchor="start" x="270.5" y="-31.3" font-family="Nimbus Sans L" font-size="14.00" fill="#000000">IncidentID</text>
</a>
</g>
</g>
<!-- AlternativeID&#45;&gt;IncidentID -->
<g id="edge1" class="edge">
<title>AlternativeID&#45;&gt;IncidentID</title>
<path fill="none" stroke="#000000" d="M200.25,-35.5C217.1133,-35.5 233.9767,-35.5 248.9314,-35.5"/>
<polygon fill="#000000" stroke="#000000" points="248.9563,-39.0001 258.9563,-35.5 248.9562,-32.0001 248.9563,-39.0001"/>
<text text-anchor="middle" x="229.5" y="-39.3" font-family="Times,serif" font-size="14.00" fill="#000000">1..*</text>
</g>
</g>
</svg>
