<?xml version="1.0" encoding="UTF-8" standalone="no"?>
<!DOCTYPE svg PUBLIC "-//W3C//DTD SVG 1.1//EN"
 "http://www.w3.org/Graphics/SVG/1.1/DTD/svg11.dtd">
<!-- Generated by graphviz version 2.40.1 (0)
 -->
<!-- Title: BulkObservable Pages: 1 -->
<svg width="809pt" height="121pt"
 viewBox="0.00 0.00 809.00 121.00" xmlns="http://www.w3.org/2000/svg" xmlns:xlink="http://www.w3.org/1999/xlink">
<g id="graph0" class="graph" transform="scale(1 1) rotate(0) translate(4 117)">
<title>BulkObservable</title>
<polygon fill="#ffffff" stroke="transparent" points="-4,4 -4,-117 805,-117 805,4 -4,4"/>
<!-- BulkObservable -->
<g id="node1" class="node">
<title>BulkObservable</title>
<g id="a_node1_0"><a xlink:href="/html/IODEFv2/BulkObservable.html" xlink:title="The BulkObservable class allows the enumeration of a single type of observable without requiring each one to be encoded individually in multiple instances of the same class. ">
<polygon fill="#cecece" stroke="transparent" points="8,-87.5 8,-108.5 230,-108.5 230,-87.5 8,-87.5"/>
<polygon fill="none" stroke="#000000" points="8,-87.5 8,-108.5 230,-108.5 230,-87.5 8,-87.5"/>
<text text-anchor="start" x="70.5" y="-94.3" font-family="Nimbus Sans L" font-size="14.00" fill="#000000">BulkObservable</text>
</a>
</g>
<g id="a_node1_1"><a xlink:href="/html/IODEFv2/BulkObservable.html" xlink:title="A list of observables, one per line. &#160;Each line is separated with either a LF character or CR and LF characters. &#160;The type attribute specifies which observables will be listed.">
<polygon fill="none" stroke="#000000" points="8,-66.5 8,-87.5 230,-87.5 230,-66.5 8,-66.5"/>
<text text-anchor="start" x="11" y="-73.3" font-family="Nimbus Sans L" font-size="14.00" fill="#000000">[STRING] BulkObservableList (1..1)</text>
</a>
</g>
<g id="a_node1_2"><a xlink:href="/html/IODEFv2/BulkObservable.html" xlink:title="Mechanism by which to extend the data model.">
<polygon fill="none" stroke="#000000" points="8,-45.5 8,-66.5 230,-66.5 230,-45.5 8,-45.5"/>
<text text-anchor="start" x="13.5" y="-52.3" font-family="Nimbus Sans L" font-size="14.00" fill="#000000">[EXTENSION] AdditionalData (0..*)</text>
</a>
</g>
<g id="a_node1_3"><a xlink:href="/html/IODEFv2/BulkObservable.html" xlink:title="The type of the observable listed in the child ObservableList class. &#160;These values are maintained in the &quot;BulkObservable&#45;type&quot; IANA registry per Section 10.2.">
<polygon fill="none" stroke="#000000" points="8,-24.5 8,-45.5 230,-45.5 230,-24.5 8,-24.5"/>
<text text-anchor="start" x="62.5" y="-31.3" font-family="Nimbus Sans L" font-size="14.00" fill="#000000">[ENUM] type (0..1)</text>
</a>
</g>
<g id="a_node1_4"><a xlink:href="/html/IODEFv2/BulkObservable.html" xlink:title="A means by which to extend the type attribute. See Section 5.1.1.">
<polygon fill="none" stroke="#000000" points="8,-3.5 8,-24.5 230,-24.5 230,-3.5 8,-3.5"/>
<text text-anchor="start" x="46.5" y="-10.3" font-family="Nimbus Sans L" font-size="14.00" fill="#000000">[STRING] ext&#45;type (0..1)</text>
</a>
</g>
</g>
<!-- BulkObservableFormat -->
<g id="node2" class="node">
<title>BulkObservableFormat</title>
<g id="a_node2_5"><a xlink:href="/html/IODEFv2/BulkObservableFormat.html" xlink:title="The ObservableFormat class specifies metadata about the format of an observable enumerated in a sibling BulkObservableList class. ">
<polygon fill="#cecece" stroke="transparent" points="305.5,-56.5 305.5,-77.5 522.5,-77.5 522.5,-56.5 305.5,-56.5"/>
<polygon fill="none" stroke="#000000" points="305.5,-56.5 305.5,-77.5 522.5,-77.5 522.5,-56.5 305.5,-56.5"/>
<text text-anchor="start" x="343.5" y="-63.3" font-family="Nimbus Sans L" font-size="14.00" fill="#000000">BulkObservableFormat</text>
</a>
</g>
<g id="a_node2_6"><a xlink:href="/html/IODEFv2/BulkObservableFormat.html" xlink:title="Mechanism by which to extend the data model.">
<polygon fill="none" stroke="#000000" points="305.5,-35.5 305.5,-56.5 522.5,-56.5 522.5,-35.5 305.5,-35.5"/>
<text text-anchor="start" x="308.5" y="-42.3" font-family="Nimbus Sans L" font-size="14.00" fill="#000000">[EXTENSION] AdditionalData (0..*)</text>
</a>
</g>
</g>
<!-- BulkObservable&#45;&gt;BulkObservableFormat -->
<g id="edge2" class="edge">
<title>BulkObservable&#45;&gt;BulkObservableFormat</title>
<path fill="none" stroke="#000000" d="M238.3599,-56.5C254.1858,-56.5 270.4579,-56.5 286.4083,-56.5"/>
<polygon fill="#000000" stroke="#000000" points="286.8357,-60.0001 296.8357,-56.5 286.8356,-53.0001 286.8357,-60.0001"/>
<text text-anchor="middle" x="267.5" y="-60.3" font-family="Times,serif" font-size="14.00" fill="#000000">0..1</text>
</g>
<!-- Hash -->
<g id="node3" class="node">
<title>Hash</title>
<g id="a_node3_7"><a xlink:href="/html/IODEFv2/Hash.html" xlink:title="The Hash class describes a cryptographic hash value; the algorithm and application used to generate it; and the canonicalization method applied to the object being hashed. ">
<polygon fill="#cecece" stroke="transparent" points="597,-66.5 597,-87.5 793,-87.5 793,-66.5 597,-66.5"/>
<polygon fill="none" stroke="#000000" points="597,-66.5 597,-87.5 793,-87.5 793,-66.5 597,-66.5"/>
<text text-anchor="start" x="679" y="-73.3" font-family="Nimbus Sans L" font-size="14.00" fill="#000000">Hash</text>
</a>
</g>
<g id="a_node3_8"><a xlink:href="/html/IODEFv2/Hash.html" xlink:title="The canonicalization method used on the object being hashed. &#160;See Section 4.3.1 of [W3C.XMLSIG].">
<polygon fill="none" stroke="#000000" points="597,-45.5 597,-66.5 793,-66.5 793,-45.5 597,-45.5"/>
<text text-anchor="start" x="671.5" y="-52.3" font-family="Nimbus Sans L" font-size="14.00" fill="#000000">[] &#160;(0..1)</text>
</a>
</g>
<g id="a_node3_9"><a xlink:href="/html/IODEFv2/Hash.html" xlink:title="The application used to calculate the hash.">
<polygon fill="none" stroke="#000000" points="597,-24.5 597,-45.5 793,-45.5 793,-24.5 597,-24.5"/>
<text text-anchor="start" x="600" y="-31.3" font-family="Nimbus Sans L" font-size="14.00" fill="#000000">[SOFTWARE] Application (0..1)</text>
</a>
</g>
</g>
<!-- BulkObservableFormat&#45;&gt;Hash -->
<g id="edge1" class="edge">
<title>BulkObservableFormat&#45;&gt;Hash</title>
<path fill="none" stroke="#000000" d="M530.0288,-56.5C546.0347,-56.5 562.4713,-56.5 578.477,-56.5"/>
<polygon fill="#000000" stroke="#000000" points="578.924,-60.0001 588.924,-56.5 578.924,-53.0001 578.924,-60.0001"/>
<text text-anchor="middle" x="559.5" y="-60.3" font-family="Times,serif" font-size="14.00" fill="#000000">0..1</text>
</g>
</g>
</svg>
