<?xml version="1.0" encoding="UTF-8" standalone="no"?>
<!DOCTYPE svg PUBLIC "-//W3C//DTD SVG 1.1//EN"
 "http://www.w3.org/Graphics/SVG/1.1/DTD/svg11.dtd">
<!-- Generated by graphviz version 2.40.1 (0)
 -->
<!-- Title: Campaign Pages: 1 -->
<svg width="241pt" height="163pt"
 viewBox="0.00 0.00 241.00 163.00" xmlns="http://www.w3.org/2000/svg" xmlns:xlink="http://www.w3.org/1999/xlink">
<g id="graph0" class="graph" transform="scale(1 1) rotate(0) translate(4 159)">
<title>Campaign</title>
<polygon fill="#ffffff" stroke="transparent" points="-4,4 -4,-159 237,-159 237,4 -4,4"/>
<!-- Campaign -->
<g id="node1" class="node">
<title>Campaign</title>
<g id="a_node1_0"><a xlink:href="/html/IODEFv2/Campaign.html" xlink:title="The Campaign class describes a campaign of attacks by a threat actor. ">
<polygon fill="#cecece" stroke="transparent" points="8.5,-129.5 8.5,-150.5 225.5,-150.5 225.5,-129.5 8.5,-129.5"/>
<polygon fill="none" stroke="#000000" points="8.5,-129.5 8.5,-150.5 225.5,-150.5 225.5,-129.5 8.5,-129.5"/>
<text text-anchor="start" x="85.5" y="-136.3" font-family="Nimbus Sans L" font-size="14.00" fill="#000000">Campaign</text>
</a>
</g>
<g id="a_node1_1"><a xlink:href="/html/IODEFv2/Campaign.html" xlink:title="An identifier for the campaign.">
<polygon fill="none" stroke="#000000" points="8.5,-108.5 8.5,-129.5 225.5,-129.5 225.5,-108.5 8.5,-108.5"/>
<text text-anchor="start" x="31.5" y="-115.3" font-family="Nimbus Sans L" font-size="14.00" fill="#000000">[STRING] CampaignID (0..*)</text>
</a>
</g>
<g id="a_node1_2"><a xlink:href="/html/IODEFv2/Campaign.html" xlink:title="A URL to a reference describing the campaign.">
<polygon fill="none" stroke="#000000" points="8.5,-87.5 8.5,-108.5 225.5,-108.5 225.5,-87.5 8.5,-87.5"/>
<text text-anchor="start" x="68.5" y="-94.3" font-family="Nimbus Sans L" font-size="14.00" fill="#000000">[URL] URL (0..*)</text>
</a>
</g>
<g id="a_node1_3"><a xlink:href="/html/IODEFv2/Campaign.html" xlink:title="A description of the campaign.">
<polygon fill="none" stroke="#000000" points="8.5,-66.5 8.5,-87.5 225.5,-87.5 225.5,-66.5 8.5,-66.5"/>
<text text-anchor="start" x="22" y="-73.3" font-family="Nimbus Sans L" font-size="14.00" fill="#000000">[ML_STRING] Description (0..*)</text>
</a>
</g>
<g id="a_node1_4"><a xlink:href="/html/IODEFv2/Campaign.html" xlink:title="A mechanism by which to extend the data model.">
<polygon fill="none" stroke="#000000" points="8.5,-45.5 8.5,-66.5 225.5,-66.5 225.5,-45.5 8.5,-45.5"/>
<text text-anchor="start" x="11.5" y="-52.3" font-family="Nimbus Sans L" font-size="14.00" fill="#000000">[EXTENSION] AdditionalData (0..*)</text>
</a>
</g>
<g id="a_node1_5"><a xlink:href="/html/IODEFv2/Campaign.html" xlink:title="See Section 3.3.1.">
<polygon fill="none" stroke="#000000" points="8.5,-24.5 8.5,-45.5 225.5,-45.5 225.5,-24.5 8.5,-24.5"/>
<text text-anchor="start" x="44" y="-31.3" font-family="Nimbus Sans L" font-size="14.00" fill="#000000">[ENUM] restriction (0..1)</text>
</a>
</g>
<g id="a_node1_6"><a xlink:href="/html/IODEFv2/Campaign.html" xlink:title="A means by which to extend the restriction attribute. &#160;See Section 5.1.1.">
<polygon fill="none" stroke="#000000" points="8.5,-3.5 8.5,-24.5 225.5,-24.5 225.5,-3.5 8.5,-3.5"/>
<text text-anchor="start" x="28" y="-10.3" font-family="Nimbus Sans L" font-size="14.00" fill="#000000">[STRING] ext&#45;restriction (0..1)</text>
</a>
</g>
</g>
</g>
</svg>
