<?xml version="1.0" encoding="UTF-8" standalone="no"?>
<!DOCTYPE svg PUBLIC "-//W3C//DTD SVG 1.1//EN"
 "http://www.w3.org/Graphics/SVG/1.1/DTD/svg11.dtd">
<!-- Generated by graphviz version 2.40.1 (0)
 -->
<!-- Title: DetectionPattern Pages: 1 -->
<svg width="262pt" height="163pt"
 viewBox="0.00 0.00 262.00 163.00" xmlns="http://www.w3.org/2000/svg" xmlns:xlink="http://www.w3.org/1999/xlink">
<g id="graph0" class="graph" transform="scale(1 1) rotate(0) translate(4 159)">
<title>DetectionPattern</title>
<polygon fill="#ffffff" stroke="transparent" points="-4,4 -4,-159 258,-159 258,4 -4,4"/>
<!-- DetectionPattern -->
<g id="node1" class="node">
<title>DetectionPattern</title>
<g id="a_node1_0"><a xlink:href="/idmef_parser/IODEFv2/DetectionPattern.html" xlink:title="The DetectionPattern class describes a configuration or signature that can be used by an Intrusion Detection System (IDS) / Intrusion Prevention System (IPS), SIEM, antivirus, endpoint protection, network analysis, malware analysis, or host forensics tool to identify a particular phenomenon. This class requires the identification of the target application and allows the configuration to be described in either free form or machine&#45;readable form. ">
<polygon fill="#cecece" stroke="transparent" points="8,-129.5 8,-150.5 246,-150.5 246,-129.5 8,-129.5"/>
<polygon fill="none" stroke="#000000" points="8,-129.5 8,-150.5 246,-150.5 246,-129.5 8,-129.5"/>
<text text-anchor="start" x="77" y="-136.3" font-family="Nimbus Sans L" font-size="14.00" fill="#000000">DetectionPattern</text>
</a>
</g>
<g id="a_node1_1"><a xlink:href="/idmef_parser/IODEFv2/DetectionPattern.html" xlink:title="The application for which the DetectionConfiguration or Description is being provided.">
<polygon fill="none" stroke="#000000" points="8,-108.5 8,-129.5 246,-129.5 246,-108.5 8,-108.5"/>
<text text-anchor="start" x="32" y="-115.3" font-family="Nimbus Sans L" font-size="14.00" fill="#000000">[SOFTWARE] Application (1..1)</text>
</a>
</g>
<g id="a_node1_2"><a xlink:href="/idmef_parser/IODEFv2/DetectionPattern.html" xlink:title="A free&#45;form text description of how to use the information provided in the Application or DetectionConfiguration classes.">
<polygon fill="none" stroke="#000000" points="8,-87.5 8,-108.5 246,-108.5 246,-87.5 8,-87.5"/>
<text text-anchor="start" x="32" y="-94.3" font-family="Nimbus Sans L" font-size="14.00" fill="#000000">[ML_STRING] Description (0..*)</text>
</a>
</g>
<g id="a_node1_3"><a xlink:href="/idmef_parser/IODEFv2/DetectionPattern.html" xlink:title="A machine&#45;consumable configuration to find a pattern of activity.">
<polygon fill="none" stroke="#000000" points="8,-66.5 8,-87.5 246,-87.5 246,-66.5 8,-66.5"/>
<text text-anchor="start" x="11" y="-73.3" font-family="Nimbus Sans L" font-size="14.00" fill="#000000">[STRING] DetectionConfiguration (0..*)</text>
</a>
</g>
<g id="a_node1_4"><a xlink:href="/idmef_parser/IODEFv2/DetectionPattern.html" xlink:title="See Section 3.3.1.">
<polygon fill="none" stroke="#000000" points="8,-45.5 8,-66.5 246,-66.5 246,-45.5 8,-45.5"/>
<text text-anchor="start" x="54" y="-52.3" font-family="Nimbus Sans L" font-size="14.00" fill="#000000">[ENUM] restriction (0..1)</text>
</a>
</g>
<g id="a_node1_5"><a xlink:href="/idmef_parser/IODEFv2/DetectionPattern.html" xlink:title="A means by which to extend the restriction attribute. &#160;See Section 5.1.1.">
<polygon fill="none" stroke="#000000" points="8,-24.5 8,-45.5 246,-45.5 246,-24.5 8,-24.5"/>
<text text-anchor="start" x="38" y="-31.3" font-family="Nimbus Sans L" font-size="14.00" fill="#000000">[STRING] ext&#45;restriction (0..1)</text>
</a>
</g>
<g id="a_node1_6"><a xlink:href="/idmef_parser/IODEFv2/DetectionPattern.html" xlink:title="See Section 3.3.2.">
<polygon fill="none" stroke="#000000" points="8,-3.5 8,-24.5 246,-24.5 246,-3.5 8,-3.5"/>
<text text-anchor="start" x="56" y="-10.3" font-family="Nimbus Sans L" font-size="14.00" fill="#000000">[ID] observable&#45;id (0..1)</text>
</a>
</g>
</g>
</g>
</svg>
