<?xml version="1.0" encoding="UTF-8" standalone="no"?>
<!DOCTYPE svg PUBLIC "-//W3C//DTD SVG 1.1//EN"
 "http://www.w3.org/Graphics/SVG/1.1/DTD/svg11.dtd">
<!-- Generated by graphviz version 2.40.1 (0)
 -->
<!-- Title: DomainContacts Pages: 1 -->
<svg width="837pt" height="438pt"
 viewBox="0.00 0.00 837.00 437.50" xmlns="http://www.w3.org/2000/svg" xmlns:xlink="http://www.w3.org/1999/xlink">
<g id="graph0" class="graph" transform="scale(1 1) rotate(0) translate(4 433.5)">
<title>DomainContacts</title>
<polygon fill="#ffffff" stroke="transparent" points="-4,4 -4,-433.5 833,-433.5 833,4 -4,4"/>
<!-- DomainContacts -->
<g id="node1" class="node">
<title>DomainContacts</title>
<g id="a_node1_0"><a xlink:href="/html/IODEFv2/DomainContacts.html" xlink:title="The DomainContacts class describes the contact information for a given domain provided either by the registrar or through a whois query. ">
<polygon fill="#cecece" stroke="transparent" points="8,-252.5 8,-273.5 242,-273.5 242,-252.5 8,-252.5"/>
<polygon fill="none" stroke="#000000" points="8,-252.5 8,-273.5 242,-273.5 242,-252.5 8,-252.5"/>
<text text-anchor="start" x="74.5" y="-259.3" font-family="Nimbus Sans L" font-size="14.00" fill="#000000">DomainContacts</text>
</a>
</g>
<g id="a_node1_1"><a xlink:href="/html/IODEFv2/DomainContacts.html" xlink:title="A domain name already cited in this document or through previous exchange that contains the identical contact information as the domain name in question. &#160;The domain contact information associated with this domain should be used instead of an explicit definition with the Contact class.">
<polygon fill="none" stroke="#000000" points="8,-231.5 8,-252.5 242,-252.5 242,-231.5 8,-231.5"/>
<text text-anchor="start" x="11" y="-238.3" font-family="Nimbus Sans L" font-size="14.00" fill="#000000">[STRING] SameDomainContact (0..1)</text>
</a>
</g>
</g>
<!-- Contact -->
<g id="node2" class="node">
<title>Contact</title>
<g id="a_node2_2"><a xlink:href="/html/IODEFv2/Contact.html" xlink:title="The Contact class describes contact information for organizations and personnel involved in the incident. This class allows for the naming of the involved party, specifying contact information for them, and identifying their role in the incident. ">
<polygon fill="#cecece" stroke="transparent" points="317.5,-336.5 317.5,-357.5 534.5,-357.5 534.5,-336.5 317.5,-336.5"/>
<polygon fill="none" stroke="#000000" points="317.5,-336.5 317.5,-357.5 534.5,-357.5 534.5,-336.5 317.5,-336.5"/>
<text text-anchor="start" x="402.5" y="-343.3" font-family="Nimbus Sans L" font-size="14.00" fill="#000000">Contact</text>
</a>
</g>
<g id="a_node2_3"><a xlink:href="/html/IODEFv2/Contact.html" xlink:title="The name of the contact. &#160;The contact may either be an organization or a person. &#160;The type attribute disambiguates the semantics.">
<polygon fill="none" stroke="#000000" points="317.5,-315.5 317.5,-336.5 534.5,-336.5 534.5,-315.5 317.5,-315.5"/>
<text text-anchor="start" x="323.5" y="-322.3" font-family="Nimbus Sans L" font-size="14.00" fill="#000000">[ML_STRING] ContactName (0..*)</text>
</a>
</g>
<g id="a_node2_4"><a xlink:href="/html/IODEFv2/Contact.html" xlink:title="The title for the individual named in the ContactName.">
<polygon fill="none" stroke="#000000" points="317.5,-294.5 317.5,-315.5 534.5,-315.5 534.5,-294.5 317.5,-294.5"/>
<text text-anchor="start" x="329" y="-301.3" font-family="Nimbus Sans L" font-size="14.00" fill="#000000">[ML_STRING] ContactTitle (0..*)</text>
</a>
</g>
<g id="a_node2_5"><a xlink:href="/html/IODEFv2/Contact.html" xlink:title="A free&#45;form text description of the contact.">
<polygon fill="none" stroke="#000000" points="317.5,-273.5 317.5,-294.5 534.5,-294.5 534.5,-273.5 317.5,-273.5"/>
<text text-anchor="start" x="331" y="-280.3" font-family="Nimbus Sans L" font-size="14.00" fill="#000000">[ML_STRING] Description (0..*)</text>
</a>
</g>
<g id="a_node2_6"><a xlink:href="/html/IODEFv2/Contact.html" xlink:title="The timezone in which the contact resides.">
<polygon fill="none" stroke="#000000" points="317.5,-252.5 317.5,-273.5 534.5,-273.5 534.5,-252.5 317.5,-252.5"/>
<text text-anchor="start" x="337" y="-259.3" font-family="Nimbus Sans L" font-size="14.00" fill="#000000">[TIMEZONE] Timezone (0..1)</text>
</a>
</g>
<g id="a_node2_7"><a xlink:href="/html/IODEFv2/Contact.html" xlink:title="A mechanism by which to extend the data model.">
<polygon fill="none" stroke="#000000" points="317.5,-231.5 317.5,-252.5 534.5,-252.5 534.5,-231.5 317.5,-231.5"/>
<text text-anchor="start" x="320.5" y="-238.3" font-family="Nimbus Sans L" font-size="14.00" fill="#000000">[EXTENSION] AdditionalData (0..*)</text>
</a>
</g>
<g id="a_node2_8"><a xlink:href="/html/IODEFv2/Contact.html" xlink:title="A means by which to extend the role attribute. See Section 5.1.1.">
<polygon fill="none" stroke="#000000" points="317.5,-210.5 317.5,-231.5 534.5,-231.5 534.5,-210.5 317.5,-210.5"/>
<text text-anchor="start" x="365.5" y="-217.3" font-family="Nimbus Sans L" font-size="14.00" fill="#000000">[STRING] role (0..1)</text>
</a>
</g>
<g id="a_node2_9"><a xlink:href="/html/IODEFv2/Contact.html" xlink:title="A means by which to extend the type attribute. See Section 5.1.1.">
<polygon fill="none" stroke="#000000" points="317.5,-189.5 317.5,-210.5 534.5,-210.5 534.5,-189.5 317.5,-189.5"/>
<text text-anchor="start" x="364" y="-196.3" font-family="Nimbus Sans L" font-size="14.00" fill="#000000">[STRING] type (0..1)</text>
</a>
</g>
<g id="a_node2_10"><a xlink:href="/html/IODEFv2/Contact.html" xlink:title="See Section 3.3.1.">
<polygon fill="none" stroke="#000000" points="317.5,-168.5 317.5,-189.5 534.5,-189.5 534.5,-168.5 317.5,-168.5"/>
<text text-anchor="start" x="353" y="-175.3" font-family="Nimbus Sans L" font-size="14.00" fill="#000000">[ENUM] restriction (0..1)</text>
</a>
</g>
<g id="a_node2_11"><a xlink:href="/html/IODEFv2/Contact.html" xlink:title="A means by which to extend the restriction attribute. &#160;See Section 5.1.1.">
<polygon fill="none" stroke="#000000" points="317.5,-147.5 317.5,-168.5 534.5,-168.5 534.5,-147.5 317.5,-147.5"/>
<text text-anchor="start" x="337" y="-154.3" font-family="Nimbus Sans L" font-size="14.00" fill="#000000">[STRING] ext&#45;restriction (0..1)</text>
</a>
</g>
</g>
<!-- DomainContacts&#45;&gt;Contact -->
<g id="edge6" class="edge">
<title>DomainContacts&#45;&gt;Contact</title>
<path fill="none" stroke="#000000" d="M250.2631,-252.5C266.1157,-252.5 282.3501,-252.5 298.2336,-252.5"/>
<polygon fill="#000000" stroke="#000000" points="298.6131,-256.0001 308.6131,-252.5 298.6131,-249.0001 298.6131,-256.0001"/>
<text text-anchor="middle" x="279.5" y="-256.3" font-family="Times,serif" font-size="14.00" fill="#000000">1..*</text>
</g>
<!-- Contact&#45;&gt;Contact -->
<g id="edge5" class="edge">
<title>Contact&#45;&gt;Contact</title>
<path fill="none" stroke="#000000" d="M403.1793,-361.791C407.6516,-372.6154 415.0918,-379.5 425.5,-379.5 432.6556,-379.5 438.4085,-376.246 442.7584,-370.6948"/>
<polygon fill="#000000" stroke="#000000" points="445.9207,-372.2141 447.8207,-361.791 439.8355,-368.7543 445.9207,-372.2141"/>
<text text-anchor="middle" x="425.5" y="-383.3" font-family="Times,serif" font-size="14.00" fill="#000000">0..*</text>
</g>
<!-- RegistryHandle -->
<g id="node3" class="node">
<title>RegistryHandle</title>
<g id="a_node3_12"><a xlink:href="/html/IODEFv2/RegistryHandle.html" xlink:title="The RegistryHandle class represents a handle into an Internet registry or community&#45;specific database. ">
<polygon fill="#cecece" stroke="transparent" points="666,-400.5 666,-421.5 765,-421.5 765,-400.5 666,-400.5"/>
<polygon fill="none" stroke="#000000" points="666,-400.5 666,-421.5 765,-421.5 765,-400.5 666,-400.5"/>
<text text-anchor="start" x="669" y="-407.3" font-family="Nimbus Sans L" font-size="14.00" fill="#000000">RegistryHandle</text>
</a>
</g>
</g>
<!-- Contact&#45;&gt;RegistryHandle -->
<g id="edge1" class="edge">
<title>Contact&#45;&gt;RegistryHandle</title>
<path fill="none" stroke="#000000" d="M542.131,-350.3868C561.0254,-363.1948 580.9815,-375.1072 601,-384.5 615.4248,-391.2682 631.6967,-396.4225 647.3344,-400.3168"/>
<polygon fill="#000000" stroke="#000000" points="646.9584,-403.8235 657.4933,-402.6983 648.5561,-397.0082 646.9584,-403.8235"/>
<text text-anchor="middle" x="571.5" y="-377.3" font-family="Times,serif" font-size="14.00" fill="#000000">0..*</text>
</g>
<!-- PostalAddress -->
<g id="node4" class="node">
<title>PostalAddress</title>
<g id="a_node4_13"><a xlink:href="/html/IODEFv2/PostalAddress.html" xlink:title="The PostalAddress class specifies a postal address and associated annotation. ">
<polygon fill="#cecece" stroke="transparent" points="617,-349.5 617,-370.5 813,-370.5 813,-349.5 617,-349.5"/>
<polygon fill="none" stroke="#000000" points="617,-349.5 617,-370.5 813,-370.5 813,-349.5 617,-349.5"/>
<text text-anchor="start" x="671" y="-356.3" font-family="Nimbus Sans L" font-size="14.00" fill="#000000">PostalAddress</text>
</a>
</g>
<g id="a_node4_14"><a xlink:href="/html/IODEFv2/PostalAddress.html" xlink:title="A postal address.">
<polygon fill="none" stroke="#000000" points="617,-328.5 617,-349.5 813,-349.5 813,-328.5 617,-328.5"/>
<text text-anchor="start" x="637" y="-335.3" font-family="Nimbus Sans L" font-size="14.00" fill="#000000">[POSTAL] PAddress (1..1)</text>
</a>
</g>
<g id="a_node4_15"><a xlink:href="/html/IODEFv2/PostalAddress.html" xlink:title="A free&#45;form text description of the address.">
<polygon fill="none" stroke="#000000" points="617,-307.5 617,-328.5 813,-328.5 813,-307.5 617,-307.5"/>
<text text-anchor="start" x="620" y="-314.3" font-family="Nimbus Sans L" font-size="14.00" fill="#000000">[ML_STRING] Description (0..*)</text>
</a>
</g>
<g id="a_node4_16"><a xlink:href="/html/IODEFv2/PostalAddress.html" xlink:title="Categorizes the type of address described in the PAddress class. &#160;These values are maintained in the &quot;PostalAddress&#45;type&quot; IANA registry per Section 10.2.">
<polygon fill="none" stroke="#000000" points="617,-286.5 617,-307.5 813,-307.5 813,-286.5 617,-286.5"/>
<text text-anchor="start" x="658.5" y="-293.3" font-family="Nimbus Sans L" font-size="14.00" fill="#000000">[ENUM] type (0..1)</text>
</a>
</g>
<g id="a_node4_17"><a xlink:href="/html/IODEFv2/PostalAddress.html" xlink:title="A means by which to extend the type attribute. See Section 5.1.1.">
<polygon fill="none" stroke="#000000" points="617,-265.5 617,-286.5 813,-286.5 813,-265.5 617,-265.5"/>
<text text-anchor="start" x="642.5" y="-272.3" font-family="Nimbus Sans L" font-size="14.00" fill="#000000">[STRING] ext&#45;type (0..1)</text>
</a>
</g>
</g>
<!-- Contact&#45;&gt;PostalAddress -->
<g id="edge2" class="edge">
<title>Contact&#45;&gt;PostalAddress</title>
<path fill="none" stroke="#000000" d="M542.4163,-279.1545C561.0391,-283.4001 580.3008,-287.7914 598.9046,-292.0327"/>
<polygon fill="#000000" stroke="#000000" points="598.3362,-295.4928 608.864,-294.3032 599.8921,-288.6679 598.3362,-295.4928"/>
<text text-anchor="middle" x="571.5" y="-290.3" font-family="Times,serif" font-size="14.00" fill="#000000">0..*</text>
</g>
<!-- Email -->
<g id="node5" class="node">
<title>Email</title>
<g id="a_node5_18"><a xlink:href="/html/IODEFv2/Email.html" xlink:title="The Email class specifies an email address and associated annotation. ">
<polygon fill="#cecece" stroke="transparent" points="617,-218.5 617,-239.5 813,-239.5 813,-218.5 617,-218.5"/>
<polygon fill="none" stroke="#000000" points="617,-218.5 617,-239.5 813,-239.5 813,-218.5 617,-218.5"/>
<text text-anchor="start" x="697.5" y="-225.3" font-family="Nimbus Sans L" font-size="14.00" fill="#000000">Email</text>
</a>
</g>
<g id="a_node5_19"><a xlink:href="/html/IODEFv2/Email.html" xlink:title="An email address.">
<polygon fill="none" stroke="#000000" points="617,-197.5 617,-218.5 813,-218.5 813,-197.5 617,-197.5"/>
<text text-anchor="start" x="647" y="-204.3" font-family="Nimbus Sans L" font-size="14.00" fill="#000000">[EMAIL] EmailTo (1..1)</text>
</a>
</g>
<g id="a_node5_20"><a xlink:href="/html/IODEFv2/Email.html" xlink:title="A free&#45;form text description of the email address.">
<polygon fill="none" stroke="#000000" points="617,-176.5 617,-197.5 813,-197.5 813,-176.5 617,-176.5"/>
<text text-anchor="start" x="620" y="-183.3" font-family="Nimbus Sans L" font-size="14.00" fill="#000000">[ML_STRING] Description (0..*)</text>
</a>
</g>
<g id="a_node5_21"><a xlink:href="/html/IODEFv2/Email.html" xlink:title="Categorizes the type of email address described in the EmailTo class. &#160;These values are maintained in the &quot;Email&#45; type&quot; IANA registry per Section 10.2.">
<polygon fill="none" stroke="#000000" points="617,-155.5 617,-176.5 813,-176.5 813,-155.5 617,-155.5"/>
<text text-anchor="start" x="658.5" y="-162.3" font-family="Nimbus Sans L" font-size="14.00" fill="#000000">[ENUM] type (0..1)</text>
</a>
</g>
<g id="a_node5_22"><a xlink:href="/html/IODEFv2/Email.html" xlink:title="A means by which to extend the type attribute. See Section 5.1.1.">
<polygon fill="none" stroke="#000000" points="617,-134.5 617,-155.5 813,-155.5 813,-134.5 617,-134.5"/>
<text text-anchor="start" x="642.5" y="-141.3" font-family="Nimbus Sans L" font-size="14.00" fill="#000000">[STRING] ext&#45;type (0..1)</text>
</a>
</g>
</g>
<!-- Contact&#45;&gt;Email -->
<g id="edge3" class="edge">
<title>Contact&#45;&gt;Email</title>
<path fill="none" stroke="#000000" d="M542.4163,-226.2494C561.0391,-222.0681 580.3008,-217.7433 598.9046,-213.5663"/>
<polygon fill="#000000" stroke="#000000" points="599.8737,-216.936 608.864,-211.3302 598.3401,-210.106 599.8737,-216.936"/>
<text text-anchor="middle" x="571.5" y="-225.3" font-family="Times,serif" font-size="14.00" fill="#000000">0..*</text>
</g>
<!-- Telephone -->
<g id="node6" class="node">
<title>Telephone</title>
<g id="a_node6_23"><a xlink:href="/html/IODEFv2/Telephone.html" xlink:title="The Telephone class describes a telephone number and associated annotation. ">
<polygon fill="#cecece" stroke="transparent" points="609,-87.5 609,-108.5 821,-108.5 821,-87.5 609,-87.5"/>
<polygon fill="none" stroke="#000000" points="609,-87.5 609,-108.5 821,-108.5 821,-87.5 609,-87.5"/>
<text text-anchor="start" x="683.5" y="-94.3" font-family="Nimbus Sans L" font-size="14.00" fill="#000000">Telephone</text>
</a>
</g>
<g id="a_node6_24"><a xlink:href="/html/IODEFv2/Telephone.html" xlink:title="A telephone number.">
<polygon fill="none" stroke="#000000" points="609,-66.5 609,-87.5 821,-87.5 821,-66.5 609,-66.5"/>
<text text-anchor="start" x="612" y="-73.3" font-family="Nimbus Sans L" font-size="14.00" fill="#000000">[PHONE] TelephoneNumber (1..1)</text>
</a>
</g>
<g id="a_node6_25"><a xlink:href="/html/IODEFv2/Telephone.html" xlink:title="A free&#45;form text description of the phone number.">
<polygon fill="none" stroke="#000000" points="609,-45.5 609,-66.5 821,-66.5 821,-45.5 609,-45.5"/>
<text text-anchor="start" x="620" y="-52.3" font-family="Nimbus Sans L" font-size="14.00" fill="#000000">[ML_STRING] Description (0..*)</text>
</a>
</g>
<g id="a_node6_26"><a xlink:href="/html/IODEFv2/Telephone.html" xlink:title="Categorizes the type of telephone number described in the TelephoneNumber class. &#160;These values are maintained in the &quot;Telephone&#45;type&quot; IANA registry per Section 10.2.">
<polygon fill="none" stroke="#000000" points="609,-24.5 609,-45.5 821,-45.5 821,-24.5 609,-24.5"/>
<text text-anchor="start" x="658.5" y="-31.3" font-family="Nimbus Sans L" font-size="14.00" fill="#000000">[ENUM] type (0..1)</text>
</a>
</g>
<g id="a_node6_27"><a xlink:href="/html/IODEFv2/Telephone.html" xlink:title="A means by which to extend the type attribute. See Section 5.1.1.">
<polygon fill="none" stroke="#000000" points="609,-3.5 609,-24.5 821,-24.5 821,-3.5 609,-3.5"/>
<text text-anchor="start" x="642.5" y="-10.3" font-family="Nimbus Sans L" font-size="14.00" fill="#000000">[STRING] ext&#45;type (0..1)</text>
</a>
</g>
</g>
<!-- Contact&#45;&gt;Telephone -->
<g id="edge4" class="edge">
<title>Contact&#45;&gt;Telephone</title>
<path fill="none" stroke="#000000" d="M542.2047,-163.229C561.5841,-149.2261 581.6678,-135.1982 601,-122.5 602.9413,-121.2248 604.908,-119.947 606.8951,-118.6687"/>
<polygon fill="#000000" stroke="#000000" points="609.1537,-121.3807 615.7219,-113.0675 605.4031,-115.4702 609.1537,-121.3807"/>
<text text-anchor="middle" x="571.5" y="-152.3" font-family="Times,serif" font-size="14.00" fill="#000000">0..*</text>
</g>
</g>
</svg>
