<?xml version="1.0" encoding="UTF-8" standalone="no"?>
<!DOCTYPE svg PUBLIC "-//W3C//DTD SVG 1.1//EN"
 "http://www.w3.org/Graphics/SVG/1.1/DTD/svg11.dtd">
<!-- Generated by graphviz version 2.40.1 (0)
 -->
<!-- Title: File Pages: 1 -->
<svg width="840pt" height="242pt"
 viewBox="0.00 0.00 840.00 241.50" xmlns="http://www.w3.org/2000/svg" xmlns:xlink="http://www.w3.org/1999/xlink">
<g id="graph0" class="graph" transform="scale(1 1) rotate(0) translate(4 237.5)">
<title>File</title>
<polygon fill="#ffffff" stroke="transparent" points="-4,4 -4,-237.5 836,-237.5 836,4 -4,4"/>
<!-- File -->
<g id="node1" class="node">
<title>File</title>
<g id="a_node1_0"><a xlink:href="/html/IODEFv2/File.html" xlink:title="The File class describes a file; its associated metadata; and cryptographic hashes and signatures applied to it. ">
<polygon fill="#cecece" stroke="transparent" points="8,-151 8,-172 258,-172 258,-151 8,-151"/>
<polygon fill="none" stroke="#000000" points="8,-151 8,-172 258,-172 258,-151 8,-151"/>
<text text-anchor="start" x="122" y="-157.8" font-family="Nimbus Sans L" font-size="14.00" fill="#000000">File</text>
</a>
</g>
<g id="a_node1_1"><a xlink:href="/html/IODEFv2/File.html" xlink:title="The name of the file.">
<polygon fill="none" stroke="#000000" points="8,-130 8,-151 258,-151 258,-130 8,-130"/>
<text text-anchor="start" x="54.5" y="-136.8" font-family="Nimbus Sans L" font-size="14.00" fill="#000000">[STRING] FileName (0..1)</text>
</a>
</g>
<g id="a_node1_2"><a xlink:href="/html/IODEFv2/File.html" xlink:title="The size of the file in bytes.">
<polygon fill="none" stroke="#000000" points="8,-109 8,-130 258,-130 258,-109 8,-109"/>
<text text-anchor="start" x="55" y="-115.8" font-family="Nimbus Sans L" font-size="14.00" fill="#000000">[INTEGER] FileSize (0..1)</text>
</a>
</g>
<g id="a_node1_3"><a xlink:href="/html/IODEFv2/File.html" xlink:title="The type of file per the IANA &quot;Media Types&quot; registry [IANA.Media]. &#160;Valid values correspond to the text in the &quot;Template&quot; column (e.g., &quot;application/pdf&quot;).">
<polygon fill="none" stroke="#000000" points="8,-88 8,-109 258,-109 258,-88 8,-88"/>
<text text-anchor="start" x="59" y="-94.8" font-family="Nimbus Sans L" font-size="14.00" fill="#000000">[STRING] FileType (0..1)</text>
</a>
</g>
<g id="a_node1_4"><a xlink:href="/html/IODEFv2/File.html" xlink:title="A URL reference to the file.">
<polygon fill="none" stroke="#000000" points="8,-67 8,-88 258,-88 258,-67 8,-67"/>
<text text-anchor="start" x="84.5" y="-73.8" font-family="Nimbus Sans L" font-size="14.00" fill="#000000">[URL] URL (0..*)</text>
</a>
</g>
<g id="a_node1_5"><a xlink:href="/html/IODEFv2/File.html" xlink:title="The software application or operating system to which this file belongs or by which it can be processed.">
<polygon fill="none" stroke="#000000" points="8,-46 8,-67 258,-67 258,-46 8,-46"/>
<text text-anchor="start" x="11" y="-52.8" font-family="Nimbus Sans L" font-size="14.00" fill="#000000">[SOFTWARE] AssociatedSoftware (0..1)</text>
</a>
</g>
<g id="a_node1_6"><a xlink:href="/html/IODEFv2/File.html" xlink:title="Mechanism by which to extend the data model to describe properties of the file.">
<polygon fill="none" stroke="#000000" points="8,-25 8,-46 258,-46 258,-25 8,-25"/>
<text text-anchor="start" x="29.5" y="-31.8" font-family="Nimbus Sans L" font-size="14.00" fill="#000000">[EXTENSION] FileProperties (0..*)</text>
</a>
</g>
<g id="a_node1_7"><a xlink:href="/html/IODEFv2/File.html" xlink:title="See Section 3.3.2.">
<polygon fill="none" stroke="#000000" points="8,-4 8,-25 258,-25 258,-4 8,-4"/>
<text text-anchor="start" x="62" y="-10.8" font-family="Nimbus Sans L" font-size="14.00" fill="#000000">[ID] observable&#45;id (0..1)</text>
</a>
</g>
</g>
<!-- HashData -->
<g id="node2" class="node">
<title>HashData</title>
<g id="a_node2_8"><a xlink:href="/html/IODEFv2/HashData.html" xlink:title="The HashData class describes different types of hashes on a given object (e.g., file, part of a file, email). ">
<polygon fill="#cecece" stroke="transparent" points="333.5,-158 333.5,-179 520.5,-179 520.5,-158 333.5,-158"/>
<polygon fill="none" stroke="#000000" points="333.5,-158 333.5,-179 520.5,-179 520.5,-158 333.5,-158"/>
<text text-anchor="start" x="396.5" y="-164.8" font-family="Nimbus Sans L" font-size="14.00" fill="#000000">HashData</text>
</a>
</g>
<g id="a_node2_9"><a xlink:href="/html/IODEFv2/HashData.html" xlink:title="An identifier that references a subset of the object being hashed. &#160;The semantics of this identifier are specified by the scope attribute.">
<polygon fill="none" stroke="#000000" points="333.5,-137 333.5,-158 520.5,-158 520.5,-137 333.5,-137"/>
<text text-anchor="start" x="336.5" y="-143.8" font-family="Nimbus Sans L" font-size="14.00" fill="#000000">[STRING] HashTargetID (0..1)</text>
</a>
</g>
<g id="a_node2_10"><a xlink:href="/html/IODEFv2/HashData.html" xlink:title="A means by which to extend the scope attribute. &#160;See Section 5.1.1.">
<polygon fill="none" stroke="#000000" points="333.5,-116 333.5,-137 520.5,-137 520.5,-116 333.5,-116"/>
<text text-anchor="start" x="360" y="-122.8" font-family="Nimbus Sans L" font-size="14.00" fill="#000000">[STRING] scope (0..1)</text>
</a>
</g>
</g>
<!-- File&#45;&gt;HashData -->
<g id="edge3" class="edge">
<title>File&#45;&gt;HashData</title>
<path fill="none" stroke="#000000" d="M266.0101,-115.1912C282.3386,-118.5292 298.896,-121.914 314.8641,-125.1784"/>
<polygon fill="#000000" stroke="#000000" points="314.2247,-128.6199 324.7231,-127.1938 315.6267,-121.7618 314.2247,-128.6199"/>
<text text-anchor="middle" x="295.5" y="-126.8" font-family="Times,serif" font-size="14.00" fill="#000000">0..1</text>
</g>
<!-- SignatureData -->
<g id="node5" class="node">
<title>SignatureData</title>
<g id="a_node5_11"><a xlink:href="/html/IODEFv2/SignatureData.html" xlink:title="The SignatureData class describes different types of digital signatures on an object. ">
<polygon fill="#cecece" stroke="transparent" points="372.5,-69 372.5,-90 480.5,-90 480.5,-69 372.5,-69"/>
<polygon fill="none" stroke="#000000" points="372.5,-69 372.5,-90 480.5,-90 480.5,-69 372.5,-69"/>
<text text-anchor="start" x="383" y="-75.8" font-family="Nimbus Sans L" font-size="14.00" fill="#000000">SignatureData</text>
</a>
</g>
<g id="a_node5_12"><a xlink:href="/html/IODEFv2/SignatureData.html" xlink:title="A given signature. &#160;See Section 4.2 of [W3C.XMLSIG].">
<polygon fill="none" stroke="#000000" points="372.5,-48 372.5,-69 480.5,-69 480.5,-48 372.5,-48"/>
<text text-anchor="start" x="375.5" y="-54.8" font-family="Nimbus Sans L" font-size="14.00" fill="#000000">[] Signature (1..*)</text>
</a>
</g>
</g>
<!-- File&#45;&gt;SignatureData -->
<g id="edge4" class="edge">
<title>File&#45;&gt;SignatureData</title>
<path fill="none" stroke="#000000" d="M266.0101,-79.3895C296.4051,-77.4218 327.5931,-75.4028 354.2971,-73.6741"/>
<polygon fill="#000000" stroke="#000000" points="354.5481,-77.1653 364.3011,-73.0265 354.0958,-70.1799 354.5481,-77.1653"/>
<text text-anchor="middle" x="295.5" y="-81.8" font-family="Times,serif" font-size="14.00" fill="#000000">0..1</text>
</g>
<!-- Hash -->
<g id="node3" class="node">
<title>Hash</title>
<g id="a_node3_13"><a xlink:href="/html/IODEFv2/Hash.html" xlink:title="The Hash class describes a cryptographic hash value; the algorithm and application used to generate it; and the canonicalization method applied to the object being hashed. ">
<polygon fill="#cecece" stroke="transparent" points="611.5,-208 611.5,-229 807.5,-229 807.5,-208 611.5,-208"/>
<polygon fill="none" stroke="#000000" points="611.5,-208 611.5,-229 807.5,-229 807.5,-208 611.5,-208"/>
<text text-anchor="start" x="693.5" y="-214.8" font-family="Nimbus Sans L" font-size="14.00" fill="#000000">Hash</text>
</a>
</g>
<g id="a_node3_14"><a xlink:href="/html/IODEFv2/Hash.html" xlink:title="The canonicalization method used on the object being hashed. &#160;See Section 4.3.1 of [W3C.XMLSIG].">
<polygon fill="none" stroke="#000000" points="611.5,-187 611.5,-208 807.5,-208 807.5,-187 611.5,-187"/>
<text text-anchor="start" x="686" y="-193.8" font-family="Nimbus Sans L" font-size="14.00" fill="#000000">[] &#160;(0..1)</text>
</a>
</g>
<g id="a_node3_15"><a xlink:href="/html/IODEFv2/Hash.html" xlink:title="The application used to calculate the hash.">
<polygon fill="none" stroke="#000000" points="611.5,-166 611.5,-187 807.5,-187 807.5,-166 611.5,-166"/>
<text text-anchor="start" x="614.5" y="-172.8" font-family="Nimbus Sans L" font-size="14.00" fill="#000000">[SOFTWARE] Application (0..1)</text>
</a>
</g>
</g>
<!-- HashData&#45;&gt;Hash -->
<g id="edge1" class="edge">
<title>HashData&#45;&gt;Hash</title>
<path fill="none" stroke="#000000" d="M528.2697,-165.9805C549.432,-169.7194 571.8845,-173.6863 593.5143,-177.5078"/>
<polygon fill="#000000" stroke="#000000" points="592.9304,-180.9588 603.3869,-179.2521 594.1484,-174.0656 592.9304,-180.9588"/>
<text text-anchor="middle" x="557.5" y="-176.8" font-family="Times,serif" font-size="14.00" fill="#000000">0..*</text>
</g>
<!-- FuzzyHash -->
<g id="node4" class="node">
<title>FuzzyHash</title>
<g id="a_node4_16"><a xlink:href="/html/IODEFv2/FuzzyHash.html" xlink:title="The FuzzyHash class describes a fuzzy hash and the application used to generate it. ">
<polygon fill="#cecece" stroke="transparent" points="595.5,-119 595.5,-140 824.5,-140 824.5,-119 595.5,-119"/>
<polygon fill="none" stroke="#000000" points="595.5,-119 595.5,-140 824.5,-140 824.5,-119 595.5,-119"/>
<text text-anchor="start" x="676.5" y="-125.8" font-family="Nimbus Sans L" font-size="14.00" fill="#000000">FuzzyHash</text>
</a>
</g>
<g id="a_node4_17"><a xlink:href="/html/IODEFv2/FuzzyHash.html" xlink:title="The computed fuzzy hash value.">
<polygon fill="none" stroke="#000000" points="595.5,-98 595.5,-119 824.5,-119 824.5,-98 595.5,-98"/>
<text text-anchor="start" x="598.5" y="-104.8" font-family="Nimbus Sans L" font-size="14.00" fill="#000000">[EXTENSION] FuzzyHashValue (1..*)</text>
</a>
</g>
<g id="a_node4_18"><a xlink:href="/html/IODEFv2/FuzzyHash.html" xlink:title="The application used to calculate the hash.">
<polygon fill="none" stroke="#000000" points="595.5,-77 595.5,-98 824.5,-98 824.5,-77 595.5,-77"/>
<text text-anchor="start" x="615" y="-83.8" font-family="Nimbus Sans L" font-size="14.00" fill="#000000">[SOFTWARE] Application (0..1)</text>
</a>
</g>
<g id="a_node4_19"><a xlink:href="/html/IODEFv2/FuzzyHash.html" xlink:title="Mechanism by which to extend the data model.">
<polygon fill="none" stroke="#000000" points="595.5,-56 595.5,-77 824.5,-77 824.5,-56 595.5,-56"/>
<text text-anchor="start" x="604.5" y="-62.8" font-family="Nimbus Sans L" font-size="14.00" fill="#000000">[EXTENSION] AdditionalData (0..*)</text>
</a>
</g>
</g>
<!-- HashData&#45;&gt;FuzzyHash -->
<g id="edge2" class="edge">
<title>HashData&#45;&gt;FuzzyHash</title>
<path fill="none" stroke="#000000" d="M528.2697,-130.0195C544.017,-127.2373 560.4787,-124.3289 576.7842,-121.448"/>
<polygon fill="#000000" stroke="#000000" points="577.6703,-124.8458 586.9088,-119.6592 576.4523,-117.9525 577.6703,-124.8458"/>
<text text-anchor="middle" x="557.5" y="-128.8" font-family="Times,serif" font-size="14.00" fill="#000000">0..*</text>
</g>
</g>
</svg>
