<?xml version="1.0" encoding="UTF-8" standalone="no"?>
<!DOCTYPE svg PUBLIC "-//W3C//DTD SVG 1.1//EN"
 "http://www.w3.org/Graphics/SVG/1.1/DTD/svg11.dtd">
<!-- Generated by graphviz version 2.40.1 (0)
 -->
<!-- Title: HashData Pages: 1 -->
<svg width="515pt" height="190pt"
 viewBox="0.00 0.00 515.00 189.50" xmlns="http://www.w3.org/2000/svg" xmlns:xlink="http://www.w3.org/1999/xlink">
<g id="graph0" class="graph" transform="scale(1 1) rotate(0) translate(4 185.5)">
<title>HashData</title>
<polygon fill="#ffffff" stroke="transparent" points="-4,4 -4,-185.5 511,-185.5 511,4 -4,4"/>
<!-- HashData -->
<g id="node1" class="node">
<title>HashData</title>
<g id="a_node1_0"><a xlink:href="/idmef_parser/IODEFv2/HashData.html" xlink:title="The HashData class describes different types of hashes on a given object (e.g., file, part of a file, email). ">
<polygon fill="#cecece" stroke="transparent" points="8.5,-106 8.5,-127 195.5,-127 195.5,-106 8.5,-106"/>
<polygon fill="none" stroke="#000000" points="8.5,-106 8.5,-127 195.5,-127 195.5,-106 8.5,-106"/>
<text text-anchor="start" x="71.5" y="-112.8" font-family="Nimbus Sans L" font-size="14.00" fill="#000000">HashData</text>
</a>
</g>
<g id="a_node1_1"><a xlink:href="/idmef_parser/IODEFv2/HashData.html" xlink:title="An identifier that references a subset of the object being hashed. &#160;The semantics of this identifier are specified by the scope attribute.">
<polygon fill="none" stroke="#000000" points="8.5,-85 8.5,-106 195.5,-106 195.5,-85 8.5,-85"/>
<text text-anchor="start" x="11.5" y="-91.8" font-family="Nimbus Sans L" font-size="14.00" fill="#000000">[STRING] HashTargetID (0..1)</text>
</a>
</g>
<g id="a_node1_2"><a xlink:href="/idmef_parser/IODEFv2/HashData.html" xlink:title="A means by which to extend the scope attribute. &#160;See Section 5.1.1.">
<polygon fill="none" stroke="#000000" points="8.5,-64 8.5,-85 195.5,-85 195.5,-64 8.5,-64"/>
<text text-anchor="start" x="35" y="-70.8" font-family="Nimbus Sans L" font-size="14.00" fill="#000000">[STRING] scope (0..1)</text>
</a>
</g>
</g>
<!-- Hash -->
<g id="node2" class="node">
<title>Hash</title>
<g id="a_node2_3"><a xlink:href="/idmef_parser/IODEFv2/Hash.html" xlink:title="The Hash class describes a cryptographic hash value; the algorithm and application used to generate it; and the canonicalization method applied to the object being hashed. ">
<polygon fill="#cecece" stroke="transparent" points="286.5,-156 286.5,-177 482.5,-177 482.5,-156 286.5,-156"/>
<polygon fill="none" stroke="#000000" points="286.5,-156 286.5,-177 482.5,-177 482.5,-156 286.5,-156"/>
<text text-anchor="start" x="368.5" y="-162.8" font-family="Nimbus Sans L" font-size="14.00" fill="#000000">Hash</text>
</a>
</g>
<g id="a_node2_4"><a xlink:href="/idmef_parser/IODEFv2/Hash.html" xlink:title="The canonicalization method used on the object being hashed. &#160;See Section 4.3.1 of [W3C.XMLSIG].">
<polygon fill="none" stroke="#000000" points="286.5,-135 286.5,-156 482.5,-156 482.5,-135 286.5,-135"/>
<text text-anchor="start" x="361" y="-141.8" font-family="Nimbus Sans L" font-size="14.00" fill="#000000">[] &#160;(0..1)</text>
</a>
</g>
<g id="a_node2_5"><a xlink:href="/idmef_parser/IODEFv2/Hash.html" xlink:title="The application used to calculate the hash.">
<polygon fill="none" stroke="#000000" points="286.5,-114 286.5,-135 482.5,-135 482.5,-114 286.5,-114"/>
<text text-anchor="start" x="289.5" y="-120.8" font-family="Nimbus Sans L" font-size="14.00" fill="#000000">[SOFTWARE] Application (0..1)</text>
</a>
</g>
</g>
<!-- HashData&#45;&gt;Hash -->
<g id="edge1" class="edge">
<title>HashData&#45;&gt;Hash</title>
<path fill="none" stroke="#000000" d="M203.2697,-113.9805C224.432,-117.7194 246.8845,-121.6863 268.5143,-125.5078"/>
<polygon fill="#000000" stroke="#000000" points="267.9304,-128.9588 278.3869,-127.2521 269.1484,-122.0656 267.9304,-128.9588"/>
<text text-anchor="middle" x="232.5" y="-124.8" font-family="Times,serif" font-size="14.00" fill="#000000">0..*</text>
</g>
<!-- FuzzyHash -->
<g id="node3" class="node">
<title>FuzzyHash</title>
<g id="a_node3_6"><a xlink:href="/idmef_parser/IODEFv2/FuzzyHash.html" xlink:title="The FuzzyHash class describes a fuzzy hash and the application used to generate it. ">
<polygon fill="#cecece" stroke="transparent" points="270.5,-67 270.5,-88 499.5,-88 499.5,-67 270.5,-67"/>
<polygon fill="none" stroke="#000000" points="270.5,-67 270.5,-88 499.5,-88 499.5,-67 270.5,-67"/>
<text text-anchor="start" x="351.5" y="-73.8" font-family="Nimbus Sans L" font-size="14.00" fill="#000000">FuzzyHash</text>
</a>
</g>
<g id="a_node3_7"><a xlink:href="/idmef_parser/IODEFv2/FuzzyHash.html" xlink:title="The computed fuzzy hash value.">
<polygon fill="none" stroke="#000000" points="270.5,-46 270.5,-67 499.5,-67 499.5,-46 270.5,-46"/>
<text text-anchor="start" x="273.5" y="-52.8" font-family="Nimbus Sans L" font-size="14.00" fill="#000000">[EXTENSION] FuzzyHashValue (1..*)</text>
</a>
</g>
<g id="a_node3_8"><a xlink:href="/idmef_parser/IODEFv2/FuzzyHash.html" xlink:title="The application used to calculate the hash.">
<polygon fill="none" stroke="#000000" points="270.5,-25 270.5,-46 499.5,-46 499.5,-25 270.5,-25"/>
<text text-anchor="start" x="290" y="-31.8" font-family="Nimbus Sans L" font-size="14.00" fill="#000000">[SOFTWARE] Application (0..1)</text>
</a>
</g>
<g id="a_node3_9"><a xlink:href="/idmef_parser/IODEFv2/FuzzyHash.html" xlink:title="Mechanism by which to extend the data model.">
<polygon fill="none" stroke="#000000" points="270.5,-4 270.5,-25 499.5,-25 499.5,-4 270.5,-4"/>
<text text-anchor="start" x="279.5" y="-10.8" font-family="Nimbus Sans L" font-size="14.00" fill="#000000">[EXTENSION] AdditionalData (0..*)</text>
</a>
</g>
</g>
<!-- HashData&#45;&gt;FuzzyHash -->
<g id="edge2" class="edge">
<title>HashData&#45;&gt;FuzzyHash</title>
<path fill="none" stroke="#000000" d="M203.2697,-78.0195C219.017,-75.2373 235.4787,-72.3289 251.7842,-69.448"/>
<polygon fill="#000000" stroke="#000000" points="252.6703,-72.8458 261.9088,-67.6592 251.4523,-65.9525 252.6703,-72.8458"/>
<text text-anchor="middle" x="232.5" y="-77.8" font-family="Times,serif" font-size="14.00" fill="#000000">0..*</text>
</g>
</g>
</svg>
