<?xml version="1.0" encoding="UTF-8" standalone="no"?>
<!DOCTYPE svg PUBLIC "-//W3C//DTD SVG 1.1//EN"
 "http://www.w3.org/Graphics/SVG/1.1/DTD/svg11.dtd">
<!-- Generated by graphviz version 2.40.1 (0)
 -->
<!-- Title: History Pages: 1 -->
<svg width="1079pt" height="457pt"
 viewBox="0.00 0.00 1079.00 456.50" xmlns="http://www.w3.org/2000/svg" xmlns:xlink="http://www.w3.org/1999/xlink">
<g id="graph0" class="graph" transform="scale(1 1) rotate(0) translate(4 452.5)">
<title>History</title>
<polygon fill="#ffffff" stroke="transparent" points="-4,4 -4,-452.5 1075,-452.5 1075,4 -4,4"/>
<!-- History -->
<g id="node1" class="node">
<title>History</title>
<g id="a_node1_0"><a xlink:href="/idmef_parser/IODEFv2/History.html" xlink:title="The History class is a log of the significant events or actions performed by the involved parties during the course of handling the incident. ">
<polygon fill="#cca352" stroke="transparent" points="8,-351.5 8,-372.5 192,-372.5 192,-351.5 8,-351.5"/>
<polygon fill="none" stroke="#000000" points="8,-351.5 8,-372.5 192,-372.5 192,-351.5 8,-351.5"/>
<text text-anchor="start" x="78.5" y="-358.3" font-family="Nimbus Sans L" font-size="14.00" fill="#000000">History</text>
</a>
</g>
<g id="a_node1_1"><a xlink:href="/idmef_parser/IODEFv2/History.html" xlink:title="See Section 3.3.1.">
<polygon fill="#ffcc66" stroke="transparent" points="8,-330.5 8,-351.5 192,-351.5 192,-330.5 8,-330.5"/>
<polygon fill="none" stroke="#000000" points="8,-330.5 8,-351.5 192,-351.5 192,-330.5 8,-330.5"/>
<text text-anchor="start" x="27" y="-337.3" font-family="Nimbus Sans L" font-size="14.00" fill="#000000">[ENUM] restriction (0..1)</text>
</a>
</g>
<g id="a_node1_2"><a xlink:href="/idmef_parser/IODEFv2/History.html" xlink:title="A means by which to extend the restriction attribute. &#160;See Section 5.1.1.">
<polygon fill="#ffcc66" stroke="transparent" points="8,-309.5 8,-330.5 192,-330.5 192,-309.5 8,-309.5"/>
<polygon fill="none" stroke="#000000" points="8,-309.5 8,-330.5 192,-330.5 192,-309.5 8,-309.5"/>
<text text-anchor="start" x="11" y="-316.3" font-family="Nimbus Sans L" font-size="14.00" fill="#000000">[STRING] ext&#45;restriction (0..1)</text>
</a>
</g>
</g>
<!-- HistoryItem -->
<g id="node2" class="node">
<title>HistoryItem</title>
<g id="a_node2_3"><a xlink:href="/idmef_parser/IODEFv2/HistoryItem.html" xlink:title="The HistoryItem class is an entry in the History (Section 3.13) log that documents a particular action or event that occurred in the course of handling the incident. The details of the entry are a free&#45;form text description, but each can be categorized with the type attribute. ">
<polygon fill="#cca352" stroke="transparent" points="267.5,-414.5 267.5,-435.5 484.5,-435.5 484.5,-414.5 267.5,-414.5"/>
<polygon fill="none" stroke="#000000" points="267.5,-414.5 267.5,-435.5 484.5,-435.5 484.5,-414.5 267.5,-414.5"/>
<text text-anchor="start" x="341" y="-421.3" font-family="Nimbus Sans L" font-size="14.00" fill="#000000">HistoryItem</text>
</a>
</g>
<g id="a_node2_4"><a xlink:href="/idmef_parser/IODEFv2/HistoryItem.html" xlink:title="A timestamp of this entry in the history log.">
<polygon fill="#ffcc66" stroke="transparent" points="267.5,-393.5 267.5,-414.5 484.5,-414.5 484.5,-393.5 267.5,-393.5"/>
<polygon fill="none" stroke="#000000" points="267.5,-393.5 267.5,-414.5 484.5,-414.5 484.5,-393.5 267.5,-393.5"/>
<text text-anchor="start" x="289.5" y="-400.3" font-family="Nimbus Sans L" font-size="14.00" fill="#000000">[DATETIME] DateTime (1..1)</text>
</a>
</g>
<g id="a_node2_5"><a xlink:href="/idmef_parser/IODEFv2/HistoryItem.html" xlink:title="A free&#45;form text description of the action or event.">
<polygon fill="#ffcc66" stroke="transparent" points="267.5,-372.5 267.5,-393.5 484.5,-393.5 484.5,-372.5 267.5,-372.5"/>
<polygon fill="none" stroke="#000000" points="267.5,-372.5 267.5,-393.5 484.5,-393.5 484.5,-372.5 267.5,-372.5"/>
<text text-anchor="start" x="281" y="-379.3" font-family="Nimbus Sans L" font-size="14.00" fill="#000000">[ML_STRING] Description (0..*)</text>
</a>
</g>
<g id="a_node2_6"><a xlink:href="/idmef_parser/IODEFv2/HistoryItem.html" xlink:title="An identifier meaningful to the sender and recipient of this document that references a course of action (COA). &#160;This class MUST be present if the action attribute is set to &quot;defined&#45;coa&quot;.">
<polygon fill="#ffcc66" stroke="transparent" points="267.5,-351.5 267.5,-372.5 484.5,-372.5 484.5,-351.5 267.5,-351.5"/>
<polygon fill="none" stroke="#000000" points="267.5,-351.5 267.5,-372.5 484.5,-372.5 484.5,-351.5 267.5,-351.5"/>
<text text-anchor="start" x="290.5" y="-358.3" font-family="Nimbus Sans L" font-size="14.00" fill="#000000">[STRING] DefinedCOA (0..*)</text>
</a>
</g>
<g id="a_node2_7"><a xlink:href="/idmef_parser/IODEFv2/HistoryItem.html" xlink:title="A mechanism by which to extend the data model.">
<polygon fill="#ffcc66" stroke="transparent" points="267.5,-330.5 267.5,-351.5 484.5,-351.5 484.5,-330.5 267.5,-330.5"/>
<polygon fill="none" stroke="#000000" points="267.5,-330.5 267.5,-351.5 484.5,-351.5 484.5,-330.5 267.5,-330.5"/>
<text text-anchor="start" x="270.5" y="-337.3" font-family="Nimbus Sans L" font-size="14.00" fill="#000000">[EXTENSION] AdditionalData (0..*)</text>
</a>
</g>
<g id="a_node2_8"><a xlink:href="/idmef_parser/IODEFv2/HistoryItem.html" xlink:title="A means by which to extend the action attribute. &#160;See Section 5.1.1.">
<polygon fill="#ffcc66" stroke="transparent" points="267.5,-309.5 267.5,-330.5 484.5,-330.5 484.5,-309.5 267.5,-309.5"/>
<polygon fill="none" stroke="#000000" points="267.5,-309.5 267.5,-330.5 484.5,-330.5 484.5,-309.5 267.5,-309.5"/>
<text text-anchor="start" x="309" y="-316.3" font-family="Nimbus Sans L" font-size="14.00" fill="#000000">[STRING] action (0..1)</text>
</a>
</g>
<g id="a_node2_9"><a xlink:href="/idmef_parser/IODEFv2/HistoryItem.html" xlink:title="See Section 3.3.1.">
<polygon fill="#ffcc66" stroke="transparent" points="267.5,-288.5 267.5,-309.5 484.5,-309.5 484.5,-288.5 267.5,-288.5"/>
<polygon fill="none" stroke="#000000" points="267.5,-288.5 267.5,-309.5 484.5,-309.5 484.5,-288.5 267.5,-288.5"/>
<text text-anchor="start" x="303" y="-295.3" font-family="Nimbus Sans L" font-size="14.00" fill="#000000">[ENUM] restriction (0..1)</text>
</a>
</g>
<g id="a_node2_10"><a xlink:href="/idmef_parser/IODEFv2/HistoryItem.html" xlink:title="A means by which to extend the restriction attribute. &#160;See Section 5.1.1.">
<polygon fill="#ffcc66" stroke="transparent" points="267.5,-267.5 267.5,-288.5 484.5,-288.5 484.5,-267.5 267.5,-267.5"/>
<polygon fill="none" stroke="#000000" points="267.5,-267.5 267.5,-288.5 484.5,-288.5 484.5,-267.5 267.5,-267.5"/>
<text text-anchor="start" x="287" y="-274.3" font-family="Nimbus Sans L" font-size="14.00" fill="#000000">[STRING] ext&#45;restriction (0..1)</text>
</a>
</g>
<g id="a_node2_11"><a xlink:href="/idmef_parser/IODEFv2/HistoryItem.html" xlink:title="See Section 3.3.2.">
<polygon fill="#ffcc66" stroke="transparent" points="267.5,-246.5 267.5,-267.5 484.5,-267.5 484.5,-246.5 267.5,-246.5"/>
<polygon fill="none" stroke="#000000" points="267.5,-246.5 267.5,-267.5 484.5,-267.5 484.5,-246.5 267.5,-246.5"/>
<text text-anchor="start" x="305" y="-253.3" font-family="Nimbus Sans L" font-size="14.00" fill="#000000">[ID] observable&#45;id (0..1)</text>
</a>
</g>
</g>
<!-- History&#45;&gt;HistoryItem -->
<g id="edge8" class="edge">
<title>History&#45;&gt;HistoryItem</title>
<path fill="none" stroke="#000000" d="M200.2412,-341.5C216.0398,-341.5 232.5511,-341.5 248.8536,-341.5"/>
<polygon fill="#000000" stroke="#000000" points="248.969,-345.0001 258.9689,-341.5 248.9689,-338.0001 248.969,-345.0001"/>
<text text-anchor="middle" x="229.5" y="-345.3" font-family="Times,serif" font-size="14.00" fill="#000000">1..*</text>
</g>
<!-- IncidentID -->
<g id="node3" class="node">
<title>IncidentID</title>
<g id="a_node3_12"><a xlink:href="/idmef_parser/IODEFv2/IncidentID.html" xlink:title="The IncidentID class represents a tracking number that is unique in the context of the CSIRT. It serves as an identifier for an incident or a document identifier when sharing indicators. This identifier would serve as an index into a CSIRT&#39;s incident handling or knowledge management system. ">
<polygon fill="#90ac3d" stroke="transparent" points="634.5,-419.5 634.5,-440.5 701.5,-440.5 701.5,-419.5 634.5,-419.5"/>
<polygon fill="none" stroke="#000000" points="634.5,-419.5 634.5,-440.5 701.5,-440.5 701.5,-419.5 634.5,-419.5"/>
<text text-anchor="start" x="637.5" y="-426.3" font-family="Nimbus Sans L" font-size="14.00" fill="#000000">IncidentID</text>
</a>
</g>
</g>
<!-- HistoryItem&#45;&gt;IncidentID -->
<g id="edge1" class="edge">
<title>HistoryItem&#45;&gt;IncidentID</title>
<path fill="none" stroke="#000000" d="M492.4411,-384.8527C511.8803,-391.4701 531.921,-397.938 551,-403.5 572.0583,-409.639 595.5773,-415.3096 615.9394,-419.8527"/>
<polygon fill="#000000" stroke="#000000" points="615.4443,-423.3273 625.9625,-422.0556 616.947,-416.4905 615.4443,-423.3273"/>
<text text-anchor="middle" x="521.5" y="-401.3" font-family="Times,serif" font-size="14.00" fill="#000000">0..1</text>
</g>
<!-- Contact -->
<g id="node4" class="node">
<title>Contact</title>
<g id="a_node4_13"><a xlink:href="/idmef_parser/IODEFv2/Contact.html" xlink:title="The Contact class describes contact information for organizations and personnel involved in the incident. This class allows for the naming of the involved party, specifying contact information for them, and identifying their role in the incident. ">
<polygon fill="#52a3cc" stroke="transparent" points="559.5,-336.5 559.5,-357.5 776.5,-357.5 776.5,-336.5 559.5,-336.5"/>
<polygon fill="none" stroke="#000000" points="559.5,-336.5 559.5,-357.5 776.5,-357.5 776.5,-336.5 559.5,-336.5"/>
<text text-anchor="start" x="644.5" y="-343.3" font-family="Nimbus Sans L" font-size="14.00" fill="#000000">Contact</text>
</a>
</g>
<g id="a_node4_14"><a xlink:href="/idmef_parser/IODEFv2/Contact.html" xlink:title="The name of the contact. &#160;The contact may either be an organization or a person. &#160;The type attribute disambiguates the semantics.">
<polygon fill="#66ccff" stroke="transparent" points="559.5,-315.5 559.5,-336.5 776.5,-336.5 776.5,-315.5 559.5,-315.5"/>
<polygon fill="none" stroke="#000000" points="559.5,-315.5 559.5,-336.5 776.5,-336.5 776.5,-315.5 559.5,-315.5"/>
<text text-anchor="start" x="565.5" y="-322.3" font-family="Nimbus Sans L" font-size="14.00" fill="#000000">[ML_STRING] ContactName (0..*)</text>
</a>
</g>
<g id="a_node4_15"><a xlink:href="/idmef_parser/IODEFv2/Contact.html" xlink:title="The title for the individual named in the ContactName.">
<polygon fill="#66ccff" stroke="transparent" points="559.5,-294.5 559.5,-315.5 776.5,-315.5 776.5,-294.5 559.5,-294.5"/>
<polygon fill="none" stroke="#000000" points="559.5,-294.5 559.5,-315.5 776.5,-315.5 776.5,-294.5 559.5,-294.5"/>
<text text-anchor="start" x="571" y="-301.3" font-family="Nimbus Sans L" font-size="14.00" fill="#000000">[ML_STRING] ContactTitle (0..*)</text>
</a>
</g>
<g id="a_node4_16"><a xlink:href="/idmef_parser/IODEFv2/Contact.html" xlink:title="A free&#45;form text description of the contact.">
<polygon fill="#66ccff" stroke="transparent" points="559.5,-273.5 559.5,-294.5 776.5,-294.5 776.5,-273.5 559.5,-273.5"/>
<polygon fill="none" stroke="#000000" points="559.5,-273.5 559.5,-294.5 776.5,-294.5 776.5,-273.5 559.5,-273.5"/>
<text text-anchor="start" x="573" y="-280.3" font-family="Nimbus Sans L" font-size="14.00" fill="#000000">[ML_STRING] Description (0..*)</text>
</a>
</g>
<g id="a_node4_17"><a xlink:href="/idmef_parser/IODEFv2/Contact.html" xlink:title="The timezone in which the contact resides.">
<polygon fill="#66ccff" stroke="transparent" points="559.5,-252.5 559.5,-273.5 776.5,-273.5 776.5,-252.5 559.5,-252.5"/>
<polygon fill="none" stroke="#000000" points="559.5,-252.5 559.5,-273.5 776.5,-273.5 776.5,-252.5 559.5,-252.5"/>
<text text-anchor="start" x="579" y="-259.3" font-family="Nimbus Sans L" font-size="14.00" fill="#000000">[TIMEZONE] Timezone (0..1)</text>
</a>
</g>
<g id="a_node4_18"><a xlink:href="/idmef_parser/IODEFv2/Contact.html" xlink:title="A mechanism by which to extend the data model.">
<polygon fill="#66ccff" stroke="transparent" points="559.5,-231.5 559.5,-252.5 776.5,-252.5 776.5,-231.5 559.5,-231.5"/>
<polygon fill="none" stroke="#000000" points="559.5,-231.5 559.5,-252.5 776.5,-252.5 776.5,-231.5 559.5,-231.5"/>
<text text-anchor="start" x="562.5" y="-238.3" font-family="Nimbus Sans L" font-size="14.00" fill="#000000">[EXTENSION] AdditionalData (0..*)</text>
</a>
</g>
<g id="a_node4_19"><a xlink:href="/idmef_parser/IODEFv2/Contact.html" xlink:title="A means by which to extend the role attribute. See Section 5.1.1.">
<polygon fill="#66ccff" stroke="transparent" points="559.5,-210.5 559.5,-231.5 776.5,-231.5 776.5,-210.5 559.5,-210.5"/>
<polygon fill="none" stroke="#000000" points="559.5,-210.5 559.5,-231.5 776.5,-231.5 776.5,-210.5 559.5,-210.5"/>
<text text-anchor="start" x="607.5" y="-217.3" font-family="Nimbus Sans L" font-size="14.00" fill="#000000">[STRING] role (0..1)</text>
</a>
</g>
<g id="a_node4_20"><a xlink:href="/idmef_parser/IODEFv2/Contact.html" xlink:title="A means by which to extend the type attribute. See Section 5.1.1.">
<polygon fill="#66ccff" stroke="transparent" points="559.5,-189.5 559.5,-210.5 776.5,-210.5 776.5,-189.5 559.5,-189.5"/>
<polygon fill="none" stroke="#000000" points="559.5,-189.5 559.5,-210.5 776.5,-210.5 776.5,-189.5 559.5,-189.5"/>
<text text-anchor="start" x="606" y="-196.3" font-family="Nimbus Sans L" font-size="14.00" fill="#000000">[STRING] type (0..1)</text>
</a>
</g>
<g id="a_node4_21"><a xlink:href="/idmef_parser/IODEFv2/Contact.html" xlink:title="See Section 3.3.1.">
<polygon fill="#66ccff" stroke="transparent" points="559.5,-168.5 559.5,-189.5 776.5,-189.5 776.5,-168.5 559.5,-168.5"/>
<polygon fill="none" stroke="#000000" points="559.5,-168.5 559.5,-189.5 776.5,-189.5 776.5,-168.5 559.5,-168.5"/>
<text text-anchor="start" x="595" y="-175.3" font-family="Nimbus Sans L" font-size="14.00" fill="#000000">[ENUM] restriction (0..1)</text>
</a>
</g>
<g id="a_node4_22"><a xlink:href="/idmef_parser/IODEFv2/Contact.html" xlink:title="A means by which to extend the restriction attribute. &#160;See Section 5.1.1.">
<polygon fill="#66ccff" stroke="transparent" points="559.5,-147.5 559.5,-168.5 776.5,-168.5 776.5,-147.5 559.5,-147.5"/>
<polygon fill="none" stroke="#000000" points="559.5,-147.5 559.5,-168.5 776.5,-168.5 776.5,-147.5 559.5,-147.5"/>
<text text-anchor="start" x="579" y="-154.3" font-family="Nimbus Sans L" font-size="14.00" fill="#000000">[STRING] ext&#45;restriction (0..1)</text>
</a>
</g>
</g>
<!-- HistoryItem&#45;&gt;Contact -->
<g id="edge7" class="edge">
<title>HistoryItem&#45;&gt;Contact</title>
<path fill="none" stroke="#000000" d="M492.165,-305.9411C508.0827,-301.0895 524.4856,-296.09 540.5741,-291.1863"/>
<polygon fill="#000000" stroke="#000000" points="541.9987,-294.4112 550.5438,-288.1476 539.9577,-287.7153 541.9987,-294.4112"/>
<text text-anchor="middle" x="521.5" y="-303.3" font-family="Times,serif" font-size="14.00" fill="#000000">0..1</text>
</g>
<!-- Contact&#45;&gt;Contact -->
<g id="edge6" class="edge">
<title>Contact&#45;&gt;Contact</title>
<path fill="none" stroke="#000000" d="M645.1793,-361.791C649.6516,-372.6154 657.0918,-379.5 667.5,-379.5 674.6556,-379.5 680.4085,-376.246 684.7584,-370.6948"/>
<polygon fill="#000000" stroke="#000000" points="687.9207,-372.2141 689.8207,-361.791 681.8355,-368.7543 687.9207,-372.2141"/>
<text text-anchor="middle" x="667.5" y="-383.3" font-family="Times,serif" font-size="14.00" fill="#000000">0..*</text>
</g>
<!-- RegistryHandle -->
<g id="node5" class="node">
<title>RegistryHandle</title>
<g id="a_node5_23"><a xlink:href="/idmef_parser/IODEFv2/RegistryHandle.html" xlink:title="The RegistryHandle class represents a handle into an Internet registry or community&#45;specific database. ">
<polygon fill="#52a3cc" stroke="transparent" points="908,-400.5 908,-421.5 1007,-421.5 1007,-400.5 908,-400.5"/>
<polygon fill="none" stroke="#000000" points="908,-400.5 908,-421.5 1007,-421.5 1007,-400.5 908,-400.5"/>
<text text-anchor="start" x="911" y="-407.3" font-family="Nimbus Sans L" font-size="14.00" fill="#000000">RegistryHandle</text>
</a>
</g>
</g>
<!-- Contact&#45;&gt;RegistryHandle -->
<g id="edge2" class="edge">
<title>Contact&#45;&gt;RegistryHandle</title>
<path fill="none" stroke="#000000" d="M784.131,-350.3868C803.0254,-363.1948 822.9815,-375.1072 843,-384.5 857.4248,-391.2682 873.6967,-396.4225 889.3344,-400.3168"/>
<polygon fill="#000000" stroke="#000000" points="888.9584,-403.8235 899.4933,-402.6983 890.5561,-397.0082 888.9584,-403.8235"/>
<text text-anchor="middle" x="813.5" y="-377.3" font-family="Times,serif" font-size="14.00" fill="#000000">0..*</text>
</g>
<!-- PostalAddress -->
<g id="node6" class="node">
<title>PostalAddress</title>
<g id="a_node6_24"><a xlink:href="/idmef_parser/IODEFv2/PostalAddress.html" xlink:title="The PostalAddress class specifies a postal address and associated annotation. ">
<polygon fill="#52a3cc" stroke="transparent" points="859,-349.5 859,-370.5 1055,-370.5 1055,-349.5 859,-349.5"/>
<polygon fill="none" stroke="#000000" points="859,-349.5 859,-370.5 1055,-370.5 1055,-349.5 859,-349.5"/>
<text text-anchor="start" x="913" y="-356.3" font-family="Nimbus Sans L" font-size="14.00" fill="#000000">PostalAddress</text>
</a>
</g>
<g id="a_node6_25"><a xlink:href="/idmef_parser/IODEFv2/PostalAddress.html" xlink:title="A postal address.">
<polygon fill="#66ccff" stroke="transparent" points="859,-328.5 859,-349.5 1055,-349.5 1055,-328.5 859,-328.5"/>
<polygon fill="none" stroke="#000000" points="859,-328.5 859,-349.5 1055,-349.5 1055,-328.5 859,-328.5"/>
<text text-anchor="start" x="879" y="-335.3" font-family="Nimbus Sans L" font-size="14.00" fill="#000000">[POSTAL] PAddress (1..1)</text>
</a>
</g>
<g id="a_node6_26"><a xlink:href="/idmef_parser/IODEFv2/PostalAddress.html" xlink:title="A free&#45;form text description of the address.">
<polygon fill="#66ccff" stroke="transparent" points="859,-307.5 859,-328.5 1055,-328.5 1055,-307.5 859,-307.5"/>
<polygon fill="none" stroke="#000000" points="859,-307.5 859,-328.5 1055,-328.5 1055,-307.5 859,-307.5"/>
<text text-anchor="start" x="862" y="-314.3" font-family="Nimbus Sans L" font-size="14.00" fill="#000000">[ML_STRING] Description (0..*)</text>
</a>
</g>
<g id="a_node6_27"><a xlink:href="/idmef_parser/IODEFv2/PostalAddress.html" xlink:title="Categorizes the type of address described in the PAddress class. &#160;These values are maintained in the &quot;PostalAddress&#45;type&quot; IANA registry per Section 10.2.">
<polygon fill="#66ccff" stroke="transparent" points="859,-286.5 859,-307.5 1055,-307.5 1055,-286.5 859,-286.5"/>
<polygon fill="none" stroke="#000000" points="859,-286.5 859,-307.5 1055,-307.5 1055,-286.5 859,-286.5"/>
<text text-anchor="start" x="900.5" y="-293.3" font-family="Nimbus Sans L" font-size="14.00" fill="#000000">[ENUM] type (0..1)</text>
</a>
</g>
<g id="a_node6_28"><a xlink:href="/idmef_parser/IODEFv2/PostalAddress.html" xlink:title="A means by which to extend the type attribute. See Section 5.1.1.">
<polygon fill="#66ccff" stroke="transparent" points="859,-265.5 859,-286.5 1055,-286.5 1055,-265.5 859,-265.5"/>
<polygon fill="none" stroke="#000000" points="859,-265.5 859,-286.5 1055,-286.5 1055,-265.5 859,-265.5"/>
<text text-anchor="start" x="884.5" y="-272.3" font-family="Nimbus Sans L" font-size="14.00" fill="#000000">[STRING] ext&#45;type (0..1)</text>
</a>
</g>
</g>
<!-- Contact&#45;&gt;PostalAddress -->
<g id="edge3" class="edge">
<title>Contact&#45;&gt;PostalAddress</title>
<path fill="none" stroke="#000000" d="M784.4163,-279.1545C803.0391,-283.4001 822.3008,-287.7914 840.9046,-292.0327"/>
<polygon fill="#000000" stroke="#000000" points="840.3362,-295.4928 850.864,-294.3032 841.8921,-288.6679 840.3362,-295.4928"/>
<text text-anchor="middle" x="813.5" y="-290.3" font-family="Times,serif" font-size="14.00" fill="#000000">0..*</text>
</g>
<!-- Email -->
<g id="node7" class="node">
<title>Email</title>
<g id="a_node7_29"><a xlink:href="/idmef_parser/IODEFv2/Email.html" xlink:title="The Email class specifies an email address and associated annotation. ">
<polygon fill="#52a3cc" stroke="transparent" points="859,-218.5 859,-239.5 1055,-239.5 1055,-218.5 859,-218.5"/>
<polygon fill="none" stroke="#000000" points="859,-218.5 859,-239.5 1055,-239.5 1055,-218.5 859,-218.5"/>
<text text-anchor="start" x="939.5" y="-225.3" font-family="Nimbus Sans L" font-size="14.00" fill="#000000">Email</text>
</a>
</g>
<g id="a_node7_30"><a xlink:href="/idmef_parser/IODEFv2/Email.html" xlink:title="An email address.">
<polygon fill="#66ccff" stroke="transparent" points="859,-197.5 859,-218.5 1055,-218.5 1055,-197.5 859,-197.5"/>
<polygon fill="none" stroke="#000000" points="859,-197.5 859,-218.5 1055,-218.5 1055,-197.5 859,-197.5"/>
<text text-anchor="start" x="889" y="-204.3" font-family="Nimbus Sans L" font-size="14.00" fill="#000000">[EMAIL] EmailTo (1..1)</text>
</a>
</g>
<g id="a_node7_31"><a xlink:href="/idmef_parser/IODEFv2/Email.html" xlink:title="A free&#45;form text description of the email address.">
<polygon fill="#66ccff" stroke="transparent" points="859,-176.5 859,-197.5 1055,-197.5 1055,-176.5 859,-176.5"/>
<polygon fill="none" stroke="#000000" points="859,-176.5 859,-197.5 1055,-197.5 1055,-176.5 859,-176.5"/>
<text text-anchor="start" x="862" y="-183.3" font-family="Nimbus Sans L" font-size="14.00" fill="#000000">[ML_STRING] Description (0..*)</text>
</a>
</g>
<g id="a_node7_32"><a xlink:href="/idmef_parser/IODEFv2/Email.html" xlink:title="Categorizes the type of email address described in the EmailTo class. &#160;These values are maintained in the &quot;Email&#45; type&quot; IANA registry per Section 10.2.">
<polygon fill="#66ccff" stroke="transparent" points="859,-155.5 859,-176.5 1055,-176.5 1055,-155.5 859,-155.5"/>
<polygon fill="none" stroke="#000000" points="859,-155.5 859,-176.5 1055,-176.5 1055,-155.5 859,-155.5"/>
<text text-anchor="start" x="900.5" y="-162.3" font-family="Nimbus Sans L" font-size="14.00" fill="#000000">[ENUM] type (0..1)</text>
</a>
</g>
<g id="a_node7_33"><a xlink:href="/idmef_parser/IODEFv2/Email.html" xlink:title="A means by which to extend the type attribute. See Section 5.1.1.">
<polygon fill="#66ccff" stroke="transparent" points="859,-134.5 859,-155.5 1055,-155.5 1055,-134.5 859,-134.5"/>
<polygon fill="none" stroke="#000000" points="859,-134.5 859,-155.5 1055,-155.5 1055,-134.5 859,-134.5"/>
<text text-anchor="start" x="884.5" y="-141.3" font-family="Nimbus Sans L" font-size="14.00" fill="#000000">[STRING] ext&#45;type (0..1)</text>
</a>
</g>
</g>
<!-- Contact&#45;&gt;Email -->
<g id="edge4" class="edge">
<title>Contact&#45;&gt;Email</title>
<path fill="none" stroke="#000000" d="M784.4163,-226.2494C803.0391,-222.0681 822.3008,-217.7433 840.9046,-213.5663"/>
<polygon fill="#000000" stroke="#000000" points="841.8737,-216.936 850.864,-211.3302 840.3401,-210.106 841.8737,-216.936"/>
<text text-anchor="middle" x="813.5" y="-225.3" font-family="Times,serif" font-size="14.00" fill="#000000">0..*</text>
</g>
<!-- Telephone -->
<g id="node8" class="node">
<title>Telephone</title>
<g id="a_node8_34"><a xlink:href="/idmef_parser/IODEFv2/Telephone.html" xlink:title="The Telephone class describes a telephone number and associated annotation. ">
<polygon fill="#cecece" stroke="transparent" points="851,-87.5 851,-108.5 1063,-108.5 1063,-87.5 851,-87.5"/>
<polygon fill="none" stroke="#000000" points="851,-87.5 851,-108.5 1063,-108.5 1063,-87.5 851,-87.5"/>
<text text-anchor="start" x="925.5" y="-94.3" font-family="Nimbus Sans L" font-size="14.00" fill="#000000">Telephone</text>
</a>
</g>
<g id="a_node8_35"><a xlink:href="/idmef_parser/IODEFv2/Telephone.html" xlink:title="A telephone number.">
<polygon fill="none" stroke="#000000" points="851,-66.5 851,-87.5 1063,-87.5 1063,-66.5 851,-66.5"/>
<text text-anchor="start" x="854" y="-73.3" font-family="Nimbus Sans L" font-size="14.00" fill="#000000">[PHONE] TelephoneNumber (1..1)</text>
</a>
</g>
<g id="a_node8_36"><a xlink:href="/idmef_parser/IODEFv2/Telephone.html" xlink:title="A free&#45;form text description of the phone number.">
<polygon fill="none" stroke="#000000" points="851,-45.5 851,-66.5 1063,-66.5 1063,-45.5 851,-45.5"/>
<text text-anchor="start" x="862" y="-52.3" font-family="Nimbus Sans L" font-size="14.00" fill="#000000">[ML_STRING] Description (0..*)</text>
</a>
</g>
<g id="a_node8_37"><a xlink:href="/idmef_parser/IODEFv2/Telephone.html" xlink:title="Categorizes the type of telephone number described in the TelephoneNumber class. &#160;These values are maintained in the &quot;Telephone&#45;type&quot; IANA registry per Section 10.2.">
<polygon fill="none" stroke="#000000" points="851,-24.5 851,-45.5 1063,-45.5 1063,-24.5 851,-24.5"/>
<text text-anchor="start" x="900.5" y="-31.3" font-family="Nimbus Sans L" font-size="14.00" fill="#000000">[ENUM] type (0..1)</text>
</a>
</g>
<g id="a_node8_38"><a xlink:href="/idmef_parser/IODEFv2/Telephone.html" xlink:title="A means by which to extend the type attribute. See Section 5.1.1.">
<polygon fill="none" stroke="#000000" points="851,-3.5 851,-24.5 1063,-24.5 1063,-3.5 851,-3.5"/>
<text text-anchor="start" x="884.5" y="-10.3" font-family="Nimbus Sans L" font-size="14.00" fill="#000000">[STRING] ext&#45;type (0..1)</text>
</a>
</g>
</g>
<!-- Contact&#45;&gt;Telephone -->
<g id="edge5" class="edge">
<title>Contact&#45;&gt;Telephone</title>
<path fill="none" stroke="#000000" d="M784.2047,-163.229C803.5841,-149.2261 823.6678,-135.1982 843,-122.5 844.9413,-121.2248 846.908,-119.947 848.8951,-118.6687"/>
<polygon fill="#000000" stroke="#000000" points="851.1537,-121.3807 857.7219,-113.0675 847.4031,-115.4702 851.1537,-121.3807"/>
<text text-anchor="middle" x="813.5" y="-152.3" font-family="Times,serif" font-size="14.00" fill="#000000">0..*</text>
</g>
</g>
</svg>
