<?xml version="1.0" encoding="UTF-8" standalone="no"?>
<!DOCTYPE svg PUBLIC "-//W3C//DTD SVG 1.1//EN"
 "http://www.w3.org/Graphics/SVG/1.1/DTD/svg11.dtd">
<!-- Generated by graphviz version 2.40.1 (0)
 -->
<!-- Title: HistoryItem Pages: 1 -->
<svg width="820pt" height="457pt"
 viewBox="0.00 0.00 820.00 456.50" xmlns="http://www.w3.org/2000/svg" xmlns:xlink="http://www.w3.org/1999/xlink">
<g id="graph0" class="graph" transform="scale(1 1) rotate(0) translate(4 452.5)">
<title>HistoryItem</title>
<polygon fill="#ffffff" stroke="transparent" points="-4,4 -4,-452.5 816,-452.5 816,4 -4,4"/>
<!-- HistoryItem -->
<g id="node1" class="node">
<title>HistoryItem</title>
<g id="a_node1_0"><a xlink:href="/idmef_parser/IODEFv2/HistoryItem.html" xlink:title="The HistoryItem class is an entry in the History (Section 3.13) log that documents a particular action or event that occurred in the course of handling the incident. The details of the entry are a free&#45;form text description, but each can be categorized with the type attribute. ">
<polygon fill="#cecece" stroke="transparent" points="8.5,-414.5 8.5,-435.5 225.5,-435.5 225.5,-414.5 8.5,-414.5"/>
<polygon fill="none" stroke="#000000" points="8.5,-414.5 8.5,-435.5 225.5,-435.5 225.5,-414.5 8.5,-414.5"/>
<text text-anchor="start" x="82" y="-421.3" font-family="Nimbus Sans L" font-size="14.00" fill="#000000">HistoryItem</text>
</a>
</g>
<g id="a_node1_1"><a xlink:href="/idmef_parser/IODEFv2/HistoryItem.html" xlink:title="A timestamp of this entry in the history log.">
<polygon fill="none" stroke="#000000" points="8.5,-393.5 8.5,-414.5 225.5,-414.5 225.5,-393.5 8.5,-393.5"/>
<text text-anchor="start" x="30.5" y="-400.3" font-family="Nimbus Sans L" font-size="14.00" fill="#000000">[DATETIME] DateTime (1..1)</text>
</a>
</g>
<g id="a_node1_2"><a xlink:href="/idmef_parser/IODEFv2/HistoryItem.html" xlink:title="A free&#45;form text description of the action or event.">
<polygon fill="none" stroke="#000000" points="8.5,-372.5 8.5,-393.5 225.5,-393.5 225.5,-372.5 8.5,-372.5"/>
<text text-anchor="start" x="22" y="-379.3" font-family="Nimbus Sans L" font-size="14.00" fill="#000000">[ML_STRING] Description (0..*)</text>
</a>
</g>
<g id="a_node1_3"><a xlink:href="/idmef_parser/IODEFv2/HistoryItem.html" xlink:title="An identifier meaningful to the sender and recipient of this document that references a course of action (COA). &#160;This class MUST be present if the action attribute is set to &quot;defined&#45;coa&quot;.">
<polygon fill="none" stroke="#000000" points="8.5,-351.5 8.5,-372.5 225.5,-372.5 225.5,-351.5 8.5,-351.5"/>
<text text-anchor="start" x="31.5" y="-358.3" font-family="Nimbus Sans L" font-size="14.00" fill="#000000">[STRING] DefinedCOA (0..*)</text>
</a>
</g>
<g id="a_node1_4"><a xlink:href="/idmef_parser/IODEFv2/HistoryItem.html" xlink:title="A mechanism by which to extend the data model.">
<polygon fill="none" stroke="#000000" points="8.5,-330.5 8.5,-351.5 225.5,-351.5 225.5,-330.5 8.5,-330.5"/>
<text text-anchor="start" x="11.5" y="-337.3" font-family="Nimbus Sans L" font-size="14.00" fill="#000000">[EXTENSION] AdditionalData (0..*)</text>
</a>
</g>
<g id="a_node1_5"><a xlink:href="/idmef_parser/IODEFv2/HistoryItem.html" xlink:title="A means by which to extend the action attribute. &#160;See Section 5.1.1.">
<polygon fill="none" stroke="#000000" points="8.5,-309.5 8.5,-330.5 225.5,-330.5 225.5,-309.5 8.5,-309.5"/>
<text text-anchor="start" x="50" y="-316.3" font-family="Nimbus Sans L" font-size="14.00" fill="#000000">[STRING] action (0..1)</text>
</a>
</g>
<g id="a_node1_6"><a xlink:href="/idmef_parser/IODEFv2/HistoryItem.html" xlink:title="See Section 3.3.1.">
<polygon fill="none" stroke="#000000" points="8.5,-288.5 8.5,-309.5 225.5,-309.5 225.5,-288.5 8.5,-288.5"/>
<text text-anchor="start" x="44" y="-295.3" font-family="Nimbus Sans L" font-size="14.00" fill="#000000">[ENUM] restriction (0..1)</text>
</a>
</g>
<g id="a_node1_7"><a xlink:href="/idmef_parser/IODEFv2/HistoryItem.html" xlink:title="A means by which to extend the restriction attribute. &#160;See Section 5.1.1.">
<polygon fill="none" stroke="#000000" points="8.5,-267.5 8.5,-288.5 225.5,-288.5 225.5,-267.5 8.5,-267.5"/>
<text text-anchor="start" x="28" y="-274.3" font-family="Nimbus Sans L" font-size="14.00" fill="#000000">[STRING] ext&#45;restriction (0..1)</text>
</a>
</g>
<g id="a_node1_8"><a xlink:href="/idmef_parser/IODEFv2/HistoryItem.html" xlink:title="See Section 3.3.2.">
<polygon fill="none" stroke="#000000" points="8.5,-246.5 8.5,-267.5 225.5,-267.5 225.5,-246.5 8.5,-246.5"/>
<text text-anchor="start" x="46" y="-253.3" font-family="Nimbus Sans L" font-size="14.00" fill="#000000">[ID] observable&#45;id (0..1)</text>
</a>
</g>
</g>
<!-- IncidentID -->
<g id="node2" class="node">
<title>IncidentID</title>
<g id="a_node2_9"><a xlink:href="/idmef_parser/IODEFv2/IncidentID.html" xlink:title="The IncidentID class represents a tracking number that is unique in the context of the CSIRT. It serves as an identifier for an incident or a document identifier when sharing indicators. This identifier would serve as an index into a CSIRT&#39;s incident handling or knowledge management system. ">
<polygon fill="#cecece" stroke="transparent" points="375.5,-419.5 375.5,-440.5 442.5,-440.5 442.5,-419.5 375.5,-419.5"/>
<polygon fill="none" stroke="#000000" points="375.5,-419.5 375.5,-440.5 442.5,-440.5 442.5,-419.5 375.5,-419.5"/>
<text text-anchor="start" x="378.5" y="-426.3" font-family="Nimbus Sans L" font-size="14.00" fill="#000000">IncidentID</text>
</a>
</g>
</g>
<!-- HistoryItem&#45;&gt;IncidentID -->
<g id="edge1" class="edge">
<title>HistoryItem&#45;&gt;IncidentID</title>
<path fill="none" stroke="#000000" d="M233.4411,-384.8527C252.8803,-391.4701 272.921,-397.938 292,-403.5 313.0583,-409.639 336.5773,-415.3096 356.9394,-419.8527"/>
<polygon fill="#000000" stroke="#000000" points="356.4443,-423.3273 366.9625,-422.0556 357.947,-416.4905 356.4443,-423.3273"/>
<text text-anchor="middle" x="262.5" y="-401.3" font-family="Times,serif" font-size="14.00" fill="#000000">0..1</text>
</g>
<!-- Contact -->
<g id="node3" class="node">
<title>Contact</title>
<g id="a_node3_10"><a xlink:href="/idmef_parser/IODEFv2/Contact.html" xlink:title="The Contact class describes contact information for organizations and personnel involved in the incident. This class allows for the naming of the involved party, specifying contact information for them, and identifying their role in the incident. ">
<polygon fill="#cecece" stroke="transparent" points="300.5,-336.5 300.5,-357.5 517.5,-357.5 517.5,-336.5 300.5,-336.5"/>
<polygon fill="none" stroke="#000000" points="300.5,-336.5 300.5,-357.5 517.5,-357.5 517.5,-336.5 300.5,-336.5"/>
<text text-anchor="start" x="385.5" y="-343.3" font-family="Nimbus Sans L" font-size="14.00" fill="#000000">Contact</text>
</a>
</g>
<g id="a_node3_11"><a xlink:href="/idmef_parser/IODEFv2/Contact.html" xlink:title="The name of the contact. &#160;The contact may either be an organization or a person. &#160;The type attribute disambiguates the semantics.">
<polygon fill="none" stroke="#000000" points="300.5,-315.5 300.5,-336.5 517.5,-336.5 517.5,-315.5 300.5,-315.5"/>
<text text-anchor="start" x="306.5" y="-322.3" font-family="Nimbus Sans L" font-size="14.00" fill="#000000">[ML_STRING] ContactName (0..*)</text>
</a>
</g>
<g id="a_node3_12"><a xlink:href="/idmef_parser/IODEFv2/Contact.html" xlink:title="The title for the individual named in the ContactName.">
<polygon fill="none" stroke="#000000" points="300.5,-294.5 300.5,-315.5 517.5,-315.5 517.5,-294.5 300.5,-294.5"/>
<text text-anchor="start" x="312" y="-301.3" font-family="Nimbus Sans L" font-size="14.00" fill="#000000">[ML_STRING] ContactTitle (0..*)</text>
</a>
</g>
<g id="a_node3_13"><a xlink:href="/idmef_parser/IODEFv2/Contact.html" xlink:title="A free&#45;form text description of the contact.">
<polygon fill="none" stroke="#000000" points="300.5,-273.5 300.5,-294.5 517.5,-294.5 517.5,-273.5 300.5,-273.5"/>
<text text-anchor="start" x="314" y="-280.3" font-family="Nimbus Sans L" font-size="14.00" fill="#000000">[ML_STRING] Description (0..*)</text>
</a>
</g>
<g id="a_node3_14"><a xlink:href="/idmef_parser/IODEFv2/Contact.html" xlink:title="The timezone in which the contact resides.">
<polygon fill="none" stroke="#000000" points="300.5,-252.5 300.5,-273.5 517.5,-273.5 517.5,-252.5 300.5,-252.5"/>
<text text-anchor="start" x="320" y="-259.3" font-family="Nimbus Sans L" font-size="14.00" fill="#000000">[TIMEZONE] Timezone (0..1)</text>
</a>
</g>
<g id="a_node3_15"><a xlink:href="/idmef_parser/IODEFv2/Contact.html" xlink:title="A mechanism by which to extend the data model.">
<polygon fill="none" stroke="#000000" points="300.5,-231.5 300.5,-252.5 517.5,-252.5 517.5,-231.5 300.5,-231.5"/>
<text text-anchor="start" x="303.5" y="-238.3" font-family="Nimbus Sans L" font-size="14.00" fill="#000000">[EXTENSION] AdditionalData (0..*)</text>
</a>
</g>
<g id="a_node3_16"><a xlink:href="/idmef_parser/IODEFv2/Contact.html" xlink:title="A means by which to extend the role attribute. See Section 5.1.1.">
<polygon fill="none" stroke="#000000" points="300.5,-210.5 300.5,-231.5 517.5,-231.5 517.5,-210.5 300.5,-210.5"/>
<text text-anchor="start" x="348.5" y="-217.3" font-family="Nimbus Sans L" font-size="14.00" fill="#000000">[STRING] role (0..1)</text>
</a>
</g>
<g id="a_node3_17"><a xlink:href="/idmef_parser/IODEFv2/Contact.html" xlink:title="A means by which to extend the type attribute. See Section 5.1.1.">
<polygon fill="none" stroke="#000000" points="300.5,-189.5 300.5,-210.5 517.5,-210.5 517.5,-189.5 300.5,-189.5"/>
<text text-anchor="start" x="347" y="-196.3" font-family="Nimbus Sans L" font-size="14.00" fill="#000000">[STRING] type (0..1)</text>
</a>
</g>
<g id="a_node3_18"><a xlink:href="/idmef_parser/IODEFv2/Contact.html" xlink:title="See Section 3.3.1.">
<polygon fill="none" stroke="#000000" points="300.5,-168.5 300.5,-189.5 517.5,-189.5 517.5,-168.5 300.5,-168.5"/>
<text text-anchor="start" x="336" y="-175.3" font-family="Nimbus Sans L" font-size="14.00" fill="#000000">[ENUM] restriction (0..1)</text>
</a>
</g>
<g id="a_node3_19"><a xlink:href="/idmef_parser/IODEFv2/Contact.html" xlink:title="A means by which to extend the restriction attribute. &#160;See Section 5.1.1.">
<polygon fill="none" stroke="#000000" points="300.5,-147.5 300.5,-168.5 517.5,-168.5 517.5,-147.5 300.5,-147.5"/>
<text text-anchor="start" x="320" y="-154.3" font-family="Nimbus Sans L" font-size="14.00" fill="#000000">[STRING] ext&#45;restriction (0..1)</text>
</a>
</g>
</g>
<!-- HistoryItem&#45;&gt;Contact -->
<g id="edge7" class="edge">
<title>HistoryItem&#45;&gt;Contact</title>
<path fill="none" stroke="#000000" d="M233.165,-305.9411C249.0827,-301.0895 265.4856,-296.09 281.5741,-291.1863"/>
<polygon fill="#000000" stroke="#000000" points="282.9987,-294.4112 291.5438,-288.1476 280.9577,-287.7153 282.9987,-294.4112"/>
<text text-anchor="middle" x="262.5" y="-303.3" font-family="Times,serif" font-size="14.00" fill="#000000">0..1</text>
</g>
<!-- Contact&#45;&gt;Contact -->
<g id="edge6" class="edge">
<title>Contact&#45;&gt;Contact</title>
<path fill="none" stroke="#000000" d="M386.1793,-361.791C390.6516,-372.6154 398.0918,-379.5 408.5,-379.5 415.6556,-379.5 421.4085,-376.246 425.7584,-370.6948"/>
<polygon fill="#000000" stroke="#000000" points="428.9207,-372.2141 430.8207,-361.791 422.8355,-368.7543 428.9207,-372.2141"/>
<text text-anchor="middle" x="408.5" y="-383.3" font-family="Times,serif" font-size="14.00" fill="#000000">0..*</text>
</g>
<!-- RegistryHandle -->
<g id="node4" class="node">
<title>RegistryHandle</title>
<g id="a_node4_20"><a xlink:href="/idmef_parser/IODEFv2/RegistryHandle.html" xlink:title="The RegistryHandle class represents a handle into an Internet registry or community&#45;specific database. ">
<polygon fill="#cecece" stroke="transparent" points="649,-400.5 649,-421.5 748,-421.5 748,-400.5 649,-400.5"/>
<polygon fill="none" stroke="#000000" points="649,-400.5 649,-421.5 748,-421.5 748,-400.5 649,-400.5"/>
<text text-anchor="start" x="652" y="-407.3" font-family="Nimbus Sans L" font-size="14.00" fill="#000000">RegistryHandle</text>
</a>
</g>
</g>
<!-- Contact&#45;&gt;RegistryHandle -->
<g id="edge2" class="edge">
<title>Contact&#45;&gt;RegistryHandle</title>
<path fill="none" stroke="#000000" d="M525.131,-350.3868C544.0254,-363.1948 563.9815,-375.1072 584,-384.5 598.4248,-391.2682 614.6967,-396.4225 630.3344,-400.3168"/>
<polygon fill="#000000" stroke="#000000" points="629.9584,-403.8235 640.4933,-402.6983 631.5561,-397.0082 629.9584,-403.8235"/>
<text text-anchor="middle" x="554.5" y="-377.3" font-family="Times,serif" font-size="14.00" fill="#000000">0..*</text>
</g>
<!-- PostalAddress -->
<g id="node5" class="node">
<title>PostalAddress</title>
<g id="a_node5_21"><a xlink:href="/idmef_parser/IODEFv2/PostalAddress.html" xlink:title="The PostalAddress class specifies a postal address and associated annotation. ">
<polygon fill="#cecece" stroke="transparent" points="600,-349.5 600,-370.5 796,-370.5 796,-349.5 600,-349.5"/>
<polygon fill="none" stroke="#000000" points="600,-349.5 600,-370.5 796,-370.5 796,-349.5 600,-349.5"/>
<text text-anchor="start" x="654" y="-356.3" font-family="Nimbus Sans L" font-size="14.00" fill="#000000">PostalAddress</text>
</a>
</g>
<g id="a_node5_22"><a xlink:href="/idmef_parser/IODEFv2/PostalAddress.html" xlink:title="A postal address.">
<polygon fill="none" stroke="#000000" points="600,-328.5 600,-349.5 796,-349.5 796,-328.5 600,-328.5"/>
<text text-anchor="start" x="620" y="-335.3" font-family="Nimbus Sans L" font-size="14.00" fill="#000000">[POSTAL] PAddress (1..1)</text>
</a>
</g>
<g id="a_node5_23"><a xlink:href="/idmef_parser/IODEFv2/PostalAddress.html" xlink:title="A free&#45;form text description of the address.">
<polygon fill="none" stroke="#000000" points="600,-307.5 600,-328.5 796,-328.5 796,-307.5 600,-307.5"/>
<text text-anchor="start" x="603" y="-314.3" font-family="Nimbus Sans L" font-size="14.00" fill="#000000">[ML_STRING] Description (0..*)</text>
</a>
</g>
<g id="a_node5_24"><a xlink:href="/idmef_parser/IODEFv2/PostalAddress.html" xlink:title="Categorizes the type of address described in the PAddress class. &#160;These values are maintained in the &quot;PostalAddress&#45;type&quot; IANA registry per Section 10.2.">
<polygon fill="none" stroke="#000000" points="600,-286.5 600,-307.5 796,-307.5 796,-286.5 600,-286.5"/>
<text text-anchor="start" x="641.5" y="-293.3" font-family="Nimbus Sans L" font-size="14.00" fill="#000000">[ENUM] type (0..1)</text>
</a>
</g>
<g id="a_node5_25"><a xlink:href="/idmef_parser/IODEFv2/PostalAddress.html" xlink:title="A means by which to extend the type attribute. See Section 5.1.1.">
<polygon fill="none" stroke="#000000" points="600,-265.5 600,-286.5 796,-286.5 796,-265.5 600,-265.5"/>
<text text-anchor="start" x="625.5" y="-272.3" font-family="Nimbus Sans L" font-size="14.00" fill="#000000">[STRING] ext&#45;type (0..1)</text>
</a>
</g>
</g>
<!-- Contact&#45;&gt;PostalAddress -->
<g id="edge3" class="edge">
<title>Contact&#45;&gt;PostalAddress</title>
<path fill="none" stroke="#000000" d="M525.4163,-279.1545C544.0391,-283.4001 563.3008,-287.7914 581.9046,-292.0327"/>
<polygon fill="#000000" stroke="#000000" points="581.3362,-295.4928 591.864,-294.3032 582.8921,-288.6679 581.3362,-295.4928"/>
<text text-anchor="middle" x="554.5" y="-290.3" font-family="Times,serif" font-size="14.00" fill="#000000">0..*</text>
</g>
<!-- Email -->
<g id="node6" class="node">
<title>Email</title>
<g id="a_node6_26"><a xlink:href="/idmef_parser/IODEFv2/Email.html" xlink:title="The Email class specifies an email address and associated annotation. ">
<polygon fill="#cecece" stroke="transparent" points="600,-218.5 600,-239.5 796,-239.5 796,-218.5 600,-218.5"/>
<polygon fill="none" stroke="#000000" points="600,-218.5 600,-239.5 796,-239.5 796,-218.5 600,-218.5"/>
<text text-anchor="start" x="680.5" y="-225.3" font-family="Nimbus Sans L" font-size="14.00" fill="#000000">Email</text>
</a>
</g>
<g id="a_node6_27"><a xlink:href="/idmef_parser/IODEFv2/Email.html" xlink:title="An email address.">
<polygon fill="none" stroke="#000000" points="600,-197.5 600,-218.5 796,-218.5 796,-197.5 600,-197.5"/>
<text text-anchor="start" x="630" y="-204.3" font-family="Nimbus Sans L" font-size="14.00" fill="#000000">[EMAIL] EmailTo (1..1)</text>
</a>
</g>
<g id="a_node6_28"><a xlink:href="/idmef_parser/IODEFv2/Email.html" xlink:title="A free&#45;form text description of the email address.">
<polygon fill="none" stroke="#000000" points="600,-176.5 600,-197.5 796,-197.5 796,-176.5 600,-176.5"/>
<text text-anchor="start" x="603" y="-183.3" font-family="Nimbus Sans L" font-size="14.00" fill="#000000">[ML_STRING] Description (0..*)</text>
</a>
</g>
<g id="a_node6_29"><a xlink:href="/idmef_parser/IODEFv2/Email.html" xlink:title="Categorizes the type of email address described in the EmailTo class. &#160;These values are maintained in the &quot;Email&#45; type&quot; IANA registry per Section 10.2.">
<polygon fill="none" stroke="#000000" points="600,-155.5 600,-176.5 796,-176.5 796,-155.5 600,-155.5"/>
<text text-anchor="start" x="641.5" y="-162.3" font-family="Nimbus Sans L" font-size="14.00" fill="#000000">[ENUM] type (0..1)</text>
</a>
</g>
<g id="a_node6_30"><a xlink:href="/idmef_parser/IODEFv2/Email.html" xlink:title="A means by which to extend the type attribute. See Section 5.1.1.">
<polygon fill="none" stroke="#000000" points="600,-134.5 600,-155.5 796,-155.5 796,-134.5 600,-134.5"/>
<text text-anchor="start" x="625.5" y="-141.3" font-family="Nimbus Sans L" font-size="14.00" fill="#000000">[STRING] ext&#45;type (0..1)</text>
</a>
</g>
</g>
<!-- Contact&#45;&gt;Email -->
<g id="edge4" class="edge">
<title>Contact&#45;&gt;Email</title>
<path fill="none" stroke="#000000" d="M525.4163,-226.2494C544.0391,-222.0681 563.3008,-217.7433 581.9046,-213.5663"/>
<polygon fill="#000000" stroke="#000000" points="582.8737,-216.936 591.864,-211.3302 581.3401,-210.106 582.8737,-216.936"/>
<text text-anchor="middle" x="554.5" y="-225.3" font-family="Times,serif" font-size="14.00" fill="#000000">0..*</text>
</g>
<!-- Telephone -->
<g id="node7" class="node">
<title>Telephone</title>
<g id="a_node7_31"><a xlink:href="/idmef_parser/IODEFv2/Telephone.html" xlink:title="The Telephone class describes a telephone number and associated annotation. ">
<polygon fill="#cecece" stroke="transparent" points="592,-87.5 592,-108.5 804,-108.5 804,-87.5 592,-87.5"/>
<polygon fill="none" stroke="#000000" points="592,-87.5 592,-108.5 804,-108.5 804,-87.5 592,-87.5"/>
<text text-anchor="start" x="666.5" y="-94.3" font-family="Nimbus Sans L" font-size="14.00" fill="#000000">Telephone</text>
</a>
</g>
<g id="a_node7_32"><a xlink:href="/idmef_parser/IODEFv2/Telephone.html" xlink:title="A telephone number.">
<polygon fill="none" stroke="#000000" points="592,-66.5 592,-87.5 804,-87.5 804,-66.5 592,-66.5"/>
<text text-anchor="start" x="595" y="-73.3" font-family="Nimbus Sans L" font-size="14.00" fill="#000000">[PHONE] TelephoneNumber (1..1)</text>
</a>
</g>
<g id="a_node7_33"><a xlink:href="/idmef_parser/IODEFv2/Telephone.html" xlink:title="A free&#45;form text description of the phone number.">
<polygon fill="none" stroke="#000000" points="592,-45.5 592,-66.5 804,-66.5 804,-45.5 592,-45.5"/>
<text text-anchor="start" x="603" y="-52.3" font-family="Nimbus Sans L" font-size="14.00" fill="#000000">[ML_STRING] Description (0..*)</text>
</a>
</g>
<g id="a_node7_34"><a xlink:href="/idmef_parser/IODEFv2/Telephone.html" xlink:title="Categorizes the type of telephone number described in the TelephoneNumber class. &#160;These values are maintained in the &quot;Telephone&#45;type&quot; IANA registry per Section 10.2.">
<polygon fill="none" stroke="#000000" points="592,-24.5 592,-45.5 804,-45.5 804,-24.5 592,-24.5"/>
<text text-anchor="start" x="641.5" y="-31.3" font-family="Nimbus Sans L" font-size="14.00" fill="#000000">[ENUM] type (0..1)</text>
</a>
</g>
<g id="a_node7_35"><a xlink:href="/idmef_parser/IODEFv2/Telephone.html" xlink:title="A means by which to extend the type attribute. See Section 5.1.1.">
<polygon fill="none" stroke="#000000" points="592,-3.5 592,-24.5 804,-24.5 804,-3.5 592,-3.5"/>
<text text-anchor="start" x="625.5" y="-10.3" font-family="Nimbus Sans L" font-size="14.00" fill="#000000">[STRING] ext&#45;type (0..1)</text>
</a>
</g>
</g>
<!-- Contact&#45;&gt;Telephone -->
<g id="edge5" class="edge">
<title>Contact&#45;&gt;Telephone</title>
<path fill="none" stroke="#000000" d="M525.2047,-163.229C544.5841,-149.2261 564.6678,-135.1982 584,-122.5 585.9413,-121.2248 587.908,-119.947 589.8951,-118.6687"/>
<polygon fill="#000000" stroke="#000000" points="592.1537,-121.3807 598.7219,-113.0675 588.4031,-115.4702 592.1537,-121.3807"/>
<text text-anchor="middle" x="554.5" y="-152.3" font-family="Times,serif" font-size="14.00" fill="#000000">0..*</text>
</g>
</g>
</svg>
