<?xml version="1.0" encoding="UTF-8" standalone="no"?>
<!DOCTYPE svg PUBLIC "-//W3C//DTD SVG 1.1//EN"
 "http://www.w3.org/Graphics/SVG/1.1/DTD/svg11.dtd">
<!-- Generated by graphviz version 2.40.1 (0)
 -->
<!-- Title: Key Pages: 1 -->
<svg width="230pt" height="142pt"
 viewBox="0.00 0.00 230.00 142.00" xmlns="http://www.w3.org/2000/svg" xmlns:xlink="http://www.w3.org/1999/xlink">
<g id="graph0" class="graph" transform="scale(1 1) rotate(0) translate(4 138)">
<title>Key</title>
<polygon fill="#ffffff" stroke="transparent" points="-4,4 -4,-138 226,-138 226,4 -4,4"/>
<!-- Key -->
<g id="node1" class="node">
<title>Key</title>
<g id="a_node1_0"><a xlink:href="/html/IODEFv2/Key.html" xlink:title="The Key class describes a Windows operating system registry key name and value pair, as well as the operation performed on it. ">
<polygon fill="#cecece" stroke="transparent" points="8,-109 8,-130 214,-130 214,-109 8,-109"/>
<polygon fill="none" stroke="#000000" points="8,-109 8,-130 214,-130 214,-109 8,-109"/>
<text text-anchor="start" x="99.5" y="-115.8" font-family="Nimbus Sans L" font-size="14.00" fill="#000000">Key</text>
</a>
</g>
<g id="a_node1_1"><a xlink:href="/html/IODEFv2/Key.html" xlink:title="The name of a Windows operating system registry key (e.g., [HKEY_LOCAL_MACHINE\Software\Test\KeyName]).">
<polygon fill="none" stroke="#000000" points="8,-88 8,-109 214,-109 214,-88 8,-88"/>
<text text-anchor="start" x="32.5" y="-94.8" font-family="Nimbus Sans L" font-size="14.00" fill="#000000">[STRING] KeyName (1..1)</text>
</a>
</g>
<g id="a_node1_2"><a xlink:href="/html/IODEFv2/Key.html" xlink:title="The value of the registry key identified in the KeyName class encoded per the .reg file format [KB310516].">
<polygon fill="none" stroke="#000000" points="8,-67 8,-88 214,-88 214,-67 8,-67"/>
<text text-anchor="start" x="34" y="-73.8" font-family="Nimbus Sans L" font-size="14.00" fill="#000000">[STRING] KeyValue (0..1)</text>
</a>
</g>
<g id="a_node1_3"><a xlink:href="/html/IODEFv2/Key.html" xlink:title="The type of action taken on the registry key. These values are maintained in the &quot;Key&#45;registryaction&quot; IANA registry per Section 10.2.">
<polygon fill="none" stroke="#000000" points="8,-46 8,-67 214,-67 214,-46 8,-46"/>
<text text-anchor="start" x="27" y="-52.8" font-family="Nimbus Sans L" font-size="14.00" fill="#000000">[ENUM] registryaction (0..1)</text>
</a>
</g>
<g id="a_node1_4"><a xlink:href="/html/IODEFv2/Key.html" xlink:title="A means by which to extend the registryaction attribute. &#160;See Section 5.1.1.">
<polygon fill="none" stroke="#000000" points="8,-25 8,-46 214,-46 214,-25 8,-25"/>
<text text-anchor="start" x="11" y="-31.8" font-family="Nimbus Sans L" font-size="14.00" fill="#000000">[STRING] ext&#45;registryaction (0..1)</text>
</a>
</g>
<g id="a_node1_5"><a xlink:href="/html/IODEFv2/Key.html" xlink:title="See Section 3.3.2.">
<polygon fill="none" stroke="#000000" points="8,-4 8,-25 214,-25 214,-4 8,-4"/>
<text text-anchor="start" x="40" y="-10.8" font-family="Nimbus Sans L" font-size="14.00" fill="#000000">[ID] observable&#45;id (0..1)</text>
</a>
</g>
</g>
</g>
</svg>
