<?xml version="1.0" encoding="UTF-8" standalone="no"?>
<!DOCTYPE svg PUBLIC "-//W3C//DTD SVG 1.1//EN"
 "http://www.w3.org/Graphics/SVG/1.1/DTD/svg11.dtd">
<!-- Generated by graphviz version 2.40.1 (0)
 -->
<!-- Title: Method Pages: 1 -->
<svg width="512pt" height="142pt"
 viewBox="0.00 0.00 512.00 142.00" xmlns="http://www.w3.org/2000/svg" xmlns:xlink="http://www.w3.org/1999/xlink">
<g id="graph0" class="graph" transform="scale(1 1) rotate(0) translate(4 138)">
<title>Method</title>
<polygon fill="#ffffff" stroke="transparent" points="-4,4 -4,-138 508,-138 508,4 -4,4"/>
<!-- Method -->
<g id="node1" class="node">
<title>Method</title>
<g id="a_node1_0"><a xlink:href="/idmef_parser/IODEFv2/Method.html" xlink:title="The Method class describes the tactics, techniques, procedures, or weakness used by the threat actor in an incident. This class consists of both a list of references describing the attack methods and weaknesses and a free&#45;form text description. ">
<polygon fill="#cecece" stroke="transparent" points="8.5,-109 8.5,-130 225.5,-130 225.5,-109 8.5,-109"/>
<polygon fill="none" stroke="#000000" points="8.5,-109 8.5,-130 225.5,-130 225.5,-109 8.5,-109"/>
<text text-anchor="start" x="94" y="-115.8" font-family="Nimbus Sans L" font-size="14.00" fill="#000000">Method</text>
</a>
</g>
<g id="a_node1_1"><a xlink:href="/idmef_parser/IODEFv2/Method.html" xlink:title="A free&#45;form text description of techniques, tactics, or procedures used by the threat actor.">
<polygon fill="none" stroke="#000000" points="8.5,-88 8.5,-109 225.5,-109 225.5,-88 8.5,-88"/>
<text text-anchor="start" x="22" y="-94.8" font-family="Nimbus Sans L" font-size="14.00" fill="#000000">[ML_STRING] Description (0..*)</text>
</a>
</g>
<g id="a_node1_2"><a xlink:href="/idmef_parser/IODEFv2/Method.html" xlink:title="A reference to the exploited weakness per [RFC7203].">
<polygon fill="none" stroke="#000000" points="8.5,-67 8.5,-88 225.5,-88 225.5,-67 8.5,-67"/>
<text text-anchor="start" x="95" y="-73.8" font-family="Nimbus Sans L" font-size="14.00" fill="#000000">[] &#160;(0..*)</text>
</a>
</g>
<g id="a_node1_3"><a xlink:href="/idmef_parser/IODEFv2/Method.html" xlink:title="A mechanism by which to extend the data model.">
<polygon fill="none" stroke="#000000" points="8.5,-46 8.5,-67 225.5,-67 225.5,-46 8.5,-46"/>
<text text-anchor="start" x="11.5" y="-52.8" font-family="Nimbus Sans L" font-size="14.00" fill="#000000">[EXTENSION] AdditionalData (0..*)</text>
</a>
</g>
<g id="a_node1_4"><a xlink:href="/idmef_parser/IODEFv2/Method.html" xlink:title="See Section 3.3.1.">
<polygon fill="none" stroke="#000000" points="8.5,-25 8.5,-46 225.5,-46 225.5,-25 8.5,-25"/>
<text text-anchor="start" x="44" y="-31.8" font-family="Nimbus Sans L" font-size="14.00" fill="#000000">[ENUM] restriction (0..1)</text>
</a>
</g>
<g id="a_node1_5"><a xlink:href="/idmef_parser/IODEFv2/Method.html" xlink:title="A means by which to extend the restriction attribute. &#160;See Section 5.1.1.">
<polygon fill="none" stroke="#000000" points="8.5,-4 8.5,-25 225.5,-25 225.5,-4 8.5,-4"/>
<text text-anchor="start" x="28" y="-10.8" font-family="Nimbus Sans L" font-size="14.00" fill="#000000">[STRING] ext&#45;restriction (0..1)</text>
</a>
</g>
</g>
<!-- Reference -->
<g id="node2" class="node">
<title>Reference</title>
<g id="a_node2_6"><a xlink:href="/idmef_parser/IODEFv2/Reference.html" xlink:title="The Reference class is an external reference to relevant information such as a vulnerability, IDS alert, malware sample, advisory, or attack technique. ">
<polygon fill="#cecece" stroke="transparent" points="300,-98 300,-119 496,-119 496,-98 300,-98"/>
<polygon fill="none" stroke="#000000" points="300,-98 300,-119 496,-119 496,-98 300,-98"/>
<text text-anchor="start" x="366.5" y="-104.8" font-family="Nimbus Sans L" font-size="14.00" fill="#000000">Reference</text>
</a>
</g>
<g id="a_node2_7"><a xlink:href="/idmef_parser/IODEFv2/Reference.html" xlink:title="Reference identifier per [RFC7495].">
<polygon fill="none" stroke="#000000" points="300,-77 300,-98 496,-98 496,-77 300,-77"/>
<text text-anchor="start" x="374.5" y="-83.8" font-family="Nimbus Sans L" font-size="14.00" fill="#000000">[] &#160;(0..1)</text>
</a>
</g>
<g id="a_node2_8"><a xlink:href="/idmef_parser/IODEFv2/Reference.html" xlink:title="A URL to a reference.">
<polygon fill="none" stroke="#000000" points="300,-56 300,-77 496,-77 496,-56 300,-56"/>
<text text-anchor="start" x="349.5" y="-62.8" font-family="Nimbus Sans L" font-size="14.00" fill="#000000">[URL] URL (0..*)</text>
</a>
</g>
<g id="a_node2_9"><a xlink:href="/idmef_parser/IODEFv2/Reference.html" xlink:title="A free&#45;form text description of this reference.">
<polygon fill="none" stroke="#000000" points="300,-35 300,-56 496,-56 496,-35 300,-35"/>
<text text-anchor="start" x="303" y="-41.8" font-family="Nimbus Sans L" font-size="14.00" fill="#000000">[ML_STRING] Description (0..*)</text>
</a>
</g>
<g id="a_node2_10"><a xlink:href="/idmef_parser/IODEFv2/Reference.html" xlink:title="See Section 3.3.2.">
<polygon fill="none" stroke="#000000" points="300,-14 300,-35 496,-35 496,-14 300,-14"/>
<text text-anchor="start" x="327" y="-20.8" font-family="Nimbus Sans L" font-size="14.00" fill="#000000">[ID] observable&#45;id (0..1)</text>
</a>
</g>
</g>
<!-- Method&#45;&gt;Reference -->
<g id="edge1" class="edge">
<title>Method&#45;&gt;Reference</title>
<path fill="none" stroke="#000000" d="M233.0288,-67C249.0347,-67 265.4713,-67 281.477,-67"/>
<polygon fill="#000000" stroke="#000000" points="281.924,-70.5001 291.924,-67 281.924,-63.5001 281.924,-70.5001"/>
<text text-anchor="middle" x="262.5" y="-70.8" font-family="Times,serif" font-size="14.00" fill="#000000">0..*</text>
</g>
</g>
</svg>
