<?xml version="1.0" encoding="UTF-8" standalone="no"?>
<!DOCTYPE svg PUBLIC "-//W3C//DTD SVG 1.1//EN"
 "http://www.w3.org/Graphics/SVG/1.1/DTD/svg11.dtd">
<!-- Generated by graphviz version 2.40.1 (0)
 -->
<!-- Title: Nameservers Pages: 1 -->
<svg width="300pt" height="58pt"
 viewBox="0.00 0.00 300.00 58.00" xmlns="http://www.w3.org/2000/svg" xmlns:xlink="http://www.w3.org/1999/xlink">
<g id="graph0" class="graph" transform="scale(1 1) rotate(0) translate(4 54)">
<title>Nameservers</title>
<polygon fill="#ffffff" stroke="transparent" points="-4,4 -4,-54 296,-54 296,4 -4,4"/>
<!-- Nameservers -->
<g id="node1" class="node">
<title>Nameservers</title>
<g id="a_node1_0"><a xlink:href="/html/IODEFv2/Nameservers.html" xlink:title="The Nameservers class describes the nameservers associated with a given domain. ">
<polygon fill="#cecece" stroke="transparent" points="8.5,-25 8.5,-46 153.5,-46 153.5,-25 8.5,-25"/>
<polygon fill="none" stroke="#000000" points="8.5,-25 8.5,-46 153.5,-46 153.5,-25 8.5,-25"/>
<text text-anchor="start" x="40" y="-31.8" font-family="Nimbus Sans L" font-size="14.00" fill="#000000">Nameservers</text>
</a>
</g>
<g id="a_node1_1"><a xlink:href="/html/IODEFv2/Nameservers.html" xlink:title="The domain name of the nameserver.">
<polygon fill="none" stroke="#000000" points="8.5,-4 8.5,-25 153.5,-25 153.5,-4 8.5,-4"/>
<text text-anchor="start" x="11.5" y="-10.8" font-family="Nimbus Sans L" font-size="14.00" fill="#000000">[STRING] Server (1..1)</text>
</a>
</g>
</g>
<!-- Address -->
<g id="node2" class="node">
<title>Address</title>
<g id="a_node2_2"><a xlink:href="/html/IODEFv2/Address.html" xlink:title="The Address class represents a hardware (Layer 2), network (Layer 3), or application (Layer 7) address. ">
<polygon fill="#cecece" stroke="transparent" points="228,-14 228,-35 284,-35 284,-14 228,-14"/>
<polygon fill="none" stroke="#000000" points="228,-14 228,-35 284,-35 284,-14 228,-14"/>
<text text-anchor="start" x="231" y="-20.8" font-family="Nimbus Sans L" font-size="14.00" fill="#000000">Address</text>
</a>
</g>
</g>
<!-- Nameservers&#45;&gt;Address -->
<g id="edge1" class="edge">
<title>Nameservers&#45;&gt;Address</title>
<path fill="none" stroke="#000000" d="M161.0589,-25C177.5912,-25 194.4662,-25 209.3154,-25"/>
<polygon fill="#000000" stroke="#000000" points="209.7361,-28.5001 219.7361,-25 209.7361,-21.5001 209.7361,-28.5001"/>
<text text-anchor="middle" x="190.5" y="-28.8" font-family="Times,serif" font-size="14.00" fill="#000000">1..*</text>
</g>
</g>
</svg>
