<?xml version="1.0" encoding="UTF-8" standalone="no"?>
<!DOCTYPE svg PUBLIC "-//W3C//DTD SVG 1.1//EN"
 "http://www.w3.org/Graphics/SVG/1.1/DTD/svg11.dtd">
<!-- Generated by graphviz version 2.40.1 (0)
 -->
<!-- Title: RelatedActivity Pages: 1 -->
<svg width="533pt" height="499pt"
 viewBox="0.00 0.00 533.00 499.00" xmlns="http://www.w3.org/2000/svg" xmlns:xlink="http://www.w3.org/1999/xlink">
<g id="graph0" class="graph" transform="scale(1 1) rotate(0) translate(4 495)">
<title>RelatedActivity</title>
<polygon fill="#ffffff" stroke="transparent" points="-4,4 -4,-495 529,-495 529,4 -4,4"/>
<!-- RelatedActivity -->
<g id="node1" class="node">
<title>RelatedActivity</title>
<g id="a_node1_0"><a xlink:href="/html/IODEFv2/RelatedActivity.html" xlink:title="The RelatedActivity class relates the information described in the rest of the document to previously observed incidents or activity and allows attribution to a specific actor or campaign. ">
<polygon fill="#cecece" stroke="transparent" points="8.5,-228 8.5,-249 225.5,-249 225.5,-228 8.5,-228"/>
<polygon fill="none" stroke="#000000" points="8.5,-228 8.5,-249 225.5,-249 225.5,-228 8.5,-228"/>
<text text-anchor="start" x="72" y="-234.8" font-family="Nimbus Sans L" font-size="14.00" fill="#000000">RelatedActivity</text>
</a>
</g>
<g id="a_node1_1"><a xlink:href="/html/IODEFv2/RelatedActivity.html" xlink:title="A URL to activity related to this incident.">
<polygon fill="none" stroke="#000000" points="8.5,-207 8.5,-228 225.5,-228 225.5,-207 8.5,-207"/>
<text text-anchor="start" x="68.5" y="-213.8" font-family="Nimbus Sans L" font-size="14.00" fill="#000000">[URL] URL (0..*)</text>
</a>
</g>
<g id="a_node1_2"><a xlink:href="/html/IODEFv2/RelatedActivity.html" xlink:title="A description of how these relationships were derived.">
<polygon fill="none" stroke="#000000" points="8.5,-186 8.5,-207 225.5,-207 225.5,-186 8.5,-186"/>
<text text-anchor="start" x="22" y="-192.8" font-family="Nimbus Sans L" font-size="14.00" fill="#000000">[ML_STRING] Description (0..*)</text>
</a>
</g>
<g id="a_node1_3"><a xlink:href="/html/IODEFv2/RelatedActivity.html" xlink:title="A mechanism by which to extend the data model.">
<polygon fill="none" stroke="#000000" points="8.5,-165 8.5,-186 225.5,-186 225.5,-165 8.5,-165"/>
<text text-anchor="start" x="11.5" y="-171.8" font-family="Nimbus Sans L" font-size="14.00" fill="#000000">[EXTENSION] AdditionalData (0..*)</text>
</a>
</g>
<g id="a_node1_4"><a xlink:href="/html/IODEFv2/RelatedActivity.html" xlink:title="See Section 3.3.1.">
<polygon fill="none" stroke="#000000" points="8.5,-144 8.5,-165 225.5,-165 225.5,-144 8.5,-144"/>
<text text-anchor="start" x="44" y="-150.8" font-family="Nimbus Sans L" font-size="14.00" fill="#000000">[ENUM] restriction (0..1)</text>
</a>
</g>
<g id="a_node1_5"><a xlink:href="/html/IODEFv2/RelatedActivity.html" xlink:title="A means by which to extend the restriction attribute. &#160;See Section 5.1.1.">
<polygon fill="none" stroke="#000000" points="8.5,-123 8.5,-144 225.5,-144 225.5,-123 8.5,-123"/>
<text text-anchor="start" x="28" y="-129.8" font-family="Nimbus Sans L" font-size="14.00" fill="#000000">[STRING] ext&#45;restriction (0..1)</text>
</a>
</g>
</g>
<!-- IncidentID -->
<g id="node2" class="node">
<title>IncidentID</title>
<g id="a_node2_6"><a xlink:href="/html/IODEFv2/IncidentID.html" xlink:title="The IncidentID class represents a tracking number that is unique in the context of the CSIRT. It serves as an identifier for an incident or a document identifier when sharing indicators. This identifier would serve as an index into a CSIRT&#39;s incident handling or knowledge management system. ">
<polygon fill="#cecece" stroke="transparent" points="375.5,-462 375.5,-483 442.5,-483 442.5,-462 375.5,-462"/>
<polygon fill="none" stroke="#000000" points="375.5,-462 375.5,-483 442.5,-483 442.5,-462 375.5,-462"/>
<text text-anchor="start" x="378.5" y="-468.8" font-family="Nimbus Sans L" font-size="14.00" fill="#000000">IncidentID</text>
</a>
</g>
</g>
<!-- RelatedActivity&#45;&gt;IncidentID -->
<g id="edge1" class="edge">
<title>RelatedActivity&#45;&gt;IncidentID</title>
<path fill="none" stroke="#000000" d="M144.4177,-253.1426C172.7802,-312.9455 222.4455,-398.1705 292,-446 310.9774,-459.0499 335.3835,-465.86 356.9499,-469.3875"/>
<polygon fill="#000000" stroke="#000000" points="356.553,-472.8663 366.9499,-470.8282 357.5513,-465.9379 356.553,-472.8663"/>
<text text-anchor="middle" x="262.5" y="-433.8" font-family="Times,serif" font-size="14.00" fill="#000000">0..*</text>
</g>
<!-- ThreatActor -->
<g id="node3" class="node">
<title>ThreatActor</title>
<g id="a_node3_7"><a xlink:href="/html/IODEFv2/ThreatActor.html" xlink:title="The ThreatActor class describes a threat actor. ">
<polygon fill="#cecece" stroke="transparent" points="300.5,-411 300.5,-432 517.5,-432 517.5,-411 300.5,-411"/>
<polygon fill="none" stroke="#000000" points="300.5,-411 300.5,-432 517.5,-432 517.5,-411 300.5,-411"/>
<text text-anchor="start" x="373.5" y="-417.8" font-family="Nimbus Sans L" font-size="14.00" fill="#000000">ThreatActor</text>
</a>
</g>
<g id="a_node3_8"><a xlink:href="/html/IODEFv2/ThreatActor.html" xlink:title="An identifier for the threat actor.">
<polygon fill="none" stroke="#000000" points="300.5,-390 300.5,-411 517.5,-411 517.5,-390 300.5,-390"/>
<text text-anchor="start" x="319.5" y="-396.8" font-family="Nimbus Sans L" font-size="14.00" fill="#000000">[STRING] ThreatActorID (0..*)</text>
</a>
</g>
<g id="a_node3_9"><a xlink:href="/html/IODEFv2/ThreatActor.html" xlink:title="A URL to a reference describing the threat actor.">
<polygon fill="none" stroke="#000000" points="300.5,-369 300.5,-390 517.5,-390 517.5,-369 300.5,-369"/>
<text text-anchor="start" x="360.5" y="-375.8" font-family="Nimbus Sans L" font-size="14.00" fill="#000000">[URL] URL (0..*)</text>
</a>
</g>
<g id="a_node3_10"><a xlink:href="/html/IODEFv2/ThreatActor.html" xlink:title="A description of the threat actor.">
<polygon fill="none" stroke="#000000" points="300.5,-348 300.5,-369 517.5,-369 517.5,-348 300.5,-348"/>
<text text-anchor="start" x="314" y="-354.8" font-family="Nimbus Sans L" font-size="14.00" fill="#000000">[ML_STRING] Description (0..*)</text>
</a>
</g>
<g id="a_node3_11"><a xlink:href="/html/IODEFv2/ThreatActor.html" xlink:title="A mechanism by which to extend the data model.">
<polygon fill="none" stroke="#000000" points="300.5,-327 300.5,-348 517.5,-348 517.5,-327 300.5,-327"/>
<text text-anchor="start" x="303.5" y="-333.8" font-family="Nimbus Sans L" font-size="14.00" fill="#000000">[EXTENSION] AdditionalData (0..*)</text>
</a>
</g>
<g id="a_node3_12"><a xlink:href="/html/IODEFv2/ThreatActor.html" xlink:title="See Section 3.3.1.">
<polygon fill="none" stroke="#000000" points="300.5,-306 300.5,-327 517.5,-327 517.5,-306 300.5,-306"/>
<text text-anchor="start" x="336" y="-312.8" font-family="Nimbus Sans L" font-size="14.00" fill="#000000">[ENUM] restriction (0..1)</text>
</a>
</g>
<g id="a_node3_13"><a xlink:href="/html/IODEFv2/ThreatActor.html" xlink:title="A means by which to extend the restriction attribute. &#160;See Section 5.1.1.">
<polygon fill="none" stroke="#000000" points="300.5,-285 300.5,-306 517.5,-306 517.5,-285 300.5,-285"/>
<text text-anchor="start" x="320" y="-291.8" font-family="Nimbus Sans L" font-size="14.00" fill="#000000">[STRING] ext&#45;restriction (0..1)</text>
</a>
</g>
</g>
<!-- RelatedActivity&#45;&gt;ThreatActor -->
<g id="edge2" class="edge">
<title>RelatedActivity&#45;&gt;ThreatActor</title>
<path fill="none" stroke="#000000" d="M229.8128,-253.1339C247.3092,-263.5 265.4658,-274.2571 283.2061,-284.7677"/>
<polygon fill="#000000" stroke="#000000" points="281.4894,-287.8187 291.8768,-289.9048 285.0575,-281.7963 281.4894,-287.8187"/>
<text text-anchor="middle" x="262.5" y="-280.8" font-family="Times,serif" font-size="14.00" fill="#000000">0..*</text>
</g>
<!-- Campaign -->
<g id="node4" class="node">
<title>Campaign</title>
<g id="a_node4_14"><a xlink:href="/html/IODEFv2/Campaign.html" xlink:title="The Campaign class describes a campaign of attacks by a threat actor. ">
<polygon fill="#cecece" stroke="transparent" points="300.5,-238 300.5,-259 517.5,-259 517.5,-238 300.5,-238"/>
<polygon fill="none" stroke="#000000" points="300.5,-238 300.5,-259 517.5,-259 517.5,-238 300.5,-238"/>
<text text-anchor="start" x="377.5" y="-244.8" font-family="Nimbus Sans L" font-size="14.00" fill="#000000">Campaign</text>
</a>
</g>
<g id="a_node4_15"><a xlink:href="/html/IODEFv2/Campaign.html" xlink:title="An identifier for the campaign.">
<polygon fill="none" stroke="#000000" points="300.5,-217 300.5,-238 517.5,-238 517.5,-217 300.5,-217"/>
<text text-anchor="start" x="323.5" y="-223.8" font-family="Nimbus Sans L" font-size="14.00" fill="#000000">[STRING] CampaignID (0..*)</text>
</a>
</g>
<g id="a_node4_16"><a xlink:href="/html/IODEFv2/Campaign.html" xlink:title="A URL to a reference describing the campaign.">
<polygon fill="none" stroke="#000000" points="300.5,-196 300.5,-217 517.5,-217 517.5,-196 300.5,-196"/>
<text text-anchor="start" x="360.5" y="-202.8" font-family="Nimbus Sans L" font-size="14.00" fill="#000000">[URL] URL (0..*)</text>
</a>
</g>
<g id="a_node4_17"><a xlink:href="/html/IODEFv2/Campaign.html" xlink:title="A description of the campaign.">
<polygon fill="none" stroke="#000000" points="300.5,-175 300.5,-196 517.5,-196 517.5,-175 300.5,-175"/>
<text text-anchor="start" x="314" y="-181.8" font-family="Nimbus Sans L" font-size="14.00" fill="#000000">[ML_STRING] Description (0..*)</text>
</a>
</g>
<g id="a_node4_18"><a xlink:href="/html/IODEFv2/Campaign.html" xlink:title="A mechanism by which to extend the data model.">
<polygon fill="none" stroke="#000000" points="300.5,-154 300.5,-175 517.5,-175 517.5,-154 300.5,-154"/>
<text text-anchor="start" x="303.5" y="-160.8" font-family="Nimbus Sans L" font-size="14.00" fill="#000000">[EXTENSION] AdditionalData (0..*)</text>
</a>
</g>
<g id="a_node4_19"><a xlink:href="/html/IODEFv2/Campaign.html" xlink:title="See Section 3.3.1.">
<polygon fill="none" stroke="#000000" points="300.5,-133 300.5,-154 517.5,-154 517.5,-133 300.5,-133"/>
<text text-anchor="start" x="336" y="-139.8" font-family="Nimbus Sans L" font-size="14.00" fill="#000000">[ENUM] restriction (0..1)</text>
</a>
</g>
<g id="a_node4_20"><a xlink:href="/html/IODEFv2/Campaign.html" xlink:title="A means by which to extend the restriction attribute. &#160;See Section 5.1.1.">
<polygon fill="none" stroke="#000000" points="300.5,-112 300.5,-133 517.5,-133 517.5,-112 300.5,-112"/>
<text text-anchor="start" x="320" y="-118.8" font-family="Nimbus Sans L" font-size="14.00" fill="#000000">[STRING] ext&#45;restriction (0..1)</text>
</a>
</g>
</g>
<!-- RelatedActivity&#45;&gt;Campaign -->
<g id="edge3" class="edge">
<title>RelatedActivity&#45;&gt;Campaign</title>
<path fill="none" stroke="#000000" d="M233.165,-186C248.9325,-186 265.1762,-186 281.1187,-186"/>
<polygon fill="#000000" stroke="#000000" points="281.5438,-189.5001 291.5438,-186 281.5437,-182.5001 281.5438,-189.5001"/>
<text text-anchor="middle" x="262.5" y="-189.8" font-family="Times,serif" font-size="14.00" fill="#000000">0..*</text>
</g>
<!-- IndicatorID -->
<g id="node5" class="node">
<title>IndicatorID</title>
<g id="a_node5_21"><a xlink:href="/html/IODEFv2/IndicatorID.html" xlink:title="The IndicatorID class identifies an indicator with a globally unique identifier. The combination of the name and version attributes and the element content form this identifier. Indicators generated by given CSIRT MUST NOT reuse the same value unless they are referencing the same indicator. ">
<polygon fill="#cecece" stroke="transparent" points="372.5,-61 372.5,-82 444.5,-82 444.5,-61 372.5,-61"/>
<polygon fill="none" stroke="#000000" points="372.5,-61 372.5,-82 444.5,-82 444.5,-61 372.5,-61"/>
<text text-anchor="start" x="375.5" y="-67.8" font-family="Nimbus Sans L" font-size="14.00" fill="#000000">IndicatorID</text>
</a>
</g>
</g>
<!-- RelatedActivity&#45;&gt;IndicatorID -->
<g id="edge4" class="edge">
<title>RelatedActivity&#45;&gt;IndicatorID</title>
<path fill="none" stroke="#000000" d="M233.4376,-124.3112C252.7006,-115.4289 272.687,-106.957 292,-100 312.0068,-92.7931 334.6125,-86.877 354.5512,-82.3701"/>
<polygon fill="#000000" stroke="#000000" points="355.3866,-85.7702 364.4034,-80.2071 353.8854,-78.933 355.3866,-85.7702"/>
<text text-anchor="middle" x="262.5" y="-118.8" font-family="Times,serif" font-size="14.00" fill="#000000">0..*</text>
</g>
<!-- Confidence -->
<g id="node6" class="node">
<title>Confidence</title>
<g id="a_node6_22"><a xlink:href="/html/IODEFv2/Confidence.html" xlink:title="The Confidence class represents an estimate of the validity and accuracy of data expressed in the document. This estimate can be expressed as a category or a numeric calculation. ">
<polygon fill="#cecece" stroke="transparent" points="371.5,-7 371.5,-28 446.5,-28 446.5,-7 371.5,-7"/>
<polygon fill="none" stroke="#000000" points="371.5,-7 371.5,-28 446.5,-28 446.5,-7 371.5,-7"/>
<text text-anchor="start" x="374.5" y="-13.8" font-family="Nimbus Sans L" font-size="14.00" fill="#000000">Confidence</text>
</a>
</g>
</g>
<!-- RelatedActivity&#45;&gt;Confidence -->
<g id="edge5" class="edge">
<title>RelatedActivity&#45;&gt;Confidence</title>
<path fill="none" stroke="#000000" d="M185.3224,-118.6974C215.8334,-92.2032 253.5059,-63.7031 292,-45 310.9306,-35.8022 333.1367,-29.655 353.0556,-25.5848"/>
<polygon fill="#000000" stroke="#000000" points="353.7651,-29.0126 362.9288,-23.6949 352.4491,-22.1374 353.7651,-29.0126"/>
<text text-anchor="middle" x="262.5" y="-69.8" font-family="Times,serif" font-size="14.00" fill="#000000">0..1</text>
</g>
</g>
</svg>
