<?xml version="1.0" encoding="UTF-8" standalone="no"?>
<!DOCTYPE svg PUBLIC "-//W3C//DTD SVG 1.1//EN"
 "http://www.w3.org/Graphics/SVG/1.1/DTD/svg11.dtd">
<!-- Generated by graphviz version 2.40.1 (0)
 -->
<!-- Title: Service Pages: 1 -->
<svg width="1129pt" height="404pt"
 viewBox="0.00 0.00 1129.00 404.00" xmlns="http://www.w3.org/2000/svg" xmlns:xlink="http://www.w3.org/1999/xlink">
<g id="graph0" class="graph" transform="scale(1 1) rotate(0) translate(4 400)">
<title>Service</title>
<polygon fill="#ffffff" stroke="transparent" points="-4,4 -4,-400 1125,-400 1125,4 -4,4"/>
<!-- Service -->
<g id="node1" class="node">
<title>Service</title>
<g id="a_node1_0"><a xlink:href="/idmef_parser/IODEFv2/Service.html" xlink:title="The Service class describes a network service. The service is described by a protocol, port, protocol header field, and application providing or using the service. ">
<polygon fill="#cecece" stroke="transparent" points="8,-334 8,-355 204,-355 204,-334 8,-334"/>
<polygon fill="none" stroke="#000000" points="8,-334 8,-355 204,-355 204,-334 8,-334"/>
<text text-anchor="start" x="83" y="-340.8" font-family="Nimbus Sans L" font-size="14.00" fill="#000000">Service</text>
</a>
</g>
<g id="a_node1_1"><a xlink:href="/idmef_parser/IODEFv2/Service.html" xlink:title="A port number.">
<polygon fill="none" stroke="#000000" points="8,-313 8,-334 204,-334 204,-313 8,-313"/>
<text text-anchor="start" x="39.5" y="-319.8" font-family="Nimbus Sans L" font-size="14.00" fill="#000000">[INTEGER] Port (0..1)</text>
</a>
</g>
<g id="a_node1_2"><a xlink:href="/idmef_parser/IODEFv2/Service.html" xlink:title="A list of port numbers.">
<polygon fill="none" stroke="#000000" points="8,-292 8,-313 204,-313 204,-292 8,-292"/>
<text text-anchor="start" x="28.5" y="-298.8" font-family="Nimbus Sans L" font-size="14.00" fill="#000000">[PORTLIST] Portlist (0..1)</text>
</a>
</g>
<g id="a_node1_3"><a xlink:href="/idmef_parser/IODEFv2/Service.html" xlink:title="A transport&#45;layer (Layer 4) protocol&#45; specific code field (e.g., ICMP code field).">
<polygon fill="none" stroke="#000000" points="8,-271 8,-292 204,-292 204,-271 8,-271"/>
<text text-anchor="start" x="20" y="-277.8" font-family="Nimbus Sans L" font-size="14.00" fill="#000000">[INTEGER] ProtoCode (0..1)</text>
</a>
</g>
<g id="a_node1_4"><a xlink:href="/idmef_parser/IODEFv2/Service.html" xlink:title="A transport&#45;layer (Layer 4) protocol&#45; specific type field (e.g., ICMP type field).">
<polygon fill="none" stroke="#000000" points="8,-250 8,-271 204,-271 204,-250 8,-250"/>
<text text-anchor="start" x="22.5" y="-256.8" font-family="Nimbus Sans L" font-size="14.00" fill="#000000">[INTEGER] ProtoType (0..1)</text>
</a>
</g>
<g id="a_node1_5"><a xlink:href="/idmef_parser/IODEFv2/Service.html" xlink:title="A transport&#45;layer (Layer 4) protocol&#45; specific flag field (e.g., TCP flag field).">
<polygon fill="none" stroke="#000000" points="8,-229 8,-250 204,-250 204,-229 8,-229"/>
<text text-anchor="start" x="21.5" y="-235.8" font-family="Nimbus Sans L" font-size="14.00" fill="#000000">[INTEGER] ProtoField (0..1)</text>
</a>
</g>
<g id="a_node1_6"><a xlink:href="/idmef_parser/IODEFv2/Service.html" xlink:title="The application acting as either the client or the server for the service.">
<polygon fill="none" stroke="#000000" points="8,-208 8,-229 204,-229 204,-208 8,-208"/>
<text text-anchor="start" x="11" y="-214.8" font-family="Nimbus Sans L" font-size="14.00" fill="#000000">[SOFTWARE] Application (0..1)</text>
</a>
</g>
<g id="a_node1_7"><a xlink:href="/idmef_parser/IODEFv2/Service.html" xlink:title="The IANA&#45;assigned IP protocol number per [IANA.Protocols]. &#160;The attribute MUST be set if a Port, Portlist, ProtoCode, ProtoType, or ProtoField class is present.">
<polygon fill="none" stroke="#000000" points="8,-187 8,-208 204,-208 204,-187 8,-187"/>
<text text-anchor="start" x="20.5" y="-193.8" font-family="Nimbus Sans L" font-size="14.00" fill="#000000">[INTEGER] ip&#45;protocol (0..1)</text>
</a>
</g>
<g id="a_node1_8"><a xlink:href="/idmef_parser/IODEFv2/Service.html" xlink:title="See Section 3.3.2.">
<polygon fill="none" stroke="#000000" points="8,-166 8,-187 204,-187 204,-166 8,-166"/>
<text text-anchor="start" x="35" y="-172.8" font-family="Nimbus Sans L" font-size="14.00" fill="#000000">[ID] observable&#45;id (0..1)</text>
</a>
</g>
</g>
<!-- ServiceName -->
<g id="node2" class="node">
<title>ServiceName</title>
<g id="a_node2_9"><a xlink:href="/idmef_parser/IODEFv2/ServiceName.html" xlink:title="The ServiceName class identifies an application protocol. It can be described by referencing an IANA&#45;registered protocol, by referencing a URL, or with free&#45;form text. ">
<polygon fill="#cecece" stroke="transparent" points="315,-371 315,-392 511,-392 511,-371 315,-371"/>
<polygon fill="none" stroke="#000000" points="315,-371 315,-392 511,-392 511,-371 315,-371"/>
<text text-anchor="start" x="371.5" y="-377.8" font-family="Nimbus Sans L" font-size="14.00" fill="#000000">ServiceName</text>
</a>
</g>
<g id="a_node2_10"><a xlink:href="/idmef_parser/IODEFv2/ServiceName.html" xlink:title="The name of the service per the &quot;Service Name&quot; field of the registry [IANA.Ports].">
<polygon fill="none" stroke="#000000" points="315,-350 315,-371 511,-371 511,-350 315,-350"/>
<text text-anchor="start" x="325.5" y="-356.8" font-family="Nimbus Sans L" font-size="14.00" fill="#000000">[STRING] IANAService (0..1)</text>
</a>
</g>
<g id="a_node2_11"><a xlink:href="/idmef_parser/IODEFv2/ServiceName.html" xlink:title="A URL to a resource describing the service.">
<polygon fill="none" stroke="#000000" points="315,-329 315,-350 511,-350 511,-329 315,-329"/>
<text text-anchor="start" x="364.5" y="-335.8" font-family="Nimbus Sans L" font-size="14.00" fill="#000000">[URL] URL (0..*)</text>
</a>
</g>
<g id="a_node2_12"><a xlink:href="/idmef_parser/IODEFv2/ServiceName.html" xlink:title="A free&#45;form text description of the service.">
<polygon fill="none" stroke="#000000" points="315,-308 315,-329 511,-329 511,-308 315,-308"/>
<text text-anchor="start" x="318" y="-314.8" font-family="Nimbus Sans L" font-size="14.00" fill="#000000">[ML_STRING] Description (0..*)</text>
</a>
</g>
</g>
<!-- Service&#45;&gt;ServiceName -->
<g id="edge1" class="edge">
<title>Service&#45;&gt;ServiceName</title>
<path fill="none" stroke="#000000" d="M212.0819,-291.7534C239.5231,-299.7087 269.2063,-308.3139 297.1206,-316.4063"/>
<polygon fill="#000000" stroke="#000000" points="296.3348,-319.8225 306.9139,-319.2454 298.2839,-313.0994 296.3348,-319.8225"/>
<text text-anchor="middle" x="241.5" y="-305.8" font-family="Times,serif" font-size="14.00" fill="#000000">0..1</text>
</g>
<!-- ApplicationHeader -->
<g id="node3" class="node">
<title>ApplicationHeader</title>
<g id="a_node3_13"><a xlink:href="/idmef_parser/IODEFv2/ApplicationHeader.html" xlink:title="The ApplicationHeader class describes arbitrary fields from a protocol header and its corresponding value. ">
<polygon fill="#cecece" stroke="transparent" points="279,-261 279,-282 547,-282 547,-261 279,-261"/>
<polygon fill="none" stroke="#000000" points="279,-261 279,-282 547,-282 547,-261 279,-261"/>
<text text-anchor="start" x="357.5" y="-267.8" font-family="Nimbus Sans L" font-size="14.00" fill="#000000">ApplicationHeader</text>
</a>
</g>
<g id="a_node3_14"><a xlink:href="/idmef_parser/IODEFv2/ApplicationHeader.html" xlink:title="A field name and value in a protocol header. &#160;The name attribute MUST be set to the field name. &#160;The field value MUST be set in the element content.">
<polygon fill="none" stroke="#000000" points="279,-240 279,-261 547,-261 547,-240 279,-240"/>
<text text-anchor="start" x="282" y="-246.8" font-family="Nimbus Sans L" font-size="14.00" fill="#000000">[EXTENSION] ApplicationHeaderField (1..*)</text>
</a>
</g>
</g>
<!-- Service&#45;&gt;ApplicationHeader -->
<g id="edge2" class="edge">
<title>Service&#45;&gt;ApplicationHeader</title>
<path fill="none" stroke="#000000" d="M212.0819,-261C227.798,-261 244.2495,-261 260.6829,-261"/>
<polygon fill="#000000" stroke="#000000" points="260.9059,-264.5001 270.9059,-261 260.9059,-257.5001 260.9059,-264.5001"/>
<text text-anchor="middle" x="241.5" y="-264.8" font-family="Times,serif" font-size="14.00" fill="#000000">0..1</text>
</g>
<!-- EmailData -->
<g id="node4" class="node">
<title>EmailData</title>
<g id="a_node4_15"><a xlink:href="/idmef_parser/IODEFv2/EmailData.html" xlink:title="The EmailData class describes headers from an email message and cryptographic hashes and signatures applied to it. ">
<polygon fill="#cecece" stroke="transparent" points="295,-193 295,-214 532,-214 532,-193 295,-193"/>
<polygon fill="none" stroke="#000000" points="295,-193 295,-214 532,-214 532,-193 295,-193"/>
<text text-anchor="start" x="381.5" y="-199.8" font-family="Nimbus Sans L" font-size="14.00" fill="#000000">EmailData</text>
</a>
</g>
<g id="a_node4_16"><a xlink:href="/idmef_parser/IODEFv2/EmailData.html" xlink:title="The value of the &quot;To:&quot; header field (Section 3.6.3 of [RFC5322]) in an email.">
<polygon fill="none" stroke="#000000" points="295,-172 295,-193 532,-193 532,-172 295,-172"/>
<text text-anchor="start" x="347" y="-178.8" font-family="Nimbus Sans L" font-size="14.00" fill="#000000">[EMAIL] EmailTo (0..*)</text>
</a>
</g>
<g id="a_node4_17"><a xlink:href="/idmef_parser/IODEFv2/EmailData.html" xlink:title="The value of the &quot;From:&quot; header field (Section 3.6.2 of [RFC5322]) in an email.">
<polygon fill="none" stroke="#000000" points="295,-151 295,-172 532,-172 532,-151 295,-151"/>
<text text-anchor="start" x="336.5" y="-157.8" font-family="Nimbus Sans L" font-size="14.00" fill="#000000">[EMAIL] EmailFrom (0..1)</text>
</a>
</g>
<g id="a_node4_18"><a xlink:href="/idmef_parser/IODEFv2/EmailData.html" xlink:title="The value of the &quot;Subject:&quot; header field in an email. &#160;See Section 3.6.5 of [RFC5322].">
<polygon fill="none" stroke="#000000" points="295,-130 295,-151 532,-151 532,-130 295,-130"/>
<text text-anchor="start" x="324.5" y="-136.8" font-family="Nimbus Sans L" font-size="14.00" fill="#000000">[STRING] EmailSubject (0..1)</text>
</a>
</g>
<g id="a_node4_19"><a xlink:href="/idmef_parser/IODEFv2/EmailData.html" xlink:title="The value of the &quot;X&#45;Mailer:&quot; header field in an email.">
<polygon fill="none" stroke="#000000" points="295,-109 295,-130 532,-130 532,-109 295,-109"/>
<text text-anchor="start" x="322" y="-115.8" font-family="Nimbus Sans L" font-size="14.00" fill="#000000">[STRING] EmailX&#45;Mailer (0..1)</text>
</a>
</g>
<g id="a_node4_20"><a xlink:href="/idmef_parser/IODEFv2/EmailData.html" xlink:title="The header name and value of an arbitrary header field of the email message. &#160;The name attribute MUST be set to the header name. &#160;The header value MUST be set in the element body. &#160;The dtype attribute MUST be set to &quot;string&quot;.">
<polygon fill="none" stroke="#000000" points="295,-88 295,-109 532,-109 532,-88 295,-88"/>
<text text-anchor="start" x="298" y="-94.8" font-family="Nimbus Sans L" font-size="14.00" fill="#000000">[EXTENSION] EmailHeaderField (0..*)</text>
</a>
</g>
<g id="a_node4_21"><a xlink:href="/idmef_parser/IODEFv2/EmailData.html" xlink:title="The headers of an email message.">
<polygon fill="none" stroke="#000000" points="295,-67 295,-88 532,-88 532,-67 295,-67"/>
<text text-anchor="start" x="321.5" y="-73.8" font-family="Nimbus Sans L" font-size="14.00" fill="#000000">[STRING] EmailHeaders (0..1)</text>
</a>
</g>
<g id="a_node4_22"><a xlink:href="/idmef_parser/IODEFv2/EmailData.html" xlink:title="The body of an email message.">
<polygon fill="none" stroke="#000000" points="295,-46 295,-67 532,-67 532,-46 295,-46"/>
<text text-anchor="start" x="332" y="-52.8" font-family="Nimbus Sans L" font-size="14.00" fill="#000000">[STRING] EmailBody (0..1)</text>
</a>
</g>
<g id="a_node4_23"><a xlink:href="/idmef_parser/IODEFv2/EmailData.html" xlink:title="The headers and body of an email message.">
<polygon fill="none" stroke="#000000" points="295,-25 295,-46 532,-46 532,-25 295,-25"/>
<text text-anchor="start" x="319.5" y="-31.8" font-family="Nimbus Sans L" font-size="14.00" fill="#000000">[STRING] EmailMessage (0..1)</text>
</a>
</g>
<g id="a_node4_24"><a xlink:href="/idmef_parser/IODEFv2/EmailData.html" xlink:title="See Section 3.3.2.">
<polygon fill="none" stroke="#000000" points="295,-4 295,-25 532,-25 532,-4 295,-4"/>
<text text-anchor="start" x="342.5" y="-10.8" font-family="Nimbus Sans L" font-size="14.00" fill="#000000">[ID] observable&#45;id (0..1)</text>
</a>
</g>
</g>
<!-- Service&#45;&gt;EmailData -->
<g id="edge7" class="edge">
<title>Service&#45;&gt;EmailData</title>
<path fill="none" stroke="#000000" d="M212.0819,-208.4774C233.103,-198.0695 255.4398,-187.0103 277.2892,-176.1923"/>
<polygon fill="#000000" stroke="#000000" points="278.8791,-179.3107 286.2879,-171.737 275.7731,-173.0375 278.8791,-179.3107"/>
<text text-anchor="middle" x="241.5" y="-201.8" font-family="Times,serif" font-size="14.00" fill="#000000">0..1</text>
</g>
<!-- HashData -->
<g id="node5" class="node">
<title>HashData</title>
<g id="a_node5_25"><a xlink:href="/idmef_parser/IODEFv2/HashData.html" xlink:title="The HashData class describes different types of hashes on a given object (e.g., file, part of a file, email). ">
<polygon fill="#cecece" stroke="transparent" points="622.5,-179 622.5,-200 809.5,-200 809.5,-179 622.5,-179"/>
<polygon fill="none" stroke="#000000" points="622.5,-179 622.5,-200 809.5,-200 809.5,-179 622.5,-179"/>
<text text-anchor="start" x="685.5" y="-185.8" font-family="Nimbus Sans L" font-size="14.00" fill="#000000">HashData</text>
</a>
</g>
<g id="a_node5_26"><a xlink:href="/idmef_parser/IODEFv2/HashData.html" xlink:title="An identifier that references a subset of the object being hashed. &#160;The semantics of this identifier are specified by the scope attribute.">
<polygon fill="none" stroke="#000000" points="622.5,-158 622.5,-179 809.5,-179 809.5,-158 622.5,-158"/>
<text text-anchor="start" x="625.5" y="-164.8" font-family="Nimbus Sans L" font-size="14.00" fill="#000000">[STRING] HashTargetID (0..1)</text>
</a>
</g>
<g id="a_node5_27"><a xlink:href="/idmef_parser/IODEFv2/HashData.html" xlink:title="A means by which to extend the scope attribute. &#160;See Section 5.1.1.">
<polygon fill="none" stroke="#000000" points="622.5,-137 622.5,-158 809.5,-158 809.5,-137 622.5,-137"/>
<text text-anchor="start" x="649" y="-143.8" font-family="Nimbus Sans L" font-size="14.00" fill="#000000">[STRING] scope (0..1)</text>
</a>
</g>
</g>
<!-- EmailData&#45;&gt;HashData -->
<g id="edge5" class="edge">
<title>EmailData&#45;&gt;HashData</title>
<path fill="none" stroke="#000000" d="M539.5345,-134.0978C560.9186,-138.3392 582.9801,-142.7151 603.9465,-146.8737"/>
<polygon fill="#000000" stroke="#000000" points="603.3286,-150.3192 613.8185,-148.8318 604.6905,-143.453 603.3286,-150.3192"/>
<text text-anchor="middle" x="584.5" y="-147.8" font-family="Times,serif" font-size="14.00" fill="#000000">0..*</text>
</g>
<!-- SignatureData -->
<g id="node8" class="node">
<title>SignatureData</title>
<g id="a_node8_28"><a xlink:href="/idmef_parser/IODEFv2/SignatureData.html" xlink:title="The SignatureData class describes different types of digital signatures on an object. ">
<polygon fill="#cecece" stroke="transparent" points="661.5,-90 661.5,-111 769.5,-111 769.5,-90 661.5,-90"/>
<polygon fill="none" stroke="#000000" points="661.5,-90 661.5,-111 769.5,-111 769.5,-90 661.5,-90"/>
<text text-anchor="start" x="672" y="-96.8" font-family="Nimbus Sans L" font-size="14.00" fill="#000000">SignatureData</text>
</a>
</g>
<g id="a_node8_29"><a xlink:href="/idmef_parser/IODEFv2/SignatureData.html" xlink:title="A given signature. &#160;See Section 4.2 of [W3C.XMLSIG].">
<polygon fill="none" stroke="#000000" points="661.5,-69 661.5,-90 769.5,-90 769.5,-69 661.5,-69"/>
<text text-anchor="start" x="664.5" y="-75.8" font-family="Nimbus Sans L" font-size="14.00" fill="#000000">[] Signature (1..*)</text>
</a>
</g>
</g>
<!-- EmailData&#45;&gt;SignatureData -->
<g id="edge6" class="edge">
<title>EmailData&#45;&gt;SignatureData</title>
<path fill="none" stroke="#000000" d="M539.5345,-101.0524C574.8806,-98.8323 612.0776,-96.496 643.1203,-94.5462"/>
<polygon fill="#000000" stroke="#000000" points="643.6394,-98.0205 653.4003,-93.9005 643.2005,-91.0343 643.6394,-98.0205"/>
<text text-anchor="middle" x="584.5" y="-102.8" font-family="Times,serif" font-size="14.00" fill="#000000">0..*</text>
</g>
<!-- Hash -->
<g id="node6" class="node">
<title>Hash</title>
<g id="a_node6_30"><a xlink:href="/idmef_parser/IODEFv2/Hash.html" xlink:title="The Hash class describes a cryptographic hash value; the algorithm and application used to generate it; and the canonicalization method applied to the object being hashed. ">
<polygon fill="#cecece" stroke="transparent" points="900.5,-229 900.5,-250 1096.5,-250 1096.5,-229 900.5,-229"/>
<polygon fill="none" stroke="#000000" points="900.5,-229 900.5,-250 1096.5,-250 1096.5,-229 900.5,-229"/>
<text text-anchor="start" x="982.5" y="-235.8" font-family="Nimbus Sans L" font-size="14.00" fill="#000000">Hash</text>
</a>
</g>
<g id="a_node6_31"><a xlink:href="/idmef_parser/IODEFv2/Hash.html" xlink:title="The canonicalization method used on the object being hashed. &#160;See Section 4.3.1 of [W3C.XMLSIG].">
<polygon fill="none" stroke="#000000" points="900.5,-208 900.5,-229 1096.5,-229 1096.5,-208 900.5,-208"/>
<text text-anchor="start" x="975" y="-214.8" font-family="Nimbus Sans L" font-size="14.00" fill="#000000">[] &#160;(0..1)</text>
</a>
</g>
<g id="a_node6_32"><a xlink:href="/idmef_parser/IODEFv2/Hash.html" xlink:title="The application used to calculate the hash.">
<polygon fill="none" stroke="#000000" points="900.5,-187 900.5,-208 1096.5,-208 1096.5,-187 900.5,-187"/>
<text text-anchor="start" x="903.5" y="-193.8" font-family="Nimbus Sans L" font-size="14.00" fill="#000000">[SOFTWARE] Application (0..1)</text>
</a>
</g>
</g>
<!-- HashData&#45;&gt;Hash -->
<g id="edge3" class="edge">
<title>HashData&#45;&gt;Hash</title>
<path fill="none" stroke="#000000" d="M817.2697,-186.9805C838.432,-190.7194 860.8845,-194.6863 882.5143,-198.5078"/>
<polygon fill="#000000" stroke="#000000" points="881.9304,-201.9588 892.3869,-200.2521 883.1484,-195.0656 881.9304,-201.9588"/>
<text text-anchor="middle" x="846.5" y="-197.8" font-family="Times,serif" font-size="14.00" fill="#000000">0..*</text>
</g>
<!-- FuzzyHash -->
<g id="node7" class="node">
<title>FuzzyHash</title>
<g id="a_node7_33"><a xlink:href="/idmef_parser/IODEFv2/FuzzyHash.html" xlink:title="The FuzzyHash class describes a fuzzy hash and the application used to generate it. ">
<polygon fill="#cecece" stroke="transparent" points="884.5,-140 884.5,-161 1113.5,-161 1113.5,-140 884.5,-140"/>
<polygon fill="none" stroke="#000000" points="884.5,-140 884.5,-161 1113.5,-161 1113.5,-140 884.5,-140"/>
<text text-anchor="start" x="965.5" y="-146.8" font-family="Nimbus Sans L" font-size="14.00" fill="#000000">FuzzyHash</text>
</a>
</g>
<g id="a_node7_34"><a xlink:href="/idmef_parser/IODEFv2/FuzzyHash.html" xlink:title="The computed fuzzy hash value.">
<polygon fill="none" stroke="#000000" points="884.5,-119 884.5,-140 1113.5,-140 1113.5,-119 884.5,-119"/>
<text text-anchor="start" x="887.5" y="-125.8" font-family="Nimbus Sans L" font-size="14.00" fill="#000000">[EXTENSION] FuzzyHashValue (1..*)</text>
</a>
</g>
<g id="a_node7_35"><a xlink:href="/idmef_parser/IODEFv2/FuzzyHash.html" xlink:title="The application used to calculate the hash.">
<polygon fill="none" stroke="#000000" points="884.5,-98 884.5,-119 1113.5,-119 1113.5,-98 884.5,-98"/>
<text text-anchor="start" x="904" y="-104.8" font-family="Nimbus Sans L" font-size="14.00" fill="#000000">[SOFTWARE] Application (0..1)</text>
</a>
</g>
<g id="a_node7_36"><a xlink:href="/idmef_parser/IODEFv2/FuzzyHash.html" xlink:title="Mechanism by which to extend the data model.">
<polygon fill="none" stroke="#000000" points="884.5,-77 884.5,-98 1113.5,-98 1113.5,-77 884.5,-77"/>
<text text-anchor="start" x="893.5" y="-83.8" font-family="Nimbus Sans L" font-size="14.00" fill="#000000">[EXTENSION] AdditionalData (0..*)</text>
</a>
</g>
</g>
<!-- HashData&#45;&gt;FuzzyHash -->
<g id="edge4" class="edge">
<title>HashData&#45;&gt;FuzzyHash</title>
<path fill="none" stroke="#000000" d="M817.2697,-151.0195C833.017,-148.2373 849.4787,-145.3289 865.7842,-142.448"/>
<polygon fill="#000000" stroke="#000000" points="866.6703,-145.8458 875.9088,-140.6592 865.4523,-138.9525 866.6703,-145.8458"/>
<text text-anchor="middle" x="846.5" y="-149.8" font-family="Times,serif" font-size="14.00" fill="#000000">0..*</text>
</g>
</g>
</svg>
