<?xml version="1.0" encoding="UTF-8" standalone="no"?>
<!DOCTYPE svg PUBLIC "-//W3C//DTD SVG 1.1//EN"
 "http://www.w3.org/Graphics/SVG/1.1/DTD/svg11.dtd">
<!-- Generated by graphviz version 2.40.1 (0)
 -->
<!-- Title: ServiceName Pages: 1 -->
<svg width="220pt" height="100pt"
 viewBox="0.00 0.00 220.00 100.00" xmlns="http://www.w3.org/2000/svg" xmlns:xlink="http://www.w3.org/1999/xlink">
<g id="graph0" class="graph" transform="scale(1 1) rotate(0) translate(4 96)">
<title>ServiceName</title>
<polygon fill="#ffffff" stroke="transparent" points="-4,4 -4,-96 216,-96 216,4 -4,4"/>
<!-- ServiceName -->
<g id="node1" class="node">
<title>ServiceName</title>
<g id="a_node1_0"><a xlink:href="/html/IODEFv2/ServiceName.html" xlink:title="The ServiceName class identifies an application protocol. It can be described by referencing an IANA&#45;registered protocol, by referencing a URL, or with free&#45;form text. ">
<polygon fill="#cecece" stroke="transparent" points="8,-67 8,-88 204,-88 204,-67 8,-67"/>
<polygon fill="none" stroke="#000000" points="8,-67 8,-88 204,-88 204,-67 8,-67"/>
<text text-anchor="start" x="64.5" y="-73.8" font-family="Nimbus Sans L" font-size="14.00" fill="#000000">ServiceName</text>
</a>
</g>
<g id="a_node1_1"><a xlink:href="/html/IODEFv2/ServiceName.html" xlink:title="The name of the service per the &quot;Service Name&quot; field of the registry [IANA.Ports].">
<polygon fill="none" stroke="#000000" points="8,-46 8,-67 204,-67 204,-46 8,-46"/>
<text text-anchor="start" x="18.5" y="-52.8" font-family="Nimbus Sans L" font-size="14.00" fill="#000000">[STRING] IANAService (0..1)</text>
</a>
</g>
<g id="a_node1_2"><a xlink:href="/html/IODEFv2/ServiceName.html" xlink:title="A URL to a resource describing the service.">
<polygon fill="none" stroke="#000000" points="8,-25 8,-46 204,-46 204,-25 8,-25"/>
<text text-anchor="start" x="57.5" y="-31.8" font-family="Nimbus Sans L" font-size="14.00" fill="#000000">[URL] URL (0..*)</text>
</a>
</g>
<g id="a_node1_3"><a xlink:href="/html/IODEFv2/ServiceName.html" xlink:title="A free&#45;form text description of the service.">
<polygon fill="none" stroke="#000000" points="8,-4 8,-25 204,-25 204,-4 8,-4"/>
<text text-anchor="start" x="11" y="-10.8" font-family="Nimbus Sans L" font-size="14.00" fill="#000000">[ML_STRING] Description (0..*)</text>
</a>
</g>
</g>
</g>
</svg>
