<?xml version="1.0" encoding="UTF-8" standalone="no"?>
<!DOCTYPE svg PUBLIC "-//W3C//DTD SVG 1.1//EN"
 "http://www.w3.org/Graphics/SVG/1.1/DTD/svg11.dtd">
<!-- Generated by graphviz version 2.40.1 (0)
 -->
<!-- Title: WindowsRegistryKeysModified Pages: 1 -->
<svg width="498pt" height="142pt"
 viewBox="0.00 0.00 498.00 142.00" xmlns="http://www.w3.org/2000/svg" xmlns:xlink="http://www.w3.org/1999/xlink">
<g id="graph0" class="graph" transform="scale(1 1) rotate(0) translate(4 138)">
<title>WindowsRegistryKeysModified</title>
<polygon fill="#ffffff" stroke="transparent" points="-4,4 -4,-138 494,-138 494,4 -4,4"/>
<!-- WindowsRegistryKeysModified -->
<g id="node1" class="node">
<title>WindowsRegistryKeysModified</title>
<g id="a_node1_0"><a xlink:href="/html/IODEFv2/WindowsRegistryKeysModified.html" xlink:title="The WindowsRegistryKeysModified class describes Windows operating system registry keys and the operations that were performed on them. This class was derived from [RFC5901]. ">
<polygon fill="#cecece" stroke="transparent" points="8.5,-67 8.5,-88 201.5,-88 201.5,-67 8.5,-67"/>
<polygon fill="none" stroke="#000000" points="8.5,-67 8.5,-88 201.5,-88 201.5,-67 8.5,-67"/>
<text text-anchor="start" x="11.5" y="-73.8" font-family="Nimbus Sans L" font-size="14.00" fill="#000000">WindowsRegistryKeysModified</text>
</a>
</g>
<g id="a_node1_1"><a xlink:href="/html/IODEFv2/WindowsRegistryKeysModified.html" xlink:title="See Section 3.3.2.">
<polygon fill="none" stroke="#000000" points="8.5,-46 8.5,-67 201.5,-67 201.5,-46 8.5,-46"/>
<text text-anchor="start" x="34" y="-52.8" font-family="Nimbus Sans L" font-size="14.00" fill="#000000">[ID] observable&#45;id (0..1)</text>
</a>
</g>
</g>
<!-- Key -->
<g id="node2" class="node">
<title>Key</title>
<g id="a_node2_2"><a xlink:href="/html/IODEFv2/Key.html" xlink:title="The Key class describes a Windows operating system registry key name and value pair, as well as the operation performed on it. ">
<polygon fill="#cecece" stroke="transparent" points="276,-109 276,-130 482,-130 482,-109 276,-109"/>
<polygon fill="none" stroke="#000000" points="276,-109 276,-130 482,-130 482,-109 276,-109"/>
<text text-anchor="start" x="367.5" y="-115.8" font-family="Nimbus Sans L" font-size="14.00" fill="#000000">Key</text>
</a>
</g>
<g id="a_node2_3"><a xlink:href="/html/IODEFv2/Key.html" xlink:title="The name of a Windows operating system registry key (e.g., [HKEY_LOCAL_MACHINE\Software\Test\KeyName]).">
<polygon fill="none" stroke="#000000" points="276,-88 276,-109 482,-109 482,-88 276,-88"/>
<text text-anchor="start" x="300.5" y="-94.8" font-family="Nimbus Sans L" font-size="14.00" fill="#000000">[STRING] KeyName (1..1)</text>
</a>
</g>
<g id="a_node2_4"><a xlink:href="/html/IODEFv2/Key.html" xlink:title="The value of the registry key identified in the KeyName class encoded per the .reg file format [KB310516].">
<polygon fill="none" stroke="#000000" points="276,-67 276,-88 482,-88 482,-67 276,-67"/>
<text text-anchor="start" x="302" y="-73.8" font-family="Nimbus Sans L" font-size="14.00" fill="#000000">[STRING] KeyValue (0..1)</text>
</a>
</g>
<g id="a_node2_5"><a xlink:href="/html/IODEFv2/Key.html" xlink:title="The type of action taken on the registry key. These values are maintained in the &quot;Key&#45;registryaction&quot; IANA registry per Section 10.2.">
<polygon fill="none" stroke="#000000" points="276,-46 276,-67 482,-67 482,-46 276,-46"/>
<text text-anchor="start" x="295" y="-52.8" font-family="Nimbus Sans L" font-size="14.00" fill="#000000">[ENUM] registryaction (0..1)</text>
</a>
</g>
<g id="a_node2_6"><a xlink:href="/html/IODEFv2/Key.html" xlink:title="A means by which to extend the registryaction attribute. &#160;See Section 5.1.1.">
<polygon fill="none" stroke="#000000" points="276,-25 276,-46 482,-46 482,-25 276,-25"/>
<text text-anchor="start" x="279" y="-31.8" font-family="Nimbus Sans L" font-size="14.00" fill="#000000">[STRING] ext&#45;registryaction (0..1)</text>
</a>
</g>
<g id="a_node2_7"><a xlink:href="/html/IODEFv2/Key.html" xlink:title="See Section 3.3.2.">
<polygon fill="none" stroke="#000000" points="276,-4 276,-25 482,-25 482,-4 276,-4"/>
<text text-anchor="start" x="308" y="-10.8" font-family="Nimbus Sans L" font-size="14.00" fill="#000000">[ID] observable&#45;id (0..1)</text>
</a>
</g>
</g>
<!-- WindowsRegistryKeysModified&#45;&gt;Key -->
<g id="edge1" class="edge">
<title>WindowsRegistryKeysModified&#45;&gt;Key</title>
<path fill="none" stroke="#000000" d="M209.0597,-67C224.9944,-67 241.5533,-67 257.8076,-67"/>
<polygon fill="#000000" stroke="#000000" points="257.8805,-70.5001 267.8805,-67 257.8805,-63.5001 257.8805,-70.5001"/>
<text text-anchor="middle" x="238.5" y="-70.8" font-family="Times,serif" font-size="14.00" fill="#000000">1..*</text>
</g>
</g>
</svg>
