<?xml version="1.0" encoding="UTF-8" standalone="no"?>
<!DOCTYPE svg PUBLIC "-//W3C//DTD SVG 1.1//EN"
 "http://www.w3.org/Graphics/SVG/1.1/DTD/svg11.dtd">
<!-- Generated by graphviz version 2.40.1 (0)
 -->
<!-- Title: File Pages: 1 -->
<svg width="716pt" height="604pt"
 viewBox="0.00 0.00 716.00 604.00" xmlns="http://www.w3.org/2000/svg" xmlns:xlink="http://www.w3.org/1999/xlink">
<g id="graph0" class="graph" transform="scale(1 1) rotate(0) translate(4 600)">
<title>File</title>
<polygon fill="#ffffff" stroke="transparent" points="-4,4 -4,-600 712,-600 712,4 -4,4"/>
<!-- File -->
<g id="node1" class="node">
<title>File</title>
<g id="a_node1_0"><a xlink:href="/html/IDMEFv2/File.html" xlink:title="The File class provides specific information about a file or other file&#45;like object that has been created, deleted, or modified on the target. The description can provide either the file settings prior to the event or the file settings at the time of the event, as specified using the &quot;category&quot; attribute. ">
<polygon fill="#cca300" stroke="transparent" points="8.5,-411 8.5,-432 201.5,-432 201.5,-411 8.5,-411"/>
<polygon fill="none" stroke="#000000" points="8.5,-411 8.5,-432 201.5,-432 201.5,-411 8.5,-411"/>
<text text-anchor="start" x="94" y="-417.8" font-family="Nimbus Sans L" font-size="14.00" fill="#000000">File</text>
</a>
</g>
<g id="a_node1_1"><a xlink:href="/html/IDMEFv2/File.html" xlink:title="The name of the file to which the alert applies, not including the path to the file.">
<polygon fill="#ffcc00" stroke="transparent" points="8.5,-390 8.5,-411 201.5,-411 201.5,-390 8.5,-390"/>
<polygon fill="none" stroke="#000000" points="8.5,-390 8.5,-411 201.5,-411 201.5,-390 8.5,-390"/>
<text text-anchor="start" x="46" y="-396.8" font-family="Nimbus Sans L" font-size="14.00" fill="#000000">[STRING] name (1)</text>
</a>
</g>
<g id="a_node1_2"><a xlink:href="/html/IDMEFv2/File.html" xlink:title="The full path to the file, including the name. &#160;The path name should be represented in as &quot;universal&quot; a manner as possible, to facilitate processing of the alert.">
<polygon fill="#ffcc00" stroke="transparent" points="8.5,-369 8.5,-390 201.5,-390 201.5,-369 8.5,-369"/>
<polygon fill="none" stroke="#000000" points="8.5,-369 8.5,-390 201.5,-390 201.5,-369 8.5,-369"/>
<text text-anchor="start" x="50.5" y="-375.8" font-family="Nimbus Sans L" font-size="14.00" fill="#000000">[STRING] path (1)</text>
</a>
</g>
<g id="a_node1_3"><a xlink:href="/html/IDMEFv2/File.html" xlink:title="Time the file was created. &#160;Note that this is *not* the Unix &quot;st_ctime&quot; file attribute (which is not file creation time). &#160;The Unix &quot;st_ctime&quot; attribute is contained in the &quot;Inode&quot; class.">
<polygon fill="#ffcc00" stroke="transparent" points="8.5,-348 8.5,-369 201.5,-369 201.5,-348 8.5,-348"/>
<polygon fill="none" stroke="#000000" points="8.5,-348 8.5,-369 201.5,-369 201.5,-348 8.5,-348"/>
<text text-anchor="start" x="14" y="-354.8" font-family="Nimbus Sans L" font-size="14.00" fill="#000000">[DATETIME] create&#45;time (0..1)</text>
</a>
</g>
<g id="a_node1_4"><a xlink:href="/html/IDMEFv2/File.html" xlink:title="Time the file was last modified.">
<polygon fill="#ffcc00" stroke="transparent" points="8.5,-327 8.5,-348 201.5,-348 201.5,-327 8.5,-327"/>
<polygon fill="none" stroke="#000000" points="8.5,-327 8.5,-348 201.5,-348 201.5,-327 8.5,-327"/>
<text text-anchor="start" x="12.5" y="-333.8" font-family="Nimbus Sans L" font-size="14.00" fill="#000000">[DATETIME] modify&#45;time (0..1)</text>
</a>
</g>
<g id="a_node1_5"><a xlink:href="/html/IDMEFv2/File.html" xlink:title="Time the file was last accessed.">
<polygon fill="#ffcc00" stroke="transparent" points="8.5,-306 8.5,-327 201.5,-327 201.5,-306 8.5,-306"/>
<polygon fill="none" stroke="#000000" points="8.5,-306 8.5,-327 201.5,-327 201.5,-306 8.5,-306"/>
<text text-anchor="start" x="11.5" y="-312.8" font-family="Nimbus Sans L" font-size="14.00" fill="#000000">[DATETIME] access&#45;time (0..1)</text>
</a>
</g>
<g id="a_node1_6"><a xlink:href="/html/IDMEFv2/File.html" xlink:title="The size of the data, in bytes. &#160;Typically what is meant when referring to file size. &#160;On Unix UFS file systems, this value corresponds to stat.st_size. &#160;On Windows NTFS, this value corresponds to Valid Data Length (VDL).">
<polygon fill="#ffcc00" stroke="transparent" points="8.5,-285 8.5,-306 201.5,-306 201.5,-285 8.5,-285"/>
<polygon fill="none" stroke="#000000" points="8.5,-285 8.5,-306 201.5,-306 201.5,-285 8.5,-285"/>
<text text-anchor="start" x="23.5" y="-291.8" font-family="Nimbus Sans L" font-size="14.00" fill="#000000">[INTEGER] data&#45;size (0..1)</text>
</a>
</g>
<g id="a_node1_7"><a xlink:href="/html/IDMEFv2/File.html" xlink:title="The physical space on disk consumed by the file, in bytes. &#160;On Unix UFS file systems, this value corresponds to 512 * stat.st_blocks. &#160;On Windows NTFS, this value corresponds to End of File (EOF).">
<polygon fill="#ffcc00" stroke="transparent" points="8.5,-264 8.5,-285 201.5,-285 201.5,-264 8.5,-264"/>
<polygon fill="none" stroke="#000000" points="8.5,-264 8.5,-285 201.5,-285 201.5,-264 8.5,-264"/>
<text text-anchor="start" x="25" y="-270.8" font-family="Nimbus Sans L" font-size="14.00" fill="#000000">[INTEGER] disk&#45;size (0..1)</text>
</a>
</g>
<g id="a_node1_8"><a xlink:href="/html/IDMEFv2/File.html" xlink:title="A unique identifier for this file; see Section 3.2.9.">
<polygon fill="#ffcc00" stroke="transparent" points="8.5,-243 8.5,-264 201.5,-264 201.5,-243 8.5,-243"/>
<polygon fill="none" stroke="#000000" points="8.5,-243 8.5,-264 201.5,-264 201.5,-243 8.5,-243"/>
<text text-anchor="start" x="41.5" y="-249.8" font-family="Nimbus Sans L" font-size="14.00" fill="#000000">[STRING] ident (0..1)</text>
</a>
</g>
<g id="a_node1_9"><a xlink:href="/html/IDMEFv2/File.html" xlink:title="The type of file system the file resides on. &#160;This attribute governs how path names and other attributes are interpreted.">
<polygon fill="#ffcc00" stroke="transparent" points="8.5,-222 8.5,-243 201.5,-243 201.5,-222 8.5,-222"/>
<polygon fill="none" stroke="#000000" points="8.5,-222 8.5,-243 201.5,-243 201.5,-222 8.5,-222"/>
<text text-anchor="start" x="35.5" y="-228.8" font-family="Nimbus Sans L" font-size="14.00" fill="#000000">[ENUM] category (0..1)</text>
</a>
</g>
<g id="a_node1_10"><a xlink:href="/html/IDMEFv2/File.html" xlink:title="The type of file, as a mime&#45;type.">
<polygon fill="#ffcc00" stroke="transparent" points="8.5,-201 8.5,-222 201.5,-222 201.5,-201 8.5,-201"/>
<polygon fill="none" stroke="#000000" points="8.5,-201 8.5,-222 201.5,-222 201.5,-201 8.5,-201"/>
<text text-anchor="start" x="32.5" y="-207.8" font-family="Nimbus Sans L" font-size="14.00" fill="#000000">[STRING] file&#45;type (0..1)</text>
</a>
</g>
</g>
<!-- FileAccess -->
<g id="node2" class="node">
<title>FileAccess</title>
<g id="a_node2_11"><a xlink:href="/html/IDMEFv2/FileAccess.html" xlink:title="The FileAccess class represents the access permissions on a file. The representation is intended to be useful across operating systems. ">
<polygon fill="#cca300" stroke="transparent" points="299,-529 299,-550 456,-550 456,-529 299,-529"/>
<polygon fill="none" stroke="#000000" points="299,-529 299,-550 456,-550 456,-529 299,-529"/>
<text text-anchor="start" x="344.5" y="-535.8" font-family="Nimbus Sans L" font-size="14.00" fill="#000000">FileAccess</text>
</a>
</g>
<g id="a_node2_12"><a xlink:href="/html/IDMEFv2/FileAccess.html" xlink:title="Level of access allowed. &#160;The permitted values are shown below. &#160;There is no default value. &#160;(See also Section 10.)">
<polygon fill="#ffcc00" stroke="transparent" points="299,-508 299,-529 456,-529 456,-508 299,-508"/>
<polygon fill="none" stroke="#000000" points="299,-508 299,-529 456,-529 456,-508 299,-508"/>
<text text-anchor="start" x="302" y="-514.8" font-family="Nimbus Sans L" font-size="14.00" fill="#000000">[ENUM] Permission (1..*)</text>
</a>
</g>
</g>
<!-- File&#45;&gt;FileAccess -->
<g id="edge2" class="edge">
<title>File&#45;&gt;FileAccess</title>
<path fill="none" stroke="#000000" d="M197.8279,-436.525C219.0587,-458.2503 242.8394,-479.0463 268,-495 272.1251,-497.6156 276.466,-500.0427 280.9428,-502.2934"/>
<polygon fill="#000000" stroke="#000000" points="279.7565,-505.6024 290.2975,-506.6691 282.7224,-499.2618 279.7565,-505.6024"/>
<text text-anchor="middle" x="238.5" y="-483.8" font-family="Times,serif" font-size="14.00" fill="#000000">0..*</text>
</g>
<!-- Linkage -->
<g id="node4" class="node">
<title>Linkage</title>
<g id="a_node4_13"><a xlink:href="/html/IDMEFv2/Linkage.html" xlink:title="The Linkage class represents file system connections between the file described in the &lt;File&gt; element and other objects in the file system. For example, if the &lt;File&gt; element is a symbolic link or shortcut, then the &lt;Linkage&gt; element should contain the name of the object the link points to. Further information can be provided about the object in the &lt;Linkage&gt; element with another &lt;File&gt; element, if appropriate. ">
<polygon fill="#cca300" stroke="transparent" points="290,-461 290,-482 464,-482 464,-461 290,-461"/>
<polygon fill="none" stroke="#000000" points="290,-461 290,-482 464,-482 464,-461 290,-461"/>
<text text-anchor="start" x="353" y="-467.8" font-family="Nimbus Sans L" font-size="14.00" fill="#000000">Linkage</text>
</a>
</g>
<g id="a_node4_14"><a xlink:href="/html/IDMEFv2/Linkage.html" xlink:title="The name of the file system object, not including the path.">
<polygon fill="#ffcc00" stroke="transparent" points="290,-440 290,-461 464,-461 464,-440 290,-440"/>
<polygon fill="none" stroke="#000000" points="290,-440 290,-461 464,-461 464,-440 290,-440"/>
<text text-anchor="start" x="318" y="-446.8" font-family="Nimbus Sans L" font-size="14.00" fill="#000000">[STRING] name (1)</text>
</a>
</g>
<g id="a_node4_15"><a xlink:href="/html/IDMEFv2/Linkage.html" xlink:title="The full path to the file system object, including the name. &#160;The path name should be represented in as &quot;universal&quot; a manner as possible, to facilitate processing of the alert.">
<polygon fill="#ffcc00" stroke="transparent" points="290,-419 290,-440 464,-440 464,-419 290,-419"/>
<polygon fill="none" stroke="#000000" points="290,-419 290,-440 464,-440 464,-419 290,-419"/>
<text text-anchor="start" x="322.5" y="-425.8" font-family="Nimbus Sans L" font-size="14.00" fill="#000000">[STRING] path (1)</text>
</a>
</g>
<g id="a_node4_16"><a xlink:href="/html/IDMEFv2/Linkage.html" xlink:title="Section 10.)">
<polygon fill="#ffcc00" stroke="transparent" points="290,-398 290,-419 464,-419 464,-398 290,-398"/>
<polygon fill="none" stroke="#000000" points="290,-398 290,-419 464,-419 464,-398 290,-398"/>
<text text-anchor="start" x="293" y="-404.8" font-family="Nimbus Sans L" font-size="14.00" fill="#000000">[ENUM] category (Optional)</text>
</a>
</g>
</g>
<!-- File&#45;&gt;Linkage -->
<g id="edge4" class="edge">
<title>File&#45;&gt;Linkage</title>
<path fill="none" stroke="#000000" d="M209.0437,-392.0319C215.0099,-395.2548 221.0167,-398.2724 227,-401 241.0589,-407.409 256.3577,-412.905 271.6328,-417.5752"/>
<polygon fill="#000000" stroke="#000000" points="271.0727,-421.0588 281.6541,-420.5262 273.0501,-414.3439 271.0727,-421.0588"/>
<text text-anchor="middle" x="238.5" y="-412.8" font-family="Times,serif" font-size="14.00" fill="#000000">0..*</text>
</g>
<!-- Inode -->
<g id="node5" class="node">
<title>Inode</title>
<g id="a_node5_17"><a xlink:href="/html/IDMEFv2/Inode.html" xlink:title="The Inode class is used to represent the additional information contained in a Unix file system i&#45;node. ">
<polygon fill="#cca300" stroke="transparent" points="276,-350 276,-371 478,-371 478,-350 276,-350"/>
<polygon fill="none" stroke="#000000" points="276,-350 276,-371 478,-371 478,-350 276,-350"/>
<text text-anchor="start" x="360" y="-356.8" font-family="Nimbus Sans L" font-size="14.00" fill="#000000">Inode</text>
</a>
</g>
<g id="a_node5_18"><a xlink:href="/html/IDMEFv2/Inode.html" xlink:title="The time of the last inode change, given by the st_ctime element of &quot;struct stat&quot;.">
<polygon fill="#ffcc00" stroke="transparent" points="276,-329 276,-350 478,-350 478,-329 276,-329"/>
<polygon fill="none" stroke="#000000" points="276,-329 276,-350 478,-350 478,-329 276,-329"/>
<text text-anchor="start" x="282.5" y="-335.8" font-family="Nimbus Sans L" font-size="14.00" fill="#000000">[DATETIME] change&#45;time (0..1)</text>
</a>
</g>
<g id="a_node5_19"><a xlink:href="/html/IDMEFv2/Inode.html" xlink:title="The inode number.">
<polygon fill="#ffcc00" stroke="transparent" points="276,-308 276,-329 478,-329 478,-308 276,-308"/>
<polygon fill="none" stroke="#000000" points="276,-308 276,-329 478,-329 478,-308 276,-308"/>
<text text-anchor="start" x="300" y="-314.8" font-family="Nimbus Sans L" font-size="14.00" fill="#000000">[INTEGER] number (0..1)</text>
</a>
</g>
<g id="a_node5_20"><a xlink:href="/html/IDMEFv2/Inode.html" xlink:title="The major device number of the device the file resides on.">
<polygon fill="#ffcc00" stroke="transparent" points="276,-287 276,-308 478,-308 478,-287 276,-287"/>
<polygon fill="none" stroke="#000000" points="276,-287 276,-308 478,-308 478,-287 276,-287"/>
<text text-anchor="start" x="284.5" y="-293.8" font-family="Nimbus Sans L" font-size="14.00" fill="#000000">[INTEGER] major&#45;device (0..1)</text>
</a>
</g>
<g id="a_node5_21"><a xlink:href="/html/IDMEFv2/Inode.html" xlink:title="The minor device number of the device the file resides on.">
<polygon fill="#ffcc00" stroke="transparent" points="276,-266 276,-287 478,-287 478,-266 276,-266"/>
<polygon fill="none" stroke="#000000" points="276,-266 276,-287 478,-287 478,-266 276,-266"/>
<text text-anchor="start" x="284.5" y="-272.8" font-family="Nimbus Sans L" font-size="14.00" fill="#000000">[INTEGER] minor&#45;device (0..1)</text>
</a>
</g>
<g id="a_node5_22"><a xlink:href="/html/IDMEFv2/Inode.html" xlink:title="The major device of the file itself, if it is a character special device.">
<polygon fill="#ffcc00" stroke="transparent" points="276,-245 276,-266 478,-266 478,-245 276,-245"/>
<polygon fill="none" stroke="#000000" points="276,-245 276,-266 478,-266 478,-245 276,-245"/>
<text text-anchor="start" x="279" y="-251.8" font-family="Nimbus Sans L" font-size="14.00" fill="#000000">[INTEGER] c&#45;major&#45;device (0..1)</text>
</a>
</g>
<g id="a_node5_23"><a xlink:href="/html/IDMEFv2/Inode.html" xlink:title="The minor device of the file itself, if it is a character special device.">
<polygon fill="#ffcc00" stroke="transparent" points="276,-224 276,-245 478,-245 478,-224 276,-224"/>
<polygon fill="none" stroke="#000000" points="276,-224 276,-245 478,-245 478,-224 276,-224"/>
<text text-anchor="start" x="279" y="-230.8" font-family="Nimbus Sans L" font-size="14.00" fill="#000000">[INTEGER] c&#45;minor&#45;device (0..1)</text>
</a>
</g>
</g>
<!-- File&#45;&gt;Inode -->
<g id="edge5" class="edge">
<title>File&#45;&gt;Inode</title>
<path fill="none" stroke="#000000" d="M209.0763,-309.7084C224.9859,-308.5991 241.5055,-307.4473 257.7005,-306.3181"/>
<polygon fill="#000000" stroke="#000000" points="258.0017,-309.8057 267.734,-305.6185 257.5147,-302.8227 258.0017,-309.8057"/>
<text text-anchor="middle" x="238.5" y="-311.8" font-family="Times,serif" font-size="14.00" fill="#000000">0..1</text>
</g>
<!-- Checksum -->
<g id="node6" class="node">
<title>Checksum</title>
<g id="a_node6_24"><a xlink:href="/html/IDMEFv2/Checksum.html" xlink:title="The Checksum class represents checksum information associated with the file. This checksum information can be provided by file integrity checkers, among others. ">
<polygon fill="#cca300" stroke="transparent" points="286,-177 286,-198 468,-198 468,-177 286,-177"/>
<polygon fill="none" stroke="#000000" points="286,-177 286,-198 468,-198 468,-177 286,-177"/>
<text text-anchor="start" x="344.5" y="-183.8" font-family="Nimbus Sans L" font-size="14.00" fill="#000000">Checksum</text>
</a>
</g>
<g id="a_node6_25"><a xlink:href="/html/IDMEFv2/Checksum.html" xlink:title="The value of the checksum.">
<polygon fill="#ffcc00" stroke="transparent" points="286,-156 286,-177 468,-177 468,-156 286,-156"/>
<polygon fill="none" stroke="#000000" points="286,-156 286,-177 468,-177 468,-156 286,-156"/>
<text text-anchor="start" x="319.5" y="-162.8" font-family="Nimbus Sans L" font-size="14.00" fill="#000000">[STRING] value (1)</text>
</a>
</g>
<g id="a_node6_26"><a xlink:href="/html/IDMEFv2/Checksum.html" xlink:title="The key to the checksum, if appropriate.">
<polygon fill="#ffcc00" stroke="transparent" points="286,-135 286,-156 468,-156 468,-135 286,-135"/>
<polygon fill="none" stroke="#000000" points="286,-135 286,-156 468,-156 468,-135 286,-135"/>
<text text-anchor="start" x="317.5" y="-141.8" font-family="Nimbus Sans L" font-size="14.00" fill="#000000">[STRING] key (0..1)</text>
</a>
</g>
<g id="a_node6_27"><a xlink:href="/html/IDMEFv2/Checksum.html" xlink:title="default value. &#160;(See also Section 10.)">
<polygon fill="#ffcc00" stroke="transparent" points="286,-114 286,-135 468,-135 468,-114 286,-114"/>
<polygon fill="none" stroke="#000000" points="286,-114 286,-135 468,-135 468,-114 286,-114"/>
<text text-anchor="start" x="289" y="-120.8" font-family="Nimbus Sans L" font-size="14.00" fill="#000000">[ENUM] algorithm (Required)</text>
</a>
</g>
</g>
<!-- File&#45;&gt;Checksum -->
<g id="edge6" class="edge">
<title>File&#45;&gt;Checksum</title>
<path fill="none" stroke="#000000" d="M209.1214,-247.7078C228.4966,-235.4791 248.7084,-223.1158 268,-212 270.8572,-210.3537 273.7681,-208.7014 276.7156,-207.0499"/>
<polygon fill="#000000" stroke="#000000" points="278.5962,-210.0094 285.6509,-202.1048 275.2066,-203.8848 278.5962,-210.0094"/>
<text text-anchor="middle" x="238.5" y="-236.8" font-family="Times,serif" font-size="14.00" fill="#000000">0..*</text>
</g>
<!-- Stream -->
<g id="node7" class="node">
<title>Stream</title>
<g id="a_node7_28"><a xlink:href="/html/IDMEFv2/Stream.html" xlink:title="The Stram class contains specific information about the content of a file">
<polygon fill="#cecece" stroke="transparent" points="289,-67 289,-88 466,-88 466,-67 289,-67"/>
<polygon fill="none" stroke="#000000" points="289,-67 289,-88 466,-88 466,-67 289,-67"/>
<text text-anchor="start" x="355" y="-73.8" font-family="Nimbus Sans L" font-size="14.00" fill="#000000">Stream</text>
</a>
</g>
<g id="a_node7_29"><a xlink:href="/html/IDMEFv2/Stream.html" xlink:title="&lt;TABLE&gt;">
<polygon fill="none" stroke="#000000" points="289,-46 289,-67 466,-67 466,-46 289,-46"/>
<text text-anchor="start" x="292" y="-52.8" font-family="Nimbus Sans L" font-size="14.00" fill="#000000">[ENUM] offsetunit (Optional)</text>
</a>
</g>
<g id="a_node7_30"><a xlink:href="/html/IDMEFv2/Stream.html" xlink:title="Amount of units (determined by the offsetunit attribute) to seek into the File">
<polygon fill="none" stroke="#000000" points="289,-25 289,-46 466,-46 466,-25 289,-25"/>
<text text-anchor="start" x="293" y="-31.8" font-family="Nimbus Sans L" font-size="14.00" fill="#000000">[INTEGER] offset (Optional)</text>
</a>
</g>
<g id="a_node7_31"><a xlink:href="/html/IDMEFv2/Stream.html" xlink:title="Content of the file">
<polygon fill="none" stroke="#000000" points="289,-4 289,-25 466,-25 466,-4 289,-4"/>
<text text-anchor="start" x="307.5" y="-10.8" font-family="Nimbus Sans L" font-size="14.00" fill="#000000">[DATA] Data (Required)</text>
</a>
</g>
</g>
<!-- File&#45;&gt;Stream -->
<g id="edge7" class="edge">
<title>File&#45;&gt;Stream</title>
<path fill="none" stroke="#000000" d="M179.9532,-197.3567C205.1355,-163.4339 235.2209,-128.3354 268,-101 269.343,-99.88 270.7126,-98.7752 272.1058,-97.6855"/>
<polygon fill="#000000" stroke="#000000" points="274.3596,-100.372 280.3204,-91.6131 270.1984,-94.743 274.3596,-100.372"/>
<text text-anchor="middle" x="238.5" y="-139.8" font-family="Times,serif" font-size="14.00" fill="#000000">0..1</text>
</g>
<!-- UserId -->
<g id="node3" class="node">
<title>UserId</title>
<g id="a_node3_32"><a xlink:href="/html/IDMEFv2/UserId.html" xlink:title="The UserId class provides specific information about a user. More than one UserId can be used within the User class to indicate attempts to transition from one user to another, or to provide complete information about a user&#39;s (or process&#39;) privileges. ">
<polygon fill="#52a3cc" stroke="transparent" points="538,-571 538,-592 700,-592 700,-571 538,-571"/>
<polygon fill="none" stroke="#000000" points="538,-571 538,-592 700,-592 700,-571 538,-571"/>
<text text-anchor="start" x="599" y="-577.8" font-family="Nimbus Sans L" font-size="14.00" fill="#000000">UserId</text>
</a>
</g>
<g id="a_node3_33"><a xlink:href="/html/IDMEFv2/UserId.html" xlink:title="A user or group name.">
<polygon fill="#66ccff" stroke="transparent" points="538,-550 538,-571 700,-571 700,-550 538,-550"/>
<polygon fill="none" stroke="#000000" points="538,-550 538,-571 700,-571 700,-550 538,-550"/>
<text text-anchor="start" x="552.5" y="-556.8" font-family="Nimbus Sans L" font-size="14.00" fill="#000000">[STRING] name (0..1)</text>
</a>
</g>
<g id="a_node3_34"><a xlink:href="/html/IDMEFv2/UserId.html" xlink:title="A user or group number.">
<polygon fill="#66ccff" stroke="transparent" points="538,-529 538,-550 700,-550 700,-529 538,-529"/>
<polygon fill="none" stroke="#000000" points="538,-529 538,-550 700,-550 700,-529 538,-529"/>
<text text-anchor="start" x="542" y="-535.8" font-family="Nimbus Sans L" font-size="14.00" fill="#000000">[INTEGER] number (0..1)</text>
</a>
</g>
<g id="a_node3_35"><a xlink:href="/html/IDMEFv2/UserId.html" xlink:title="A unique identifier for the user id, see Section 3.2.9.">
<polygon fill="#66ccff" stroke="transparent" points="538,-508 538,-529 700,-529 700,-508 538,-508"/>
<polygon fill="none" stroke="#000000" points="538,-508 538,-529 700,-529 700,-508 538,-508"/>
<text text-anchor="start" x="541" y="-514.8" font-family="Nimbus Sans L" font-size="14.00" fill="#000000">[STRING] ident (Optional)</text>
</a>
</g>
<g id="a_node3_36"><a xlink:href="/html/IDMEFv2/UserId.html" xlink:title="The type of user information represented. &#160;The permitted values for this attribute are shown below. &#160;The default value is &quot;original&#45;user&quot;. &#160;(See also Section 10.)">
<polygon fill="#66ccff" stroke="transparent" points="538,-487 538,-508 700,-508 700,-487 538,-487"/>
<polygon fill="none" stroke="#000000" points="538,-487 538,-508 700,-508 700,-487 538,-487"/>
<text text-anchor="start" x="548" y="-493.8" font-family="Nimbus Sans L" font-size="14.00" fill="#000000">[ENUM] type (Optional)</text>
</a>
</g>
<g id="a_node3_37"><a xlink:href="/html/IDMEFv2/UserId.html" xlink:title="The tty the user is using.">
<polygon fill="#66ccff" stroke="transparent" points="538,-466 538,-487 700,-487 700,-466 538,-466"/>
<polygon fill="none" stroke="#000000" points="538,-466 538,-487 700,-487 700,-466 538,-466"/>
<text text-anchor="start" x="548.5" y="-472.8" font-family="Nimbus Sans L" font-size="14.00" fill="#000000">[STRING] tty (Optional)</text>
</a>
</g>
</g>
<!-- FileAccess&#45;&gt;UserId -->
<g id="edge1" class="edge">
<title>FileAccess&#45;&gt;UserId</title>
<path fill="none" stroke="#000000" d="M463.684,-529C481.7644,-529 500.9591,-529 519.4621,-529"/>
<polygon fill="#000000" stroke="#000000" points="519.6589,-532.5001 529.6589,-529 519.6589,-525.5001 519.6589,-532.5001"/>
<text text-anchor="middle" x="508" y="-532.8" font-family="Times,serif" font-size="14.00" fill="#000000">1</text>
</g>
<!-- Linkage&#45;&gt;File -->
<g id="edge3" class="edge">
<title>Linkage&#45;&gt;File</title>
<path fill="none" stroke="#000000" d="M281.6329,-396.9536C261.2011,-387.7311 239.4175,-377.8985 218.3668,-368.3967"/>
<polygon fill="#000000" stroke="#000000" points="219.6308,-365.1273 209.0763,-364.2032 216.7509,-371.5075 219.6308,-365.1273"/>
<text text-anchor="middle" x="238.5" y="-385.8" font-family="Times,serif" font-size="14.00" fill="#000000">1</text>
</g>
</g>
</svg>
