<?xml version="1.0" encoding="UTF-8" standalone="no"?>
<!DOCTYPE svg PUBLIC "-//W3C//DTD SVG 1.1//EN"
 "http://www.w3.org/Graphics/SVG/1.1/DTD/svg11.dtd">
<!-- Generated by graphviz version 2.40.1 (0)
 -->
<!-- Title: FileAccess Pages: 1 -->
<svg width="403pt" height="142pt"
 viewBox="0.00 0.00 403.00 142.00" xmlns="http://www.w3.org/2000/svg" xmlns:xlink="http://www.w3.org/1999/xlink">
<g id="graph0" class="graph" transform="scale(1 1) rotate(0) translate(4 138)">
<title>FileAccess</title>
<polygon fill="#ffffff" stroke="transparent" points="-4,4 -4,-138 399,-138 399,4 -4,4"/>
<!-- FileAccess -->
<g id="node1" class="node">
<title>FileAccess</title>
<g id="a_node1_0"><a xlink:href="/html/IDMEFv2/FileAccess.html" xlink:title="The FileAccess class represents the access permissions on a file. The representation is intended to be useful across operating systems. ">
<polygon fill="#cca300" stroke="transparent" points="8.5,-67 8.5,-88 165.5,-88 165.5,-67 8.5,-67"/>
<polygon fill="none" stroke="#000000" points="8.5,-67 8.5,-88 165.5,-88 165.5,-67 8.5,-67"/>
<text text-anchor="start" x="54" y="-73.8" font-family="Nimbus Sans L" font-size="14.00" fill="#000000">FileAccess</text>
</a>
</g>
<g id="a_node1_1"><a xlink:href="/html/IDMEFv2/FileAccess.html" xlink:title="Level of access allowed. &#160;The permitted values are shown below. &#160;There is no default value. &#160;(See also Section 10.)">
<polygon fill="#ffcc00" stroke="transparent" points="8.5,-46 8.5,-67 165.5,-67 165.5,-46 8.5,-46"/>
<polygon fill="none" stroke="#000000" points="8.5,-46 8.5,-67 165.5,-67 165.5,-46 8.5,-46"/>
<text text-anchor="start" x="11.5" y="-52.8" font-family="Nimbus Sans L" font-size="14.00" fill="#000000">[ENUM] Permission (1..*)</text>
</a>
</g>
</g>
<!-- UserId -->
<g id="node2" class="node">
<title>UserId</title>
<g id="a_node2_2"><a xlink:href="/html/IDMEFv2/UserId.html" xlink:title="The UserId class provides specific information about a user. More than one UserId can be used within the User class to indicate attempts to transition from one user to another, or to provide complete information about a user&#39;s (or process&#39;) privileges. ">
<polygon fill="#52a3cc" stroke="transparent" points="225,-109 225,-130 387,-130 387,-109 225,-109"/>
<polygon fill="none" stroke="#000000" points="225,-109 225,-130 387,-130 387,-109 225,-109"/>
<text text-anchor="start" x="286" y="-115.8" font-family="Nimbus Sans L" font-size="14.00" fill="#000000">UserId</text>
</a>
</g>
<g id="a_node2_3"><a xlink:href="/html/IDMEFv2/UserId.html" xlink:title="A user or group name.">
<polygon fill="#66ccff" stroke="transparent" points="225,-88 225,-109 387,-109 387,-88 225,-88"/>
<polygon fill="none" stroke="#000000" points="225,-88 225,-109 387,-109 387,-88 225,-88"/>
<text text-anchor="start" x="239.5" y="-94.8" font-family="Nimbus Sans L" font-size="14.00" fill="#000000">[STRING] name (0..1)</text>
</a>
</g>
<g id="a_node2_4"><a xlink:href="/html/IDMEFv2/UserId.html" xlink:title="A user or group number.">
<polygon fill="#66ccff" stroke="transparent" points="225,-67 225,-88 387,-88 387,-67 225,-67"/>
<polygon fill="none" stroke="#000000" points="225,-67 225,-88 387,-88 387,-67 225,-67"/>
<text text-anchor="start" x="229" y="-73.8" font-family="Nimbus Sans L" font-size="14.00" fill="#000000">[INTEGER] number (0..1)</text>
</a>
</g>
<g id="a_node2_5"><a xlink:href="/html/IDMEFv2/UserId.html" xlink:title="A unique identifier for the user id, see Section 3.2.9.">
<polygon fill="#66ccff" stroke="transparent" points="225,-46 225,-67 387,-67 387,-46 225,-46"/>
<polygon fill="none" stroke="#000000" points="225,-46 225,-67 387,-67 387,-46 225,-46"/>
<text text-anchor="start" x="228" y="-52.8" font-family="Nimbus Sans L" font-size="14.00" fill="#000000">[STRING] ident (Optional)</text>
</a>
</g>
<g id="a_node2_6"><a xlink:href="/html/IDMEFv2/UserId.html" xlink:title="The type of user information represented. &#160;The permitted values for this attribute are shown below. &#160;The default value is &quot;original&#45;user&quot;. &#160;(See also Section 10.)">
<polygon fill="#66ccff" stroke="transparent" points="225,-25 225,-46 387,-46 387,-25 225,-25"/>
<polygon fill="none" stroke="#000000" points="225,-25 225,-46 387,-46 387,-25 225,-25"/>
<text text-anchor="start" x="235" y="-31.8" font-family="Nimbus Sans L" font-size="14.00" fill="#000000">[ENUM] type (Optional)</text>
</a>
</g>
<g id="a_node2_7"><a xlink:href="/html/IDMEFv2/UserId.html" xlink:title="The tty the user is using.">
<polygon fill="#66ccff" stroke="transparent" points="225,-4 225,-25 387,-25 387,-4 225,-4"/>
<polygon fill="none" stroke="#000000" points="225,-4 225,-25 387,-25 387,-4 225,-4"/>
<text text-anchor="start" x="235.5" y="-10.8" font-family="Nimbus Sans L" font-size="14.00" fill="#000000">[STRING] tty (Optional)</text>
</a>
</g>
</g>
<!-- FileAccess&#45;&gt;UserId -->
<g id="edge1" class="edge">
<title>FileAccess&#45;&gt;UserId</title>
<path fill="none" stroke="#000000" d="M173.2522,-67C184.2618,-67 195.5946,-67 206.7802,-67"/>
<polygon fill="#000000" stroke="#000000" points="206.9979,-70.5001 216.9978,-67 206.9978,-63.5001 206.9979,-70.5001"/>
<text text-anchor="middle" x="195" y="-70.8" font-family="Times,serif" font-size="14.00" fill="#000000">1</text>
</g>
</g>
</svg>
