<?xml version="1.0" encoding="UTF-8" standalone="no"?>
<!DOCTYPE svg PUBLIC "-//W3C//DTD SVG 1.1//EN"
 "http://www.w3.org/Graphics/SVG/1.1/DTD/svg11.dtd">
<!-- Generated by graphviz version 2.40.1 (0)
 -->
<!-- Title: Heartbeat Pages: 1 -->
<svg width="1054pt" height="465pt"
 viewBox="0.00 0.00 1054.00 464.50" xmlns="http://www.w3.org/2000/svg" xmlns:xlink="http://www.w3.org/1999/xlink">
<g id="graph0" class="graph" transform="scale(1 1) rotate(0) translate(4 460.5)">
<title>Heartbeat</title>
<polygon fill="#ffffff" stroke="transparent" points="-4,4 -4,-460.5 1050,-460.5 1050,4 -4,4"/>
<!-- Heartbeat -->
<g id="node1" class="node">
<title>Heartbeat</title>
<g id="a_node1_0"><a xlink:href="/html/IDMEFv2/Heartbeat.html" xlink:title="Analyzers use Heartbeat messages to indicate their current status to managers. Heartbeats are intended to be sent in a regular period, say, every ten minutes or every hour. The receipt of a Heartbeat message from an analyzer indicates to the manager that the analyzer is up and running; lack of a Heartbeat message (or more likely, lack of some number of consecutive Heartbeat messages) indicates that the analyzer or its network connection has failed. ">
<polygon fill="#90ac3d" stroke="transparent" points="8.5,-123 8.5,-144 227.5,-144 227.5,-123 8.5,-123"/>
<polygon fill="none" stroke="#000000" points="8.5,-123 8.5,-144 227.5,-144 227.5,-123 8.5,-123"/>
<text text-anchor="start" x="87.5" y="-129.8" font-family="Nimbus Sans L" font-size="14.00" fill="#000000">Heartbeat</text>
</a>
</g>
<g id="a_node1_1"><a xlink:href="/html/IDMEFv2/Heartbeat.html" xlink:title="The interval in seconds at which heartbeats are generated.">
<polygon fill="#b4d74c" stroke="transparent" points="8.5,-102 8.5,-123 227.5,-123 227.5,-102 8.5,-102"/>
<polygon fill="none" stroke="#000000" points="8.5,-102 8.5,-123 227.5,-123 227.5,-102 8.5,-102"/>
<text text-anchor="start" x="11.5" y="-108.8" font-family="Nimbus Sans L" font-size="14.00" fill="#000000">[INTEGER] HeartbeatInterval (0..1)</text>
</a>
</g>
<g id="a_node1_2"><a xlink:href="/html/IDMEFv2/Heartbeat.html" xlink:title="A unique identifier for the heartbeat; see Section 3.2.9.">
<polygon fill="#b4d74c" stroke="transparent" points="8.5,-81 8.5,-102 227.5,-102 227.5,-81 8.5,-81"/>
<polygon fill="none" stroke="#000000" points="8.5,-81 8.5,-102 227.5,-102 227.5,-81 8.5,-81"/>
<text text-anchor="start" x="21.5" y="-87.8" font-family="Nimbus Sans L" font-size="14.00" fill="#000000">[STRING] messageid (Optional)</text>
</a>
</g>
</g>
<!-- Analyzer -->
<g id="node2" class="node">
<title>Analyzer</title>
<g id="a_node2_3"><a xlink:href="/html/IDMEFv2/Analyzer.html" xlink:title="The Analyzer class identifies the analyzer from which the Alert or Heartbeat message originates. Only one analyzer may be encoded for each alert or heartbeat, and that MUST be the analyzer at which the alert or heartbeat originated. Although the IDMEF data model does not prevent the use of hierarchical intrusion detection systems (where alerts get relayed up the tree), it does not provide any way to record the identity of the &quot;relay&quot; analyzers along the path from the originating analyzer to the manager that ultimately receives the alert. ">
<polygon fill="#cccc52" stroke="transparent" points="302.5,-348 302.5,-369 515.5,-369 515.5,-348 302.5,-348"/>
<polygon fill="none" stroke="#000000" points="302.5,-348 302.5,-369 515.5,-369 515.5,-348 302.5,-348"/>
<text text-anchor="start" x="382.5" y="-354.8" font-family="Nimbus Sans L" font-size="14.00" fill="#000000">Analyzer</text>
</a>
</g>
<g id="a_node2_4"><a xlink:href="/html/IDMEFv2/Analyzer.html" xlink:title="(but see below). &#160;A unique identifier for the analyzer; see Section 3.2.9.">
<polygon fill="#ffff66" stroke="transparent" points="302.5,-327 302.5,-348 515.5,-348 515.5,-327 302.5,-327"/>
<polygon fill="none" stroke="#000000" points="302.5,-327 302.5,-348 515.5,-348 515.5,-327 302.5,-327"/>
<text text-anchor="start" x="315" y="-333.8" font-family="Nimbus Sans L" font-size="14.00" fill="#000000">[STRING] analyzerid (Optional)</text>
</a>
</g>
<g id="a_node2_5"><a xlink:href="/html/IDMEFv2/Analyzer.html" xlink:title="An explicit name for the analyzer that may be easier to understand than the analyzerid.">
<polygon fill="#ffff66" stroke="transparent" points="302.5,-306 302.5,-327 515.5,-327 515.5,-306 302.5,-306"/>
<polygon fill="none" stroke="#000000" points="302.5,-306 302.5,-327 515.5,-327 515.5,-306 302.5,-306"/>
<text text-anchor="start" x="328.5" y="-312.8" font-family="Nimbus Sans L" font-size="14.00" fill="#000000">[STRING] name (Optional)</text>
</a>
</g>
<g id="a_node2_6"><a xlink:href="/html/IDMEFv2/Analyzer.html" xlink:title="The manufacturer of the analyzer software and/or hardware.">
<polygon fill="#ffff66" stroke="transparent" points="302.5,-285 302.5,-306 515.5,-306 515.5,-285 302.5,-285"/>
<polygon fill="none" stroke="#000000" points="302.5,-285 302.5,-306 515.5,-306 515.5,-285 302.5,-285"/>
<text text-anchor="start" x="305.5" y="-291.8" font-family="Nimbus Sans L" font-size="14.00" fill="#000000">[STRING] manufacturer (Optional)</text>
</a>
</g>
<g id="a_node2_7"><a xlink:href="/html/IDMEFv2/Analyzer.html" xlink:title="The model name/number of the analyzer software and/or hardware.">
<polygon fill="#ffff66" stroke="transparent" points="302.5,-264 302.5,-285 515.5,-285 515.5,-264 302.5,-264"/>
<polygon fill="none" stroke="#000000" points="302.5,-264 302.5,-285 515.5,-285 515.5,-264 302.5,-264"/>
<text text-anchor="start" x="327" y="-270.8" font-family="Nimbus Sans L" font-size="14.00" fill="#000000">[STRING] model (Optional)</text>
</a>
</g>
<g id="a_node2_8"><a xlink:href="/html/IDMEFv2/Analyzer.html" xlink:title="The version number of the analyzer software and/or hardware.">
<polygon fill="#ffff66" stroke="transparent" points="302.5,-243 302.5,-264 515.5,-264 515.5,-243 302.5,-243"/>
<polygon fill="none" stroke="#000000" points="302.5,-243 302.5,-264 515.5,-264 515.5,-243 302.5,-243"/>
<text text-anchor="start" x="324" y="-249.8" font-family="Nimbus Sans L" font-size="14.00" fill="#000000">[STRING] version (Optional)</text>
</a>
</g>
<g id="a_node2_9"><a xlink:href="/html/IDMEFv2/Analyzer.html" xlink:title="The class of analyzer software and/or hardware.">
<polygon fill="#ffff66" stroke="transparent" points="302.5,-222 302.5,-243 515.5,-243 515.5,-222 302.5,-222"/>
<polygon fill="none" stroke="#000000" points="302.5,-222 302.5,-243 515.5,-243 515.5,-222 302.5,-222"/>
<text text-anchor="start" x="330.5" y="-228.8" font-family="Nimbus Sans L" font-size="14.00" fill="#000000">[STRING] class (Optional)</text>
</a>
</g>
<g id="a_node2_10"><a xlink:href="/html/IDMEFv2/Analyzer.html" xlink:title="Operating system name. &#160;On POSIX 1003.1 compliant systems, this is the value returned in utsname.sysname by the uname() system call, or the output of the &quot;uname &#45;s&quot; command.">
<polygon fill="#ffff66" stroke="transparent" points="302.5,-201 302.5,-222 515.5,-222 515.5,-201 302.5,-201"/>
<polygon fill="none" stroke="#000000" points="302.5,-201 302.5,-222 515.5,-222 515.5,-201 302.5,-201"/>
<text text-anchor="start" x="326" y="-207.8" font-family="Nimbus Sans L" font-size="14.00" fill="#000000">[STRING] ostype (Optional)</text>
</a>
</g>
<g id="a_node2_11"><a xlink:href="/html/IDMEFv2/Analyzer.html" xlink:title="Operating system version. &#160;On POSIX 1003.1 compliant systems, this is the value returned in utsname.release by the uname() system call, or the output of the &quot;uname &#45;r&quot; command.">
<polygon fill="#ffff66" stroke="transparent" points="302.5,-180 302.5,-201 515.5,-201 515.5,-180 302.5,-180"/>
<polygon fill="none" stroke="#000000" points="302.5,-180 302.5,-201 515.5,-201 515.5,-180 302.5,-180"/>
<text text-anchor="start" x="317" y="-186.8" font-family="Nimbus Sans L" font-size="14.00" fill="#000000">[STRING] osversion (Optional)</text>
</a>
</g>
</g>
<!-- Heartbeat&#45;&gt;Analyzer -->
<g id="edge5" class="edge">
<title>Heartbeat&#45;&gt;Analyzer</title>
<path fill="none" stroke="#000000" d="M181.3612,-148.5516C211.7455,-165.4666 249.1526,-186.2911 284.7775,-206.1236"/>
<polygon fill="#000000" stroke="#000000" points="283.3512,-209.3353 293.791,-211.1414 286.7561,-203.2192 283.3512,-209.3353"/>
<text text-anchor="middle" x="264.5" y="-202.8" font-family="Times,serif" font-size="14.00" fill="#000000">1</text>
</g>
<!-- CreateTime -->
<g id="node6" class="node">
<title>CreateTime</title>
<g id="a_node6_12"><a xlink:href="/html/IDMEFv2/CreateTime.html" xlink:title="The CreateTime class is used to indicate the date and time the alert or heartbeat was created by the analyzer. ">
<polygon fill="#8a8acc" stroke="transparent" points="369.5,-129 369.5,-150 447.5,-150 447.5,-129 369.5,-129"/>
<polygon fill="none" stroke="#000000" points="369.5,-129 369.5,-150 447.5,-150 447.5,-129 369.5,-129"/>
<text text-anchor="start" x="372.5" y="-135.8" font-family="Nimbus Sans L" font-size="14.00" fill="#000000">CreateTime</text>
</a>
</g>
</g>
<!-- Heartbeat&#45;&gt;CreateTime -->
<g id="edge6" class="edge">
<title>Heartbeat&#45;&gt;CreateTime</title>
<path fill="none" stroke="#000000" d="M235.022,-123.9041C275.1917,-127.6312 318.3179,-131.6326 351.5224,-134.7134"/>
<polygon fill="#000000" stroke="#000000" points="351.2139,-138.1997 361.4945,-135.6387 351.8606,-131.2297 351.2139,-138.1997"/>
<text text-anchor="middle" x="264.5" y="-131.8" font-family="Times,serif" font-size="14.00" fill="#000000">1</text>
</g>
<!-- AnalyzerTime -->
<g id="node7" class="node">
<title>AnalyzerTime</title>
<g id="a_node7_13"><a xlink:href="/html/IDMEFv2/AnalyzerTime.html" xlink:title="The AnalyzerTime class is used to indicate the current date and time on the analyzer. Its values should be filled in as late as possible in the message transmission process, ideally immediately before placing the message &quot;on the wire&quot;. ">
<polygon fill="#8a8acc" stroke="transparent" points="363.5,-75 363.5,-96 453.5,-96 453.5,-75 363.5,-75"/>
<polygon fill="none" stroke="#000000" points="363.5,-75 363.5,-96 453.5,-96 453.5,-75 363.5,-75"/>
<text text-anchor="start" x="366.5" y="-81.8" font-family="Nimbus Sans L" font-size="14.00" fill="#000000">AnalyzerTime</text>
</a>
</g>
</g>
<!-- Heartbeat&#45;&gt;AnalyzerTime -->
<g id="edge7" class="edge">
<title>Heartbeat&#45;&gt;AnalyzerTime</title>
<path fill="none" stroke="#000000" d="M235.022,-102.0959C272.5988,-98.6094 312.7628,-94.8828 344.972,-91.8943"/>
<polygon fill="#000000" stroke="#000000" points="345.5029,-95.3602 355.1367,-90.9512 344.8561,-88.3902 345.5029,-95.3602"/>
<text text-anchor="middle" x="264.5" y="-104.8" font-family="Times,serif" font-size="14.00" fill="#000000">0..1</text>
</g>
<!-- AdditionalData -->
<g id="node8" class="node">
<title>AdditionalData</title>
<g id="a_node8_14"><a xlink:href="/html/IDMEFv2/AdditionalData.html" xlink:title="The AdditionalData class is used to provide information that cannot be represented by the data model. AdditionalData can be used to provide atomic data (integers, strings, etc.) in cases where only small amounts of additional information need to be sent; it can also be used to extend the data model and the DTD to support the transmission of complex data (such as packet headers). Detailed instructions for extending the data model and the DTD are provided in Section 5. ">
<polygon fill="#87689e" stroke="transparent" points="316.5,-25 316.5,-46 501.5,-46 501.5,-25 316.5,-25"/>
<polygon fill="none" stroke="#000000" points="316.5,-25 316.5,-46 501.5,-46 501.5,-25 316.5,-25"/>
<text text-anchor="start" x="365" y="-31.8" font-family="Nimbus Sans L" font-size="14.00" fill="#000000">AdditionalData</text>
</a>
</g>
<g id="a_node8_15"><a xlink:href="/html/IDMEFv2/AdditionalData.html" xlink:title="A string describing the meaning of the element content. These values will be vendor/implementation dependent; the method for ensuring that managers understand the strings sent by analyzers is outside the scope of this specification. &#160;A list of acceptable meaning keywords is not within the scope of the document, although later versions may undertake to establish such a list.">
<polygon fill="#a982c6" stroke="transparent" points="316.5,-4 316.5,-25 501.5,-25 501.5,-4 316.5,-4"/>
<polygon fill="none" stroke="#000000" points="316.5,-4 316.5,-25 501.5,-25 501.5,-4 316.5,-4"/>
<text text-anchor="start" x="319.5" y="-10.8" font-family="Nimbus Sans L" font-size="14.00" fill="#000000">[STRING] meaning (Optional)</text>
</a>
</g>
</g>
<!-- Heartbeat&#45;&gt;AdditionalData -->
<g id="edge8" class="edge">
<title>Heartbeat&#45;&gt;AdditionalData</title>
<path fill="none" stroke="#000000" d="M233.2866,-77.4258C253.5152,-71.2535 274.3643,-64.919 294,-59 300.4696,-57.0498 307.1473,-55.0452 313.8755,-53.0316"/>
<polygon fill="#000000" stroke="#000000" points="315.1715,-56.2973 323.7506,-50.0804 313.1671,-49.5904 315.1715,-56.2973"/>
<text text-anchor="middle" x="264.5" y="-74.8" font-family="Times,serif" font-size="14.00" fill="#000000">0..*</text>
</g>
<!-- Analyzer&#45;&gt;Analyzer -->
<g id="edge4" class="edge">
<title>Analyzer&#45;&gt;Analyzer</title>
<path fill="none" stroke="#000000" d="M385.7863,-373.5908C390.1006,-384.4735 397.6719,-391.5 408.5,-391.5 415.9443,-391.5 421.8493,-388.1789 426.2148,-382.5668"/>
<polygon fill="#000000" stroke="#000000" points="429.406,-384.0303 431.2137,-373.5908 423.2904,-380.6244 429.406,-384.0303"/>
<text text-anchor="middle" x="408.5" y="-395.3" font-family="Times,serif" font-size="14.00" fill="#000000">0..1</text>
</g>
<!-- Node -->
<g id="node3" class="node">
<title>Node</title>
<g id="a_node3_16"><a xlink:href="/html/IDMEFv2/Node.html" xlink:title="The Node class is used to identify hosts and other network devices (routers, switches, etc.). ">
<polygon fill="#3daf3d" stroke="transparent" points="590,-410 590,-431 764,-431 764,-410 590,-410"/>
<polygon fill="none" stroke="#000000" points="590,-410 590,-431 764,-431 764,-410 590,-410"/>
<text text-anchor="start" x="660.5" y="-416.8" font-family="Nimbus Sans L" font-size="14.00" fill="#000000">Node</text>
</a>
</g>
<g id="a_node3_17"><a xlink:href="/html/IDMEFv2/Node.html" xlink:title="The location of the equipment.">
<polygon fill="#4cdb4c" stroke="transparent" points="590,-389 590,-410 764,-410 764,-389 590,-389"/>
<polygon fill="none" stroke="#000000" points="590,-389 590,-410 764,-410 764,-389 590,-389"/>
<text text-anchor="start" x="604.5" y="-395.8" font-family="Nimbus Sans L" font-size="14.00" fill="#000000">[STRING] location (0..1)</text>
</a>
</g>
<g id="a_node3_18"><a xlink:href="/html/IDMEFv2/Node.html" xlink:title="The name of the equipment. &#160;This information MUST be provided if no Address information is given.">
<polygon fill="#4cdb4c" stroke="transparent" points="590,-368 590,-389 764,-389 764,-368 590,-368"/>
<polygon fill="none" stroke="#000000" points="590,-368 590,-389 764,-389 764,-368 590,-368"/>
<text text-anchor="start" x="610.5" y="-374.8" font-family="Nimbus Sans L" font-size="14.00" fill="#000000">[STRING] name (0..1)</text>
</a>
</g>
<g id="a_node3_19"><a xlink:href="/html/IDMEFv2/Node.html" xlink:title="A unique identifier for the node; see Section 3.2.9.">
<polygon fill="#4cdb4c" stroke="transparent" points="590,-347 590,-368 764,-368 764,-347 590,-347"/>
<polygon fill="none" stroke="#000000" points="590,-347 590,-368 764,-368 764,-347 590,-347"/>
<text text-anchor="start" x="599" y="-353.8" font-family="Nimbus Sans L" font-size="14.00" fill="#000000">[STRING] ident (Optional)</text>
</a>
</g>
<g id="a_node3_20"><a xlink:href="/html/IDMEFv2/Node.html" xlink:title="The &quot;domain&quot; from which the name information was obtained, if relevant. &#160;The permitted values for this attribute are shown in the table below. &#160;The default value is &quot;unknown&quot;. (See also Section 10 for extensions to the table.)">
<polygon fill="#4cdb4c" stroke="transparent" points="590,-326 590,-347 764,-347 764,-326 590,-326"/>
<polygon fill="none" stroke="#000000" points="590,-326 590,-347 764,-347 764,-326 590,-326"/>
<text text-anchor="start" x="593" y="-332.8" font-family="Nimbus Sans L" font-size="14.00" fill="#000000">[ENUM] category (Optional)</text>
</a>
</g>
</g>
<!-- Analyzer&#45;&gt;Node -->
<g id="edge2" class="edge">
<title>Analyzer&#45;&gt;Node</title>
<path fill="none" stroke="#000000" d="M523.147,-319.407C539.4705,-325.7297 556.1892,-332.2055 572.3095,-338.4495"/>
<polygon fill="#000000" stroke="#000000" points="571.1351,-341.7479 581.7243,-342.0962 573.6635,-335.2205 571.1351,-341.7479"/>
<text text-anchor="middle" x="552.5" y="-337.8" font-family="Times,serif" font-size="14.00" fill="#000000">0..1</text>
</g>
<!-- Process -->
<g id="node5" class="node">
<title>Process</title>
<g id="a_node5_21"><a xlink:href="/html/IDMEFv2/Process.html" xlink:title="The Process class is used to describe processes being executed on sources, targets, and analyzers. ">
<polygon fill="#cca352" stroke="transparent" points="596,-279 596,-300 758,-300 758,-279 596,-279"/>
<polygon fill="none" stroke="#000000" points="596,-279 596,-300 758,-300 758,-279 596,-279"/>
<text text-anchor="start" x="652.5" y="-285.8" font-family="Nimbus Sans L" font-size="14.00" fill="#000000">Process</text>
</a>
</g>
<g id="a_node5_22"><a xlink:href="/html/IDMEFv2/Process.html" xlink:title="The name of the program being executed. This is a short name; path and argument information are provided elsewhere.">
<polygon fill="#ffcc66" stroke="transparent" points="596,-258 596,-279 758,-279 758,-258 596,-258"/>
<polygon fill="none" stroke="#000000" points="596,-258 596,-279 758,-279 758,-258 596,-258"/>
<text text-anchor="start" x="618" y="-264.8" font-family="Nimbus Sans L" font-size="14.00" fill="#000000">[STRING] name (1)</text>
</a>
</g>
<g id="a_node5_23"><a xlink:href="/html/IDMEFv2/Process.html" xlink:title="The process identifier of the process.">
<polygon fill="#ffcc66" stroke="transparent" points="596,-237 596,-258 758,-258 758,-237 596,-237"/>
<polygon fill="none" stroke="#000000" points="596,-237 596,-258 758,-258 758,-237 596,-237"/>
<text text-anchor="start" x="614" y="-243.8" font-family="Nimbus Sans L" font-size="14.00" fill="#000000">[INTEGER] pid (0..1)</text>
</a>
</g>
<g id="a_node5_24"><a xlink:href="/html/IDMEFv2/Process.html" xlink:title="The full path of the program being executed.">
<polygon fill="#ffcc66" stroke="transparent" points="596,-216 596,-237 758,-237 758,-216 596,-216"/>
<polygon fill="none" stroke="#000000" points="596,-216 596,-237 758,-237 758,-216 596,-216"/>
<text text-anchor="start" x="615" y="-222.8" font-family="Nimbus Sans L" font-size="14.00" fill="#000000">[STRING] path (0..1)</text>
</a>
</g>
<g id="a_node5_25"><a xlink:href="/html/IDMEFv2/Process.html" xlink:title="A command&#45;line argument to the program. Multiple arguments may be specified (they are assumed to have occurred in the same order they are provided) with multiple uses of arg.">
<polygon fill="#ffcc66" stroke="transparent" points="596,-195 596,-216 758,-216 758,-195 596,-195"/>
<polygon fill="none" stroke="#000000" points="596,-195 596,-216 758,-216 758,-195 596,-195"/>
<text text-anchor="start" x="619.5" y="-201.8" font-family="Nimbus Sans L" font-size="14.00" fill="#000000">[STRING] arg (0..*)</text>
</a>
</g>
<g id="a_node5_26"><a xlink:href="/html/IDMEFv2/Process.html" xlink:title="An environment string associated with the process; generally of the format &quot;VARIABLE=value&quot;. &#160;Multiple environment strings may be specified with multiple uses of env.">
<polygon fill="#ffcc66" stroke="transparent" points="596,-174 596,-195 758,-195 758,-174 596,-174"/>
<polygon fill="none" stroke="#000000" points="596,-174 596,-195 758,-195 758,-174 596,-174"/>
<text text-anchor="start" x="618.5" y="-180.8" font-family="Nimbus Sans L" font-size="14.00" fill="#000000">[STRING] env (0..*)</text>
</a>
</g>
<g id="a_node5_27"><a xlink:href="/html/IDMEFv2/Process.html" xlink:title="A unique identifier for the process; see Section 3.2.9.">
<polygon fill="#ffcc66" stroke="transparent" points="596,-153 596,-174 758,-174 758,-153 596,-153"/>
<polygon fill="none" stroke="#000000" points="596,-153 596,-174 758,-174 758,-153 596,-153"/>
<text text-anchor="start" x="599" y="-159.8" font-family="Nimbus Sans L" font-size="14.00" fill="#000000">[STRING] ident (Optional)</text>
</a>
</g>
</g>
<!-- Analyzer&#45;&gt;Process -->
<g id="edge3" class="edge">
<title>Analyzer&#45;&gt;Process</title>
<path fill="none" stroke="#000000" d="M523.147,-254.5044C541.2577,-251.2668 559.8549,-247.9421 577.5817,-244.7731"/>
<polygon fill="#000000" stroke="#000000" points="578.6801,-248.1323 587.9081,-242.927 577.4482,-241.2416 578.6801,-248.1323"/>
<text text-anchor="middle" x="552.5" y="-254.8" font-family="Times,serif" font-size="14.00" fill="#000000">0..1</text>
</g>
<!-- Address -->
<g id="node4" class="node">
<title>Address</title>
<g id="a_node4_28"><a xlink:href="/html/IDMEFv2/Address.html" xlink:title="The Address class is used to represent network, hardware, and application addresses. ">
<polygon fill="#3daf3d" stroke="transparent" points="839.5,-431 839.5,-452 1038.5,-452 1038.5,-431 839.5,-431"/>
<polygon fill="none" stroke="#000000" points="839.5,-431 839.5,-452 1038.5,-452 1038.5,-431 839.5,-431"/>
<text text-anchor="start" x="914" y="-437.8" font-family="Nimbus Sans L" font-size="14.00" fill="#000000">Address</text>
</a>
</g>
<g id="a_node4_29"><a xlink:href="/html/IDMEFv2/Address.html" xlink:title="The address information. &#160;The format of this data is governed by the category attribute.">
<polygon fill="#4cdb4c" stroke="transparent" points="839.5,-410 839.5,-431 1038.5,-431 1038.5,-410 839.5,-410"/>
<polygon fill="none" stroke="#000000" points="839.5,-410 839.5,-431 1038.5,-431 1038.5,-410 839.5,-410"/>
<text text-anchor="start" x="873.5" y="-416.8" font-family="Nimbus Sans L" font-size="14.00" fill="#000000">[STRING] address (1)</text>
</a>
</g>
<g id="a_node4_30"><a xlink:href="/html/IDMEFv2/Address.html" xlink:title="The network mask for the address, if appropriate.">
<polygon fill="#4cdb4c" stroke="transparent" points="839.5,-389 839.5,-410 1038.5,-410 1038.5,-389 839.5,-389"/>
<polygon fill="none" stroke="#000000" points="839.5,-389 839.5,-410 1038.5,-410 1038.5,-389 839.5,-389"/>
<text text-anchor="start" x="864" y="-395.8" font-family="Nimbus Sans L" font-size="14.00" fill="#000000">[STRING] netmask (0..1)</text>
</a>
</g>
<g id="a_node4_31"><a xlink:href="/html/IDMEFv2/Address.html" xlink:title="A unique identifier for the address; see Section 3.2.9.">
<polygon fill="#4cdb4c" stroke="transparent" points="839.5,-368 839.5,-389 1038.5,-389 1038.5,-368 839.5,-368"/>
<polygon fill="none" stroke="#000000" points="839.5,-368 839.5,-389 1038.5,-389 1038.5,-368 839.5,-368"/>
<text text-anchor="start" x="861" y="-374.8" font-family="Nimbus Sans L" font-size="14.00" fill="#000000">[STRING] ident (Optional)</text>
</a>
</g>
<g id="a_node4_32"><a xlink:href="/html/IDMEFv2/Address.html" xlink:title="The type of address represented. &#160;The permitted values for this attribute are shown below. &#160;The default value is &quot;unknown&quot;. &#160;(See also Section 10.)">
<polygon fill="#4cdb4c" stroke="transparent" points="839.5,-347 839.5,-368 1038.5,-368 1038.5,-347 839.5,-347"/>
<polygon fill="none" stroke="#000000" points="839.5,-347 839.5,-368 1038.5,-368 1038.5,-347 839.5,-347"/>
<text text-anchor="start" x="855" y="-353.8" font-family="Nimbus Sans L" font-size="14.00" fill="#000000">[ENUM] category (Optional)</text>
</a>
</g>
<g id="a_node4_33"><a xlink:href="/html/IDMEFv2/Address.html" xlink:title="The name of the Virtual LAN to which the address belongs.">
<polygon fill="#4cdb4c" stroke="transparent" points="839.5,-326 839.5,-347 1038.5,-347 1038.5,-326 839.5,-326"/>
<polygon fill="none" stroke="#000000" points="839.5,-326 839.5,-347 1038.5,-347 1038.5,-326 839.5,-326"/>
<text text-anchor="start" x="844" y="-332.8" font-family="Nimbus Sans L" font-size="14.00" fill="#000000">[STRING] vlan&#45;name (Optional)</text>
</a>
</g>
<g id="a_node4_34"><a xlink:href="/html/IDMEFv2/Address.html" xlink:title="The number of the Virtual LAN to which the address belongs.">
<polygon fill="#4cdb4c" stroke="transparent" points="839.5,-305 839.5,-326 1038.5,-326 1038.5,-305 839.5,-305"/>
<polygon fill="none" stroke="#000000" points="839.5,-305 839.5,-326 1038.5,-326 1038.5,-305 839.5,-305"/>
<text text-anchor="start" x="842.5" y="-311.8" font-family="Nimbus Sans L" font-size="14.00" fill="#000000">[INTEGER] vlan&#45;num (Optional)</text>
</a>
</g>
</g>
<!-- Node&#45;&gt;Address -->
<g id="edge1" class="edge">
<title>Node&#45;&gt;Address</title>
<path fill="none" stroke="#000000" d="M772.1472,-379C787.8687,-379 804.3335,-379 820.5341,-379"/>
<polygon fill="#000000" stroke="#000000" points="820.578,-382.5001 830.578,-379 820.578,-375.5001 820.578,-382.5001"/>
<text text-anchor="middle" x="801.5" y="-382.8" font-family="Times,serif" font-size="14.00" fill="#000000">0..*</text>
</g>
</g>
</svg>
