<?xml version="1.0" encoding="UTF-8" standalone="no"?>
<!DOCTYPE svg PUBLIC "-//W3C//DTD SVG 1.1//EN"
 "http://www.w3.org/Graphics/SVG/1.1/DTD/svg11.dtd">
<!-- Generated by graphviz version 2.40.1 (0)
 -->
<!-- Title: SNMPService Pages: 1 -->
<svg width="298pt" height="205pt"
 viewBox="0.00 0.00 298.00 205.00" xmlns="http://www.w3.org/2000/svg" xmlns:xlink="http://www.w3.org/1999/xlink">
<g id="graph0" class="graph" transform="scale(1 1) rotate(0) translate(4 201)">
<title>SNMPService</title>
<polygon fill="#ffffff" stroke="transparent" points="-4,4 -4,-201 294,-201 294,4 -4,4"/>
<!-- SNMPService -->
<g id="node1" class="node">
<title>SNMPService</title>
<g id="a_node1_0"><a xlink:href="/html/IDMEFv2/SNMPService.html" xlink:title="The SNMPService class carries additional information related to SNMP traffic. The aggregate classes composing SNMPService must be interpreted as described in RFC 3411 [15] and RFC 3584 [16]. ">
<polygon fill="#cca3a3" stroke="transparent" points="8,-171.5 8,-192.5 282,-192.5 282,-171.5 8,-171.5"/>
<polygon fill="none" stroke="#000000" points="8,-171.5 8,-192.5 282,-192.5 282,-171.5 8,-171.5"/>
<text text-anchor="start" x="102" y="-178.3" font-family="Nimbus Sans L" font-size="14.00" fill="#000000">SNMPService</text>
</a>
</g>
<g id="a_node1_1"><a xlink:href="/html/IDMEFv2/SNMPService.html" xlink:title="The object identifier in the request.">
<polygon fill="#ffcccc" stroke="transparent" points="8,-150.5 8,-171.5 282,-171.5 282,-150.5 8,-150.5"/>
<polygon fill="none" stroke="#000000" points="8,-150.5 8,-171.5 282,-171.5 282,-150.5 8,-150.5"/>
<text text-anchor="start" x="87" y="-157.3" font-family="Nimbus Sans L" font-size="14.00" fill="#000000">[STRING] oid (0..1)</text>
</a>
</g>
<g id="a_node1_2"><a xlink:href="/html/IDMEFv2/SNMPService.html" xlink:title="The SNMP version, typically 0 for SNMPv1, 1 for SNMPv2c, 2 for SNMPv2u and SNMPv2*, and 3 for SNMPv3; see RFC 3411 [15] Section 5 for appropriate values.">
<polygon fill="#ffcccc" stroke="transparent" points="8,-129.5 8,-150.5 282,-150.5 282,-129.5 8,-129.5"/>
<polygon fill="none" stroke="#000000" points="8,-129.5 8,-150.5 282,-150.5 282,-129.5 8,-129.5"/>
<text text-anchor="start" x="11" y="-136.3" font-family="Nimbus Sans L" font-size="14.00" fill="#000000">[INTEGER] messageProcessingModel (0..1)</text>
</a>
</g>
<g id="a_node1_3"><a xlink:href="/html/IDMEFv2/SNMPService.html" xlink:title="The identification of the security model in use, typically 0 for any, 1 for SNMPv1, 2 for SNMPv2c, and 3 for USM; see RFC 3411 [15] Section 5 for appropriate values.">
<polygon fill="#ffcccc" stroke="transparent" points="8,-108.5 8,-129.5 282,-129.5 282,-108.5 8,-108.5"/>
<polygon fill="none" stroke="#000000" points="8,-108.5 8,-129.5 282,-129.5 282,-108.5 8,-108.5"/>
<text text-anchor="start" x="49" y="-115.3" font-family="Nimbus Sans L" font-size="14.00" fill="#000000">[INTEGER] securityModel (0..1)</text>
</a>
</g>
<g id="a_node1_4"><a xlink:href="/html/IDMEFv2/SNMPService.html" xlink:title="The object&#39;s security name; see RFC 3411 [15] Section 3.2.2.">
<polygon fill="#ffcccc" stroke="transparent" points="8,-87.5 8,-108.5 282,-108.5 282,-87.5 8,-87.5"/>
<polygon fill="none" stroke="#000000" points="8,-87.5 8,-108.5 282,-108.5 282,-87.5 8,-87.5"/>
<text text-anchor="start" x="54.5" y="-94.3" font-family="Nimbus Sans L" font-size="14.00" fill="#000000">[STRING] securityName (0..1)</text>
</a>
</g>
<g id="a_node1_5"><a xlink:href="/html/IDMEFv2/SNMPService.html" xlink:title="The security level of the SNMP request; see RFC 3411 [15] Section 3.4.3.">
<polygon fill="#ffcccc" stroke="transparent" points="8,-66.5 8,-87.5 282,-87.5 282,-66.5 8,-66.5"/>
<polygon fill="none" stroke="#000000" points="8,-66.5 8,-87.5 282,-87.5 282,-66.5 8,-66.5"/>
<text text-anchor="start" x="51.5" y="-73.3" font-family="Nimbus Sans L" font-size="14.00" fill="#000000">[INTEGER] securityLevel (0..1)</text>
</a>
</g>
<g id="a_node1_6"><a xlink:href="/html/IDMEFv2/SNMPService.html" xlink:title="The object&#39;s context name; see RFC 3411 [15] Section 3.3.3.">
<polygon fill="#ffcccc" stroke="transparent" points="8,-45.5 8,-66.5 282,-66.5 282,-45.5 8,-45.5"/>
<polygon fill="none" stroke="#000000" points="8,-45.5 8,-66.5 282,-66.5 282,-45.5 8,-45.5"/>
<text text-anchor="start" x="56" y="-52.3" font-family="Nimbus Sans L" font-size="14.00" fill="#000000">[STRING] contextName (0..1)</text>
</a>
</g>
<g id="a_node1_7"><a xlink:href="/html/IDMEFv2/SNMPService.html" xlink:title="The object&#39;s context engine identifier; see RFC 3411 [15] Section 3.3.2.">
<polygon fill="#ffcccc" stroke="transparent" points="8,-24.5 8,-45.5 282,-45.5 282,-24.5 8,-24.5"/>
<polygon fill="none" stroke="#000000" points="8,-24.5 8,-45.5 282,-45.5 282,-24.5 8,-24.5"/>
<text text-anchor="start" x="47" y="-31.3" font-family="Nimbus Sans L" font-size="14.00" fill="#000000">[STRING] contextEngineID (0..1)</text>
</a>
</g>
<g id="a_node1_8"><a xlink:href="/html/IDMEFv2/SNMPService.html" xlink:title="The command sent to the SNMP server (GET, SET, etc.).">
<polygon fill="#ffcccc" stroke="transparent" points="8,-3.5 8,-24.5 282,-24.5 282,-3.5 8,-3.5"/>
<polygon fill="none" stroke="#000000" points="8,-3.5 8,-24.5 282,-24.5 282,-3.5 8,-3.5"/>
<text text-anchor="start" x="65.5" y="-10.3" font-family="Nimbus Sans L" font-size="14.00" fill="#000000">[STRING] command (0..1)</text>
</a>
</g>
</g>
</g>
</svg>
