<?xml version="1.0" encoding="UTF-8" standalone="no"?>
<!DOCTYPE svg PUBLIC "-//W3C//DTD SVG 1.1//EN"
 "http://www.w3.org/Graphics/SVG/1.1/DTD/svg11.dtd">
<!-- Generated by graphviz version 2.40.1 (0)
 -->
<!-- Title: Analyzer Pages: 1 -->
<svg width="760pt" height="317pt"
 viewBox="0.00 0.00 760.00 317.00" xmlns="http://www.w3.org/2000/svg" xmlns:xlink="http://www.w3.org/1999/xlink">
<g id="graph0" class="graph" transform="scale(1 1) rotate(0) translate(4 313)">
<title>Analyzer</title>
<polygon fill="#ffffff" stroke="transparent" points="-4,4 -4,-313 756,-313 756,4 -4,4"/>
<!-- Analyzer -->
<g id="node1" class="node">
<title>Analyzer</title>
<g id="a_node1_0"><a xlink:href="/idmef_parser/IDMEFv2/Analyzer.html" xlink:title="The Analyzer class identifies the analyzer from which the Alert or Heartbeat message originates. Only one analyzer may be encoded for each alert or heartbeat, and that MUST be the analyzer at which the alert or heartbeat originated. Although the IDMEF data model does not prevent the use of hierarchical intrusion detection systems (where alerts get relayed up the tree), it does not provide any way to record the identity of the &quot;relay&quot; analyzers along the path from the originating analyzer to the manager that ultimately receives the alert. ">
<polygon fill="#cccc52" stroke="transparent" points="8.5,-171.5 8.5,-192.5 221.5,-192.5 221.5,-171.5 8.5,-171.5"/>
<polygon fill="none" stroke="#000000" points="8.5,-171.5 8.5,-192.5 221.5,-192.5 221.5,-171.5 8.5,-171.5"/>
<text text-anchor="start" x="88.5" y="-178.3" font-family="Nimbus Sans L" font-size="14.00" fill="#000000">Analyzer</text>
</a>
</g>
<g id="a_node1_1"><a xlink:href="/idmef_parser/IDMEFv2/Analyzer.html" xlink:title="(but see below). &#160;A unique identifier for the analyzer; see Section 3.2.9.">
<polygon fill="#ffff66" stroke="transparent" points="8.5,-150.5 8.5,-171.5 221.5,-171.5 221.5,-150.5 8.5,-150.5"/>
<polygon fill="none" stroke="#000000" points="8.5,-150.5 8.5,-171.5 221.5,-171.5 221.5,-150.5 8.5,-150.5"/>
<text text-anchor="start" x="21" y="-157.3" font-family="Nimbus Sans L" font-size="14.00" fill="#000000">[STRING] analyzerid (Optional)</text>
</a>
</g>
<g id="a_node1_2"><a xlink:href="/idmef_parser/IDMEFv2/Analyzer.html" xlink:title="An explicit name for the analyzer that may be easier to understand than the analyzerid.">
<polygon fill="#ffff66" stroke="transparent" points="8.5,-129.5 8.5,-150.5 221.5,-150.5 221.5,-129.5 8.5,-129.5"/>
<polygon fill="none" stroke="#000000" points="8.5,-129.5 8.5,-150.5 221.5,-150.5 221.5,-129.5 8.5,-129.5"/>
<text text-anchor="start" x="34.5" y="-136.3" font-family="Nimbus Sans L" font-size="14.00" fill="#000000">[STRING] name (Optional)</text>
</a>
</g>
<g id="a_node1_3"><a xlink:href="/idmef_parser/IDMEFv2/Analyzer.html" xlink:title="The manufacturer of the analyzer software and/or hardware.">
<polygon fill="#ffff66" stroke="transparent" points="8.5,-108.5 8.5,-129.5 221.5,-129.5 221.5,-108.5 8.5,-108.5"/>
<polygon fill="none" stroke="#000000" points="8.5,-108.5 8.5,-129.5 221.5,-129.5 221.5,-108.5 8.5,-108.5"/>
<text text-anchor="start" x="11.5" y="-115.3" font-family="Nimbus Sans L" font-size="14.00" fill="#000000">[STRING] manufacturer (Optional)</text>
</a>
</g>
<g id="a_node1_4"><a xlink:href="/idmef_parser/IDMEFv2/Analyzer.html" xlink:title="The model name/number of the analyzer software and/or hardware.">
<polygon fill="#ffff66" stroke="transparent" points="8.5,-87.5 8.5,-108.5 221.5,-108.5 221.5,-87.5 8.5,-87.5"/>
<polygon fill="none" stroke="#000000" points="8.5,-87.5 8.5,-108.5 221.5,-108.5 221.5,-87.5 8.5,-87.5"/>
<text text-anchor="start" x="33" y="-94.3" font-family="Nimbus Sans L" font-size="14.00" fill="#000000">[STRING] model (Optional)</text>
</a>
</g>
<g id="a_node1_5"><a xlink:href="/idmef_parser/IDMEFv2/Analyzer.html" xlink:title="The version number of the analyzer software and/or hardware.">
<polygon fill="#ffff66" stroke="transparent" points="8.5,-66.5 8.5,-87.5 221.5,-87.5 221.5,-66.5 8.5,-66.5"/>
<polygon fill="none" stroke="#000000" points="8.5,-66.5 8.5,-87.5 221.5,-87.5 221.5,-66.5 8.5,-66.5"/>
<text text-anchor="start" x="30" y="-73.3" font-family="Nimbus Sans L" font-size="14.00" fill="#000000">[STRING] version (Optional)</text>
</a>
</g>
<g id="a_node1_6"><a xlink:href="/idmef_parser/IDMEFv2/Analyzer.html" xlink:title="The class of analyzer software and/or hardware.">
<polygon fill="#ffff66" stroke="transparent" points="8.5,-45.5 8.5,-66.5 221.5,-66.5 221.5,-45.5 8.5,-45.5"/>
<polygon fill="none" stroke="#000000" points="8.5,-45.5 8.5,-66.5 221.5,-66.5 221.5,-45.5 8.5,-45.5"/>
<text text-anchor="start" x="36.5" y="-52.3" font-family="Nimbus Sans L" font-size="14.00" fill="#000000">[STRING] class (Optional)</text>
</a>
</g>
<g id="a_node1_7"><a xlink:href="/idmef_parser/IDMEFv2/Analyzer.html" xlink:title="Operating system name. &#160;On POSIX 1003.1 compliant systems, this is the value returned in utsname.sysname by the uname() system call, or the output of the &quot;uname &#45;s&quot; command.">
<polygon fill="#ffff66" stroke="transparent" points="8.5,-24.5 8.5,-45.5 221.5,-45.5 221.5,-24.5 8.5,-24.5"/>
<polygon fill="none" stroke="#000000" points="8.5,-24.5 8.5,-45.5 221.5,-45.5 221.5,-24.5 8.5,-24.5"/>
<text text-anchor="start" x="32" y="-31.3" font-family="Nimbus Sans L" font-size="14.00" fill="#000000">[STRING] ostype (Optional)</text>
</a>
</g>
<g id="a_node1_8"><a xlink:href="/idmef_parser/IDMEFv2/Analyzer.html" xlink:title="Operating system version. &#160;On POSIX 1003.1 compliant systems, this is the value returned in utsname.release by the uname() system call, or the output of the &quot;uname &#45;r&quot; command.">
<polygon fill="#ffff66" stroke="transparent" points="8.5,-3.5 8.5,-24.5 221.5,-24.5 221.5,-3.5 8.5,-3.5"/>
<polygon fill="none" stroke="#000000" points="8.5,-3.5 8.5,-24.5 221.5,-24.5 221.5,-3.5 8.5,-3.5"/>
<text text-anchor="start" x="23" y="-10.3" font-family="Nimbus Sans L" font-size="14.00" fill="#000000">[STRING] osversion (Optional)</text>
</a>
</g>
</g>
<!-- Analyzer&#45;&gt;Analyzer -->
<g id="edge4" class="edge">
<title>Analyzer&#45;&gt;Analyzer</title>
<path fill="none" stroke="#000000" d="M91.7863,-197.0908C96.1006,-207.9735 103.6719,-215 114.5,-215 121.9443,-215 127.8493,-211.6789 132.2148,-206.0668"/>
<polygon fill="#000000" stroke="#000000" points="135.406,-207.5303 137.2137,-197.0908 129.2904,-204.1244 135.406,-207.5303"/>
<text text-anchor="middle" x="114.5" y="-218.8" font-family="Times,serif" font-size="14.00" fill="#000000">0..1</text>
</g>
<!-- Node -->
<g id="node2" class="node">
<title>Node</title>
<g id="a_node2_9"><a xlink:href="/idmef_parser/IDMEFv2/Node.html" xlink:title="The Node class is used to identify hosts and other network devices (routers, switches, etc.). ">
<polygon fill="#00a300" stroke="transparent" points="296,-262.5 296,-283.5 470,-283.5 470,-262.5 296,-262.5"/>
<polygon fill="none" stroke="#000000" points="296,-262.5 296,-283.5 470,-283.5 470,-262.5 296,-262.5"/>
<text text-anchor="start" x="366.5" y="-269.3" font-family="Nimbus Sans L" font-size="14.00" fill="#000000">Node</text>
</a>
</g>
<g id="a_node2_10"><a xlink:href="/idmef_parser/IDMEFv2/Node.html" xlink:title="The location of the equipment.">
<polygon fill="#00cc00" stroke="transparent" points="296,-241.5 296,-262.5 470,-262.5 470,-241.5 296,-241.5"/>
<polygon fill="none" stroke="#000000" points="296,-241.5 296,-262.5 470,-262.5 470,-241.5 296,-241.5"/>
<text text-anchor="start" x="310.5" y="-248.3" font-family="Nimbus Sans L" font-size="14.00" fill="#000000">[STRING] location (0..1)</text>
</a>
</g>
<g id="a_node2_11"><a xlink:href="/idmef_parser/IDMEFv2/Node.html" xlink:title="The name of the equipment. &#160;This information MUST be provided if no Address information is given.">
<polygon fill="#00cc00" stroke="transparent" points="296,-220.5 296,-241.5 470,-241.5 470,-220.5 296,-220.5"/>
<polygon fill="none" stroke="#000000" points="296,-220.5 296,-241.5 470,-241.5 470,-220.5 296,-220.5"/>
<text text-anchor="start" x="316.5" y="-227.3" font-family="Nimbus Sans L" font-size="14.00" fill="#000000">[STRING] name (0..1)</text>
</a>
</g>
<g id="a_node2_12"><a xlink:href="/idmef_parser/IDMEFv2/Node.html" xlink:title="A unique identifier for the node; see Section 3.2.9.">
<polygon fill="#00cc00" stroke="transparent" points="296,-199.5 296,-220.5 470,-220.5 470,-199.5 296,-199.5"/>
<polygon fill="none" stroke="#000000" points="296,-199.5 296,-220.5 470,-220.5 470,-199.5 296,-199.5"/>
<text text-anchor="start" x="305" y="-206.3" font-family="Nimbus Sans L" font-size="14.00" fill="#000000">[STRING] ident (Optional)</text>
</a>
</g>
<g id="a_node2_13"><a xlink:href="/idmef_parser/IDMEFv2/Node.html" xlink:title="The &quot;domain&quot; from which the name information was obtained, if relevant. &#160;The permitted values for this attribute are shown in the table below. &#160;The default value is &quot;unknown&quot;. (See also Section 10 for extensions to the table.)">
<polygon fill="#00cc00" stroke="transparent" points="296,-178.5 296,-199.5 470,-199.5 470,-178.5 296,-178.5"/>
<polygon fill="none" stroke="#000000" points="296,-178.5 296,-199.5 470,-199.5 470,-178.5 296,-178.5"/>
<text text-anchor="start" x="299" y="-185.3" font-family="Nimbus Sans L" font-size="14.00" fill="#000000">[ENUM] category (Optional)</text>
</a>
</g>
</g>
<!-- Analyzer&#45;&gt;Node -->
<g id="edge2" class="edge">
<title>Analyzer&#45;&gt;Node</title>
<path fill="none" stroke="#000000" d="M229.147,-155.2898C245.623,-163.4511 262.5017,-171.8118 278.7613,-179.8659"/>
<polygon fill="#000000" stroke="#000000" points="277.2098,-183.0032 287.7243,-184.3057 280.3169,-176.7306 277.2098,-183.0032"/>
<text text-anchor="middle" x="258.5" y="-177.3" font-family="Times,serif" font-size="14.00" fill="#000000">0..1</text>
</g>
<!-- Process -->
<g id="node4" class="node">
<title>Process</title>
<g id="a_node4_14"><a xlink:href="/idmef_parser/IDMEFv2/Process.html" xlink:title="The Process class is used to describe processes being executed on sources, targets, and analyzers. ">
<polygon fill="#cca352" stroke="transparent" points="302,-131.5 302,-152.5 464,-152.5 464,-131.5 302,-131.5"/>
<polygon fill="none" stroke="#000000" points="302,-131.5 302,-152.5 464,-152.5 464,-131.5 302,-131.5"/>
<text text-anchor="start" x="358.5" y="-138.3" font-family="Nimbus Sans L" font-size="14.00" fill="#000000">Process</text>
</a>
</g>
<g id="a_node4_15"><a xlink:href="/idmef_parser/IDMEFv2/Process.html" xlink:title="The name of the program being executed. This is a short name; path and argument information are provided elsewhere.">
<polygon fill="#ffcc66" stroke="transparent" points="302,-110.5 302,-131.5 464,-131.5 464,-110.5 302,-110.5"/>
<polygon fill="none" stroke="#000000" points="302,-110.5 302,-131.5 464,-131.5 464,-110.5 302,-110.5"/>
<text text-anchor="start" x="324" y="-117.3" font-family="Nimbus Sans L" font-size="14.00" fill="#000000">[STRING] name (1)</text>
</a>
</g>
<g id="a_node4_16"><a xlink:href="/idmef_parser/IDMEFv2/Process.html" xlink:title="The process identifier of the process.">
<polygon fill="#ffcc66" stroke="transparent" points="302,-89.5 302,-110.5 464,-110.5 464,-89.5 302,-89.5"/>
<polygon fill="none" stroke="#000000" points="302,-89.5 302,-110.5 464,-110.5 464,-89.5 302,-89.5"/>
<text text-anchor="start" x="320" y="-96.3" font-family="Nimbus Sans L" font-size="14.00" fill="#000000">[INTEGER] pid (0..1)</text>
</a>
</g>
<g id="a_node4_17"><a xlink:href="/idmef_parser/IDMEFv2/Process.html" xlink:title="The full path of the program being executed.">
<polygon fill="#ffcc66" stroke="transparent" points="302,-68.5 302,-89.5 464,-89.5 464,-68.5 302,-68.5"/>
<polygon fill="none" stroke="#000000" points="302,-68.5 302,-89.5 464,-89.5 464,-68.5 302,-68.5"/>
<text text-anchor="start" x="321" y="-75.3" font-family="Nimbus Sans L" font-size="14.00" fill="#000000">[STRING] path (0..1)</text>
</a>
</g>
<g id="a_node4_18"><a xlink:href="/idmef_parser/IDMEFv2/Process.html" xlink:title="A command&#45;line argument to the program. Multiple arguments may be specified (they are assumed to have occurred in the same order they are provided) with multiple uses of arg.">
<polygon fill="#ffcc66" stroke="transparent" points="302,-47.5 302,-68.5 464,-68.5 464,-47.5 302,-47.5"/>
<polygon fill="none" stroke="#000000" points="302,-47.5 302,-68.5 464,-68.5 464,-47.5 302,-47.5"/>
<text text-anchor="start" x="325.5" y="-54.3" font-family="Nimbus Sans L" font-size="14.00" fill="#000000">[STRING] arg (0..*)</text>
</a>
</g>
<g id="a_node4_19"><a xlink:href="/idmef_parser/IDMEFv2/Process.html" xlink:title="An environment string associated with the process; generally of the format &quot;VARIABLE=value&quot;. &#160;Multiple environment strings may be specified with multiple uses of env.">
<polygon fill="#ffcc66" stroke="transparent" points="302,-26.5 302,-47.5 464,-47.5 464,-26.5 302,-26.5"/>
<polygon fill="none" stroke="#000000" points="302,-26.5 302,-47.5 464,-47.5 464,-26.5 302,-26.5"/>
<text text-anchor="start" x="324.5" y="-33.3" font-family="Nimbus Sans L" font-size="14.00" fill="#000000">[STRING] env (0..*)</text>
</a>
</g>
<g id="a_node4_20"><a xlink:href="/idmef_parser/IDMEFv2/Process.html" xlink:title="A unique identifier for the process; see Section 3.2.9.">
<polygon fill="#ffcc66" stroke="transparent" points="302,-5.5 302,-26.5 464,-26.5 464,-5.5 302,-5.5"/>
<polygon fill="none" stroke="#000000" points="302,-5.5 302,-26.5 464,-26.5 464,-5.5 302,-5.5"/>
<text text-anchor="start" x="305" y="-12.3" font-family="Nimbus Sans L" font-size="14.00" fill="#000000">[STRING] ident (Optional)</text>
</a>
</g>
</g>
<!-- Analyzer&#45;&gt;Process -->
<g id="edge3" class="edge">
<title>Analyzer&#45;&gt;Process</title>
<path fill="none" stroke="#000000" d="M229.147,-90.3872C247.2577,-89.1056 265.8549,-87.7896 283.5817,-86.5352"/>
<polygon fill="#000000" stroke="#000000" points="284.1801,-90.0017 293.9081,-85.8045 283.6859,-83.0191 284.1801,-90.0017"/>
<text text-anchor="middle" x="258.5" y="-93.3" font-family="Times,serif" font-size="14.00" fill="#000000">0..1</text>
</g>
<!-- Address -->
<g id="node3" class="node">
<title>Address</title>
<g id="a_node3_21"><a xlink:href="/idmef_parser/IDMEFv2/Address.html" xlink:title="The Address class is used to represent network, hardware, and application addresses. ">
<polygon fill="#00a300" stroke="transparent" points="545.5,-283.5 545.5,-304.5 744.5,-304.5 744.5,-283.5 545.5,-283.5"/>
<polygon fill="none" stroke="#000000" points="545.5,-283.5 545.5,-304.5 744.5,-304.5 744.5,-283.5 545.5,-283.5"/>
<text text-anchor="start" x="620" y="-290.3" font-family="Nimbus Sans L" font-size="14.00" fill="#000000">Address</text>
</a>
</g>
<g id="a_node3_22"><a xlink:href="/idmef_parser/IDMEFv2/Address.html" xlink:title="The address information. &#160;The format of this data is governed by the category attribute.">
<polygon fill="#00cc00" stroke="transparent" points="545.5,-262.5 545.5,-283.5 744.5,-283.5 744.5,-262.5 545.5,-262.5"/>
<polygon fill="none" stroke="#000000" points="545.5,-262.5 545.5,-283.5 744.5,-283.5 744.5,-262.5 545.5,-262.5"/>
<text text-anchor="start" x="579.5" y="-269.3" font-family="Nimbus Sans L" font-size="14.00" fill="#000000">[STRING] address (1)</text>
</a>
</g>
<g id="a_node3_23"><a xlink:href="/idmef_parser/IDMEFv2/Address.html" xlink:title="The network mask for the address, if appropriate.">
<polygon fill="#00cc00" stroke="transparent" points="545.5,-241.5 545.5,-262.5 744.5,-262.5 744.5,-241.5 545.5,-241.5"/>
<polygon fill="none" stroke="#000000" points="545.5,-241.5 545.5,-262.5 744.5,-262.5 744.5,-241.5 545.5,-241.5"/>
<text text-anchor="start" x="570" y="-248.3" font-family="Nimbus Sans L" font-size="14.00" fill="#000000">[STRING] netmask (0..1)</text>
</a>
</g>
<g id="a_node3_24"><a xlink:href="/idmef_parser/IDMEFv2/Address.html" xlink:title="A unique identifier for the address; see Section 3.2.9.">
<polygon fill="#00cc00" stroke="transparent" points="545.5,-220.5 545.5,-241.5 744.5,-241.5 744.5,-220.5 545.5,-220.5"/>
<polygon fill="none" stroke="#000000" points="545.5,-220.5 545.5,-241.5 744.5,-241.5 744.5,-220.5 545.5,-220.5"/>
<text text-anchor="start" x="567" y="-227.3" font-family="Nimbus Sans L" font-size="14.00" fill="#000000">[STRING] ident (Optional)</text>
</a>
</g>
<g id="a_node3_25"><a xlink:href="/idmef_parser/IDMEFv2/Address.html" xlink:title="The type of address represented. &#160;The permitted values for this attribute are shown below. &#160;The default value is &quot;unknown&quot;. &#160;(See also Section 10.)">
<polygon fill="#00cc00" stroke="transparent" points="545.5,-199.5 545.5,-220.5 744.5,-220.5 744.5,-199.5 545.5,-199.5"/>
<polygon fill="none" stroke="#000000" points="545.5,-199.5 545.5,-220.5 744.5,-220.5 744.5,-199.5 545.5,-199.5"/>
<text text-anchor="start" x="561" y="-206.3" font-family="Nimbus Sans L" font-size="14.00" fill="#000000">[ENUM] category (Optional)</text>
</a>
</g>
<g id="a_node3_26"><a xlink:href="/idmef_parser/IDMEFv2/Address.html" xlink:title="The name of the Virtual LAN to which the address belongs.">
<polygon fill="#00cc00" stroke="transparent" points="545.5,-178.5 545.5,-199.5 744.5,-199.5 744.5,-178.5 545.5,-178.5"/>
<polygon fill="none" stroke="#000000" points="545.5,-178.5 545.5,-199.5 744.5,-199.5 744.5,-178.5 545.5,-178.5"/>
<text text-anchor="start" x="550" y="-185.3" font-family="Nimbus Sans L" font-size="14.00" fill="#000000">[STRING] vlan&#45;name (Optional)</text>
</a>
</g>
<g id="a_node3_27"><a xlink:href="/idmef_parser/IDMEFv2/Address.html" xlink:title="The number of the Virtual LAN to which the address belongs.">
<polygon fill="#00cc00" stroke="transparent" points="545.5,-157.5 545.5,-178.5 744.5,-178.5 744.5,-157.5 545.5,-157.5"/>
<polygon fill="none" stroke="#000000" points="545.5,-157.5 545.5,-178.5 744.5,-178.5 744.5,-157.5 545.5,-157.5"/>
<text text-anchor="start" x="548.5" y="-164.3" font-family="Nimbus Sans L" font-size="14.00" fill="#000000">[INTEGER] vlan&#45;num (Optional)</text>
</a>
</g>
</g>
<!-- Node&#45;&gt;Address -->
<g id="edge1" class="edge">
<title>Node&#45;&gt;Address</title>
<path fill="none" stroke="#000000" d="M478.1472,-231.5C493.8687,-231.5 510.3335,-231.5 526.5341,-231.5"/>
<polygon fill="#000000" stroke="#000000" points="526.578,-235.0001 536.578,-231.5 526.578,-228.0001 526.578,-235.0001"/>
<text text-anchor="middle" x="507.5" y="-235.3" font-family="Times,serif" font-size="14.00" fill="#000000">0..*</text>
</g>
</g>
</svg>
