<?xml version="1.0" encoding="UTF-8" standalone="no"?>
<!DOCTYPE svg PUBLIC "-//W3C//DTD SVG 1.1//EN"
 "http://www.w3.org/Graphics/SVG/1.1/DTD/svg11.dtd">
<!-- Generated by graphviz version 2.40.1 (0)
 -->
<!-- Title: Linkage Pages: 1 -->
<svg width="965pt" height="494pt"
 viewBox="0.00 0.00 965.00 494.00" xmlns="http://www.w3.org/2000/svg" xmlns:xlink="http://www.w3.org/1999/xlink">
<g id="graph0" class="graph" transform="scale(1 1) rotate(0) translate(4 490)">
<title>Linkage</title>
<polygon fill="#ffffff" stroke="transparent" points="-4,4 -4,-490 961,-490 961,4 -4,4"/>
<!-- Linkage -->
<g id="node1" class="node">
<title>Linkage</title>
<g id="a_node1_0"><a xlink:href="/html/IDMEFv2/Linkage.html" xlink:title="The Linkage class represents file system connections between the file described in the &lt;File&gt; element and other objects in the file system. For example, if the &lt;File&gt; element is a symbolic link or shortcut, then the &lt;Linkage&gt; element should contain the name of the object the link points to. Further information can be provided about the object in the &lt;Linkage&gt; element with another &lt;File&gt; element, if appropriate. ">
<polygon fill="#cca300" stroke="transparent" points="8,-248 8,-269 182,-269 182,-248 8,-248"/>
<polygon fill="none" stroke="#000000" points="8,-248 8,-269 182,-269 182,-248 8,-248"/>
<text text-anchor="start" x="71" y="-254.8" font-family="Nimbus Sans L" font-size="14.00" fill="#000000">Linkage</text>
</a>
</g>
<g id="a_node1_1"><a xlink:href="/html/IDMEFv2/Linkage.html" xlink:title="The name of the file system object, not including the path.">
<polygon fill="#ffcc00" stroke="transparent" points="8,-227 8,-248 182,-248 182,-227 8,-227"/>
<polygon fill="none" stroke="#000000" points="8,-227 8,-248 182,-248 182,-227 8,-227"/>
<text text-anchor="start" x="36" y="-233.8" font-family="Nimbus Sans L" font-size="14.00" fill="#000000">[STRING] name (1)</text>
</a>
</g>
<g id="a_node1_2"><a xlink:href="/html/IDMEFv2/Linkage.html" xlink:title="The full path to the file system object, including the name. &#160;The path name should be represented in as &quot;universal&quot; a manner as possible, to facilitate processing of the alert.">
<polygon fill="#ffcc00" stroke="transparent" points="8,-206 8,-227 182,-227 182,-206 8,-206"/>
<polygon fill="none" stroke="#000000" points="8,-206 8,-227 182,-227 182,-206 8,-206"/>
<text text-anchor="start" x="40.5" y="-212.8" font-family="Nimbus Sans L" font-size="14.00" fill="#000000">[STRING] path (1)</text>
</a>
</g>
<g id="a_node1_3"><a xlink:href="/html/IDMEFv2/Linkage.html" xlink:title="Section 10.)">
<polygon fill="#ffcc00" stroke="transparent" points="8,-185 8,-206 182,-206 182,-185 8,-185"/>
<polygon fill="none" stroke="#000000" points="8,-185 8,-206 182,-206 182,-185 8,-185"/>
<text text-anchor="start" x="11" y="-191.8" font-family="Nimbus Sans L" font-size="14.00" fill="#000000">[ENUM] category (Optional)</text>
</a>
</g>
</g>
<!-- File -->
<g id="node2" class="node">
<title>File</title>
<g id="a_node2_4"><a xlink:href="/html/IDMEFv2/File.html" xlink:title="The File class provides specific information about a file or other file&#45;like object that has been created, deleted, or modified on the target. The description can provide either the file settings prior to the event or the file settings at the time of the event, as specified using the &quot;category&quot; attribute. ">
<polygon fill="#cca300" stroke="transparent" points="257.5,-321 257.5,-342 450.5,-342 450.5,-321 257.5,-321"/>
<polygon fill="none" stroke="#000000" points="257.5,-321 257.5,-342 450.5,-342 450.5,-321 257.5,-321"/>
<text text-anchor="start" x="343" y="-327.8" font-family="Nimbus Sans L" font-size="14.00" fill="#000000">File</text>
</a>
</g>
<g id="a_node2_5"><a xlink:href="/html/IDMEFv2/File.html" xlink:title="The name of the file to which the alert applies, not including the path to the file.">
<polygon fill="#ffcc00" stroke="transparent" points="257.5,-300 257.5,-321 450.5,-321 450.5,-300 257.5,-300"/>
<polygon fill="none" stroke="#000000" points="257.5,-300 257.5,-321 450.5,-321 450.5,-300 257.5,-300"/>
<text text-anchor="start" x="295" y="-306.8" font-family="Nimbus Sans L" font-size="14.00" fill="#000000">[STRING] name (1)</text>
</a>
</g>
<g id="a_node2_6"><a xlink:href="/html/IDMEFv2/File.html" xlink:title="The full path to the file, including the name. &#160;The path name should be represented in as &quot;universal&quot; a manner as possible, to facilitate processing of the alert.">
<polygon fill="#ffcc00" stroke="transparent" points="257.5,-279 257.5,-300 450.5,-300 450.5,-279 257.5,-279"/>
<polygon fill="none" stroke="#000000" points="257.5,-279 257.5,-300 450.5,-300 450.5,-279 257.5,-279"/>
<text text-anchor="start" x="299.5" y="-285.8" font-family="Nimbus Sans L" font-size="14.00" fill="#000000">[STRING] path (1)</text>
</a>
</g>
<g id="a_node2_7"><a xlink:href="/html/IDMEFv2/File.html" xlink:title="Time the file was created. &#160;Note that this is *not* the Unix &quot;st_ctime&quot; file attribute (which is not file creation time). &#160;The Unix &quot;st_ctime&quot; attribute is contained in the &quot;Inode&quot; class.">
<polygon fill="#ffcc00" stroke="transparent" points="257.5,-258 257.5,-279 450.5,-279 450.5,-258 257.5,-258"/>
<polygon fill="none" stroke="#000000" points="257.5,-258 257.5,-279 450.5,-279 450.5,-258 257.5,-258"/>
<text text-anchor="start" x="263" y="-264.8" font-family="Nimbus Sans L" font-size="14.00" fill="#000000">[DATETIME] create&#45;time (0..1)</text>
</a>
</g>
<g id="a_node2_8"><a xlink:href="/html/IDMEFv2/File.html" xlink:title="Time the file was last modified.">
<polygon fill="#ffcc00" stroke="transparent" points="257.5,-237 257.5,-258 450.5,-258 450.5,-237 257.5,-237"/>
<polygon fill="none" stroke="#000000" points="257.5,-237 257.5,-258 450.5,-258 450.5,-237 257.5,-237"/>
<text text-anchor="start" x="261.5" y="-243.8" font-family="Nimbus Sans L" font-size="14.00" fill="#000000">[DATETIME] modify&#45;time (0..1)</text>
</a>
</g>
<g id="a_node2_9"><a xlink:href="/html/IDMEFv2/File.html" xlink:title="Time the file was last accessed.">
<polygon fill="#ffcc00" stroke="transparent" points="257.5,-216 257.5,-237 450.5,-237 450.5,-216 257.5,-216"/>
<polygon fill="none" stroke="#000000" points="257.5,-216 257.5,-237 450.5,-237 450.5,-216 257.5,-216"/>
<text text-anchor="start" x="260.5" y="-222.8" font-family="Nimbus Sans L" font-size="14.00" fill="#000000">[DATETIME] access&#45;time (0..1)</text>
</a>
</g>
<g id="a_node2_10"><a xlink:href="/html/IDMEFv2/File.html" xlink:title="The size of the data, in bytes. &#160;Typically what is meant when referring to file size. &#160;On Unix UFS file systems, this value corresponds to stat.st_size. &#160;On Windows NTFS, this value corresponds to Valid Data Length (VDL).">
<polygon fill="#ffcc00" stroke="transparent" points="257.5,-195 257.5,-216 450.5,-216 450.5,-195 257.5,-195"/>
<polygon fill="none" stroke="#000000" points="257.5,-195 257.5,-216 450.5,-216 450.5,-195 257.5,-195"/>
<text text-anchor="start" x="272.5" y="-201.8" font-family="Nimbus Sans L" font-size="14.00" fill="#000000">[INTEGER] data&#45;size (0..1)</text>
</a>
</g>
<g id="a_node2_11"><a xlink:href="/html/IDMEFv2/File.html" xlink:title="The physical space on disk consumed by the file, in bytes. &#160;On Unix UFS file systems, this value corresponds to 512 * stat.st_blocks. &#160;On Windows NTFS, this value corresponds to End of File (EOF).">
<polygon fill="#ffcc00" stroke="transparent" points="257.5,-174 257.5,-195 450.5,-195 450.5,-174 257.5,-174"/>
<polygon fill="none" stroke="#000000" points="257.5,-174 257.5,-195 450.5,-195 450.5,-174 257.5,-174"/>
<text text-anchor="start" x="274" y="-180.8" font-family="Nimbus Sans L" font-size="14.00" fill="#000000">[INTEGER] disk&#45;size (0..1)</text>
</a>
</g>
<g id="a_node2_12"><a xlink:href="/html/IDMEFv2/File.html" xlink:title="A unique identifier for this file; see Section 3.2.9.">
<polygon fill="#ffcc00" stroke="transparent" points="257.5,-153 257.5,-174 450.5,-174 450.5,-153 257.5,-153"/>
<polygon fill="none" stroke="#000000" points="257.5,-153 257.5,-174 450.5,-174 450.5,-153 257.5,-153"/>
<text text-anchor="start" x="290.5" y="-159.8" font-family="Nimbus Sans L" font-size="14.00" fill="#000000">[STRING] ident (0..1)</text>
</a>
</g>
<g id="a_node2_13"><a xlink:href="/html/IDMEFv2/File.html" xlink:title="The type of file system the file resides on. &#160;This attribute governs how path names and other attributes are interpreted.">
<polygon fill="#ffcc00" stroke="transparent" points="257.5,-132 257.5,-153 450.5,-153 450.5,-132 257.5,-132"/>
<polygon fill="none" stroke="#000000" points="257.5,-132 257.5,-153 450.5,-153 450.5,-132 257.5,-132"/>
<text text-anchor="start" x="284.5" y="-138.8" font-family="Nimbus Sans L" font-size="14.00" fill="#000000">[ENUM] category (0..1)</text>
</a>
</g>
<g id="a_node2_14"><a xlink:href="/html/IDMEFv2/File.html" xlink:title="The type of file, as a mime&#45;type.">
<polygon fill="#ffcc00" stroke="transparent" points="257.5,-111 257.5,-132 450.5,-132 450.5,-111 257.5,-111"/>
<polygon fill="none" stroke="#000000" points="257.5,-111 257.5,-132 450.5,-132 450.5,-111 257.5,-111"/>
<text text-anchor="start" x="281.5" y="-117.8" font-family="Nimbus Sans L" font-size="14.00" fill="#000000">[STRING] file&#45;type (0..1)</text>
</a>
</g>
</g>
<!-- Linkage&#45;&gt;File -->
<g id="edge7" class="edge">
<title>Linkage&#45;&gt;File</title>
<path fill="none" stroke="#000000" d="M190.1546,-227C206.0103,-227 222.6032,-227 238.8825,-227"/>
<polygon fill="#000000" stroke="#000000" points="238.9687,-230.5001 248.9687,-227 238.9687,-223.5001 238.9687,-230.5001"/>
<text text-anchor="middle" x="219.5" y="-230.8" font-family="Times,serif" font-size="14.00" fill="#000000">1</text>
</g>
<!-- File&#45;&gt;Linkage -->
<g id="edge3" class="edge">
<title>File&#45;&gt;Linkage</title>
<path fill="none" stroke="#000000" d="M248.7066,-208.9369C235.0317,-208.0783 221.1943,-207.9557 208,-209 205.4441,-209.2023 202.8587,-209.4299 200.2533,-209.6799"/>
<polygon fill="#000000" stroke="#000000" points="199.7025,-206.2184 190.1247,-210.7478 200.4366,-213.1799 199.7025,-206.2184"/>
<text text-anchor="middle" x="219.5" y="-212.8" font-family="Times,serif" font-size="14.00" fill="#000000">0..*</text>
</g>
<!-- FileAccess -->
<g id="node3" class="node">
<title>FileAccess</title>
<g id="a_node3_15"><a xlink:href="/html/IDMEFv2/FileAccess.html" xlink:title="The FileAccess class represents the access permissions on a file. The representation is intended to be useful across operating systems. ">
<polygon fill="#cca300" stroke="transparent" points="548,-419 548,-440 705,-440 705,-419 548,-419"/>
<polygon fill="none" stroke="#000000" points="548,-419 548,-440 705,-440 705,-419 548,-419"/>
<text text-anchor="start" x="593.5" y="-425.8" font-family="Nimbus Sans L" font-size="14.00" fill="#000000">FileAccess</text>
</a>
</g>
<g id="a_node3_16"><a xlink:href="/html/IDMEFv2/FileAccess.html" xlink:title="Level of access allowed. &#160;The permitted values are shown below. &#160;There is no default value. &#160;(See also Section 10.)">
<polygon fill="#ffcc00" stroke="transparent" points="548,-398 548,-419 705,-419 705,-398 548,-398"/>
<polygon fill="none" stroke="#000000" points="548,-398 548,-419 705,-419 705,-398 548,-398"/>
<text text-anchor="start" x="551" y="-404.8" font-family="Nimbus Sans L" font-size="14.00" fill="#000000">[ENUM] Permission (1..*)</text>
</a>
</g>
</g>
<!-- File&#45;&gt;FileAccess -->
<g id="edge2" class="edge">
<title>File&#45;&gt;FileAccess</title>
<path fill="none" stroke="#000000" d="M458.4431,-341.7843C476.8259,-357.8205 496.6292,-372.9182 517,-385 521.1505,-387.4617 525.4973,-389.7626 529.9656,-391.9111"/>
<polygon fill="#000000" stroke="#000000" points="528.7286,-395.1926 539.2837,-396.1099 531.6044,-388.8106 528.7286,-395.1926"/>
<text text-anchor="middle" x="487.5" y="-374.8" font-family="Times,serif" font-size="14.00" fill="#000000">0..*</text>
</g>
<!-- Inode -->
<g id="node5" class="node">
<title>Inode</title>
<g id="a_node5_17"><a xlink:href="/html/IDMEFv2/Inode.html" xlink:title="The Inode class is used to represent the additional information contained in a Unix file system i&#45;node. ">
<polygon fill="#cca300" stroke="transparent" points="525,-350 525,-371 727,-371 727,-350 525,-350"/>
<polygon fill="none" stroke="#000000" points="525,-350 525,-371 727,-371 727,-350 525,-350"/>
<text text-anchor="start" x="609" y="-356.8" font-family="Nimbus Sans L" font-size="14.00" fill="#000000">Inode</text>
</a>
</g>
<g id="a_node5_18"><a xlink:href="/html/IDMEFv2/Inode.html" xlink:title="The time of the last inode change, given by the st_ctime element of &quot;struct stat&quot;.">
<polygon fill="#ffcc00" stroke="transparent" points="525,-329 525,-350 727,-350 727,-329 525,-329"/>
<polygon fill="none" stroke="#000000" points="525,-329 525,-350 727,-350 727,-329 525,-329"/>
<text text-anchor="start" x="531.5" y="-335.8" font-family="Nimbus Sans L" font-size="14.00" fill="#000000">[DATETIME] change&#45;time (0..1)</text>
</a>
</g>
<g id="a_node5_19"><a xlink:href="/html/IDMEFv2/Inode.html" xlink:title="The inode number.">
<polygon fill="#ffcc00" stroke="transparent" points="525,-308 525,-329 727,-329 727,-308 525,-308"/>
<polygon fill="none" stroke="#000000" points="525,-308 525,-329 727,-329 727,-308 525,-308"/>
<text text-anchor="start" x="549" y="-314.8" font-family="Nimbus Sans L" font-size="14.00" fill="#000000">[INTEGER] number (0..1)</text>
</a>
</g>
<g id="a_node5_20"><a xlink:href="/html/IDMEFv2/Inode.html" xlink:title="The major device number of the device the file resides on.">
<polygon fill="#ffcc00" stroke="transparent" points="525,-287 525,-308 727,-308 727,-287 525,-287"/>
<polygon fill="none" stroke="#000000" points="525,-287 525,-308 727,-308 727,-287 525,-287"/>
<text text-anchor="start" x="533.5" y="-293.8" font-family="Nimbus Sans L" font-size="14.00" fill="#000000">[INTEGER] major&#45;device (0..1)</text>
</a>
</g>
<g id="a_node5_21"><a xlink:href="/html/IDMEFv2/Inode.html" xlink:title="The minor device number of the device the file resides on.">
<polygon fill="#ffcc00" stroke="transparent" points="525,-266 525,-287 727,-287 727,-266 525,-266"/>
<polygon fill="none" stroke="#000000" points="525,-266 525,-287 727,-287 727,-266 525,-266"/>
<text text-anchor="start" x="533.5" y="-272.8" font-family="Nimbus Sans L" font-size="14.00" fill="#000000">[INTEGER] minor&#45;device (0..1)</text>
</a>
</g>
<g id="a_node5_22"><a xlink:href="/html/IDMEFv2/Inode.html" xlink:title="The major device of the file itself, if it is a character special device.">
<polygon fill="#ffcc00" stroke="transparent" points="525,-245 525,-266 727,-266 727,-245 525,-245"/>
<polygon fill="none" stroke="#000000" points="525,-245 525,-266 727,-266 727,-245 525,-245"/>
<text text-anchor="start" x="528" y="-251.8" font-family="Nimbus Sans L" font-size="14.00" fill="#000000">[INTEGER] c&#45;major&#45;device (0..1)</text>
</a>
</g>
<g id="a_node5_23"><a xlink:href="/html/IDMEFv2/Inode.html" xlink:title="The minor device of the file itself, if it is a character special device.">
<polygon fill="#ffcc00" stroke="transparent" points="525,-224 525,-245 727,-245 727,-224 525,-224"/>
<polygon fill="none" stroke="#000000" points="525,-224 525,-245 727,-245 727,-224 525,-224"/>
<text text-anchor="start" x="528" y="-230.8" font-family="Nimbus Sans L" font-size="14.00" fill="#000000">[INTEGER] c&#45;minor&#45;device (0..1)</text>
</a>
</g>
</g>
<!-- File&#45;&gt;Inode -->
<g id="edge4" class="edge">
<title>File&#45;&gt;Inode</title>
<path fill="none" stroke="#000000" d="M458.0763,-254.2474C473.9859,-258.3927 490.5055,-262.6968 506.7005,-266.9165"/>
<polygon fill="#000000" stroke="#000000" points="506.1745,-270.3962 516.734,-269.5307 507.9395,-263.6224 506.1745,-270.3962"/>
<text text-anchor="middle" x="487.5" y="-267.8" font-family="Times,serif" font-size="14.00" fill="#000000">0..1</text>
</g>
<!-- Checksum -->
<g id="node6" class="node">
<title>Checksum</title>
<g id="a_node6_24"><a xlink:href="/html/IDMEFv2/Checksum.html" xlink:title="The Checksum class represents checksum information associated with the file. This checksum information can be provided by file integrity checkers, among others. ">
<polygon fill="#cca300" stroke="transparent" points="535,-177 535,-198 717,-198 717,-177 535,-177"/>
<polygon fill="none" stroke="#000000" points="535,-177 535,-198 717,-198 717,-177 535,-177"/>
<text text-anchor="start" x="593.5" y="-183.8" font-family="Nimbus Sans L" font-size="14.00" fill="#000000">Checksum</text>
</a>
</g>
<g id="a_node6_25"><a xlink:href="/html/IDMEFv2/Checksum.html" xlink:title="The value of the checksum.">
<polygon fill="#ffcc00" stroke="transparent" points="535,-156 535,-177 717,-177 717,-156 535,-156"/>
<polygon fill="none" stroke="#000000" points="535,-156 535,-177 717,-177 717,-156 535,-156"/>
<text text-anchor="start" x="568.5" y="-162.8" font-family="Nimbus Sans L" font-size="14.00" fill="#000000">[STRING] value (1)</text>
</a>
</g>
<g id="a_node6_26"><a xlink:href="/html/IDMEFv2/Checksum.html" xlink:title="The key to the checksum, if appropriate.">
<polygon fill="#ffcc00" stroke="transparent" points="535,-135 535,-156 717,-156 717,-135 535,-135"/>
<polygon fill="none" stroke="#000000" points="535,-135 535,-156 717,-156 717,-135 535,-135"/>
<text text-anchor="start" x="566.5" y="-141.8" font-family="Nimbus Sans L" font-size="14.00" fill="#000000">[STRING] key (0..1)</text>
</a>
</g>
<g id="a_node6_27"><a xlink:href="/html/IDMEFv2/Checksum.html" xlink:title="default value. &#160;(See also Section 10.)">
<polygon fill="#ffcc00" stroke="transparent" points="535,-114 535,-135 717,-135 717,-114 535,-114"/>
<polygon fill="none" stroke="#000000" points="535,-114 535,-135 717,-135 717,-114 535,-114"/>
<text text-anchor="start" x="538" y="-120.8" font-family="Nimbus Sans L" font-size="14.00" fill="#000000">[ENUM] algorithm (Required)</text>
</a>
</g>
</g>
<!-- File&#45;&gt;Checksum -->
<g id="edge5" class="edge">
<title>File&#45;&gt;Checksum</title>
<path fill="none" stroke="#000000" d="M458.0763,-199.7526C477.336,-194.7345 497.4895,-189.4835 516.8792,-184.4315"/>
<polygon fill="#000000" stroke="#000000" points="517.8389,-187.7983 526.6334,-181.89 516.074,-181.0245 517.8389,-187.7983"/>
<text text-anchor="middle" x="487.5" y="-197.8" font-family="Times,serif" font-size="14.00" fill="#000000">0..*</text>
</g>
<!-- Stream -->
<g id="node7" class="node">
<title>Stream</title>
<g id="a_node7_28"><a xlink:href="/html/IDMEFv2/Stream.html" xlink:title="The Stram class contains specific information about the content of a file">
<polygon fill="#cecece" stroke="transparent" points="538,-67 538,-88 715,-88 715,-67 538,-67"/>
<polygon fill="none" stroke="#000000" points="538,-67 538,-88 715,-88 715,-67 538,-67"/>
<text text-anchor="start" x="604" y="-73.8" font-family="Nimbus Sans L" font-size="14.00" fill="#000000">Stream</text>
</a>
</g>
<g id="a_node7_29"><a xlink:href="/html/IDMEFv2/Stream.html" xlink:title="&lt;TABLE&gt;">
<polygon fill="none" stroke="#000000" points="538,-46 538,-67 715,-67 715,-46 538,-46"/>
<text text-anchor="start" x="541" y="-52.8" font-family="Nimbus Sans L" font-size="14.00" fill="#000000">[ENUM] offsetunit (Optional)</text>
</a>
</g>
<g id="a_node7_30"><a xlink:href="/html/IDMEFv2/Stream.html" xlink:title="Amount of units (determined by the offsetunit attribute) to seek into the File">
<polygon fill="none" stroke="#000000" points="538,-25 538,-46 715,-46 715,-25 538,-25"/>
<text text-anchor="start" x="542" y="-31.8" font-family="Nimbus Sans L" font-size="14.00" fill="#000000">[INTEGER] offset (Optional)</text>
</a>
</g>
<g id="a_node7_31"><a xlink:href="/html/IDMEFv2/Stream.html" xlink:title="Content of the file">
<polygon fill="none" stroke="#000000" points="538,-4 538,-25 715,-25 715,-4 538,-4"/>
<text text-anchor="start" x="556.5" y="-10.8" font-family="Nimbus Sans L" font-size="14.00" fill="#000000">[DATA] Data (Required)</text>
</a>
</g>
</g>
<!-- File&#45;&gt;Stream -->
<g id="edge6" class="edge">
<title>File&#45;&gt;Stream</title>
<path fill="none" stroke="#000000" d="M458.2573,-141.6405C477.3575,-127.4247 497.4401,-113.3162 517,-101 518.931,-99.7841 520.8923,-98.5732 522.8781,-97.3691"/>
<polygon fill="#000000" stroke="#000000" points="524.8971,-100.2413 531.7224,-92.1379 521.3334,-94.2163 524.8971,-100.2413"/>
<text text-anchor="middle" x="487.5" y="-130.8" font-family="Times,serif" font-size="14.00" fill="#000000">0..1</text>
</g>
<!-- UserId -->
<g id="node4" class="node">
<title>UserId</title>
<g id="a_node4_32"><a xlink:href="/html/IDMEFv2/UserId.html" xlink:title="The UserId class provides specific information about a user. More than one UserId can be used within the User class to indicate attempts to transition from one user to another, or to provide complete information about a user&#39;s (or process&#39;) privileges. ">
<polygon fill="#52a3cc" stroke="transparent" points="787,-461 787,-482 949,-482 949,-461 787,-461"/>
<polygon fill="none" stroke="#000000" points="787,-461 787,-482 949,-482 949,-461 787,-461"/>
<text text-anchor="start" x="848" y="-467.8" font-family="Nimbus Sans L" font-size="14.00" fill="#000000">UserId</text>
</a>
</g>
<g id="a_node4_33"><a xlink:href="/html/IDMEFv2/UserId.html" xlink:title="A user or group name.">
<polygon fill="#66ccff" stroke="transparent" points="787,-440 787,-461 949,-461 949,-440 787,-440"/>
<polygon fill="none" stroke="#000000" points="787,-440 787,-461 949,-461 949,-440 787,-440"/>
<text text-anchor="start" x="801.5" y="-446.8" font-family="Nimbus Sans L" font-size="14.00" fill="#000000">[STRING] name (0..1)</text>
</a>
</g>
<g id="a_node4_34"><a xlink:href="/html/IDMEFv2/UserId.html" xlink:title="A user or group number.">
<polygon fill="#66ccff" stroke="transparent" points="787,-419 787,-440 949,-440 949,-419 787,-419"/>
<polygon fill="none" stroke="#000000" points="787,-419 787,-440 949,-440 949,-419 787,-419"/>
<text text-anchor="start" x="791" y="-425.8" font-family="Nimbus Sans L" font-size="14.00" fill="#000000">[INTEGER] number (0..1)</text>
</a>
</g>
<g id="a_node4_35"><a xlink:href="/html/IDMEFv2/UserId.html" xlink:title="A unique identifier for the user id, see Section 3.2.9.">
<polygon fill="#66ccff" stroke="transparent" points="787,-398 787,-419 949,-419 949,-398 787,-398"/>
<polygon fill="none" stroke="#000000" points="787,-398 787,-419 949,-419 949,-398 787,-398"/>
<text text-anchor="start" x="790" y="-404.8" font-family="Nimbus Sans L" font-size="14.00" fill="#000000">[STRING] ident (Optional)</text>
</a>
</g>
<g id="a_node4_36"><a xlink:href="/html/IDMEFv2/UserId.html" xlink:title="The type of user information represented. &#160;The permitted values for this attribute are shown below. &#160;The default value is &quot;original&#45;user&quot;. &#160;(See also Section 10.)">
<polygon fill="#66ccff" stroke="transparent" points="787,-377 787,-398 949,-398 949,-377 787,-377"/>
<polygon fill="none" stroke="#000000" points="787,-377 787,-398 949,-398 949,-377 787,-377"/>
<text text-anchor="start" x="797" y="-383.8" font-family="Nimbus Sans L" font-size="14.00" fill="#000000">[ENUM] type (Optional)</text>
</a>
</g>
<g id="a_node4_37"><a xlink:href="/html/IDMEFv2/UserId.html" xlink:title="The tty the user is using.">
<polygon fill="#66ccff" stroke="transparent" points="787,-356 787,-377 949,-377 949,-356 787,-356"/>
<polygon fill="none" stroke="#000000" points="787,-356 787,-377 949,-377 949,-356 787,-356"/>
<text text-anchor="start" x="797.5" y="-362.8" font-family="Nimbus Sans L" font-size="14.00" fill="#000000">[STRING] tty (Optional)</text>
</a>
</g>
</g>
<!-- FileAccess&#45;&gt;UserId -->
<g id="edge1" class="edge">
<title>FileAccess&#45;&gt;UserId</title>
<path fill="none" stroke="#000000" d="M712.684,-419C730.7644,-419 749.9591,-419 768.4621,-419"/>
<polygon fill="#000000" stroke="#000000" points="768.6589,-422.5001 778.6589,-419 768.6589,-415.5001 768.6589,-422.5001"/>
<text text-anchor="middle" x="757" y="-422.8" font-family="Times,serif" font-size="14.00" fill="#000000">1</text>
</g>
</g>
</svg>
