<?xml version="1.0" encoding="UTF-8" standalone="no"?>
<!DOCTYPE svg PUBLIC "-//W3C//DTD SVG 1.1//EN"
 "http://www.w3.org/Graphics/SVG/1.1/DTD/svg11.dtd">
<!-- Generated by graphviz version 2.40.1 (0)
 -->
<!-- Title: Stream Pages: 1 -->
<svg width="201pt" height="100pt"
 viewBox="0.00 0.00 201.00 100.00" xmlns="http://www.w3.org/2000/svg" xmlns:xlink="http://www.w3.org/1999/xlink">
<g id="graph0" class="graph" transform="scale(1 1) rotate(0) translate(4 96)">
<title>Stream</title>
<polygon fill="#ffffff" stroke="transparent" points="-4,4 -4,-96 197,-96 197,4 -4,4"/>
<!-- Stream -->
<g id="node1" class="node">
<title>Stream</title>
<g id="a_node1_0"><a xlink:href="/html/IDMEFv2/Stream.html" xlink:title="The Stram class contains specific information about the content of a file">
<polygon fill="#cecece" stroke="transparent" points="8.5,-67 8.5,-88 185.5,-88 185.5,-67 8.5,-67"/>
<polygon fill="none" stroke="#000000" points="8.5,-67 8.5,-88 185.5,-88 185.5,-67 8.5,-67"/>
<text text-anchor="start" x="74.5" y="-73.8" font-family="Nimbus Sans L" font-size="14.00" fill="#000000">Stream</text>
</a>
</g>
<g id="a_node1_1"><a xlink:href="/html/IDMEFv2/Stream.html" xlink:title="&lt;TABLE&gt;">
<polygon fill="none" stroke="#000000" points="8.5,-46 8.5,-67 185.5,-67 185.5,-46 8.5,-46"/>
<text text-anchor="start" x="11.5" y="-52.8" font-family="Nimbus Sans L" font-size="14.00" fill="#000000">[ENUM] offsetunit (Optional)</text>
</a>
</g>
<g id="a_node1_2"><a xlink:href="/html/IDMEFv2/Stream.html" xlink:title="Amount of units (determined by the offsetunit attribute) to seek into the File">
<polygon fill="none" stroke="#000000" points="8.5,-25 8.5,-46 185.5,-46 185.5,-25 8.5,-25"/>
<text text-anchor="start" x="12.5" y="-31.8" font-family="Nimbus Sans L" font-size="14.00" fill="#000000">[INTEGER] offset (Optional)</text>
</a>
</g>
<g id="a_node1_3"><a xlink:href="/html/IDMEFv2/Stream.html" xlink:title="Content of the file">
<polygon fill="none" stroke="#000000" points="8.5,-4 8.5,-25 185.5,-25 185.5,-4 8.5,-4"/>
<text text-anchor="start" x="27" y="-10.8" font-family="Nimbus Sans L" font-size="14.00" fill="#000000">[DATA] Data (Required)</text>
</a>
</g>
</g>
</g>
</svg>
