<?xml version="1.0" encoding="UTF-8" standalone="no"?>
<!DOCTYPE svg PUBLIC "-//W3C//DTD SVG 1.1//EN"
 "http://www.w3.org/Graphics/SVG/1.1/DTD/svg11.dtd">
<!-- Generated by graphviz version 2.40.1 (0)
 -->
<!-- Title: UserId Pages: 1 -->
<svg width="186pt" height="142pt"
 viewBox="0.00 0.00 186.00 142.00" xmlns="http://www.w3.org/2000/svg" xmlns:xlink="http://www.w3.org/1999/xlink">
<g id="graph0" class="graph" transform="scale(1 1) rotate(0) translate(4 138)">
<title>UserId</title>
<polygon fill="#ffffff" stroke="transparent" points="-4,4 -4,-138 182,-138 182,4 -4,4"/>
<!-- UserId -->
<g id="node1" class="node">
<title>UserId</title>
<g id="a_node1_0"><a xlink:href="/html/IDMEFv2/UserId.html" xlink:title="The UserId class provides specific information about a user. More than one UserId can be used within the User class to indicate attempts to transition from one user to another, or to provide complete information about a user&#39;s (or process&#39;) privileges. ">
<polygon fill="#52a3cc" stroke="transparent" points="8,-109 8,-130 170,-130 170,-109 8,-109"/>
<polygon fill="none" stroke="#000000" points="8,-109 8,-130 170,-130 170,-109 8,-109"/>
<text text-anchor="start" x="69" y="-115.8" font-family="Nimbus Sans L" font-size="14.00" fill="#000000">UserId</text>
</a>
</g>
<g id="a_node1_1"><a xlink:href="/html/IDMEFv2/UserId.html" xlink:title="A user or group name.">
<polygon fill="#66ccff" stroke="transparent" points="8,-88 8,-109 170,-109 170,-88 8,-88"/>
<polygon fill="none" stroke="#000000" points="8,-88 8,-109 170,-109 170,-88 8,-88"/>
<text text-anchor="start" x="22.5" y="-94.8" font-family="Nimbus Sans L" font-size="14.00" fill="#000000">[STRING] name (0..1)</text>
</a>
</g>
<g id="a_node1_2"><a xlink:href="/html/IDMEFv2/UserId.html" xlink:title="A user or group number.">
<polygon fill="#66ccff" stroke="transparent" points="8,-67 8,-88 170,-88 170,-67 8,-67"/>
<polygon fill="none" stroke="#000000" points="8,-67 8,-88 170,-88 170,-67 8,-67"/>
<text text-anchor="start" x="12" y="-73.8" font-family="Nimbus Sans L" font-size="14.00" fill="#000000">[INTEGER] number (0..1)</text>
</a>
</g>
<g id="a_node1_3"><a xlink:href="/html/IDMEFv2/UserId.html" xlink:title="A unique identifier for the user id, see Section 3.2.9.">
<polygon fill="#66ccff" stroke="transparent" points="8,-46 8,-67 170,-67 170,-46 8,-46"/>
<polygon fill="none" stroke="#000000" points="8,-46 8,-67 170,-67 170,-46 8,-46"/>
<text text-anchor="start" x="11" y="-52.8" font-family="Nimbus Sans L" font-size="14.00" fill="#000000">[STRING] ident (Optional)</text>
</a>
</g>
<g id="a_node1_4"><a xlink:href="/html/IDMEFv2/UserId.html" xlink:title="The type of user information represented. &#160;The permitted values for this attribute are shown below. &#160;The default value is &quot;original&#45;user&quot;. &#160;(See also Section 10.)">
<polygon fill="#66ccff" stroke="transparent" points="8,-25 8,-46 170,-46 170,-25 8,-25"/>
<polygon fill="none" stroke="#000000" points="8,-25 8,-46 170,-46 170,-25 8,-25"/>
<text text-anchor="start" x="18" y="-31.8" font-family="Nimbus Sans L" font-size="14.00" fill="#000000">[ENUM] type (Optional)</text>
</a>
</g>
<g id="a_node1_5"><a xlink:href="/html/IDMEFv2/UserId.html" xlink:title="The tty the user is using.">
<polygon fill="#66ccff" stroke="transparent" points="8,-4 8,-25 170,-25 170,-4 8,-4"/>
<polygon fill="none" stroke="#000000" points="8,-4 8,-25 170,-25 170,-4 8,-4"/>
<text text-anchor="start" x="18.5" y="-10.8" font-family="Nimbus Sans L" font-size="14.00" fill="#000000">[STRING] tty (Optional)</text>
</a>
</g>
</g>
</g>
</svg>
