<?xml version="1.0" encoding="UTF-8" standalone="no"?>
<!DOCTYPE svg PUBLIC "-//W3C//DTD SVG 1.1//EN"
 "http://www.w3.org/Graphics/SVG/1.1/DTD/svg11.dtd">
<!-- Generated by graphviz version 2.40.1 (0)
 -->
<!-- Title: User Pages: 1 -->
<svg width="435pt" height="142pt"
 viewBox="0.00 0.00 435.00 142.00" xmlns="http://www.w3.org/2000/svg" xmlns:xlink="http://www.w3.org/1999/xlink">
<g id="graph0" class="graph" transform="scale(1 1) rotate(0) translate(4 138)">
<title>User</title>
<polygon fill="#ffffff" stroke="transparent" points="-4,4 -4,-138 431,-138 431,4 -4,4"/>
<!-- User -->
<g id="node1" class="node">
<title>User</title>
<g id="a_node1_0"><a xlink:href="/idmef_parser/IDMEFv2/User.html" xlink:title="The User class is used to describe users. It is primarily used as a &quot;container&quot; class for the UserId aggregate class, as shown in Figure 16. ">
<polygon fill="#52a3cc" stroke="transparent" points="8,-77 8,-98 182,-98 182,-77 8,-77"/>
<polygon fill="none" stroke="#000000" points="8,-77 8,-98 182,-98 182,-77 8,-77"/>
<text text-anchor="start" x="80.5" y="-83.8" font-family="Nimbus Sans L" font-size="14.00" fill="#000000">User</text>
</a>
</g>
<g id="a_node1_1"><a xlink:href="/idmef_parser/IDMEFv2/User.html" xlink:title="A unique identifier for the user; see Section 3.2.9.">
<polygon fill="#66ccff" stroke="transparent" points="8,-56 8,-77 182,-77 182,-56 8,-56"/>
<polygon fill="none" stroke="#000000" points="8,-56 8,-77 182,-77 182,-56 8,-56"/>
<text text-anchor="start" x="17" y="-62.8" font-family="Nimbus Sans L" font-size="14.00" fill="#000000">[STRING] ident (Optional)</text>
</a>
</g>
<g id="a_node1_2"><a xlink:href="/idmef_parser/IDMEFv2/User.html" xlink:title="The type of user represented. &#160;The permitted values for this attribute are shown below. &#160;The default value is &quot;unknown&quot;. (See also Section 10.)">
<polygon fill="#66ccff" stroke="transparent" points="8,-35 8,-56 182,-56 182,-35 8,-35"/>
<polygon fill="none" stroke="#000000" points="8,-35 8,-56 182,-56 182,-35 8,-35"/>
<text text-anchor="start" x="11" y="-41.8" font-family="Nimbus Sans L" font-size="14.00" fill="#000000">[ENUM] category (Optional)</text>
</a>
</g>
</g>
<!-- UserId -->
<g id="node2" class="node">
<title>UserId</title>
<g id="a_node2_3"><a xlink:href="/idmef_parser/IDMEFv2/UserId.html" xlink:title="The UserId class provides specific information about a user. More than one UserId can be used within the User class to indicate attempts to transition from one user to another, or to provide complete information about a user&#39;s (or process&#39;) privileges. ">
<polygon fill="#52a3cc" stroke="transparent" points="257,-109 257,-130 419,-130 419,-109 257,-109"/>
<polygon fill="none" stroke="#000000" points="257,-109 257,-130 419,-130 419,-109 257,-109"/>
<text text-anchor="start" x="318" y="-115.8" font-family="Nimbus Sans L" font-size="14.00" fill="#000000">UserId</text>
</a>
</g>
<g id="a_node2_4"><a xlink:href="/idmef_parser/IDMEFv2/UserId.html" xlink:title="A user or group name.">
<polygon fill="#66ccff" stroke="transparent" points="257,-88 257,-109 419,-109 419,-88 257,-88"/>
<polygon fill="none" stroke="#000000" points="257,-88 257,-109 419,-109 419,-88 257,-88"/>
<text text-anchor="start" x="271.5" y="-94.8" font-family="Nimbus Sans L" font-size="14.00" fill="#000000">[STRING] name (0..1)</text>
</a>
</g>
<g id="a_node2_5"><a xlink:href="/idmef_parser/IDMEFv2/UserId.html" xlink:title="A user or group number.">
<polygon fill="#66ccff" stroke="transparent" points="257,-67 257,-88 419,-88 419,-67 257,-67"/>
<polygon fill="none" stroke="#000000" points="257,-67 257,-88 419,-88 419,-67 257,-67"/>
<text text-anchor="start" x="261" y="-73.8" font-family="Nimbus Sans L" font-size="14.00" fill="#000000">[INTEGER] number (0..1)</text>
</a>
</g>
<g id="a_node2_6"><a xlink:href="/idmef_parser/IDMEFv2/UserId.html" xlink:title="A unique identifier for the user id, see Section 3.2.9.">
<polygon fill="#66ccff" stroke="transparent" points="257,-46 257,-67 419,-67 419,-46 257,-46"/>
<polygon fill="none" stroke="#000000" points="257,-46 257,-67 419,-67 419,-46 257,-46"/>
<text text-anchor="start" x="260" y="-52.8" font-family="Nimbus Sans L" font-size="14.00" fill="#000000">[STRING] ident (Optional)</text>
</a>
</g>
<g id="a_node2_7"><a xlink:href="/idmef_parser/IDMEFv2/UserId.html" xlink:title="The type of user information represented. &#160;The permitted values for this attribute are shown below. &#160;The default value is &quot;original&#45;user&quot;. &#160;(See also Section 10.)">
<polygon fill="#66ccff" stroke="transparent" points="257,-25 257,-46 419,-46 419,-25 257,-25"/>
<polygon fill="none" stroke="#000000" points="257,-25 257,-46 419,-46 419,-25 257,-25"/>
<text text-anchor="start" x="267" y="-31.8" font-family="Nimbus Sans L" font-size="14.00" fill="#000000">[ENUM] type (Optional)</text>
</a>
</g>
<g id="a_node2_8"><a xlink:href="/idmef_parser/IDMEFv2/UserId.html" xlink:title="The tty the user is using.">
<polygon fill="#66ccff" stroke="transparent" points="257,-4 257,-25 419,-25 419,-4 257,-4"/>
<polygon fill="none" stroke="#000000" points="257,-4 257,-25 419,-25 419,-4 257,-4"/>
<text text-anchor="start" x="267.5" y="-10.8" font-family="Nimbus Sans L" font-size="14.00" fill="#000000">[STRING] tty (Optional)</text>
</a>
</g>
</g>
<!-- User&#45;&gt;UserId -->
<g id="edge1" class="edge">
<title>User&#45;&gt;UserId</title>
<path fill="none" stroke="#000000" d="M190.3426,-67C206.1581,-67 222.5944,-67 238.5094,-67"/>
<polygon fill="#000000" stroke="#000000" points="238.8808,-70.5001 248.8808,-67 238.8808,-63.5001 238.8808,-70.5001"/>
<text text-anchor="middle" x="219.5" y="-70.8" font-family="Times,serif" font-size="14.00" fill="#000000">1..*</text>
</g>
</g>
</svg>
