<?xml version="1.0" encoding="UTF-8" standalone="no"?>
<!DOCTYPE svg PUBLIC "-//W3C//DTD SVG 1.1//EN"
 "http://www.w3.org/Graphics/SVG/1.1/DTD/svg11.dtd">
<!-- Generated by graphviz version 2.40.1 (0)
 -->
<!-- Title: AttackPhase Pages: 1 -->
<svg width="241pt" height="121pt"
 viewBox="0.00 0.00 241.00 121.00" xmlns="http://www.w3.org/2000/svg" xmlns:xlink="http://www.w3.org/1999/xlink">
<g id="graph0" class="graph" transform="scale(1 1) rotate(0) translate(4 117)">
<title>AttackPhase</title>
<polygon fill="#ffffff" stroke="transparent" points="-4,4 -4,-117 237,-117 237,4 -4,4"/>
<!-- AttackPhase -->
<g id="node1" class="node">
<title>AttackPhase</title>
<g id="a_node1_0"><a xlink:href="/idmef_parser/IODEFv2/AttackPhase.html" xlink:title="The AttackPhase class describes a particular phase of an attack life cycle. ">
<polygon fill="#cecece" stroke="transparent" points="8.5,-87.5 8.5,-108.5 225.5,-108.5 225.5,-87.5 8.5,-87.5"/>
<polygon fill="none" stroke="#000000" points="8.5,-87.5 8.5,-108.5 225.5,-108.5 225.5,-87.5 8.5,-87.5"/>
<text text-anchor="start" x="79" y="-94.3" font-family="Nimbus Sans L" font-size="14.00" fill="#000000">AttackPhase</text>
</a>
</g>
<g id="a_node1_1"><a xlink:href="/idmef_parser/IODEFv2/AttackPhase.html" xlink:title="An identifier for the phase of the attack.">
<polygon fill="none" stroke="#000000" points="8.5,-66.5 8.5,-87.5 225.5,-87.5 225.5,-66.5 8.5,-66.5"/>
<text text-anchor="start" x="41.5" y="-73.3" font-family="Nimbus Sans L" font-size="14.00" fill="#000000">[STRING] Specified (0..*)</text>
</a>
</g>
<g id="a_node1_2"><a xlink:href="/idmef_parser/IODEFv2/AttackPhase.html" xlink:title="A URL to a resource describing this phase of the attack.">
<polygon fill="none" stroke="#000000" points="8.5,-45.5 8.5,-66.5 225.5,-66.5 225.5,-45.5 8.5,-45.5"/>
<text text-anchor="start" x="68.5" y="-52.3" font-family="Nimbus Sans L" font-size="14.00" fill="#000000">[URL] URL (0..*)</text>
</a>
</g>
<g id="a_node1_3"><a xlink:href="/idmef_parser/IODEFv2/AttackPhase.html" xlink:title="A free&#45;form text description of this phase of the attack.">
<polygon fill="none" stroke="#000000" points="8.5,-24.5 8.5,-45.5 225.5,-45.5 225.5,-24.5 8.5,-24.5"/>
<text text-anchor="start" x="22" y="-31.3" font-family="Nimbus Sans L" font-size="14.00" fill="#000000">[ML_STRING] Description (0..*)</text>
</a>
</g>
<g id="a_node1_4"><a xlink:href="/idmef_parser/IODEFv2/AttackPhase.html" xlink:title="A mechanism by which to extend the data model.">
<polygon fill="none" stroke="#000000" points="8.5,-3.5 8.5,-24.5 225.5,-24.5 225.5,-3.5 8.5,-3.5"/>
<text text-anchor="start" x="11.5" y="-10.3" font-family="Nimbus Sans L" font-size="14.00" fill="#000000">[EXTENSION] AdditionalData (0..*)</text>
</a>
</g>
</g>
</g>
</svg>
