<?xml version="1.0" encoding="UTF-8" standalone="no"?>
<!DOCTYPE svg PUBLIC "-//W3C//DTD SVG 1.1//EN"
 "http://www.w3.org/Graphics/SVG/1.1/DTD/svg11.dtd">
<!-- Generated by graphviz version 2.40.1 (0)
 -->
<!-- Title: BulkObservableFormat Pages: 1 -->
<svg width="512pt" height="79pt"
 viewBox="0.00 0.00 512.00 79.00" xmlns="http://www.w3.org/2000/svg" xmlns:xlink="http://www.w3.org/1999/xlink">
<g id="graph0" class="graph" transform="scale(1 1) rotate(0) translate(4 75)">
<title>BulkObservableFormat</title>
<polygon fill="#ffffff" stroke="transparent" points="-4,4 -4,-75 508,-75 508,4 -4,4"/>
<!-- BulkObservableFormat -->
<g id="node1" class="node">
<title>BulkObservableFormat</title>
<g id="a_node1_0"><a xlink:href="/html/IODEFv2/BulkObservableFormat.html" xlink:title="The ObservableFormat class specifies metadata about the format of an observable enumerated in a sibling BulkObservableList class. ">
<polygon fill="#cecece" stroke="transparent" points="8.5,-35.5 8.5,-56.5 225.5,-56.5 225.5,-35.5 8.5,-35.5"/>
<polygon fill="none" stroke="#000000" points="8.5,-35.5 8.5,-56.5 225.5,-56.5 225.5,-35.5 8.5,-35.5"/>
<text text-anchor="start" x="46.5" y="-42.3" font-family="Nimbus Sans L" font-size="14.00" fill="#000000">BulkObservableFormat</text>
</a>
</g>
<g id="a_node1_1"><a xlink:href="/html/IODEFv2/BulkObservableFormat.html" xlink:title="Mechanism by which to extend the data model.">
<polygon fill="none" stroke="#000000" points="8.5,-14.5 8.5,-35.5 225.5,-35.5 225.5,-14.5 8.5,-14.5"/>
<text text-anchor="start" x="11.5" y="-21.3" font-family="Nimbus Sans L" font-size="14.00" fill="#000000">[EXTENSION] AdditionalData (0..*)</text>
</a>
</g>
</g>
<!-- Hash -->
<g id="node2" class="node">
<title>Hash</title>
<g id="a_node2_2"><a xlink:href="/html/IODEFv2/Hash.html" xlink:title="The Hash class describes a cryptographic hash value; the algorithm and application used to generate it; and the canonicalization method applied to the object being hashed. ">
<polygon fill="#cecece" stroke="transparent" points="300,-45.5 300,-66.5 496,-66.5 496,-45.5 300,-45.5"/>
<polygon fill="none" stroke="#000000" points="300,-45.5 300,-66.5 496,-66.5 496,-45.5 300,-45.5"/>
<text text-anchor="start" x="382" y="-52.3" font-family="Nimbus Sans L" font-size="14.00" fill="#000000">Hash</text>
</a>
</g>
<g id="a_node2_3"><a xlink:href="/html/IODEFv2/Hash.html" xlink:title="The canonicalization method used on the object being hashed. &#160;See Section 4.3.1 of [W3C.XMLSIG].">
<polygon fill="none" stroke="#000000" points="300,-24.5 300,-45.5 496,-45.5 496,-24.5 300,-24.5"/>
<text text-anchor="start" x="374.5" y="-31.3" font-family="Nimbus Sans L" font-size="14.00" fill="#000000">[] &#160;(0..1)</text>
</a>
</g>
<g id="a_node2_4"><a xlink:href="/html/IODEFv2/Hash.html" xlink:title="The application used to calculate the hash.">
<polygon fill="none" stroke="#000000" points="300,-3.5 300,-24.5 496,-24.5 496,-3.5 300,-3.5"/>
<text text-anchor="start" x="303" y="-10.3" font-family="Nimbus Sans L" font-size="14.00" fill="#000000">[SOFTWARE] Application (0..1)</text>
</a>
</g>
</g>
<!-- BulkObservableFormat&#45;&gt;Hash -->
<g id="edge1" class="edge">
<title>BulkObservableFormat&#45;&gt;Hash</title>
<path fill="none" stroke="#000000" d="M233.0288,-35.5C249.0347,-35.5 265.4713,-35.5 281.477,-35.5"/>
<polygon fill="#000000" stroke="#000000" points="281.924,-39.0001 291.924,-35.5 281.924,-32.0001 281.924,-39.0001"/>
<text text-anchor="middle" x="262.5" y="-39.3" font-family="Times,serif" font-size="14.00" fill="#000000">0..1</text>
</g>
</g>
</svg>
