<?xml version="1.0" encoding="UTF-8" standalone="no"?>
<!DOCTYPE svg PUBLIC "-//W3C//DTD SVG 1.1//EN"
 "http://www.w3.org/Graphics/SVG/1.1/DTD/svg11.dtd">
<!-- Generated by graphviz version 2.40.1 (0)
 -->
<!-- Title: Certificate Pages: 1 -->
<svg width="220pt" height="100pt"
 viewBox="0.00 0.00 220.00 100.00" xmlns="http://www.w3.org/2000/svg" xmlns:xlink="http://www.w3.org/1999/xlink">
<g id="graph0" class="graph" transform="scale(1 1) rotate(0) translate(4 96)">
<title>Certificate</title>
<polygon fill="#ffffff" stroke="transparent" points="-4,4 -4,-96 216,-96 216,4 -4,4"/>
<!-- Certificate -->
<g id="node1" class="node">
<title>Certificate</title>
<g id="a_node1_0"><a xlink:href="/idmef_parser/IODEFv2/Certificate.html" xlink:title="The Certificate class describes a given X.509 certificate or certificate chain. ">
<polygon fill="#cecece" stroke="transparent" points="8,-67 8,-88 204,-88 204,-67 8,-67"/>
<polygon fill="none" stroke="#000000" points="8,-67 8,-88 204,-88 204,-67 8,-67"/>
<text text-anchor="start" x="75" y="-73.8" font-family="Nimbus Sans L" font-size="14.00" fill="#000000">Certificate</text>
</a>
</g>
<g id="a_node1_1"><a xlink:href="/idmef_parser/IODEFv2/Certificate.html" xlink:title="A given X.509 certificate or chain. &#160;See Section 4.4.4 of [W3C.XMLSIG].">
<polygon fill="none" stroke="#000000" points="8,-46 8,-67 204,-67 204,-46 8,-46"/>
<text text-anchor="start" x="82.5" y="-52.8" font-family="Nimbus Sans L" font-size="14.00" fill="#000000">[] &#160;(1..1)</text>
</a>
</g>
<g id="a_node1_2"><a xlink:href="/idmef_parser/IODEFv2/Certificate.html" xlink:title="A free&#45;form text description explaining the context of this certificate.">
<polygon fill="none" stroke="#000000" points="8,-25 8,-46 204,-46 204,-25 8,-25"/>
<text text-anchor="start" x="11" y="-31.8" font-family="Nimbus Sans L" font-size="14.00" fill="#000000">[ML_STRING] Description (0..*)</text>
</a>
</g>
<g id="a_node1_3"><a xlink:href="/idmef_parser/IODEFv2/Certificate.html" xlink:title="See Section 3.3.2.">
<polygon fill="none" stroke="#000000" points="8,-4 8,-25 204,-25 204,-4 8,-4"/>
<text text-anchor="start" x="35" y="-10.8" font-family="Nimbus Sans L" font-size="14.00" fill="#000000">[ID] observable&#45;id (0..1)</text>
</a>
</g>
</g>
</g>
</svg>
