<?xml version="1.0" encoding="UTF-8" standalone="no"?>
<!DOCTYPE svg PUBLIC "-//W3C//DTD SVG 1.1//EN"
 "http://www.w3.org/Graphics/SVG/1.1/DTD/svg11.dtd">
<!-- Generated by graphviz version 2.40.1 (0)
 -->
<!-- Title: DomainData Pages: 1 -->
<svg width="1188pt" height="462pt"
 viewBox="0.00 0.00 1188.00 462.00" xmlns="http://www.w3.org/2000/svg" xmlns:xlink="http://www.w3.org/1999/xlink">
<g id="graph0" class="graph" transform="scale(1 1) rotate(0) translate(4 458)">
<title>DomainData</title>
<polygon fill="#ffffff" stroke="transparent" points="-4,4 -4,-458 1184,-458 1184,4 -4,4"/>
<!-- DomainData -->
<g id="node1" class="node">
<title>DomainData</title>
<g id="a_node1_0"><a xlink:href="/idmef_parser/IODEFv2/DomainData.html" xlink:title="The DomainData class describes a domain name and metadata associated with this domain. ">
<polygon fill="#cecece" stroke="transparent" points="8,-428.5 8,-449.5 284,-449.5 284,-428.5 8,-428.5"/>
<polygon fill="none" stroke="#000000" points="8,-428.5 8,-449.5 284,-449.5 284,-428.5 8,-428.5"/>
<text text-anchor="start" x="108" y="-435.3" font-family="Nimbus Sans L" font-size="14.00" fill="#000000">DomainData</text>
</a>
</g>
<g id="a_node1_1"><a xlink:href="/idmef_parser/IODEFv2/DomainData.html" xlink:title="The domain name of a system.">
<polygon fill="none" stroke="#000000" points="8,-407.5 8,-428.5 284,-428.5 284,-407.5 8,-407.5"/>
<text text-anchor="start" x="78.5" y="-414.3" font-family="Nimbus Sans L" font-size="14.00" fill="#000000">[STRING] Name (1..1)</text>
</a>
</g>
<g id="a_node1_2"><a xlink:href="/idmef_parser/IODEFv2/DomainData.html" xlink:title="A timestamp of when the domain listed in the Name class was resolved.">
<polygon fill="none" stroke="#000000" points="8,-386.5 8,-407.5 284,-407.5 284,-386.5 8,-386.5"/>
<text text-anchor="start" x="11" y="-393.3" font-family="Nimbus Sans L" font-size="14.00" fill="#000000">[DATETIME] DateDomainWasChecked (0..1)</text>
</a>
</g>
<g id="a_node1_3"><a xlink:href="/idmef_parser/IODEFv2/DomainData.html" xlink:title="A timestamp of when domain listed in the Name class was registered.">
<polygon fill="none" stroke="#000000" points="8,-365.5 8,-386.5 284,-386.5 284,-365.5 8,-365.5"/>
<text text-anchor="start" x="39" y="-372.3" font-family="Nimbus Sans L" font-size="14.00" fill="#000000">[DATETIME] RegistrationDate (0..1)</text>
</a>
</g>
<g id="a_node1_4"><a xlink:href="/idmef_parser/IODEFv2/DomainData.html" xlink:title="A timestamp of when the domain listed in the Name class is set to expire.">
<polygon fill="none" stroke="#000000" points="8,-344.5 8,-365.5 284,-365.5 284,-344.5 8,-344.5"/>
<text text-anchor="start" x="45" y="-351.3" font-family="Nimbus Sans L" font-size="14.00" fill="#000000">[DATETIME] ExpirationDate (0..1)</text>
</a>
</g>
<g id="a_node1_5"><a xlink:href="/idmef_parser/IODEFv2/DomainData.html" xlink:title="Additional DNS records associated with this domain.">
<polygon fill="none" stroke="#000000" points="8,-323.5 8,-344.5 284,-344.5 284,-323.5 8,-323.5"/>
<text text-anchor="start" x="47" y="-330.3" font-family="Nimbus Sans L" font-size="14.00" fill="#000000">[EXTENSION] RelatedDNS (0..*)</text>
</a>
</g>
<g id="a_node1_6"><a xlink:href="/idmef_parser/IODEFv2/DomainData.html" xlink:title="A means by which to extend the system&#45;status attribute. &#160;See Section 5.1.1.">
<polygon fill="none" stroke="#000000" points="8,-302.5 8,-323.5 284,-323.5 284,-302.5 8,-302.5"/>
<text text-anchor="start" x="55" y="-309.3" font-family="Nimbus Sans L" font-size="14.00" fill="#000000">[STRING] system&#45;status (0..1)</text>
</a>
</g>
<g id="a_node1_7"><a xlink:href="/idmef_parser/IODEFv2/DomainData.html" xlink:title="A means by which to extend the domain&#45;status attribute. &#160;See Section 5.1.1.">
<polygon fill="none" stroke="#000000" points="8,-281.5 8,-302.5 284,-302.5 284,-281.5 8,-281.5"/>
<text text-anchor="start" x="54" y="-288.3" font-family="Nimbus Sans L" font-size="14.00" fill="#000000">[STRING] domain&#45;status (0..1)</text>
</a>
</g>
<g id="a_node1_8"><a xlink:href="/idmef_parser/IODEFv2/DomainData.html" xlink:title="See Section 3.3.2.">
<polygon fill="none" stroke="#000000" points="8,-260.5 8,-281.5 284,-281.5 284,-260.5 8,-260.5"/>
<text text-anchor="start" x="75" y="-267.3" font-family="Nimbus Sans L" font-size="14.00" fill="#000000">[ID] observable&#45;id (0..1)</text>
</a>
</g>
</g>
<!-- Nameservers -->
<g id="node2" class="node">
<title>Nameservers</title>
<g id="a_node2_9"><a xlink:href="/idmef_parser/IODEFv2/Nameservers.html" xlink:title="The Nameservers class describes the nameservers associated with a given domain. ">
<polygon fill="#cecece" stroke="transparent" points="404,-416.5 404,-437.5 549,-437.5 549,-416.5 404,-416.5"/>
<polygon fill="none" stroke="#000000" points="404,-416.5 404,-437.5 549,-437.5 549,-416.5 404,-416.5"/>
<text text-anchor="start" x="435.5" y="-423.3" font-family="Nimbus Sans L" font-size="14.00" fill="#000000">Nameservers</text>
</a>
</g>
<g id="a_node2_10"><a xlink:href="/idmef_parser/IODEFv2/Nameservers.html" xlink:title="The domain name of the nameserver.">
<polygon fill="none" stroke="#000000" points="404,-395.5 404,-416.5 549,-416.5 549,-395.5 404,-395.5"/>
<text text-anchor="start" x="407" y="-402.3" font-family="Nimbus Sans L" font-size="14.00" fill="#000000">[STRING] Server (1..1)</text>
</a>
</g>
</g>
<!-- DomainData&#45;&gt;Nameservers -->
<g id="edge2" class="edge">
<title>DomainData&#45;&gt;Nameservers</title>
<path fill="none" stroke="#000000" d="M292.1839,-382.5219C323.7985,-388.3658 356.3468,-394.3823 385.1043,-399.6981"/>
<polygon fill="#000000" stroke="#000000" points="384.6407,-403.1716 395.1104,-401.5477 385.9132,-396.2882 384.6407,-403.1716"/>
<text text-anchor="middle" x="321.5" y="-393.3" font-family="Times,serif" font-size="14.00" fill="#000000">0..*</text>
</g>
<!-- DomainContacts -->
<g id="node4" class="node">
<title>DomainContacts</title>
<g id="a_node4_11"><a xlink:href="/idmef_parser/IODEFv2/DomainContacts.html" xlink:title="The DomainContacts class describes the contact information for a given domain provided either by the registrar or through a whois query. ">
<polygon fill="#cecece" stroke="transparent" points="359,-321.5 359,-342.5 593,-342.5 593,-321.5 359,-321.5"/>
<polygon fill="none" stroke="#000000" points="359,-321.5 359,-342.5 593,-342.5 593,-321.5 359,-321.5"/>
<text text-anchor="start" x="425.5" y="-328.3" font-family="Nimbus Sans L" font-size="14.00" fill="#000000">DomainContacts</text>
</a>
</g>
<g id="a_node4_12"><a xlink:href="/idmef_parser/IODEFv2/DomainContacts.html" xlink:title="A domain name already cited in this document or through previous exchange that contains the identical contact information as the domain name in question. &#160;The domain contact information associated with this domain should be used instead of an explicit definition with the Contact class.">
<polygon fill="none" stroke="#000000" points="359,-300.5 359,-321.5 593,-321.5 593,-300.5 359,-300.5"/>
<text text-anchor="start" x="362" y="-307.3" font-family="Nimbus Sans L" font-size="14.00" fill="#000000">[STRING] SameDomainContact (0..1)</text>
</a>
</g>
</g>
<!-- DomainData&#45;&gt;DomainContacts -->
<g id="edge9" class="edge">
<title>DomainData&#45;&gt;DomainContacts</title>
<path fill="none" stroke="#000000" d="M292.1839,-340.4386C308.2353,-338.7848 324.5274,-337.1063 340.4419,-335.4666"/>
<polygon fill="#000000" stroke="#000000" points="341.2505,-338.9019 350.8391,-334.3954 340.533,-331.9388 341.2505,-338.9019"/>
<text text-anchor="middle" x="321.5" y="-342.3" font-family="Times,serif" font-size="14.00" fill="#000000">0..1</text>
</g>
<!-- Address -->
<g id="node3" class="node">
<title>Address</title>
<g id="a_node3_13"><a xlink:href="/idmef_parser/IODEFv2/Address.html" xlink:title="The Address class represents a hardware (Layer 2), network (Layer 3), or application (Layer 7) address. ">
<polygon fill="#3daf3d" stroke="transparent" points="748.5,-419.5 748.5,-440.5 804.5,-440.5 804.5,-419.5 748.5,-419.5"/>
<polygon fill="none" stroke="#000000" points="748.5,-419.5 748.5,-440.5 804.5,-440.5 804.5,-419.5 748.5,-419.5"/>
<text text-anchor="start" x="751.5" y="-426.3" font-family="Nimbus Sans L" font-size="14.00" fill="#000000">Address</text>
</a>
</g>
</g>
<!-- Nameservers&#45;&gt;Address -->
<g id="edge1" class="edge">
<title>Nameservers&#45;&gt;Address</title>
<path fill="none" stroke="#000000" d="M556.5285,-420.2517C612.1282,-422.8421 684.0947,-426.1949 730.2883,-428.347"/>
<polygon fill="#000000" stroke="#000000" points="730.1566,-431.8446 740.3087,-428.8139 730.4825,-424.8522 730.1566,-431.8446"/>
<text text-anchor="middle" x="630.5" y="-427.3" font-family="Times,serif" font-size="14.00" fill="#000000">1..*</text>
</g>
<!-- Contact -->
<g id="node5" class="node">
<title>Contact</title>
<g id="a_node5_14"><a xlink:href="/idmef_parser/IODEFv2/Contact.html" xlink:title="The Contact class describes contact information for organizations and personnel involved in the incident. This class allows for the naming of the involved party, specifying contact information for them, and identifying their role in the incident. ">
<polygon fill="#52a3cc" stroke="transparent" points="668.5,-336.5 668.5,-357.5 885.5,-357.5 885.5,-336.5 668.5,-336.5"/>
<polygon fill="none" stroke="#000000" points="668.5,-336.5 668.5,-357.5 885.5,-357.5 885.5,-336.5 668.5,-336.5"/>
<text text-anchor="start" x="753.5" y="-343.3" font-family="Nimbus Sans L" font-size="14.00" fill="#000000">Contact</text>
</a>
</g>
<g id="a_node5_15"><a xlink:href="/idmef_parser/IODEFv2/Contact.html" xlink:title="The name of the contact. &#160;The contact may either be an organization or a person. &#160;The type attribute disambiguates the semantics.">
<polygon fill="#66ccff" stroke="transparent" points="668.5,-315.5 668.5,-336.5 885.5,-336.5 885.5,-315.5 668.5,-315.5"/>
<polygon fill="none" stroke="#000000" points="668.5,-315.5 668.5,-336.5 885.5,-336.5 885.5,-315.5 668.5,-315.5"/>
<text text-anchor="start" x="674.5" y="-322.3" font-family="Nimbus Sans L" font-size="14.00" fill="#000000">[ML_STRING] ContactName (0..*)</text>
</a>
</g>
<g id="a_node5_16"><a xlink:href="/idmef_parser/IODEFv2/Contact.html" xlink:title="The title for the individual named in the ContactName.">
<polygon fill="#66ccff" stroke="transparent" points="668.5,-294.5 668.5,-315.5 885.5,-315.5 885.5,-294.5 668.5,-294.5"/>
<polygon fill="none" stroke="#000000" points="668.5,-294.5 668.5,-315.5 885.5,-315.5 885.5,-294.5 668.5,-294.5"/>
<text text-anchor="start" x="680" y="-301.3" font-family="Nimbus Sans L" font-size="14.00" fill="#000000">[ML_STRING] ContactTitle (0..*)</text>
</a>
</g>
<g id="a_node5_17"><a xlink:href="/idmef_parser/IODEFv2/Contact.html" xlink:title="A free&#45;form text description of the contact.">
<polygon fill="#66ccff" stroke="transparent" points="668.5,-273.5 668.5,-294.5 885.5,-294.5 885.5,-273.5 668.5,-273.5"/>
<polygon fill="none" stroke="#000000" points="668.5,-273.5 668.5,-294.5 885.5,-294.5 885.5,-273.5 668.5,-273.5"/>
<text text-anchor="start" x="682" y="-280.3" font-family="Nimbus Sans L" font-size="14.00" fill="#000000">[ML_STRING] Description (0..*)</text>
</a>
</g>
<g id="a_node5_18"><a xlink:href="/idmef_parser/IODEFv2/Contact.html" xlink:title="The timezone in which the contact resides.">
<polygon fill="#66ccff" stroke="transparent" points="668.5,-252.5 668.5,-273.5 885.5,-273.5 885.5,-252.5 668.5,-252.5"/>
<polygon fill="none" stroke="#000000" points="668.5,-252.5 668.5,-273.5 885.5,-273.5 885.5,-252.5 668.5,-252.5"/>
<text text-anchor="start" x="688" y="-259.3" font-family="Nimbus Sans L" font-size="14.00" fill="#000000">[TIMEZONE] Timezone (0..1)</text>
</a>
</g>
<g id="a_node5_19"><a xlink:href="/idmef_parser/IODEFv2/Contact.html" xlink:title="A mechanism by which to extend the data model.">
<polygon fill="#66ccff" stroke="transparent" points="668.5,-231.5 668.5,-252.5 885.5,-252.5 885.5,-231.5 668.5,-231.5"/>
<polygon fill="none" stroke="#000000" points="668.5,-231.5 668.5,-252.5 885.5,-252.5 885.5,-231.5 668.5,-231.5"/>
<text text-anchor="start" x="671.5" y="-238.3" font-family="Nimbus Sans L" font-size="14.00" fill="#000000">[EXTENSION] AdditionalData (0..*)</text>
</a>
</g>
<g id="a_node5_20"><a xlink:href="/idmef_parser/IODEFv2/Contact.html" xlink:title="A means by which to extend the role attribute. See Section 5.1.1.">
<polygon fill="#66ccff" stroke="transparent" points="668.5,-210.5 668.5,-231.5 885.5,-231.5 885.5,-210.5 668.5,-210.5"/>
<polygon fill="none" stroke="#000000" points="668.5,-210.5 668.5,-231.5 885.5,-231.5 885.5,-210.5 668.5,-210.5"/>
<text text-anchor="start" x="716.5" y="-217.3" font-family="Nimbus Sans L" font-size="14.00" fill="#000000">[STRING] role (0..1)</text>
</a>
</g>
<g id="a_node5_21"><a xlink:href="/idmef_parser/IODEFv2/Contact.html" xlink:title="A means by which to extend the type attribute. See Section 5.1.1.">
<polygon fill="#66ccff" stroke="transparent" points="668.5,-189.5 668.5,-210.5 885.5,-210.5 885.5,-189.5 668.5,-189.5"/>
<polygon fill="none" stroke="#000000" points="668.5,-189.5 668.5,-210.5 885.5,-210.5 885.5,-189.5 668.5,-189.5"/>
<text text-anchor="start" x="715" y="-196.3" font-family="Nimbus Sans L" font-size="14.00" fill="#000000">[STRING] type (0..1)</text>
</a>
</g>
<g id="a_node5_22"><a xlink:href="/idmef_parser/IODEFv2/Contact.html" xlink:title="See Section 3.3.1.">
<polygon fill="#66ccff" stroke="transparent" points="668.5,-168.5 668.5,-189.5 885.5,-189.5 885.5,-168.5 668.5,-168.5"/>
<polygon fill="none" stroke="#000000" points="668.5,-168.5 668.5,-189.5 885.5,-189.5 885.5,-168.5 668.5,-168.5"/>
<text text-anchor="start" x="704" y="-175.3" font-family="Nimbus Sans L" font-size="14.00" fill="#000000">[ENUM] restriction (0..1)</text>
</a>
</g>
<g id="a_node5_23"><a xlink:href="/idmef_parser/IODEFv2/Contact.html" xlink:title="A means by which to extend the restriction attribute. &#160;See Section 5.1.1.">
<polygon fill="#66ccff" stroke="transparent" points="668.5,-147.5 668.5,-168.5 885.5,-168.5 885.5,-147.5 668.5,-147.5"/>
<polygon fill="none" stroke="#000000" points="668.5,-147.5 668.5,-168.5 885.5,-168.5 885.5,-147.5 668.5,-147.5"/>
<text text-anchor="start" x="688" y="-154.3" font-family="Nimbus Sans L" font-size="14.00" fill="#000000">[STRING] ext&#45;restriction (0..1)</text>
</a>
</g>
</g>
<!-- DomainContacts&#45;&gt;Contact -->
<g id="edge8" class="edge">
<title>DomainContacts&#45;&gt;Contact</title>
<path fill="none" stroke="#000000" d="M584.9123,-296.4919C606.0325,-291.6423 628.3344,-286.5214 649.9638,-281.5549"/>
<polygon fill="#000000" stroke="#000000" points="650.8845,-284.9347 659.8476,-279.2854 649.3179,-278.1122 650.8845,-284.9347"/>
<text text-anchor="middle" x="630.5" y="-290.3" font-family="Times,serif" font-size="14.00" fill="#000000">1..*</text>
</g>
<!-- Contact&#45;&gt;Contact -->
<g id="edge7" class="edge">
<title>Contact&#45;&gt;Contact</title>
<path fill="none" stroke="#000000" d="M754.1793,-361.791C758.6516,-372.6154 766.0918,-379.5 776.5,-379.5 783.6556,-379.5 789.4085,-376.246 793.7584,-370.6948"/>
<polygon fill="#000000" stroke="#000000" points="796.9207,-372.2141 798.8207,-361.791 790.8355,-368.7543 796.9207,-372.2141"/>
<text text-anchor="middle" x="776.5" y="-383.3" font-family="Times,serif" font-size="14.00" fill="#000000">0..*</text>
</g>
<!-- RegistryHandle -->
<g id="node6" class="node">
<title>RegistryHandle</title>
<g id="a_node6_24"><a xlink:href="/idmef_parser/IODEFv2/RegistryHandle.html" xlink:title="The RegistryHandle class represents a handle into an Internet registry or community&#45;specific database. ">
<polygon fill="#52a3cc" stroke="transparent" points="1017,-400.5 1017,-421.5 1116,-421.5 1116,-400.5 1017,-400.5"/>
<polygon fill="none" stroke="#000000" points="1017,-400.5 1017,-421.5 1116,-421.5 1116,-400.5 1017,-400.5"/>
<text text-anchor="start" x="1020" y="-407.3" font-family="Nimbus Sans L" font-size="14.00" fill="#000000">RegistryHandle</text>
</a>
</g>
</g>
<!-- Contact&#45;&gt;RegistryHandle -->
<g id="edge3" class="edge">
<title>Contact&#45;&gt;RegistryHandle</title>
<path fill="none" stroke="#000000" d="M893.131,-350.3868C912.0254,-363.1948 931.9815,-375.1072 952,-384.5 966.4248,-391.2682 982.6967,-396.4225 998.3344,-400.3168"/>
<polygon fill="#000000" stroke="#000000" points="997.9584,-403.8235 1008.4933,-402.6983 999.5561,-397.0082 997.9584,-403.8235"/>
<text text-anchor="middle" x="922.5" y="-377.3" font-family="Times,serif" font-size="14.00" fill="#000000">0..*</text>
</g>
<!-- PostalAddress -->
<g id="node7" class="node">
<title>PostalAddress</title>
<g id="a_node7_25"><a xlink:href="/idmef_parser/IODEFv2/PostalAddress.html" xlink:title="The PostalAddress class specifies a postal address and associated annotation. ">
<polygon fill="#52a3cc" stroke="transparent" points="968,-349.5 968,-370.5 1164,-370.5 1164,-349.5 968,-349.5"/>
<polygon fill="none" stroke="#000000" points="968,-349.5 968,-370.5 1164,-370.5 1164,-349.5 968,-349.5"/>
<text text-anchor="start" x="1022" y="-356.3" font-family="Nimbus Sans L" font-size="14.00" fill="#000000">PostalAddress</text>
</a>
</g>
<g id="a_node7_26"><a xlink:href="/idmef_parser/IODEFv2/PostalAddress.html" xlink:title="A postal address.">
<polygon fill="#66ccff" stroke="transparent" points="968,-328.5 968,-349.5 1164,-349.5 1164,-328.5 968,-328.5"/>
<polygon fill="none" stroke="#000000" points="968,-328.5 968,-349.5 1164,-349.5 1164,-328.5 968,-328.5"/>
<text text-anchor="start" x="988" y="-335.3" font-family="Nimbus Sans L" font-size="14.00" fill="#000000">[POSTAL] PAddress (1..1)</text>
</a>
</g>
<g id="a_node7_27"><a xlink:href="/idmef_parser/IODEFv2/PostalAddress.html" xlink:title="A free&#45;form text description of the address.">
<polygon fill="#66ccff" stroke="transparent" points="968,-307.5 968,-328.5 1164,-328.5 1164,-307.5 968,-307.5"/>
<polygon fill="none" stroke="#000000" points="968,-307.5 968,-328.5 1164,-328.5 1164,-307.5 968,-307.5"/>
<text text-anchor="start" x="971" y="-314.3" font-family="Nimbus Sans L" font-size="14.00" fill="#000000">[ML_STRING] Description (0..*)</text>
</a>
</g>
<g id="a_node7_28"><a xlink:href="/idmef_parser/IODEFv2/PostalAddress.html" xlink:title="Categorizes the type of address described in the PAddress class. &#160;These values are maintained in the &quot;PostalAddress&#45;type&quot; IANA registry per Section 10.2.">
<polygon fill="#66ccff" stroke="transparent" points="968,-286.5 968,-307.5 1164,-307.5 1164,-286.5 968,-286.5"/>
<polygon fill="none" stroke="#000000" points="968,-286.5 968,-307.5 1164,-307.5 1164,-286.5 968,-286.5"/>
<text text-anchor="start" x="1009.5" y="-293.3" font-family="Nimbus Sans L" font-size="14.00" fill="#000000">[ENUM] type (0..1)</text>
</a>
</g>
<g id="a_node7_29"><a xlink:href="/idmef_parser/IODEFv2/PostalAddress.html" xlink:title="A means by which to extend the type attribute. See Section 5.1.1.">
<polygon fill="#66ccff" stroke="transparent" points="968,-265.5 968,-286.5 1164,-286.5 1164,-265.5 968,-265.5"/>
<polygon fill="none" stroke="#000000" points="968,-265.5 968,-286.5 1164,-286.5 1164,-265.5 968,-265.5"/>
<text text-anchor="start" x="993.5" y="-272.3" font-family="Nimbus Sans L" font-size="14.00" fill="#000000">[STRING] ext&#45;type (0..1)</text>
</a>
</g>
</g>
<!-- Contact&#45;&gt;PostalAddress -->
<g id="edge4" class="edge">
<title>Contact&#45;&gt;PostalAddress</title>
<path fill="none" stroke="#000000" d="M893.4163,-279.1545C912.0391,-283.4001 931.3008,-287.7914 949.9046,-292.0327"/>
<polygon fill="#000000" stroke="#000000" points="949.3362,-295.4928 959.864,-294.3032 950.8921,-288.6679 949.3362,-295.4928"/>
<text text-anchor="middle" x="922.5" y="-290.3" font-family="Times,serif" font-size="14.00" fill="#000000">0..*</text>
</g>
<!-- Email -->
<g id="node8" class="node">
<title>Email</title>
<g id="a_node8_30"><a xlink:href="/idmef_parser/IODEFv2/Email.html" xlink:title="The Email class specifies an email address and associated annotation. ">
<polygon fill="#52a3cc" stroke="transparent" points="968,-218.5 968,-239.5 1164,-239.5 1164,-218.5 968,-218.5"/>
<polygon fill="none" stroke="#000000" points="968,-218.5 968,-239.5 1164,-239.5 1164,-218.5 968,-218.5"/>
<text text-anchor="start" x="1048.5" y="-225.3" font-family="Nimbus Sans L" font-size="14.00" fill="#000000">Email</text>
</a>
</g>
<g id="a_node8_31"><a xlink:href="/idmef_parser/IODEFv2/Email.html" xlink:title="An email address.">
<polygon fill="#66ccff" stroke="transparent" points="968,-197.5 968,-218.5 1164,-218.5 1164,-197.5 968,-197.5"/>
<polygon fill="none" stroke="#000000" points="968,-197.5 968,-218.5 1164,-218.5 1164,-197.5 968,-197.5"/>
<text text-anchor="start" x="998" y="-204.3" font-family="Nimbus Sans L" font-size="14.00" fill="#000000">[EMAIL] EmailTo (1..1)</text>
</a>
</g>
<g id="a_node8_32"><a xlink:href="/idmef_parser/IODEFv2/Email.html" xlink:title="A free&#45;form text description of the email address.">
<polygon fill="#66ccff" stroke="transparent" points="968,-176.5 968,-197.5 1164,-197.5 1164,-176.5 968,-176.5"/>
<polygon fill="none" stroke="#000000" points="968,-176.5 968,-197.5 1164,-197.5 1164,-176.5 968,-176.5"/>
<text text-anchor="start" x="971" y="-183.3" font-family="Nimbus Sans L" font-size="14.00" fill="#000000">[ML_STRING] Description (0..*)</text>
</a>
</g>
<g id="a_node8_33"><a xlink:href="/idmef_parser/IODEFv2/Email.html" xlink:title="Categorizes the type of email address described in the EmailTo class. &#160;These values are maintained in the &quot;Email&#45; type&quot; IANA registry per Section 10.2.">
<polygon fill="#66ccff" stroke="transparent" points="968,-155.5 968,-176.5 1164,-176.5 1164,-155.5 968,-155.5"/>
<polygon fill="none" stroke="#000000" points="968,-155.5 968,-176.5 1164,-176.5 1164,-155.5 968,-155.5"/>
<text text-anchor="start" x="1009.5" y="-162.3" font-family="Nimbus Sans L" font-size="14.00" fill="#000000">[ENUM] type (0..1)</text>
</a>
</g>
<g id="a_node8_34"><a xlink:href="/idmef_parser/IODEFv2/Email.html" xlink:title="A means by which to extend the type attribute. See Section 5.1.1.">
<polygon fill="#66ccff" stroke="transparent" points="968,-134.5 968,-155.5 1164,-155.5 1164,-134.5 968,-134.5"/>
<polygon fill="none" stroke="#000000" points="968,-134.5 968,-155.5 1164,-155.5 1164,-134.5 968,-134.5"/>
<text text-anchor="start" x="993.5" y="-141.3" font-family="Nimbus Sans L" font-size="14.00" fill="#000000">[STRING] ext&#45;type (0..1)</text>
</a>
</g>
</g>
<!-- Contact&#45;&gt;Email -->
<g id="edge5" class="edge">
<title>Contact&#45;&gt;Email</title>
<path fill="none" stroke="#000000" d="M893.4163,-226.2494C912.0391,-222.0681 931.3008,-217.7433 949.9046,-213.5663"/>
<polygon fill="#000000" stroke="#000000" points="950.8737,-216.936 959.864,-211.3302 949.3401,-210.106 950.8737,-216.936"/>
<text text-anchor="middle" x="922.5" y="-225.3" font-family="Times,serif" font-size="14.00" fill="#000000">0..*</text>
</g>
<!-- Telephone -->
<g id="node9" class="node">
<title>Telephone</title>
<g id="a_node9_35"><a xlink:href="/idmef_parser/IODEFv2/Telephone.html" xlink:title="The Telephone class describes a telephone number and associated annotation. ">
<polygon fill="#cecece" stroke="transparent" points="960,-87.5 960,-108.5 1172,-108.5 1172,-87.5 960,-87.5"/>
<polygon fill="none" stroke="#000000" points="960,-87.5 960,-108.5 1172,-108.5 1172,-87.5 960,-87.5"/>
<text text-anchor="start" x="1034.5" y="-94.3" font-family="Nimbus Sans L" font-size="14.00" fill="#000000">Telephone</text>
</a>
</g>
<g id="a_node9_36"><a xlink:href="/idmef_parser/IODEFv2/Telephone.html" xlink:title="A telephone number.">
<polygon fill="none" stroke="#000000" points="960,-66.5 960,-87.5 1172,-87.5 1172,-66.5 960,-66.5"/>
<text text-anchor="start" x="963" y="-73.3" font-family="Nimbus Sans L" font-size="14.00" fill="#000000">[PHONE] TelephoneNumber (1..1)</text>
</a>
</g>
<g id="a_node9_37"><a xlink:href="/idmef_parser/IODEFv2/Telephone.html" xlink:title="A free&#45;form text description of the phone number.">
<polygon fill="none" stroke="#000000" points="960,-45.5 960,-66.5 1172,-66.5 1172,-45.5 960,-45.5"/>
<text text-anchor="start" x="971" y="-52.3" font-family="Nimbus Sans L" font-size="14.00" fill="#000000">[ML_STRING] Description (0..*)</text>
</a>
</g>
<g id="a_node9_38"><a xlink:href="/idmef_parser/IODEFv2/Telephone.html" xlink:title="Categorizes the type of telephone number described in the TelephoneNumber class. &#160;These values are maintained in the &quot;Telephone&#45;type&quot; IANA registry per Section 10.2.">
<polygon fill="none" stroke="#000000" points="960,-24.5 960,-45.5 1172,-45.5 1172,-24.5 960,-24.5"/>
<text text-anchor="start" x="1009.5" y="-31.3" font-family="Nimbus Sans L" font-size="14.00" fill="#000000">[ENUM] type (0..1)</text>
</a>
</g>
<g id="a_node9_39"><a xlink:href="/idmef_parser/IODEFv2/Telephone.html" xlink:title="A means by which to extend the type attribute. See Section 5.1.1.">
<polygon fill="none" stroke="#000000" points="960,-3.5 960,-24.5 1172,-24.5 1172,-3.5 960,-3.5"/>
<text text-anchor="start" x="993.5" y="-10.3" font-family="Nimbus Sans L" font-size="14.00" fill="#000000">[STRING] ext&#45;type (0..1)</text>
</a>
</g>
</g>
<!-- Contact&#45;&gt;Telephone -->
<g id="edge6" class="edge">
<title>Contact&#45;&gt;Telephone</title>
<path fill="none" stroke="#000000" d="M893.2047,-163.229C912.5841,-149.2261 932.6678,-135.1982 952,-122.5 953.9413,-121.2248 955.908,-119.947 957.8951,-118.6687"/>
<polygon fill="#000000" stroke="#000000" points="960.1537,-121.3807 966.7219,-113.0675 956.4031,-115.4702 960.1537,-121.3807"/>
<text text-anchor="middle" x="922.5" y="-152.3" font-family="Times,serif" font-size="14.00" fill="#000000">0..*</text>
</g>
</g>
</svg>
