<?xml version="1.0" encoding="UTF-8" standalone="no"?>
<!DOCTYPE svg PUBLIC "-//W3C//DTD SVG 1.1//EN"
 "http://www.w3.org/Graphics/SVG/1.1/DTD/svg11.dtd">
<!-- Generated by graphviz version 2.40.1 (0)
 -->
<!-- Title: EmailData Pages: 1 -->
<svg width="827pt" height="263pt"
 viewBox="0.00 0.00 827.00 262.50" xmlns="http://www.w3.org/2000/svg" xmlns:xlink="http://www.w3.org/1999/xlink">
<g id="graph0" class="graph" transform="scale(1 1) rotate(0) translate(4 258.5)">
<title>EmailData</title>
<polygon fill="#ffffff" stroke="transparent" points="-4,4 -4,-258.5 823,-258.5 823,4 -4,4"/>
<!-- EmailData -->
<g id="node1" class="node">
<title>EmailData</title>
<g id="a_node1_0"><a xlink:href="/html/IODEFv2/EmailData.html" xlink:title="The EmailData class describes headers from an email message and cryptographic hashes and signatures applied to it. ">
<polygon fill="#cecece" stroke="transparent" points="8.5,-193 8.5,-214 245.5,-214 245.5,-193 8.5,-193"/>
<polygon fill="none" stroke="#000000" points="8.5,-193 8.5,-214 245.5,-214 245.5,-193 8.5,-193"/>
<text text-anchor="start" x="95" y="-199.8" font-family="Nimbus Sans L" font-size="14.00" fill="#000000">EmailData</text>
</a>
</g>
<g id="a_node1_1"><a xlink:href="/html/IODEFv2/EmailData.html" xlink:title="The value of the &quot;To:&quot; header field (Section 3.6.3 of [RFC5322]) in an email.">
<polygon fill="none" stroke="#000000" points="8.5,-172 8.5,-193 245.5,-193 245.5,-172 8.5,-172"/>
<text text-anchor="start" x="60.5" y="-178.8" font-family="Nimbus Sans L" font-size="14.00" fill="#000000">[EMAIL] EmailTo (0..*)</text>
</a>
</g>
<g id="a_node1_2"><a xlink:href="/html/IODEFv2/EmailData.html" xlink:title="The value of the &quot;From:&quot; header field (Section 3.6.2 of [RFC5322]) in an email.">
<polygon fill="none" stroke="#000000" points="8.5,-151 8.5,-172 245.5,-172 245.5,-151 8.5,-151"/>
<text text-anchor="start" x="50" y="-157.8" font-family="Nimbus Sans L" font-size="14.00" fill="#000000">[EMAIL] EmailFrom (0..1)</text>
</a>
</g>
<g id="a_node1_3"><a xlink:href="/html/IODEFv2/EmailData.html" xlink:title="The value of the &quot;Subject:&quot; header field in an email. &#160;See Section 3.6.5 of [RFC5322].">
<polygon fill="none" stroke="#000000" points="8.5,-130 8.5,-151 245.5,-151 245.5,-130 8.5,-130"/>
<text text-anchor="start" x="38" y="-136.8" font-family="Nimbus Sans L" font-size="14.00" fill="#000000">[STRING] EmailSubject (0..1)</text>
</a>
</g>
<g id="a_node1_4"><a xlink:href="/html/IODEFv2/EmailData.html" xlink:title="The value of the &quot;X&#45;Mailer:&quot; header field in an email.">
<polygon fill="none" stroke="#000000" points="8.5,-109 8.5,-130 245.5,-130 245.5,-109 8.5,-109"/>
<text text-anchor="start" x="35.5" y="-115.8" font-family="Nimbus Sans L" font-size="14.00" fill="#000000">[STRING] EmailX&#45;Mailer (0..1)</text>
</a>
</g>
<g id="a_node1_5"><a xlink:href="/html/IODEFv2/EmailData.html" xlink:title="The header name and value of an arbitrary header field of the email message. &#160;The name attribute MUST be set to the header name. &#160;The header value MUST be set in the element body. &#160;The dtype attribute MUST be set to &quot;string&quot;.">
<polygon fill="none" stroke="#000000" points="8.5,-88 8.5,-109 245.5,-109 245.5,-88 8.5,-88"/>
<text text-anchor="start" x="11.5" y="-94.8" font-family="Nimbus Sans L" font-size="14.00" fill="#000000">[EXTENSION] EmailHeaderField (0..*)</text>
</a>
</g>
<g id="a_node1_6"><a xlink:href="/html/IODEFv2/EmailData.html" xlink:title="The headers of an email message.">
<polygon fill="none" stroke="#000000" points="8.5,-67 8.5,-88 245.5,-88 245.5,-67 8.5,-67"/>
<text text-anchor="start" x="35" y="-73.8" font-family="Nimbus Sans L" font-size="14.00" fill="#000000">[STRING] EmailHeaders (0..1)</text>
</a>
</g>
<g id="a_node1_7"><a xlink:href="/html/IODEFv2/EmailData.html" xlink:title="The body of an email message.">
<polygon fill="none" stroke="#000000" points="8.5,-46 8.5,-67 245.5,-67 245.5,-46 8.5,-46"/>
<text text-anchor="start" x="45.5" y="-52.8" font-family="Nimbus Sans L" font-size="14.00" fill="#000000">[STRING] EmailBody (0..1)</text>
</a>
</g>
<g id="a_node1_8"><a xlink:href="/html/IODEFv2/EmailData.html" xlink:title="The headers and body of an email message.">
<polygon fill="none" stroke="#000000" points="8.5,-25 8.5,-46 245.5,-46 245.5,-25 8.5,-25"/>
<text text-anchor="start" x="33" y="-31.8" font-family="Nimbus Sans L" font-size="14.00" fill="#000000">[STRING] EmailMessage (0..1)</text>
</a>
</g>
<g id="a_node1_9"><a xlink:href="/html/IODEFv2/EmailData.html" xlink:title="See Section 3.3.2.">
<polygon fill="none" stroke="#000000" points="8.5,-4 8.5,-25 245.5,-25 245.5,-4 8.5,-4"/>
<text text-anchor="start" x="56" y="-10.8" font-family="Nimbus Sans L" font-size="14.00" fill="#000000">[ID] observable&#45;id (0..1)</text>
</a>
</g>
</g>
<!-- HashData -->
<g id="node2" class="node">
<title>HashData</title>
<g id="a_node2_10"><a xlink:href="/html/IODEFv2/HashData.html" xlink:title="The HashData class describes different types of hashes on a given object (e.g., file, part of a file, email). ">
<polygon fill="#cecece" stroke="transparent" points="320.5,-179 320.5,-200 507.5,-200 507.5,-179 320.5,-179"/>
<polygon fill="none" stroke="#000000" points="320.5,-179 320.5,-200 507.5,-200 507.5,-179 320.5,-179"/>
<text text-anchor="start" x="383.5" y="-185.8" font-family="Nimbus Sans L" font-size="14.00" fill="#000000">HashData</text>
</a>
</g>
<g id="a_node2_11"><a xlink:href="/html/IODEFv2/HashData.html" xlink:title="An identifier that references a subset of the object being hashed. &#160;The semantics of this identifier are specified by the scope attribute.">
<polygon fill="none" stroke="#000000" points="320.5,-158 320.5,-179 507.5,-179 507.5,-158 320.5,-158"/>
<text text-anchor="start" x="323.5" y="-164.8" font-family="Nimbus Sans L" font-size="14.00" fill="#000000">[STRING] HashTargetID (0..1)</text>
</a>
</g>
<g id="a_node2_12"><a xlink:href="/html/IODEFv2/HashData.html" xlink:title="A means by which to extend the scope attribute. &#160;See Section 5.1.1.">
<polygon fill="none" stroke="#000000" points="320.5,-137 320.5,-158 507.5,-158 507.5,-137 320.5,-137"/>
<text text-anchor="start" x="347" y="-143.8" font-family="Nimbus Sans L" font-size="14.00" fill="#000000">[STRING] scope (0..1)</text>
</a>
</g>
</g>
<!-- EmailData&#45;&gt;HashData -->
<g id="edge3" class="edge">
<title>EmailData&#45;&gt;HashData</title>
<path fill="none" stroke="#000000" d="M253.2178,-135.4915C269.3838,-138.8712 285.8378,-142.311 301.744,-145.6364"/>
<polygon fill="#000000" stroke="#000000" points="301.065,-149.07 311.5696,-147.6905 302.4975,-142.2181 301.065,-149.07"/>
<text text-anchor="middle" x="282.5" y="-145.8" font-family="Times,serif" font-size="14.00" fill="#000000">0..*</text>
</g>
<!-- SignatureData -->
<g id="node5" class="node">
<title>SignatureData</title>
<g id="a_node5_13"><a xlink:href="/html/IODEFv2/SignatureData.html" xlink:title="The SignatureData class describes different types of digital signatures on an object. ">
<polygon fill="#cecece" stroke="transparent" points="359.5,-90 359.5,-111 467.5,-111 467.5,-90 359.5,-90"/>
<polygon fill="none" stroke="#000000" points="359.5,-90 359.5,-111 467.5,-111 467.5,-90 359.5,-90"/>
<text text-anchor="start" x="370" y="-96.8" font-family="Nimbus Sans L" font-size="14.00" fill="#000000">SignatureData</text>
</a>
</g>
<g id="a_node5_14"><a xlink:href="/html/IODEFv2/SignatureData.html" xlink:title="A given signature. &#160;See Section 4.2 of [W3C.XMLSIG].">
<polygon fill="none" stroke="#000000" points="359.5,-69 359.5,-90 467.5,-90 467.5,-69 359.5,-69"/>
<text text-anchor="start" x="362.5" y="-75.8" font-family="Nimbus Sans L" font-size="14.00" fill="#000000">[] Signature (1..*)</text>
</a>
</g>
</g>
<!-- EmailData&#45;&gt;SignatureData -->
<g id="edge4" class="edge">
<title>EmailData&#45;&gt;SignatureData</title>
<path fill="none" stroke="#000000" d="M253.2178,-100.611C283.4433,-98.61 314.6759,-96.5424 341.4521,-94.7697"/>
<polygon fill="#000000" stroke="#000000" points="341.7379,-98.2586 351.4848,-94.1055 341.2754,-91.2738 341.7379,-98.2586"/>
<text text-anchor="middle" x="282.5" y="-102.8" font-family="Times,serif" font-size="14.00" fill="#000000">0..*</text>
</g>
<!-- Hash -->
<g id="node3" class="node">
<title>Hash</title>
<g id="a_node3_15"><a xlink:href="/html/IODEFv2/Hash.html" xlink:title="The Hash class describes a cryptographic hash value; the algorithm and application used to generate it; and the canonicalization method applied to the object being hashed. ">
<polygon fill="#cecece" stroke="transparent" points="598.5,-229 598.5,-250 794.5,-250 794.5,-229 598.5,-229"/>
<polygon fill="none" stroke="#000000" points="598.5,-229 598.5,-250 794.5,-250 794.5,-229 598.5,-229"/>
<text text-anchor="start" x="680.5" y="-235.8" font-family="Nimbus Sans L" font-size="14.00" fill="#000000">Hash</text>
</a>
</g>
<g id="a_node3_16"><a xlink:href="/html/IODEFv2/Hash.html" xlink:title="The canonicalization method used on the object being hashed. &#160;See Section 4.3.1 of [W3C.XMLSIG].">
<polygon fill="none" stroke="#000000" points="598.5,-208 598.5,-229 794.5,-229 794.5,-208 598.5,-208"/>
<text text-anchor="start" x="673" y="-214.8" font-family="Nimbus Sans L" font-size="14.00" fill="#000000">[] &#160;(0..1)</text>
</a>
</g>
<g id="a_node3_17"><a xlink:href="/html/IODEFv2/Hash.html" xlink:title="The application used to calculate the hash.">
<polygon fill="none" stroke="#000000" points="598.5,-187 598.5,-208 794.5,-208 794.5,-187 598.5,-187"/>
<text text-anchor="start" x="601.5" y="-193.8" font-family="Nimbus Sans L" font-size="14.00" fill="#000000">[SOFTWARE] Application (0..1)</text>
</a>
</g>
</g>
<!-- HashData&#45;&gt;Hash -->
<g id="edge1" class="edge">
<title>HashData&#45;&gt;Hash</title>
<path fill="none" stroke="#000000" d="M515.2697,-186.9805C536.432,-190.7194 558.8845,-194.6863 580.5143,-198.5078"/>
<polygon fill="#000000" stroke="#000000" points="579.9304,-201.9588 590.3869,-200.2521 581.1484,-195.0656 579.9304,-201.9588"/>
<text text-anchor="middle" x="544.5" y="-197.8" font-family="Times,serif" font-size="14.00" fill="#000000">0..*</text>
</g>
<!-- FuzzyHash -->
<g id="node4" class="node">
<title>FuzzyHash</title>
<g id="a_node4_18"><a xlink:href="/html/IODEFv2/FuzzyHash.html" xlink:title="The FuzzyHash class describes a fuzzy hash and the application used to generate it. ">
<polygon fill="#cecece" stroke="transparent" points="582.5,-140 582.5,-161 811.5,-161 811.5,-140 582.5,-140"/>
<polygon fill="none" stroke="#000000" points="582.5,-140 582.5,-161 811.5,-161 811.5,-140 582.5,-140"/>
<text text-anchor="start" x="663.5" y="-146.8" font-family="Nimbus Sans L" font-size="14.00" fill="#000000">FuzzyHash</text>
</a>
</g>
<g id="a_node4_19"><a xlink:href="/html/IODEFv2/FuzzyHash.html" xlink:title="The computed fuzzy hash value.">
<polygon fill="none" stroke="#000000" points="582.5,-119 582.5,-140 811.5,-140 811.5,-119 582.5,-119"/>
<text text-anchor="start" x="585.5" y="-125.8" font-family="Nimbus Sans L" font-size="14.00" fill="#000000">[EXTENSION] FuzzyHashValue (1..*)</text>
</a>
</g>
<g id="a_node4_20"><a xlink:href="/html/IODEFv2/FuzzyHash.html" xlink:title="The application used to calculate the hash.">
<polygon fill="none" stroke="#000000" points="582.5,-98 582.5,-119 811.5,-119 811.5,-98 582.5,-98"/>
<text text-anchor="start" x="602" y="-104.8" font-family="Nimbus Sans L" font-size="14.00" fill="#000000">[SOFTWARE] Application (0..1)</text>
</a>
</g>
<g id="a_node4_21"><a xlink:href="/html/IODEFv2/FuzzyHash.html" xlink:title="Mechanism by which to extend the data model.">
<polygon fill="none" stroke="#000000" points="582.5,-77 582.5,-98 811.5,-98 811.5,-77 582.5,-77"/>
<text text-anchor="start" x="591.5" y="-83.8" font-family="Nimbus Sans L" font-size="14.00" fill="#000000">[EXTENSION] AdditionalData (0..*)</text>
</a>
</g>
</g>
<!-- HashData&#45;&gt;FuzzyHash -->
<g id="edge2" class="edge">
<title>HashData&#45;&gt;FuzzyHash</title>
<path fill="none" stroke="#000000" d="M515.2697,-151.0195C531.017,-148.2373 547.4787,-145.3289 563.7842,-142.448"/>
<polygon fill="#000000" stroke="#000000" points="564.6703,-145.8458 573.9088,-140.6592 563.4523,-138.9525 564.6703,-145.8458"/>
<text text-anchor="middle" x="544.5" y="-149.8" font-family="Times,serif" font-size="14.00" fill="#000000">0..*</text>
</g>
</g>
</svg>
