<?xml version="1.0" encoding="UTF-8" standalone="no"?>
<!DOCTYPE svg PUBLIC "-//W3C//DTD SVG 1.1//EN"
 "http://www.w3.org/Graphics/SVG/1.1/DTD/svg11.dtd">
<!-- Generated by graphviz version 2.40.1 (0)
 -->
<!-- Title: Expectation Pages: 1 -->
<svg width="799pt" height="438pt"
 viewBox="0.00 0.00 799.00 437.50" xmlns="http://www.w3.org/2000/svg" xmlns:xlink="http://www.w3.org/1999/xlink">
<g id="graph0" class="graph" transform="scale(1 1) rotate(0) translate(4 433.5)">
<title>Expectation</title>
<polygon fill="#ffffff" stroke="transparent" points="-4,4 -4,-433.5 795,-433.5 795,4 -4,4"/>
<!-- Expectation -->
<g id="node1" class="node">
<title>Expectation</title>
<g id="a_node1_0"><a xlink:href="/idmef_parser/IODEFv2/Expectation.html" xlink:title="The Expectation class conveys to the recipient of the IODEF document the actions the sender is requesting. ">
<polygon fill="#999999" stroke="transparent" points="8,-346.5 8,-367.5 204,-367.5 204,-346.5 8,-346.5"/>
<polygon fill="none" stroke="#000000" points="8,-346.5 8,-367.5 204,-367.5 204,-346.5 8,-346.5"/>
<text text-anchor="start" x="70.5" y="-353.3" font-family="Nimbus Sans L" font-size="14.00" fill="#000000">Expectation</text>
</a>
</g>
<g id="a_node1_1"><a xlink:href="/idmef_parser/IODEFv2/Expectation.html" xlink:title="A free&#45;form text description of the desired action(s).">
<polygon fill="#bfbfbf" stroke="transparent" points="8,-325.5 8,-346.5 204,-346.5 204,-325.5 8,-325.5"/>
<polygon fill="none" stroke="#000000" points="8,-325.5 8,-346.5 204,-346.5 204,-325.5 8,-325.5"/>
<text text-anchor="start" x="11" y="-332.3" font-family="Nimbus Sans L" font-size="14.00" fill="#000000">[ML_STRING] Description (0..*)</text>
</a>
</g>
<g id="a_node1_2"><a xlink:href="/idmef_parser/IODEFv2/Expectation.html" xlink:title="A unique identifier meaningful to the sender and recipient of this document that references a course of action. &#160;This class MUST be present if the action attribute is set to &quot;defined&#45;coa&quot;.">
<polygon fill="#bfbfbf" stroke="transparent" points="8,-304.5 8,-325.5 204,-325.5 204,-304.5 8,-304.5"/>
<polygon fill="none" stroke="#000000" points="8,-304.5 8,-325.5 204,-325.5 204,-304.5 8,-304.5"/>
<text text-anchor="start" x="20.5" y="-311.3" font-family="Nimbus Sans L" font-size="14.00" fill="#000000">[STRING] DefinedCOA (0..*)</text>
</a>
</g>
<g id="a_node1_3"><a xlink:href="/idmef_parser/IODEFv2/Expectation.html" xlink:title="The time at which the sender would like the action performed. &#160;A timestamp that is earlier than the ReportTime specified in the Incident class denotes that the sender would like the action performed as soon as possible. &#160;The absence of this element indicates no expectations of when the recipient would like the action performed.">
<polygon fill="#bfbfbf" stroke="transparent" points="8,-283.5 8,-304.5 204,-304.5 204,-283.5 8,-283.5"/>
<polygon fill="none" stroke="#000000" points="8,-283.5 8,-304.5 204,-304.5 204,-283.5 8,-283.5"/>
<text text-anchor="start" x="19" y="-290.3" font-family="Nimbus Sans L" font-size="14.00" fill="#000000">[DATETIME] StartTime (0..1)</text>
</a>
</g>
<g id="a_node1_4"><a xlink:href="/idmef_parser/IODEFv2/Expectation.html" xlink:title="The time by which the sender expects the recipient to complete the action. &#160;If the recipient cannot complete the action before EndTime, the recipient MUST NOT carry out the action. &#160;Because of transit delays and clock drift, the sender MUST be prepared for the recipient to have carried out the action, even if it completes past EndTime.">
<polygon fill="#bfbfbf" stroke="transparent" points="8,-262.5 8,-283.5 204,-283.5 204,-262.5 8,-262.5"/>
<polygon fill="none" stroke="#000000" points="8,-262.5 8,-283.5 204,-283.5 204,-262.5 8,-262.5"/>
<text text-anchor="start" x="21.5" y="-269.3" font-family="Nimbus Sans L" font-size="14.00" fill="#000000">[DATETIME] EndTime (0..1)</text>
</a>
</g>
<g id="a_node1_5"><a xlink:href="/idmef_parser/IODEFv2/Expectation.html" xlink:title="Classifies the type of action requested. &#160;The default value of &quot;other&quot;. &#160;These values are maintained in the &quot;Expectation&#45;action&quot; IANA registry per Section 10.2.">
<polygon fill="#bfbfbf" stroke="transparent" points="8,-241.5 8,-262.5 204,-262.5 204,-241.5 8,-241.5"/>
<polygon fill="none" stroke="#000000" points="8,-241.5 8,-262.5 204,-262.5 204,-241.5 8,-241.5"/>
<text text-anchor="start" x="44" y="-248.3" font-family="Nimbus Sans L" font-size="14.00" fill="#000000">[ENUM] action (0..1)</text>
</a>
</g>
<g id="a_node1_6"><a xlink:href="/idmef_parser/IODEFv2/Expectation.html" xlink:title="A means by which to extend the action attribute. &#160;See Section 5.1.1.">
<polygon fill="#bfbfbf" stroke="transparent" points="8,-220.5 8,-241.5 204,-241.5 204,-220.5 8,-220.5"/>
<polygon fill="none" stroke="#000000" points="8,-220.5 8,-241.5 204,-241.5 204,-220.5 8,-220.5"/>
<text text-anchor="start" x="28" y="-227.3" font-family="Nimbus Sans L" font-size="14.00" fill="#000000">[STRING] ext&#45;action (0..1)</text>
</a>
</g>
<g id="a_node1_7"><a xlink:href="/idmef_parser/IODEFv2/Expectation.html" xlink:title="Indicates the desired priority of the action. This attribute is an enumerated list with no default value, and the semantics of these relative measures are context dependent.">
<polygon fill="#bfbfbf" stroke="transparent" points="8,-199.5 8,-220.5 204,-220.5 204,-199.5 8,-199.5"/>
<polygon fill="none" stroke="#000000" points="8,-199.5 8,-220.5 204,-220.5 204,-199.5 8,-199.5"/>
<text text-anchor="start" x="39" y="-206.3" font-family="Nimbus Sans L" font-size="14.00" fill="#000000">[ENUM] severity (0..1)</text>
</a>
</g>
<g id="a_node1_8"><a xlink:href="/idmef_parser/IODEFv2/Expectation.html" xlink:title="See Section 3.3.1. &#160;The default value is &quot;default&quot;.">
<polygon fill="#bfbfbf" stroke="transparent" points="8,-178.5 8,-199.5 204,-199.5 204,-178.5 8,-178.5"/>
<polygon fill="none" stroke="#000000" points="8,-178.5 8,-199.5 204,-199.5 204,-178.5 8,-178.5"/>
<text text-anchor="start" x="33" y="-185.3" font-family="Nimbus Sans L" font-size="14.00" fill="#000000">[ENUM] restriction (0..1)</text>
</a>
</g>
<g id="a_node1_9"><a xlink:href="/idmef_parser/IODEFv2/Expectation.html" xlink:title="A means by which to extend the restriction attribute. &#160;See Section 5.1.1.">
<polygon fill="#bfbfbf" stroke="transparent" points="8,-157.5 8,-178.5 204,-178.5 204,-157.5 8,-157.5"/>
<polygon fill="none" stroke="#000000" points="8,-157.5 8,-178.5 204,-178.5 204,-157.5 8,-157.5"/>
<text text-anchor="start" x="17" y="-164.3" font-family="Nimbus Sans L" font-size="14.00" fill="#000000">[STRING] ext&#45;restriction (0..1)</text>
</a>
</g>
<g id="a_node1_10"><a xlink:href="/idmef_parser/IODEFv2/Expectation.html" xlink:title="See Section 3.3.2.">
<polygon fill="#bfbfbf" stroke="transparent" points="8,-136.5 8,-157.5 204,-157.5 204,-136.5 8,-136.5"/>
<polygon fill="none" stroke="#000000" points="8,-136.5 8,-157.5 204,-157.5 204,-136.5 8,-136.5"/>
<text text-anchor="start" x="35" y="-143.3" font-family="Nimbus Sans L" font-size="14.00" fill="#000000">[ID] observable&#45;id (0..1)</text>
</a>
</g>
</g>
<!-- Contact -->
<g id="node2" class="node">
<title>Contact</title>
<g id="a_node2_11"><a xlink:href="/idmef_parser/IODEFv2/Contact.html" xlink:title="The Contact class describes contact information for organizations and personnel involved in the incident. This class allows for the naming of the involved party, specifying contact information for them, and identifying their role in the incident. ">
<polygon fill="#52a3cc" stroke="transparent" points="279.5,-336.5 279.5,-357.5 496.5,-357.5 496.5,-336.5 279.5,-336.5"/>
<polygon fill="none" stroke="#000000" points="279.5,-336.5 279.5,-357.5 496.5,-357.5 496.5,-336.5 279.5,-336.5"/>
<text text-anchor="start" x="364.5" y="-343.3" font-family="Nimbus Sans L" font-size="14.00" fill="#000000">Contact</text>
</a>
</g>
<g id="a_node2_12"><a xlink:href="/idmef_parser/IODEFv2/Contact.html" xlink:title="The name of the contact. &#160;The contact may either be an organization or a person. &#160;The type attribute disambiguates the semantics.">
<polygon fill="#66ccff" stroke="transparent" points="279.5,-315.5 279.5,-336.5 496.5,-336.5 496.5,-315.5 279.5,-315.5"/>
<polygon fill="none" stroke="#000000" points="279.5,-315.5 279.5,-336.5 496.5,-336.5 496.5,-315.5 279.5,-315.5"/>
<text text-anchor="start" x="285.5" y="-322.3" font-family="Nimbus Sans L" font-size="14.00" fill="#000000">[ML_STRING] ContactName (0..*)</text>
</a>
</g>
<g id="a_node2_13"><a xlink:href="/idmef_parser/IODEFv2/Contact.html" xlink:title="The title for the individual named in the ContactName.">
<polygon fill="#66ccff" stroke="transparent" points="279.5,-294.5 279.5,-315.5 496.5,-315.5 496.5,-294.5 279.5,-294.5"/>
<polygon fill="none" stroke="#000000" points="279.5,-294.5 279.5,-315.5 496.5,-315.5 496.5,-294.5 279.5,-294.5"/>
<text text-anchor="start" x="291" y="-301.3" font-family="Nimbus Sans L" font-size="14.00" fill="#000000">[ML_STRING] ContactTitle (0..*)</text>
</a>
</g>
<g id="a_node2_14"><a xlink:href="/idmef_parser/IODEFv2/Contact.html" xlink:title="A free&#45;form text description of the contact.">
<polygon fill="#66ccff" stroke="transparent" points="279.5,-273.5 279.5,-294.5 496.5,-294.5 496.5,-273.5 279.5,-273.5"/>
<polygon fill="none" stroke="#000000" points="279.5,-273.5 279.5,-294.5 496.5,-294.5 496.5,-273.5 279.5,-273.5"/>
<text text-anchor="start" x="293" y="-280.3" font-family="Nimbus Sans L" font-size="14.00" fill="#000000">[ML_STRING] Description (0..*)</text>
</a>
</g>
<g id="a_node2_15"><a xlink:href="/idmef_parser/IODEFv2/Contact.html" xlink:title="The timezone in which the contact resides.">
<polygon fill="#66ccff" stroke="transparent" points="279.5,-252.5 279.5,-273.5 496.5,-273.5 496.5,-252.5 279.5,-252.5"/>
<polygon fill="none" stroke="#000000" points="279.5,-252.5 279.5,-273.5 496.5,-273.5 496.5,-252.5 279.5,-252.5"/>
<text text-anchor="start" x="299" y="-259.3" font-family="Nimbus Sans L" font-size="14.00" fill="#000000">[TIMEZONE] Timezone (0..1)</text>
</a>
</g>
<g id="a_node2_16"><a xlink:href="/idmef_parser/IODEFv2/Contact.html" xlink:title="A mechanism by which to extend the data model.">
<polygon fill="#66ccff" stroke="transparent" points="279.5,-231.5 279.5,-252.5 496.5,-252.5 496.5,-231.5 279.5,-231.5"/>
<polygon fill="none" stroke="#000000" points="279.5,-231.5 279.5,-252.5 496.5,-252.5 496.5,-231.5 279.5,-231.5"/>
<text text-anchor="start" x="282.5" y="-238.3" font-family="Nimbus Sans L" font-size="14.00" fill="#000000">[EXTENSION] AdditionalData (0..*)</text>
</a>
</g>
<g id="a_node2_17"><a xlink:href="/idmef_parser/IODEFv2/Contact.html" xlink:title="A means by which to extend the role attribute. See Section 5.1.1.">
<polygon fill="#66ccff" stroke="transparent" points="279.5,-210.5 279.5,-231.5 496.5,-231.5 496.5,-210.5 279.5,-210.5"/>
<polygon fill="none" stroke="#000000" points="279.5,-210.5 279.5,-231.5 496.5,-231.5 496.5,-210.5 279.5,-210.5"/>
<text text-anchor="start" x="327.5" y="-217.3" font-family="Nimbus Sans L" font-size="14.00" fill="#000000">[STRING] role (0..1)</text>
</a>
</g>
<g id="a_node2_18"><a xlink:href="/idmef_parser/IODEFv2/Contact.html" xlink:title="A means by which to extend the type attribute. See Section 5.1.1.">
<polygon fill="#66ccff" stroke="transparent" points="279.5,-189.5 279.5,-210.5 496.5,-210.5 496.5,-189.5 279.5,-189.5"/>
<polygon fill="none" stroke="#000000" points="279.5,-189.5 279.5,-210.5 496.5,-210.5 496.5,-189.5 279.5,-189.5"/>
<text text-anchor="start" x="326" y="-196.3" font-family="Nimbus Sans L" font-size="14.00" fill="#000000">[STRING] type (0..1)</text>
</a>
</g>
<g id="a_node2_19"><a xlink:href="/idmef_parser/IODEFv2/Contact.html" xlink:title="See Section 3.3.1.">
<polygon fill="#66ccff" stroke="transparent" points="279.5,-168.5 279.5,-189.5 496.5,-189.5 496.5,-168.5 279.5,-168.5"/>
<polygon fill="none" stroke="#000000" points="279.5,-168.5 279.5,-189.5 496.5,-189.5 496.5,-168.5 279.5,-168.5"/>
<text text-anchor="start" x="315" y="-175.3" font-family="Nimbus Sans L" font-size="14.00" fill="#000000">[ENUM] restriction (0..1)</text>
</a>
</g>
<g id="a_node2_20"><a xlink:href="/idmef_parser/IODEFv2/Contact.html" xlink:title="A means by which to extend the restriction attribute. &#160;See Section 5.1.1.">
<polygon fill="#66ccff" stroke="transparent" points="279.5,-147.5 279.5,-168.5 496.5,-168.5 496.5,-147.5 279.5,-147.5"/>
<polygon fill="none" stroke="#000000" points="279.5,-147.5 279.5,-168.5 496.5,-168.5 496.5,-147.5 279.5,-147.5"/>
<text text-anchor="start" x="299" y="-154.3" font-family="Nimbus Sans L" font-size="14.00" fill="#000000">[STRING] ext&#45;restriction (0..1)</text>
</a>
</g>
</g>
<!-- Expectation&#45;&gt;Contact -->
<g id="edge6" class="edge">
<title>Expectation&#45;&gt;Contact</title>
<path fill="none" stroke="#000000" d="M212.022,-252.5C227.897,-252.5 244.4008,-252.5 260.6548,-252.5"/>
<polygon fill="#000000" stroke="#000000" points="260.7352,-256.0001 270.7351,-252.5 260.7351,-249.0001 260.7352,-256.0001"/>
<text text-anchor="middle" x="241.5" y="-256.3" font-family="Times,serif" font-size="14.00" fill="#000000">0..1</text>
</g>
<!-- Contact&#45;&gt;Contact -->
<g id="edge5" class="edge">
<title>Contact&#45;&gt;Contact</title>
<path fill="none" stroke="#000000" d="M365.1793,-361.791C369.6516,-372.6154 377.0918,-379.5 387.5,-379.5 394.6556,-379.5 400.4085,-376.246 404.7584,-370.6948"/>
<polygon fill="#000000" stroke="#000000" points="407.9207,-372.2141 409.8207,-361.791 401.8355,-368.7543 407.9207,-372.2141"/>
<text text-anchor="middle" x="387.5" y="-383.3" font-family="Times,serif" font-size="14.00" fill="#000000">0..*</text>
</g>
<!-- RegistryHandle -->
<g id="node3" class="node">
<title>RegistryHandle</title>
<g id="a_node3_21"><a xlink:href="/idmef_parser/IODEFv2/RegistryHandle.html" xlink:title="The RegistryHandle class represents a handle into an Internet registry or community&#45;specific database. ">
<polygon fill="#52a3cc" stroke="transparent" points="628,-400.5 628,-421.5 727,-421.5 727,-400.5 628,-400.5"/>
<polygon fill="none" stroke="#000000" points="628,-400.5 628,-421.5 727,-421.5 727,-400.5 628,-400.5"/>
<text text-anchor="start" x="631" y="-407.3" font-family="Nimbus Sans L" font-size="14.00" fill="#000000">RegistryHandle</text>
</a>
</g>
</g>
<!-- Contact&#45;&gt;RegistryHandle -->
<g id="edge1" class="edge">
<title>Contact&#45;&gt;RegistryHandle</title>
<path fill="none" stroke="#000000" d="M504.131,-350.3868C523.0254,-363.1948 542.9815,-375.1072 563,-384.5 577.4248,-391.2682 593.6967,-396.4225 609.3344,-400.3168"/>
<polygon fill="#000000" stroke="#000000" points="608.9584,-403.8235 619.4933,-402.6983 610.5561,-397.0082 608.9584,-403.8235"/>
<text text-anchor="middle" x="533.5" y="-377.3" font-family="Times,serif" font-size="14.00" fill="#000000">0..*</text>
</g>
<!-- PostalAddress -->
<g id="node4" class="node">
<title>PostalAddress</title>
<g id="a_node4_22"><a xlink:href="/idmef_parser/IODEFv2/PostalAddress.html" xlink:title="The PostalAddress class specifies a postal address and associated annotation. ">
<polygon fill="#52a3cc" stroke="transparent" points="579,-349.5 579,-370.5 775,-370.5 775,-349.5 579,-349.5"/>
<polygon fill="none" stroke="#000000" points="579,-349.5 579,-370.5 775,-370.5 775,-349.5 579,-349.5"/>
<text text-anchor="start" x="633" y="-356.3" font-family="Nimbus Sans L" font-size="14.00" fill="#000000">PostalAddress</text>
</a>
</g>
<g id="a_node4_23"><a xlink:href="/idmef_parser/IODEFv2/PostalAddress.html" xlink:title="A postal address.">
<polygon fill="#66ccff" stroke="transparent" points="579,-328.5 579,-349.5 775,-349.5 775,-328.5 579,-328.5"/>
<polygon fill="none" stroke="#000000" points="579,-328.5 579,-349.5 775,-349.5 775,-328.5 579,-328.5"/>
<text text-anchor="start" x="599" y="-335.3" font-family="Nimbus Sans L" font-size="14.00" fill="#000000">[POSTAL] PAddress (1..1)</text>
</a>
</g>
<g id="a_node4_24"><a xlink:href="/idmef_parser/IODEFv2/PostalAddress.html" xlink:title="A free&#45;form text description of the address.">
<polygon fill="#66ccff" stroke="transparent" points="579,-307.5 579,-328.5 775,-328.5 775,-307.5 579,-307.5"/>
<polygon fill="none" stroke="#000000" points="579,-307.5 579,-328.5 775,-328.5 775,-307.5 579,-307.5"/>
<text text-anchor="start" x="582" y="-314.3" font-family="Nimbus Sans L" font-size="14.00" fill="#000000">[ML_STRING] Description (0..*)</text>
</a>
</g>
<g id="a_node4_25"><a xlink:href="/idmef_parser/IODEFv2/PostalAddress.html" xlink:title="Categorizes the type of address described in the PAddress class. &#160;These values are maintained in the &quot;PostalAddress&#45;type&quot; IANA registry per Section 10.2.">
<polygon fill="#66ccff" stroke="transparent" points="579,-286.5 579,-307.5 775,-307.5 775,-286.5 579,-286.5"/>
<polygon fill="none" stroke="#000000" points="579,-286.5 579,-307.5 775,-307.5 775,-286.5 579,-286.5"/>
<text text-anchor="start" x="620.5" y="-293.3" font-family="Nimbus Sans L" font-size="14.00" fill="#000000">[ENUM] type (0..1)</text>
</a>
</g>
<g id="a_node4_26"><a xlink:href="/idmef_parser/IODEFv2/PostalAddress.html" xlink:title="A means by which to extend the type attribute. See Section 5.1.1.">
<polygon fill="#66ccff" stroke="transparent" points="579,-265.5 579,-286.5 775,-286.5 775,-265.5 579,-265.5"/>
<polygon fill="none" stroke="#000000" points="579,-265.5 579,-286.5 775,-286.5 775,-265.5 579,-265.5"/>
<text text-anchor="start" x="604.5" y="-272.3" font-family="Nimbus Sans L" font-size="14.00" fill="#000000">[STRING] ext&#45;type (0..1)</text>
</a>
</g>
</g>
<!-- Contact&#45;&gt;PostalAddress -->
<g id="edge2" class="edge">
<title>Contact&#45;&gt;PostalAddress</title>
<path fill="none" stroke="#000000" d="M504.4163,-279.1545C523.0391,-283.4001 542.3008,-287.7914 560.9046,-292.0327"/>
<polygon fill="#000000" stroke="#000000" points="560.3362,-295.4928 570.864,-294.3032 561.8921,-288.6679 560.3362,-295.4928"/>
<text text-anchor="middle" x="533.5" y="-290.3" font-family="Times,serif" font-size="14.00" fill="#000000">0..*</text>
</g>
<!-- Email -->
<g id="node5" class="node">
<title>Email</title>
<g id="a_node5_27"><a xlink:href="/idmef_parser/IODEFv2/Email.html" xlink:title="The Email class specifies an email address and associated annotation. ">
<polygon fill="#52a3cc" stroke="transparent" points="579,-218.5 579,-239.5 775,-239.5 775,-218.5 579,-218.5"/>
<polygon fill="none" stroke="#000000" points="579,-218.5 579,-239.5 775,-239.5 775,-218.5 579,-218.5"/>
<text text-anchor="start" x="659.5" y="-225.3" font-family="Nimbus Sans L" font-size="14.00" fill="#000000">Email</text>
</a>
</g>
<g id="a_node5_28"><a xlink:href="/idmef_parser/IODEFv2/Email.html" xlink:title="An email address.">
<polygon fill="#66ccff" stroke="transparent" points="579,-197.5 579,-218.5 775,-218.5 775,-197.5 579,-197.5"/>
<polygon fill="none" stroke="#000000" points="579,-197.5 579,-218.5 775,-218.5 775,-197.5 579,-197.5"/>
<text text-anchor="start" x="609" y="-204.3" font-family="Nimbus Sans L" font-size="14.00" fill="#000000">[EMAIL] EmailTo (1..1)</text>
</a>
</g>
<g id="a_node5_29"><a xlink:href="/idmef_parser/IODEFv2/Email.html" xlink:title="A free&#45;form text description of the email address.">
<polygon fill="#66ccff" stroke="transparent" points="579,-176.5 579,-197.5 775,-197.5 775,-176.5 579,-176.5"/>
<polygon fill="none" stroke="#000000" points="579,-176.5 579,-197.5 775,-197.5 775,-176.5 579,-176.5"/>
<text text-anchor="start" x="582" y="-183.3" font-family="Nimbus Sans L" font-size="14.00" fill="#000000">[ML_STRING] Description (0..*)</text>
</a>
</g>
<g id="a_node5_30"><a xlink:href="/idmef_parser/IODEFv2/Email.html" xlink:title="Categorizes the type of email address described in the EmailTo class. &#160;These values are maintained in the &quot;Email&#45; type&quot; IANA registry per Section 10.2.">
<polygon fill="#66ccff" stroke="transparent" points="579,-155.5 579,-176.5 775,-176.5 775,-155.5 579,-155.5"/>
<polygon fill="none" stroke="#000000" points="579,-155.5 579,-176.5 775,-176.5 775,-155.5 579,-155.5"/>
<text text-anchor="start" x="620.5" y="-162.3" font-family="Nimbus Sans L" font-size="14.00" fill="#000000">[ENUM] type (0..1)</text>
</a>
</g>
<g id="a_node5_31"><a xlink:href="/idmef_parser/IODEFv2/Email.html" xlink:title="A means by which to extend the type attribute. See Section 5.1.1.">
<polygon fill="#66ccff" stroke="transparent" points="579,-134.5 579,-155.5 775,-155.5 775,-134.5 579,-134.5"/>
<polygon fill="none" stroke="#000000" points="579,-134.5 579,-155.5 775,-155.5 775,-134.5 579,-134.5"/>
<text text-anchor="start" x="604.5" y="-141.3" font-family="Nimbus Sans L" font-size="14.00" fill="#000000">[STRING] ext&#45;type (0..1)</text>
</a>
</g>
</g>
<!-- Contact&#45;&gt;Email -->
<g id="edge3" class="edge">
<title>Contact&#45;&gt;Email</title>
<path fill="none" stroke="#000000" d="M504.4163,-226.2494C523.0391,-222.0681 542.3008,-217.7433 560.9046,-213.5663"/>
<polygon fill="#000000" stroke="#000000" points="561.8737,-216.936 570.864,-211.3302 560.3401,-210.106 561.8737,-216.936"/>
<text text-anchor="middle" x="533.5" y="-225.3" font-family="Times,serif" font-size="14.00" fill="#000000">0..*</text>
</g>
<!-- Telephone -->
<g id="node6" class="node">
<title>Telephone</title>
<g id="a_node6_32"><a xlink:href="/idmef_parser/IODEFv2/Telephone.html" xlink:title="The Telephone class describes a telephone number and associated annotation. ">
<polygon fill="#cecece" stroke="transparent" points="571,-87.5 571,-108.5 783,-108.5 783,-87.5 571,-87.5"/>
<polygon fill="none" stroke="#000000" points="571,-87.5 571,-108.5 783,-108.5 783,-87.5 571,-87.5"/>
<text text-anchor="start" x="645.5" y="-94.3" font-family="Nimbus Sans L" font-size="14.00" fill="#000000">Telephone</text>
</a>
</g>
<g id="a_node6_33"><a xlink:href="/idmef_parser/IODEFv2/Telephone.html" xlink:title="A telephone number.">
<polygon fill="none" stroke="#000000" points="571,-66.5 571,-87.5 783,-87.5 783,-66.5 571,-66.5"/>
<text text-anchor="start" x="574" y="-73.3" font-family="Nimbus Sans L" font-size="14.00" fill="#000000">[PHONE] TelephoneNumber (1..1)</text>
</a>
</g>
<g id="a_node6_34"><a xlink:href="/idmef_parser/IODEFv2/Telephone.html" xlink:title="A free&#45;form text description of the phone number.">
<polygon fill="none" stroke="#000000" points="571,-45.5 571,-66.5 783,-66.5 783,-45.5 571,-45.5"/>
<text text-anchor="start" x="582" y="-52.3" font-family="Nimbus Sans L" font-size="14.00" fill="#000000">[ML_STRING] Description (0..*)</text>
</a>
</g>
<g id="a_node6_35"><a xlink:href="/idmef_parser/IODEFv2/Telephone.html" xlink:title="Categorizes the type of telephone number described in the TelephoneNumber class. &#160;These values are maintained in the &quot;Telephone&#45;type&quot; IANA registry per Section 10.2.">
<polygon fill="none" stroke="#000000" points="571,-24.5 571,-45.5 783,-45.5 783,-24.5 571,-24.5"/>
<text text-anchor="start" x="620.5" y="-31.3" font-family="Nimbus Sans L" font-size="14.00" fill="#000000">[ENUM] type (0..1)</text>
</a>
</g>
<g id="a_node6_36"><a xlink:href="/idmef_parser/IODEFv2/Telephone.html" xlink:title="A means by which to extend the type attribute. See Section 5.1.1.">
<polygon fill="none" stroke="#000000" points="571,-3.5 571,-24.5 783,-24.5 783,-3.5 571,-3.5"/>
<text text-anchor="start" x="604.5" y="-10.3" font-family="Nimbus Sans L" font-size="14.00" fill="#000000">[STRING] ext&#45;type (0..1)</text>
</a>
</g>
</g>
<!-- Contact&#45;&gt;Telephone -->
<g id="edge4" class="edge">
<title>Contact&#45;&gt;Telephone</title>
<path fill="none" stroke="#000000" d="M504.2047,-163.229C523.5841,-149.2261 543.6678,-135.1982 563,-122.5 564.9413,-121.2248 566.908,-119.947 568.8951,-118.6687"/>
<polygon fill="#000000" stroke="#000000" points="571.1537,-121.3807 577.7219,-113.0675 567.4031,-115.4702 571.1537,-121.3807"/>
<text text-anchor="middle" x="533.5" y="-152.3" font-family="Times,serif" font-size="14.00" fill="#000000">0..*</text>
</g>
</g>
</svg>
