<?xml version="1.0" encoding="UTF-8" standalone="no"?>
<!DOCTYPE svg PUBLIC "-//W3C//DTD SVG 1.1//EN"
 "http://www.w3.org/Graphics/SVG/1.1/DTD/svg11.dtd">
<!-- Generated by graphviz version 2.40.1 (0)
 -->
<!-- Title: FileData Pages: 1 -->
<svg width="1099pt" height="242pt"
 viewBox="0.00 0.00 1099.00 241.50" xmlns="http://www.w3.org/2000/svg" xmlns:xlink="http://www.w3.org/1999/xlink">
<g id="graph0" class="graph" transform="scale(1 1) rotate(0) translate(4 237.5)">
<title>FileData</title>
<polygon fill="#ffffff" stroke="transparent" points="-4,4 -4,-237.5 1095,-237.5 1095,4 -4,4"/>
<!-- FileData -->
<g id="node1" class="node">
<title>FileData</title>
<g id="a_node1_0"><a xlink:href="/html/IODEFv2/FileData.html" xlink:title="The FileData class describes a file or set of files. ">
<polygon fill="#cecece" stroke="transparent" points="8,-109 8,-130 192,-130 192,-109 8,-109"/>
<polygon fill="none" stroke="#000000" points="8,-109 8,-130 192,-130 192,-109 8,-109"/>
<text text-anchor="start" x="74.5" y="-115.8" font-family="Nimbus Sans L" font-size="14.00" fill="#000000">FileData</text>
</a>
</g>
<g id="a_node1_1"><a xlink:href="/html/IODEFv2/FileData.html" xlink:title="See Section 3.3.1.">
<polygon fill="none" stroke="#000000" points="8,-88 8,-109 192,-109 192,-88 8,-88"/>
<text text-anchor="start" x="27" y="-94.8" font-family="Nimbus Sans L" font-size="14.00" fill="#000000">[ENUM] restriction (0..1)</text>
</a>
</g>
<g id="a_node1_2"><a xlink:href="/html/IODEFv2/FileData.html" xlink:title="A means by which to extend the restriction attribute. &#160;See Section 5.1.1.">
<polygon fill="none" stroke="#000000" points="8,-67 8,-88 192,-88 192,-67 8,-67"/>
<text text-anchor="start" x="11" y="-73.8" font-family="Nimbus Sans L" font-size="14.00" fill="#000000">[STRING] ext&#45;restriction (0..1)</text>
</a>
</g>
<g id="a_node1_3"><a xlink:href="/html/IODEFv2/FileData.html" xlink:title="See Section 3.3.2.">
<polygon fill="none" stroke="#000000" points="8,-46 8,-67 192,-67 192,-46 8,-46"/>
<text text-anchor="start" x="29" y="-52.8" font-family="Nimbus Sans L" font-size="14.00" fill="#000000">[ID] observable&#45;id (0..1)</text>
</a>
</g>
</g>
<!-- File -->
<g id="node2" class="node">
<title>File</title>
<g id="a_node2_4"><a xlink:href="/html/IODEFv2/File.html" xlink:title="The File class describes a file; its associated metadata; and cryptographic hashes and signatures applied to it. ">
<polygon fill="#cecece" stroke="transparent" points="267,-151 267,-172 517,-172 517,-151 267,-151"/>
<polygon fill="none" stroke="#000000" points="267,-151 267,-172 517,-172 517,-151 267,-151"/>
<text text-anchor="start" x="381" y="-157.8" font-family="Nimbus Sans L" font-size="14.00" fill="#000000">File</text>
</a>
</g>
<g id="a_node2_5"><a xlink:href="/html/IODEFv2/File.html" xlink:title="The name of the file.">
<polygon fill="none" stroke="#000000" points="267,-130 267,-151 517,-151 517,-130 267,-130"/>
<text text-anchor="start" x="313.5" y="-136.8" font-family="Nimbus Sans L" font-size="14.00" fill="#000000">[STRING] FileName (0..1)</text>
</a>
</g>
<g id="a_node2_6"><a xlink:href="/html/IODEFv2/File.html" xlink:title="The size of the file in bytes.">
<polygon fill="none" stroke="#000000" points="267,-109 267,-130 517,-130 517,-109 267,-109"/>
<text text-anchor="start" x="314" y="-115.8" font-family="Nimbus Sans L" font-size="14.00" fill="#000000">[INTEGER] FileSize (0..1)</text>
</a>
</g>
<g id="a_node2_7"><a xlink:href="/html/IODEFv2/File.html" xlink:title="The type of file per the IANA &quot;Media Types&quot; registry [IANA.Media]. &#160;Valid values correspond to the text in the &quot;Template&quot; column (e.g., &quot;application/pdf&quot;).">
<polygon fill="none" stroke="#000000" points="267,-88 267,-109 517,-109 517,-88 267,-88"/>
<text text-anchor="start" x="318" y="-94.8" font-family="Nimbus Sans L" font-size="14.00" fill="#000000">[STRING] FileType (0..1)</text>
</a>
</g>
<g id="a_node2_8"><a xlink:href="/html/IODEFv2/File.html" xlink:title="A URL reference to the file.">
<polygon fill="none" stroke="#000000" points="267,-67 267,-88 517,-88 517,-67 267,-67"/>
<text text-anchor="start" x="343.5" y="-73.8" font-family="Nimbus Sans L" font-size="14.00" fill="#000000">[URL] URL (0..*)</text>
</a>
</g>
<g id="a_node2_9"><a xlink:href="/html/IODEFv2/File.html" xlink:title="The software application or operating system to which this file belongs or by which it can be processed.">
<polygon fill="none" stroke="#000000" points="267,-46 267,-67 517,-67 517,-46 267,-46"/>
<text text-anchor="start" x="270" y="-52.8" font-family="Nimbus Sans L" font-size="14.00" fill="#000000">[SOFTWARE] AssociatedSoftware (0..1)</text>
</a>
</g>
<g id="a_node2_10"><a xlink:href="/html/IODEFv2/File.html" xlink:title="Mechanism by which to extend the data model to describe properties of the file.">
<polygon fill="none" stroke="#000000" points="267,-25 267,-46 517,-46 517,-25 267,-25"/>
<text text-anchor="start" x="288.5" y="-31.8" font-family="Nimbus Sans L" font-size="14.00" fill="#000000">[EXTENSION] FileProperties (0..*)</text>
</a>
</g>
<g id="a_node2_11"><a xlink:href="/html/IODEFv2/File.html" xlink:title="See Section 3.3.2.">
<polygon fill="none" stroke="#000000" points="267,-4 267,-25 517,-25 517,-4 267,-4"/>
<text text-anchor="start" x="321" y="-10.8" font-family="Nimbus Sans L" font-size="14.00" fill="#000000">[ID] observable&#45;id (0..1)</text>
</a>
</g>
</g>
<!-- FileData&#45;&gt;File -->
<g id="edge5" class="edge">
<title>FileData&#45;&gt;File</title>
<path fill="none" stroke="#000000" d="M200.0813,-88C215.7356,-88 232.174,-88 248.5691,-88"/>
<polygon fill="#000000" stroke="#000000" points="248.7645,-91.5001 258.7645,-88 248.7644,-84.5001 248.7645,-91.5001"/>
<text text-anchor="middle" x="229.5" y="-91.8" font-family="Times,serif" font-size="14.00" fill="#000000">1..*</text>
</g>
<!-- HashData -->
<g id="node3" class="node">
<title>HashData</title>
<g id="a_node3_12"><a xlink:href="/html/IODEFv2/HashData.html" xlink:title="The HashData class describes different types of hashes on a given object (e.g., file, part of a file, email). ">
<polygon fill="#cecece" stroke="transparent" points="592.5,-158 592.5,-179 779.5,-179 779.5,-158 592.5,-158"/>
<polygon fill="none" stroke="#000000" points="592.5,-158 592.5,-179 779.5,-179 779.5,-158 592.5,-158"/>
<text text-anchor="start" x="655.5" y="-164.8" font-family="Nimbus Sans L" font-size="14.00" fill="#000000">HashData</text>
</a>
</g>
<g id="a_node3_13"><a xlink:href="/html/IODEFv2/HashData.html" xlink:title="An identifier that references a subset of the object being hashed. &#160;The semantics of this identifier are specified by the scope attribute.">
<polygon fill="none" stroke="#000000" points="592.5,-137 592.5,-158 779.5,-158 779.5,-137 592.5,-137"/>
<text text-anchor="start" x="595.5" y="-143.8" font-family="Nimbus Sans L" font-size="14.00" fill="#000000">[STRING] HashTargetID (0..1)</text>
</a>
</g>
<g id="a_node3_14"><a xlink:href="/html/IODEFv2/HashData.html" xlink:title="A means by which to extend the scope attribute. &#160;See Section 5.1.1.">
<polygon fill="none" stroke="#000000" points="592.5,-116 592.5,-137 779.5,-137 779.5,-116 592.5,-116"/>
<text text-anchor="start" x="619" y="-122.8" font-family="Nimbus Sans L" font-size="14.00" fill="#000000">[STRING] scope (0..1)</text>
</a>
</g>
</g>
<!-- File&#45;&gt;HashData -->
<g id="edge3" class="edge">
<title>File&#45;&gt;HashData</title>
<path fill="none" stroke="#000000" d="M525.0101,-115.1912C541.3386,-118.5292 557.896,-121.914 573.8641,-125.1784"/>
<polygon fill="#000000" stroke="#000000" points="573.2247,-128.6199 583.7231,-127.1938 574.6267,-121.7618 573.2247,-128.6199"/>
<text text-anchor="middle" x="554.5" y="-126.8" font-family="Times,serif" font-size="14.00" fill="#000000">0..1</text>
</g>
<!-- SignatureData -->
<g id="node6" class="node">
<title>SignatureData</title>
<g id="a_node6_15"><a xlink:href="/html/IODEFv2/SignatureData.html" xlink:title="The SignatureData class describes different types of digital signatures on an object. ">
<polygon fill="#cecece" stroke="transparent" points="631.5,-69 631.5,-90 739.5,-90 739.5,-69 631.5,-69"/>
<polygon fill="none" stroke="#000000" points="631.5,-69 631.5,-90 739.5,-90 739.5,-69 631.5,-69"/>
<text text-anchor="start" x="642" y="-75.8" font-family="Nimbus Sans L" font-size="14.00" fill="#000000">SignatureData</text>
</a>
</g>
<g id="a_node6_16"><a xlink:href="/html/IODEFv2/SignatureData.html" xlink:title="A given signature. &#160;See Section 4.2 of [W3C.XMLSIG].">
<polygon fill="none" stroke="#000000" points="631.5,-48 631.5,-69 739.5,-69 739.5,-48 631.5,-48"/>
<text text-anchor="start" x="634.5" y="-54.8" font-family="Nimbus Sans L" font-size="14.00" fill="#000000">[] Signature (1..*)</text>
</a>
</g>
</g>
<!-- File&#45;&gt;SignatureData -->
<g id="edge4" class="edge">
<title>File&#45;&gt;SignatureData</title>
<path fill="none" stroke="#000000" d="M525.0101,-79.3895C555.4051,-77.4218 586.5931,-75.4028 613.2971,-73.6741"/>
<polygon fill="#000000" stroke="#000000" points="613.5481,-77.1653 623.3011,-73.0265 613.0958,-70.1799 613.5481,-77.1653"/>
<text text-anchor="middle" x="554.5" y="-81.8" font-family="Times,serif" font-size="14.00" fill="#000000">0..1</text>
</g>
<!-- Hash -->
<g id="node4" class="node">
<title>Hash</title>
<g id="a_node4_17"><a xlink:href="/html/IODEFv2/Hash.html" xlink:title="The Hash class describes a cryptographic hash value; the algorithm and application used to generate it; and the canonicalization method applied to the object being hashed. ">
<polygon fill="#cecece" stroke="transparent" points="870.5,-208 870.5,-229 1066.5,-229 1066.5,-208 870.5,-208"/>
<polygon fill="none" stroke="#000000" points="870.5,-208 870.5,-229 1066.5,-229 1066.5,-208 870.5,-208"/>
<text text-anchor="start" x="952.5" y="-214.8" font-family="Nimbus Sans L" font-size="14.00" fill="#000000">Hash</text>
</a>
</g>
<g id="a_node4_18"><a xlink:href="/html/IODEFv2/Hash.html" xlink:title="The canonicalization method used on the object being hashed. &#160;See Section 4.3.1 of [W3C.XMLSIG].">
<polygon fill="none" stroke="#000000" points="870.5,-187 870.5,-208 1066.5,-208 1066.5,-187 870.5,-187"/>
<text text-anchor="start" x="945" y="-193.8" font-family="Nimbus Sans L" font-size="14.00" fill="#000000">[] &#160;(0..1)</text>
</a>
</g>
<g id="a_node4_19"><a xlink:href="/html/IODEFv2/Hash.html" xlink:title="The application used to calculate the hash.">
<polygon fill="none" stroke="#000000" points="870.5,-166 870.5,-187 1066.5,-187 1066.5,-166 870.5,-166"/>
<text text-anchor="start" x="873.5" y="-172.8" font-family="Nimbus Sans L" font-size="14.00" fill="#000000">[SOFTWARE] Application (0..1)</text>
</a>
</g>
</g>
<!-- HashData&#45;&gt;Hash -->
<g id="edge1" class="edge">
<title>HashData&#45;&gt;Hash</title>
<path fill="none" stroke="#000000" d="M787.2697,-165.9805C808.432,-169.7194 830.8845,-173.6863 852.5143,-177.5078"/>
<polygon fill="#000000" stroke="#000000" points="851.9304,-180.9588 862.3869,-179.2521 853.1484,-174.0656 851.9304,-180.9588"/>
<text text-anchor="middle" x="816.5" y="-176.8" font-family="Times,serif" font-size="14.00" fill="#000000">0..*</text>
</g>
<!-- FuzzyHash -->
<g id="node5" class="node">
<title>FuzzyHash</title>
<g id="a_node5_20"><a xlink:href="/html/IODEFv2/FuzzyHash.html" xlink:title="The FuzzyHash class describes a fuzzy hash and the application used to generate it. ">
<polygon fill="#cecece" stroke="transparent" points="854.5,-119 854.5,-140 1083.5,-140 1083.5,-119 854.5,-119"/>
<polygon fill="none" stroke="#000000" points="854.5,-119 854.5,-140 1083.5,-140 1083.5,-119 854.5,-119"/>
<text text-anchor="start" x="935.5" y="-125.8" font-family="Nimbus Sans L" font-size="14.00" fill="#000000">FuzzyHash</text>
</a>
</g>
<g id="a_node5_21"><a xlink:href="/html/IODEFv2/FuzzyHash.html" xlink:title="The computed fuzzy hash value.">
<polygon fill="none" stroke="#000000" points="854.5,-98 854.5,-119 1083.5,-119 1083.5,-98 854.5,-98"/>
<text text-anchor="start" x="857.5" y="-104.8" font-family="Nimbus Sans L" font-size="14.00" fill="#000000">[EXTENSION] FuzzyHashValue (1..*)</text>
</a>
</g>
<g id="a_node5_22"><a xlink:href="/html/IODEFv2/FuzzyHash.html" xlink:title="The application used to calculate the hash.">
<polygon fill="none" stroke="#000000" points="854.5,-77 854.5,-98 1083.5,-98 1083.5,-77 854.5,-77"/>
<text text-anchor="start" x="874" y="-83.8" font-family="Nimbus Sans L" font-size="14.00" fill="#000000">[SOFTWARE] Application (0..1)</text>
</a>
</g>
<g id="a_node5_23"><a xlink:href="/html/IODEFv2/FuzzyHash.html" xlink:title="Mechanism by which to extend the data model.">
<polygon fill="none" stroke="#000000" points="854.5,-56 854.5,-77 1083.5,-77 1083.5,-56 854.5,-56"/>
<text text-anchor="start" x="863.5" y="-62.8" font-family="Nimbus Sans L" font-size="14.00" fill="#000000">[EXTENSION] AdditionalData (0..*)</text>
</a>
</g>
</g>
<!-- HashData&#45;&gt;FuzzyHash -->
<g id="edge2" class="edge">
<title>HashData&#45;&gt;FuzzyHash</title>
<path fill="none" stroke="#000000" d="M787.2697,-130.0195C803.017,-127.2373 819.4787,-124.3289 835.7842,-121.448"/>
<polygon fill="#000000" stroke="#000000" points="836.6703,-124.8458 845.9088,-119.6592 835.4523,-117.9525 836.6703,-124.8458"/>
<text text-anchor="middle" x="816.5" y="-128.8" font-family="Times,serif" font-size="14.00" fill="#000000">0..*</text>
</g>
</g>
</svg>
