<?xml version="1.0" encoding="UTF-8" standalone="no"?>
<!DOCTYPE svg PUBLIC "-//W3C//DTD SVG 1.1//EN"
 "http://www.w3.org/Graphics/SVG/1.1/DTD/svg11.dtd">
<!-- Generated by graphviz version 2.40.1 (0)
 -->
<!-- Title: FuzzyHash Pages: 1 -->
<svg width="253pt" height="100pt"
 viewBox="0.00 0.00 253.00 100.00" xmlns="http://www.w3.org/2000/svg" xmlns:xlink="http://www.w3.org/1999/xlink">
<g id="graph0" class="graph" transform="scale(1 1) rotate(0) translate(4 96)">
<title>FuzzyHash</title>
<polygon fill="#ffffff" stroke="transparent" points="-4,4 -4,-96 249,-96 249,4 -4,4"/>
<!-- FuzzyHash -->
<g id="node1" class="node">
<title>FuzzyHash</title>
<g id="a_node1_0"><a xlink:href="/idmef_parser/IODEFv2/FuzzyHash.html" xlink:title="The FuzzyHash class describes a fuzzy hash and the application used to generate it. ">
<polygon fill="#cecece" stroke="transparent" points="8.5,-67 8.5,-88 237.5,-88 237.5,-67 8.5,-67"/>
<polygon fill="none" stroke="#000000" points="8.5,-67 8.5,-88 237.5,-88 237.5,-67 8.5,-67"/>
<text text-anchor="start" x="89.5" y="-73.8" font-family="Nimbus Sans L" font-size="14.00" fill="#000000">FuzzyHash</text>
</a>
</g>
<g id="a_node1_1"><a xlink:href="/idmef_parser/IODEFv2/FuzzyHash.html" xlink:title="The computed fuzzy hash value.">
<polygon fill="none" stroke="#000000" points="8.5,-46 8.5,-67 237.5,-67 237.5,-46 8.5,-46"/>
<text text-anchor="start" x="11.5" y="-52.8" font-family="Nimbus Sans L" font-size="14.00" fill="#000000">[EXTENSION] FuzzyHashValue (1..*)</text>
</a>
</g>
<g id="a_node1_2"><a xlink:href="/idmef_parser/IODEFv2/FuzzyHash.html" xlink:title="The application used to calculate the hash.">
<polygon fill="none" stroke="#000000" points="8.5,-25 8.5,-46 237.5,-46 237.5,-25 8.5,-25"/>
<text text-anchor="start" x="28" y="-31.8" font-family="Nimbus Sans L" font-size="14.00" fill="#000000">[SOFTWARE] Application (0..1)</text>
</a>
</g>
<g id="a_node1_3"><a xlink:href="/idmef_parser/IODEFv2/FuzzyHash.html" xlink:title="Mechanism by which to extend the data model.">
<polygon fill="none" stroke="#000000" points="8.5,-4 8.5,-25 237.5,-25 237.5,-4 8.5,-4"/>
<text text-anchor="start" x="17.5" y="-10.8" font-family="Nimbus Sans L" font-size="14.00" fill="#000000">[EXTENSION] AdditionalData (0..*)</text>
</a>
</g>
</g>
</g>
</svg>
