<?xml version="1.0" encoding="UTF-8" standalone="no"?>
<!DOCTYPE svg PUBLIC "-//W3C//DTD SVG 1.1//EN"
 "http://www.w3.org/Graphics/SVG/1.1/DTD/svg11.dtd">
<!-- Generated by graphviz version 2.40.1 (0)
 -->
<!-- Title: NodeRole Pages: 1 -->
<svg width="220pt" height="79pt"
 viewBox="0.00 0.00 220.00 79.00" xmlns="http://www.w3.org/2000/svg" xmlns:xlink="http://www.w3.org/1999/xlink">
<g id="graph0" class="graph" transform="scale(1 1) rotate(0) translate(4 75)">
<title>NodeRole</title>
<polygon fill="#ffffff" stroke="transparent" points="-4,4 -4,-75 216,-75 216,4 -4,4"/>
<!-- NodeRole -->
<g id="node1" class="node">
<title>NodeRole</title>
<g id="a_node1_0"><a xlink:href="/html/IODEFv2/NodeRole.html" xlink:title="The NodeRole class describes the function performed by or role of a particular system, asset, or network. ">
<polygon fill="#3daf3d" stroke="transparent" points="8,-45.5 8,-66.5 204,-66.5 204,-45.5 8,-45.5"/>
<polygon fill="none" stroke="#000000" points="8,-45.5 8,-66.5 204,-66.5 204,-45.5 8,-45.5"/>
<text text-anchor="start" x="75.5" y="-52.3" font-family="Nimbus Sans L" font-size="14.00" fill="#000000">NodeRole</text>
</a>
</g>
<g id="a_node1_1"><a xlink:href="/html/IODEFv2/NodeRole.html" xlink:title="A free&#45;form text description of the role of the system.">
<polygon fill="#4cdb4c" stroke="transparent" points="8,-24.5 8,-45.5 204,-45.5 204,-24.5 8,-24.5"/>
<polygon fill="none" stroke="#000000" points="8,-24.5 8,-45.5 204,-45.5 204,-24.5 8,-24.5"/>
<text text-anchor="start" x="11" y="-31.3" font-family="Nimbus Sans L" font-size="14.00" fill="#000000">[ML_STRING] Description (0..*)</text>
</a>
</g>
<g id="a_node1_2"><a xlink:href="/html/IODEFv2/NodeRole.html" xlink:title="A means by which to extend the category attribute. &#160;See Section 5.1.1.">
<polygon fill="#4cdb4c" stroke="transparent" points="8,-3.5 8,-24.5 204,-24.5 204,-3.5 8,-3.5"/>
<polygon fill="none" stroke="#000000" points="8,-3.5 8,-24.5 204,-24.5 204,-3.5 8,-3.5"/>
<text text-anchor="start" x="31" y="-10.3" font-family="Nimbus Sans L" font-size="14.00" fill="#000000">[STRING] category (0..1)</text>
</a>
</g>
</g>
</g>
</svg>
