<?xml version="1.0" encoding="UTF-8" standalone="no"?>
<!DOCTYPE svg PUBLIC "-//W3C//DTD SVG 1.1//EN"
 "http://www.w3.org/Graphics/SVG/1.1/DTD/svg11.dtd">
<!-- Generated by graphviz version 2.40.1 (0)
 -->
<!-- Title: Record Pages: 1 -->
<svg width="1659pt" height="494pt"
 viewBox="0.00 0.00 1659.00 493.50" xmlns="http://www.w3.org/2000/svg" xmlns:xlink="http://www.w3.org/1999/xlink">
<g id="graph0" class="graph" transform="scale(1 1) rotate(0) translate(4 489.5)">
<title>Record</title>
<polygon fill="#ffffff" stroke="transparent" points="-4,4 -4,-489.5 1655,-489.5 1655,4 -4,4"/>
<!-- Record -->
<g id="node1" class="node">
<title>Record</title>
<g id="a_node1_0"><a xlink:href="/idmef_parser/IODEFv2/Record.html" xlink:title="The Record class is a container class for log and audit data that provides supportive information about the events in an incident. The source of this data will often be the output of monitoring tools. These logs substantiate the activity described in the document. ">
<polygon fill="#cccc52" stroke="transparent" points="8,-242 8,-263 192,-263 192,-242 8,-242"/>
<polygon fill="none" stroke="#000000" points="8,-242 8,-263 192,-263 192,-242 8,-242"/>
<text text-anchor="start" x="78" y="-248.8" font-family="Nimbus Sans L" font-size="14.00" fill="#000000">Record</text>
</a>
</g>
<g id="a_node1_1"><a xlink:href="/idmef_parser/IODEFv2/Record.html" xlink:title="See Section 3.3.1.">
<polygon fill="#ffff66" stroke="transparent" points="8,-221 8,-242 192,-242 192,-221 8,-221"/>
<polygon fill="none" stroke="#000000" points="8,-221 8,-242 192,-242 192,-221 8,-221"/>
<text text-anchor="start" x="27" y="-227.8" font-family="Nimbus Sans L" font-size="14.00" fill="#000000">[ENUM] restriction (0..1)</text>
</a>
</g>
<g id="a_node1_2"><a xlink:href="/idmef_parser/IODEFv2/Record.html" xlink:title="A means by which to extend the restriction attribute. &#160;See Section 5.1.1.">
<polygon fill="#ffff66" stroke="transparent" points="8,-200 8,-221 192,-221 192,-200 8,-200"/>
<polygon fill="none" stroke="#000000" points="8,-200 8,-221 192,-221 192,-200 8,-200"/>
<text text-anchor="start" x="11" y="-206.8" font-family="Nimbus Sans L" font-size="14.00" fill="#000000">[STRING] ext&#45;restriction (0..1)</text>
</a>
</g>
</g>
<!-- RecordData -->
<g id="node2" class="node">
<title>RecordData</title>
<g id="a_node2_3"><a xlink:href="/idmef_parser/IODEFv2/RecordData.html" xlink:title="The RecordData class describes or references log or audit data from a given type of tool and provides a means to annotate the output. ">
<polygon fill="#cccc52" stroke="transparent" points="267.5,-316 267.5,-337 484.5,-337 484.5,-316 267.5,-316"/>
<polygon fill="none" stroke="#000000" points="267.5,-316 267.5,-337 484.5,-337 484.5,-316 267.5,-316"/>
<text text-anchor="start" x="339.5" y="-322.8" font-family="Nimbus Sans L" font-size="14.00" fill="#000000">RecordData</text>
</a>
</g>
<g id="a_node2_4"><a xlink:href="/idmef_parser/IODEFv2/RecordData.html" xlink:title="A timestamp of the data found in the RecordItem or URL classes.">
<polygon fill="#ffff66" stroke="transparent" points="267.5,-295 267.5,-316 484.5,-316 484.5,-295 267.5,-295"/>
<polygon fill="none" stroke="#000000" points="267.5,-295 267.5,-316 484.5,-316 484.5,-295 267.5,-295"/>
<text text-anchor="start" x="289.5" y="-301.8" font-family="Nimbus Sans L" font-size="14.00" fill="#000000">[DATETIME] DateTime (0..1)</text>
</a>
</g>
<g id="a_node2_5"><a xlink:href="/idmef_parser/IODEFv2/RecordData.html" xlink:title="A free&#45;form text description of the data provided in the RecordItem or URL classes.">
<polygon fill="#ffff66" stroke="transparent" points="267.5,-274 267.5,-295 484.5,-295 484.5,-274 267.5,-274"/>
<polygon fill="none" stroke="#000000" points="267.5,-274 267.5,-295 484.5,-295 484.5,-274 267.5,-274"/>
<text text-anchor="start" x="281" y="-280.8" font-family="Nimbus Sans L" font-size="14.00" fill="#000000">[ML_STRING] Description (0..*)</text>
</a>
</g>
<g id="a_node2_6"><a xlink:href="/idmef_parser/IODEFv2/RecordData.html" xlink:title="Identifies the tool used to generate the data in the RecordItem or URL classes.">
<polygon fill="#ffff66" stroke="transparent" points="267.5,-253 267.5,-274 484.5,-274 484.5,-253 267.5,-253"/>
<polygon fill="none" stroke="#000000" points="267.5,-253 267.5,-274 484.5,-274 484.5,-253 267.5,-253"/>
<text text-anchor="start" x="281" y="-259.8" font-family="Nimbus Sans L" font-size="14.00" fill="#000000">[SOFTWARE] Application (0..1)</text>
</a>
</g>
<g id="a_node2_7"><a xlink:href="/idmef_parser/IODEFv2/RecordData.html" xlink:title="Log, audit, or forensic data to support the conclusions made during the course of analyzing the incident.">
<polygon fill="#ffff66" stroke="transparent" points="267.5,-232 267.5,-253 484.5,-253 484.5,-232 267.5,-232"/>
<polygon fill="none" stroke="#000000" points="267.5,-232 267.5,-253 484.5,-253 484.5,-232 267.5,-232"/>
<text text-anchor="start" x="279.5" y="-238.8" font-family="Nimbus Sans L" font-size="14.00" fill="#000000">[EXTENSION] RecordItem (0..*)</text>
</a>
</g>
<g id="a_node2_8"><a xlink:href="/idmef_parser/IODEFv2/RecordData.html" xlink:title="A URL reference to a log or audit data.">
<polygon fill="#ffff66" stroke="transparent" points="267.5,-211 267.5,-232 484.5,-232 484.5,-211 267.5,-211"/>
<polygon fill="none" stroke="#000000" points="267.5,-211 267.5,-232 484.5,-232 484.5,-211 267.5,-211"/>
<text text-anchor="start" x="327.5" y="-217.8" font-family="Nimbus Sans L" font-size="14.00" fill="#000000">[URL] URL (0..*)</text>
</a>
</g>
<g id="a_node2_9"><a xlink:href="/idmef_parser/IODEFv2/RecordData.html" xlink:title="An extension mechanism for data not explicitly represented in the data model.">
<polygon fill="#ffff66" stroke="transparent" points="267.5,-190 267.5,-211 484.5,-211 484.5,-190 267.5,-190"/>
<polygon fill="none" stroke="#000000" points="267.5,-190 267.5,-211 484.5,-211 484.5,-190 267.5,-190"/>
<text text-anchor="start" x="270.5" y="-196.8" font-family="Nimbus Sans L" font-size="14.00" fill="#000000">[EXTENSION] AdditionalData (0..*)</text>
</a>
</g>
<g id="a_node2_10"><a xlink:href="/idmef_parser/IODEFv2/RecordData.html" xlink:title="See Section 3.3.1.">
<polygon fill="#ffff66" stroke="transparent" points="267.5,-169 267.5,-190 484.5,-190 484.5,-169 267.5,-169"/>
<polygon fill="none" stroke="#000000" points="267.5,-169 267.5,-190 484.5,-190 484.5,-169 267.5,-169"/>
<text text-anchor="start" x="303" y="-175.8" font-family="Nimbus Sans L" font-size="14.00" fill="#000000">[ENUM] restriction (0..1)</text>
</a>
</g>
<g id="a_node2_11"><a xlink:href="/idmef_parser/IODEFv2/RecordData.html" xlink:title="A means by which to extend the restriction attribute. &#160;See Section 5.1.1.">
<polygon fill="#ffff66" stroke="transparent" points="267.5,-148 267.5,-169 484.5,-169 484.5,-148 267.5,-148"/>
<polygon fill="none" stroke="#000000" points="267.5,-148 267.5,-169 484.5,-169 484.5,-148 267.5,-148"/>
<text text-anchor="start" x="287" y="-154.8" font-family="Nimbus Sans L" font-size="14.00" fill="#000000">[STRING] ext&#45;restriction (0..1)</text>
</a>
</g>
<g id="a_node2_12"><a xlink:href="/idmef_parser/IODEFv2/RecordData.html" xlink:title="See Section 3.3.2.">
<polygon fill="#ffff66" stroke="transparent" points="267.5,-127 267.5,-148 484.5,-148 484.5,-127 267.5,-127"/>
<polygon fill="none" stroke="#000000" points="267.5,-127 267.5,-148 484.5,-148 484.5,-127 267.5,-127"/>
<text text-anchor="start" x="305" y="-133.8" font-family="Nimbus Sans L" font-size="14.00" fill="#000000">[ID] observable&#45;id (0..1)</text>
</a>
</g>
</g>
<!-- Record&#45;&gt;RecordData -->
<g id="edge12" class="edge">
<title>Record&#45;&gt;RecordData</title>
<path fill="none" stroke="#000000" d="M200.2412,-232C216.0398,-232 232.5511,-232 248.8536,-232"/>
<polygon fill="#000000" stroke="#000000" points="248.969,-235.5001 258.9689,-232 248.9689,-228.5001 248.969,-235.5001"/>
<text text-anchor="middle" x="229.5" y="-235.8" font-family="Times,serif" font-size="14.00" fill="#000000">1..*</text>
</g>
<!-- RecordPattern -->
<g id="node3" class="node">
<title>RecordPattern</title>
<g id="a_node3_13"><a xlink:href="/idmef_parser/IODEFv2/RecordPattern.html" xlink:title="The RecordPattern class describes where in the log data provided or referenced in the RecordData class relevant information can be found. It provides a way to reference subsets of information, identified by a pattern, in a large log file, audit trail, or forensic data. ">
<polygon fill="#cccc52" stroke="transparent" points="609.5,-337 609.5,-358 702.5,-358 702.5,-337 609.5,-337"/>
<polygon fill="none" stroke="#000000" points="609.5,-337 609.5,-358 702.5,-358 702.5,-337 609.5,-337"/>
<text text-anchor="start" x="612.5" y="-343.8" font-family="Nimbus Sans L" font-size="14.00" fill="#000000">RecordPattern</text>
</a>
</g>
</g>
<!-- RecordData&#45;&gt;RecordPattern -->
<g id="edge1" class="edge">
<title>RecordData&#45;&gt;RecordPattern</title>
<path fill="none" stroke="#000000" d="M492.3981,-295.6618C511.666,-304.8766 531.6644,-313.698 551,-321 563.642,-325.7742 577.4543,-330.0012 590.7744,-333.6105"/>
<polygon fill="#000000" stroke="#000000" points="590.276,-337.0981 600.8368,-336.2489 592.0515,-330.327 590.276,-337.0981"/>
<text text-anchor="middle" x="521.5" y="-316.8" font-family="Times,serif" font-size="14.00" fill="#000000">0..*</text>
</g>
<!-- FileData -->
<g id="node4" class="node">
<title>FileData</title>
<g id="a_node4_14"><a xlink:href="/idmef_parser/IODEFv2/FileData.html" xlink:title="The FileData class describes a file or set of files. ">
<polygon fill="#cecece" stroke="transparent" points="563.5,-287 563.5,-308 747.5,-308 747.5,-287 563.5,-287"/>
<polygon fill="none" stroke="#000000" points="563.5,-287 563.5,-308 747.5,-308 747.5,-287 563.5,-287"/>
<text text-anchor="start" x="630" y="-293.8" font-family="Nimbus Sans L" font-size="14.00" fill="#000000">FileData</text>
</a>
</g>
<g id="a_node4_15"><a xlink:href="/idmef_parser/IODEFv2/FileData.html" xlink:title="See Section 3.3.1.">
<polygon fill="none" stroke="#000000" points="563.5,-266 563.5,-287 747.5,-287 747.5,-266 563.5,-266"/>
<text text-anchor="start" x="582.5" y="-272.8" font-family="Nimbus Sans L" font-size="14.00" fill="#000000">[ENUM] restriction (0..1)</text>
</a>
</g>
<g id="a_node4_16"><a xlink:href="/idmef_parser/IODEFv2/FileData.html" xlink:title="A means by which to extend the restriction attribute. &#160;See Section 5.1.1.">
<polygon fill="none" stroke="#000000" points="563.5,-245 563.5,-266 747.5,-266 747.5,-245 563.5,-245"/>
<text text-anchor="start" x="566.5" y="-251.8" font-family="Nimbus Sans L" font-size="14.00" fill="#000000">[STRING] ext&#45;restriction (0..1)</text>
</a>
</g>
<g id="a_node4_17"><a xlink:href="/idmef_parser/IODEFv2/FileData.html" xlink:title="See Section 3.3.2.">
<polygon fill="none" stroke="#000000" points="563.5,-224 563.5,-245 747.5,-245 747.5,-224 563.5,-224"/>
<text text-anchor="start" x="584.5" y="-230.8" font-family="Nimbus Sans L" font-size="14.00" fill="#000000">[ID] observable&#45;id (0..1)</text>
</a>
</g>
</g>
<!-- RecordData&#45;&gt;FileData -->
<g id="edge7" class="edge">
<title>RecordData&#45;&gt;FileData</title>
<path fill="none" stroke="#000000" d="M492.2177,-246.1729C509.779,-248.3053 527.8431,-250.4988 545.2627,-252.614"/>
<polygon fill="#000000" stroke="#000000" points="545.0869,-256.1183 555.4359,-253.8494 545.9308,-249.1694 545.0869,-256.1183"/>
<text text-anchor="middle" x="521.5" y="-254.8" font-family="Times,serif" font-size="14.00" fill="#000000">0..1</text>
</g>
<!-- WindowsRegistryKeysModified -->
<g id="node10" class="node">
<title>WindowsRegistryKeysModified</title>
<g id="a_node10_18"><a xlink:href="/idmef_parser/IODEFv2/WindowsRegistryKeysModified.html" xlink:title="The WindowsRegistryKeysModified class describes Windows operating system registry keys and the operations that were performed on them. This class was derived from [RFC5901]. ">
<polygon fill="#cecece" stroke="transparent" points="559.5,-177 559.5,-198 752.5,-198 752.5,-177 559.5,-177"/>
<polygon fill="none" stroke="#000000" points="559.5,-177 559.5,-198 752.5,-198 752.5,-177 559.5,-177"/>
<text text-anchor="start" x="562.5" y="-183.8" font-family="Nimbus Sans L" font-size="14.00" fill="#000000">WindowsRegistryKeysModified</text>
</a>
</g>
<g id="a_node10_19"><a xlink:href="/idmef_parser/IODEFv2/WindowsRegistryKeysModified.html" xlink:title="See Section 3.3.2.">
<polygon fill="none" stroke="#000000" points="559.5,-156 559.5,-177 752.5,-177 752.5,-156 559.5,-156"/>
<text text-anchor="start" x="585" y="-162.8" font-family="Nimbus Sans L" font-size="14.00" fill="#000000">[ID] observable&#45;id (0..1)</text>
</a>
</g>
</g>
<!-- RecordData&#45;&gt;WindowsRegistryKeysModified -->
<g id="edge9" class="edge">
<title>RecordData&#45;&gt;WindowsRegistryKeysModified</title>
<path fill="none" stroke="#000000" d="M492.2177,-209.0733C508.2479,-205.9245 524.6971,-202.6934 540.6927,-199.5514"/>
<polygon fill="#000000" stroke="#000000" points="541.4479,-202.9701 550.5857,-197.6082 540.0986,-196.1013 541.4479,-202.9701"/>
<text text-anchor="middle" x="521.5" y="-207.8" font-family="Times,serif" font-size="14.00" fill="#000000">0..*</text>
</g>
<!-- CertificateData -->
<g id="node12" class="node">
<title>CertificateData</title>
<g id="a_node12_20"><a xlink:href="/idmef_parser/IODEFv2/CertificateData.html" xlink:title="The CertificateData class describes X.509 certificates. ">
<polygon fill="#cecece" stroke="transparent" points="563.5,-88 563.5,-109 747.5,-109 747.5,-88 563.5,-88"/>
<polygon fill="none" stroke="#000000" points="563.5,-88 563.5,-109 747.5,-109 747.5,-88 563.5,-88"/>
<text text-anchor="start" x="610" y="-94.8" font-family="Nimbus Sans L" font-size="14.00" fill="#000000">CertificateData</text>
</a>
</g>
<g id="a_node12_21"><a xlink:href="/idmef_parser/IODEFv2/CertificateData.html" xlink:title="See Section 3.3.1.">
<polygon fill="none" stroke="#000000" points="563.5,-67 563.5,-88 747.5,-88 747.5,-67 563.5,-67"/>
<text text-anchor="start" x="582.5" y="-73.8" font-family="Nimbus Sans L" font-size="14.00" fill="#000000">[ENUM] restriction (0..1)</text>
</a>
</g>
<g id="a_node12_22"><a xlink:href="/idmef_parser/IODEFv2/CertificateData.html" xlink:title="A means by which to extend the restriction attribute. &#160;See Section 5.1.1.">
<polygon fill="none" stroke="#000000" points="563.5,-46 563.5,-67 747.5,-67 747.5,-46 563.5,-46"/>
<text text-anchor="start" x="566.5" y="-52.8" font-family="Nimbus Sans L" font-size="14.00" fill="#000000">[STRING] ext&#45;restriction (0..1)</text>
</a>
</g>
<g id="a_node12_23"><a xlink:href="/idmef_parser/IODEFv2/CertificateData.html" xlink:title="See Section 3.3.2.">
<polygon fill="none" stroke="#000000" points="563.5,-25 563.5,-46 747.5,-46 747.5,-25 563.5,-25"/>
<text text-anchor="start" x="584.5" y="-31.8" font-family="Nimbus Sans L" font-size="14.00" fill="#000000">[ID] observable&#45;id (0..1)</text>
</a>
</g>
</g>
<!-- RecordData&#45;&gt;CertificateData -->
<g id="edge11" class="edge">
<title>RecordData&#45;&gt;CertificateData</title>
<path fill="none" stroke="#000000" d="M492.2177,-163.2199C517.7437,-148.1778 544.3321,-132.5097 568.4592,-118.2919"/>
<polygon fill="#000000" stroke="#000000" points="570.3918,-121.2156 577.2303,-113.1232 566.8379,-115.1848 570.3918,-121.2156"/>
<text text-anchor="middle" x="521.5" y="-152.8" font-family="Times,serif" font-size="14.00" fill="#000000">0..*</text>
</g>
<!-- File -->
<g id="node5" class="node">
<title>File</title>
<g id="a_node5_24"><a xlink:href="/idmef_parser/IODEFv2/File.html" xlink:title="The File class describes a file; its associated metadata; and cryptographic hashes and signatures applied to it. ">
<polygon fill="#cecece" stroke="transparent" points="827,-413 827,-434 1077,-434 1077,-413 827,-413"/>
<polygon fill="none" stroke="#000000" points="827,-413 827,-434 1077,-434 1077,-413 827,-413"/>
<text text-anchor="start" x="941" y="-419.8" font-family="Nimbus Sans L" font-size="14.00" fill="#000000">File</text>
</a>
</g>
<g id="a_node5_25"><a xlink:href="/idmef_parser/IODEFv2/File.html" xlink:title="The name of the file.">
<polygon fill="none" stroke="#000000" points="827,-392 827,-413 1077,-413 1077,-392 827,-392"/>
<text text-anchor="start" x="873.5" y="-398.8" font-family="Nimbus Sans L" font-size="14.00" fill="#000000">[STRING] FileName (0..1)</text>
</a>
</g>
<g id="a_node5_26"><a xlink:href="/idmef_parser/IODEFv2/File.html" xlink:title="The size of the file in bytes.">
<polygon fill="none" stroke="#000000" points="827,-371 827,-392 1077,-392 1077,-371 827,-371"/>
<text text-anchor="start" x="874" y="-377.8" font-family="Nimbus Sans L" font-size="14.00" fill="#000000">[INTEGER] FileSize (0..1)</text>
</a>
</g>
<g id="a_node5_27"><a xlink:href="/idmef_parser/IODEFv2/File.html" xlink:title="The type of file per the IANA &quot;Media Types&quot; registry [IANA.Media]. &#160;Valid values correspond to the text in the &quot;Template&quot; column (e.g., &quot;application/pdf&quot;).">
<polygon fill="none" stroke="#000000" points="827,-350 827,-371 1077,-371 1077,-350 827,-350"/>
<text text-anchor="start" x="878" y="-356.8" font-family="Nimbus Sans L" font-size="14.00" fill="#000000">[STRING] FileType (0..1)</text>
</a>
</g>
<g id="a_node5_28"><a xlink:href="/idmef_parser/IODEFv2/File.html" xlink:title="A URL reference to the file.">
<polygon fill="none" stroke="#000000" points="827,-329 827,-350 1077,-350 1077,-329 827,-329"/>
<text text-anchor="start" x="903.5" y="-335.8" font-family="Nimbus Sans L" font-size="14.00" fill="#000000">[URL] URL (0..*)</text>
</a>
</g>
<g id="a_node5_29"><a xlink:href="/idmef_parser/IODEFv2/File.html" xlink:title="The software application or operating system to which this file belongs or by which it can be processed.">
<polygon fill="none" stroke="#000000" points="827,-308 827,-329 1077,-329 1077,-308 827,-308"/>
<text text-anchor="start" x="830" y="-314.8" font-family="Nimbus Sans L" font-size="14.00" fill="#000000">[SOFTWARE] AssociatedSoftware (0..1)</text>
</a>
</g>
<g id="a_node5_30"><a xlink:href="/idmef_parser/IODEFv2/File.html" xlink:title="Mechanism by which to extend the data model to describe properties of the file.">
<polygon fill="none" stroke="#000000" points="827,-287 827,-308 1077,-308 1077,-287 827,-287"/>
<text text-anchor="start" x="848.5" y="-293.8" font-family="Nimbus Sans L" font-size="14.00" fill="#000000">[EXTENSION] FileProperties (0..*)</text>
</a>
</g>
<g id="a_node5_31"><a xlink:href="/idmef_parser/IODEFv2/File.html" xlink:title="See Section 3.3.2.">
<polygon fill="none" stroke="#000000" points="827,-266 827,-287 1077,-287 1077,-266 827,-266"/>
<text text-anchor="start" x="881" y="-272.8" font-family="Nimbus Sans L" font-size="14.00" fill="#000000">[ID] observable&#45;id (0..1)</text>
</a>
</g>
</g>
<!-- FileData&#45;&gt;File -->
<g id="edge6" class="edge">
<title>FileData&#45;&gt;File</title>
<path fill="none" stroke="#000000" d="M755.8814,-294.4386C772.9624,-299.2777 790.9932,-304.3859 808.923,-309.4655"/>
<polygon fill="#000000" stroke="#000000" points="808.2916,-312.9243 818.8669,-312.2827 810.1996,-306.1894 808.2916,-312.9243"/>
<text text-anchor="middle" x="789.5" y="-308.8" font-family="Times,serif" font-size="14.00" fill="#000000">1..*</text>
</g>
<!-- HashData -->
<g id="node6" class="node">
<title>HashData</title>
<g id="a_node6_32"><a xlink:href="/idmef_parser/IODEFv2/HashData.html" xlink:title="The HashData class describes different types of hashes on a given object (e.g., file, part of a file, email). ">
<polygon fill="#cecece" stroke="transparent" points="1152.5,-410 1152.5,-431 1339.5,-431 1339.5,-410 1152.5,-410"/>
<polygon fill="none" stroke="#000000" points="1152.5,-410 1152.5,-431 1339.5,-431 1339.5,-410 1152.5,-410"/>
<text text-anchor="start" x="1215.5" y="-416.8" font-family="Nimbus Sans L" font-size="14.00" fill="#000000">HashData</text>
</a>
</g>
<g id="a_node6_33"><a xlink:href="/idmef_parser/IODEFv2/HashData.html" xlink:title="An identifier that references a subset of the object being hashed. &#160;The semantics of this identifier are specified by the scope attribute.">
<polygon fill="none" stroke="#000000" points="1152.5,-389 1152.5,-410 1339.5,-410 1339.5,-389 1152.5,-389"/>
<text text-anchor="start" x="1155.5" y="-395.8" font-family="Nimbus Sans L" font-size="14.00" fill="#000000">[STRING] HashTargetID (0..1)</text>
</a>
</g>
<g id="a_node6_34"><a xlink:href="/idmef_parser/IODEFv2/HashData.html" xlink:title="A means by which to extend the scope attribute. &#160;See Section 5.1.1.">
<polygon fill="none" stroke="#000000" points="1152.5,-368 1152.5,-389 1339.5,-389 1339.5,-368 1152.5,-368"/>
<text text-anchor="start" x="1179" y="-374.8" font-family="Nimbus Sans L" font-size="14.00" fill="#000000">[STRING] scope (0..1)</text>
</a>
</g>
</g>
<!-- File&#45;&gt;HashData -->
<g id="edge4" class="edge">
<title>File&#45;&gt;HashData</title>
<path fill="none" stroke="#000000" d="M1085.0101,-372.6593C1101.3386,-375.441 1117.896,-378.2617 1133.8641,-380.982"/>
<polygon fill="#000000" stroke="#000000" points="1133.2773,-384.4323 1143.7231,-382.6615 1134.4529,-377.5318 1133.2773,-384.4323"/>
<text text-anchor="middle" x="1114.5" y="-382.8" font-family="Times,serif" font-size="14.00" fill="#000000">0..1</text>
</g>
<!-- SignatureData -->
<g id="node9" class="node">
<title>SignatureData</title>
<g id="a_node9_35"><a xlink:href="/idmef_parser/IODEFv2/SignatureData.html" xlink:title="The SignatureData class describes different types of digital signatures on an object. ">
<polygon fill="#cecece" stroke="transparent" points="1191.5,-321 1191.5,-342 1299.5,-342 1299.5,-321 1191.5,-321"/>
<polygon fill="none" stroke="#000000" points="1191.5,-321 1191.5,-342 1299.5,-342 1299.5,-321 1191.5,-321"/>
<text text-anchor="start" x="1202" y="-327.8" font-family="Nimbus Sans L" font-size="14.00" fill="#000000">SignatureData</text>
</a>
</g>
<g id="a_node9_36"><a xlink:href="/idmef_parser/IODEFv2/SignatureData.html" xlink:title="A given signature. &#160;See Section 4.2 of [W3C.XMLSIG].">
<polygon fill="none" stroke="#000000" points="1191.5,-300 1191.5,-321 1299.5,-321 1299.5,-300 1191.5,-300"/>
<text text-anchor="start" x="1194.5" y="-306.8" font-family="Nimbus Sans L" font-size="14.00" fill="#000000">[] Signature (1..*)</text>
</a>
</g>
</g>
<!-- File&#45;&gt;SignatureData -->
<g id="edge5" class="edge">
<title>File&#45;&gt;SignatureData</title>
<path fill="none" stroke="#000000" d="M1085.0101,-336.8576C1115.4051,-333.8544 1146.5931,-330.7727 1173.2971,-328.1342"/>
<polygon fill="#000000" stroke="#000000" points="1173.6937,-331.6121 1183.3011,-327.1457 1173.0053,-324.6461 1173.6937,-331.6121"/>
<text text-anchor="middle" x="1114.5" y="-337.8" font-family="Times,serif" font-size="14.00" fill="#000000">0..1</text>
</g>
<!-- Hash -->
<g id="node7" class="node">
<title>Hash</title>
<g id="a_node7_37"><a xlink:href="/idmef_parser/IODEFv2/Hash.html" xlink:title="The Hash class describes a cryptographic hash value; the algorithm and application used to generate it; and the canonicalization method applied to the object being hashed. ">
<polygon fill="#cecece" stroke="transparent" points="1430.5,-460 1430.5,-481 1626.5,-481 1626.5,-460 1430.5,-460"/>
<polygon fill="none" stroke="#000000" points="1430.5,-460 1430.5,-481 1626.5,-481 1626.5,-460 1430.5,-460"/>
<text text-anchor="start" x="1512.5" y="-466.8" font-family="Nimbus Sans L" font-size="14.00" fill="#000000">Hash</text>
</a>
</g>
<g id="a_node7_38"><a xlink:href="/idmef_parser/IODEFv2/Hash.html" xlink:title="The canonicalization method used on the object being hashed. &#160;See Section 4.3.1 of [W3C.XMLSIG].">
<polygon fill="none" stroke="#000000" points="1430.5,-439 1430.5,-460 1626.5,-460 1626.5,-439 1430.5,-439"/>
<text text-anchor="start" x="1505" y="-445.8" font-family="Nimbus Sans L" font-size="14.00" fill="#000000">[] &#160;(0..1)</text>
</a>
</g>
<g id="a_node7_39"><a xlink:href="/idmef_parser/IODEFv2/Hash.html" xlink:title="The application used to calculate the hash.">
<polygon fill="none" stroke="#000000" points="1430.5,-418 1430.5,-439 1626.5,-439 1626.5,-418 1430.5,-418"/>
<text text-anchor="start" x="1433.5" y="-424.8" font-family="Nimbus Sans L" font-size="14.00" fill="#000000">[SOFTWARE] Application (0..1)</text>
</a>
</g>
</g>
<!-- HashData&#45;&gt;Hash -->
<g id="edge2" class="edge">
<title>HashData&#45;&gt;Hash</title>
<path fill="none" stroke="#000000" d="M1347.2697,-417.9805C1368.432,-421.7194 1390.8845,-425.6863 1412.5143,-429.5078"/>
<polygon fill="#000000" stroke="#000000" points="1411.9304,-432.9588 1422.3869,-431.2521 1413.1484,-426.0656 1411.9304,-432.9588"/>
<text text-anchor="middle" x="1376.5" y="-428.8" font-family="Times,serif" font-size="14.00" fill="#000000">0..*</text>
</g>
<!-- FuzzyHash -->
<g id="node8" class="node">
<title>FuzzyHash</title>
<g id="a_node8_40"><a xlink:href="/idmef_parser/IODEFv2/FuzzyHash.html" xlink:title="The FuzzyHash class describes a fuzzy hash and the application used to generate it. ">
<polygon fill="#cecece" stroke="transparent" points="1414.5,-371 1414.5,-392 1643.5,-392 1643.5,-371 1414.5,-371"/>
<polygon fill="none" stroke="#000000" points="1414.5,-371 1414.5,-392 1643.5,-392 1643.5,-371 1414.5,-371"/>
<text text-anchor="start" x="1495.5" y="-377.8" font-family="Nimbus Sans L" font-size="14.00" fill="#000000">FuzzyHash</text>
</a>
</g>
<g id="a_node8_41"><a xlink:href="/idmef_parser/IODEFv2/FuzzyHash.html" xlink:title="The computed fuzzy hash value.">
<polygon fill="none" stroke="#000000" points="1414.5,-350 1414.5,-371 1643.5,-371 1643.5,-350 1414.5,-350"/>
<text text-anchor="start" x="1417.5" y="-356.8" font-family="Nimbus Sans L" font-size="14.00" fill="#000000">[EXTENSION] FuzzyHashValue (1..*)</text>
</a>
</g>
<g id="a_node8_42"><a xlink:href="/idmef_parser/IODEFv2/FuzzyHash.html" xlink:title="The application used to calculate the hash.">
<polygon fill="none" stroke="#000000" points="1414.5,-329 1414.5,-350 1643.5,-350 1643.5,-329 1414.5,-329"/>
<text text-anchor="start" x="1434" y="-335.8" font-family="Nimbus Sans L" font-size="14.00" fill="#000000">[SOFTWARE] Application (0..1)</text>
</a>
</g>
<g id="a_node8_43"><a xlink:href="/idmef_parser/IODEFv2/FuzzyHash.html" xlink:title="Mechanism by which to extend the data model.">
<polygon fill="none" stroke="#000000" points="1414.5,-308 1414.5,-329 1643.5,-329 1643.5,-308 1414.5,-308"/>
<text text-anchor="start" x="1423.5" y="-314.8" font-family="Nimbus Sans L" font-size="14.00" fill="#000000">[EXTENSION] AdditionalData (0..*)</text>
</a>
</g>
</g>
<!-- HashData&#45;&gt;FuzzyHash -->
<g id="edge3" class="edge">
<title>HashData&#45;&gt;FuzzyHash</title>
<path fill="none" stroke="#000000" d="M1347.2697,-382.0195C1363.017,-379.2373 1379.4787,-376.3289 1395.7842,-373.448"/>
<polygon fill="#000000" stroke="#000000" points="1396.6703,-376.8458 1405.9088,-371.6592 1395.4523,-369.9525 1396.6703,-376.8458"/>
<text text-anchor="middle" x="1376.5" y="-380.8" font-family="Times,serif" font-size="14.00" fill="#000000">0..*</text>
</g>
<!-- Key -->
<g id="node11" class="node">
<title>Key</title>
<g id="a_node11_44"><a xlink:href="/idmef_parser/IODEFv2/Key.html" xlink:title="The Key class describes a Windows operating system registry key name and value pair, as well as the operation performed on it. ">
<polygon fill="#cecece" stroke="transparent" points="849,-219 849,-240 1055,-240 1055,-219 849,-219"/>
<polygon fill="none" stroke="#000000" points="849,-219 849,-240 1055,-240 1055,-219 849,-219"/>
<text text-anchor="start" x="940.5" y="-225.8" font-family="Nimbus Sans L" font-size="14.00" fill="#000000">Key</text>
</a>
</g>
<g id="a_node11_45"><a xlink:href="/idmef_parser/IODEFv2/Key.html" xlink:title="The name of a Windows operating system registry key (e.g., [HKEY_LOCAL_MACHINE\Software\Test\KeyName]).">
<polygon fill="none" stroke="#000000" points="849,-198 849,-219 1055,-219 1055,-198 849,-198"/>
<text text-anchor="start" x="873.5" y="-204.8" font-family="Nimbus Sans L" font-size="14.00" fill="#000000">[STRING] KeyName (1..1)</text>
</a>
</g>
<g id="a_node11_46"><a xlink:href="/idmef_parser/IODEFv2/Key.html" xlink:title="The value of the registry key identified in the KeyName class encoded per the .reg file format [KB310516].">
<polygon fill="none" stroke="#000000" points="849,-177 849,-198 1055,-198 1055,-177 849,-177"/>
<text text-anchor="start" x="875" y="-183.8" font-family="Nimbus Sans L" font-size="14.00" fill="#000000">[STRING] KeyValue (0..1)</text>
</a>
</g>
<g id="a_node11_47"><a xlink:href="/idmef_parser/IODEFv2/Key.html" xlink:title="The type of action taken on the registry key. These values are maintained in the &quot;Key&#45;registryaction&quot; IANA registry per Section 10.2.">
<polygon fill="none" stroke="#000000" points="849,-156 849,-177 1055,-177 1055,-156 849,-156"/>
<text text-anchor="start" x="868" y="-162.8" font-family="Nimbus Sans L" font-size="14.00" fill="#000000">[ENUM] registryaction (0..1)</text>
</a>
</g>
<g id="a_node11_48"><a xlink:href="/idmef_parser/IODEFv2/Key.html" xlink:title="A means by which to extend the registryaction attribute. &#160;See Section 5.1.1.">
<polygon fill="none" stroke="#000000" points="849,-135 849,-156 1055,-156 1055,-135 849,-135"/>
<text text-anchor="start" x="852" y="-141.8" font-family="Nimbus Sans L" font-size="14.00" fill="#000000">[STRING] ext&#45;registryaction (0..1)</text>
</a>
</g>
<g id="a_node11_49"><a xlink:href="/idmef_parser/IODEFv2/Key.html" xlink:title="See Section 3.3.2.">
<polygon fill="none" stroke="#000000" points="849,-114 849,-135 1055,-135 1055,-114 849,-114"/>
<text text-anchor="start" x="881" y="-120.8" font-family="Nimbus Sans L" font-size="14.00" fill="#000000">[ID] observable&#45;id (0..1)</text>
</a>
</g>
</g>
<!-- WindowsRegistryKeysModified&#45;&gt;Key -->
<g id="edge8" class="edge">
<title>WindowsRegistryKeysModified&#45;&gt;Key</title>
<path fill="none" stroke="#000000" d="M760.0348,-177C782.9389,-177 807.3719,-177 830.8644,-177"/>
<polygon fill="#000000" stroke="#000000" points="830.8679,-180.5001 840.8678,-177 830.8678,-173.5001 830.8679,-180.5001"/>
<text text-anchor="middle" x="789.5" y="-180.8" font-family="Times,serif" font-size="14.00" fill="#000000">1..*</text>
</g>
<!-- Certificate -->
<g id="node13" class="node">
<title>Certificate</title>
<g id="a_node13_50"><a xlink:href="/idmef_parser/IODEFv2/Certificate.html" xlink:title="The Certificate class describes a given X.509 certificate or certificate chain. ">
<polygon fill="#cecece" stroke="transparent" points="854,-67 854,-88 1050,-88 1050,-67 854,-67"/>
<polygon fill="none" stroke="#000000" points="854,-67 854,-88 1050,-88 1050,-67 854,-67"/>
<text text-anchor="start" x="921" y="-73.8" font-family="Nimbus Sans L" font-size="14.00" fill="#000000">Certificate</text>
</a>
</g>
<g id="a_node13_51"><a xlink:href="/idmef_parser/IODEFv2/Certificate.html" xlink:title="A given X.509 certificate or chain. &#160;See Section 4.4.4 of [W3C.XMLSIG].">
<polygon fill="none" stroke="#000000" points="854,-46 854,-67 1050,-67 1050,-46 854,-46"/>
<text text-anchor="start" x="928.5" y="-52.8" font-family="Nimbus Sans L" font-size="14.00" fill="#000000">[] &#160;(1..1)</text>
</a>
</g>
<g id="a_node13_52"><a xlink:href="/idmef_parser/IODEFv2/Certificate.html" xlink:title="A free&#45;form text description explaining the context of this certificate.">
<polygon fill="none" stroke="#000000" points="854,-25 854,-46 1050,-46 1050,-25 854,-25"/>
<text text-anchor="start" x="857" y="-31.8" font-family="Nimbus Sans L" font-size="14.00" fill="#000000">[ML_STRING] Description (0..*)</text>
</a>
</g>
<g id="a_node13_53"><a xlink:href="/idmef_parser/IODEFv2/Certificate.html" xlink:title="See Section 3.3.2.">
<polygon fill="none" stroke="#000000" points="854,-4 854,-25 1050,-25 1050,-4 854,-4"/>
<text text-anchor="start" x="881" y="-10.8" font-family="Nimbus Sans L" font-size="14.00" fill="#000000">[ID] observable&#45;id (0..1)</text>
</a>
</g>
</g>
<!-- CertificateData&#45;&gt;Certificate -->
<g id="edge10" class="edge">
<title>CertificateData&#45;&gt;Certificate</title>
<path fill="none" stroke="#000000" d="M755.8814,-59.8904C781.5788,-58.0703 809.4257,-56.098 835.8444,-54.2269"/>
<polygon fill="#000000" stroke="#000000" points="836.1645,-57.7131 845.8922,-53.5152 835.6699,-50.7306 836.1645,-57.7131"/>
<text text-anchor="middle" x="789.5" y="-61.8" font-family="Times,serif" font-size="14.00" fill="#000000">1..*</text>
</g>
</g>
</svg>
