<?xml version="1.0" encoding="UTF-8" standalone="no"?>
<!DOCTYPE svg PUBLIC "-//W3C//DTD SVG 1.1//EN"
 "http://www.w3.org/Graphics/SVG/1.1/DTD/svg11.dtd">
<!-- Generated by graphviz version 2.40.1 (0)
 -->
<!-- Title: Reference Pages: 1 -->
<svg width="220pt" height="121pt"
 viewBox="0.00 0.00 220.00 121.00" xmlns="http://www.w3.org/2000/svg" xmlns:xlink="http://www.w3.org/1999/xlink">
<g id="graph0" class="graph" transform="scale(1 1) rotate(0) translate(4 117)">
<title>Reference</title>
<polygon fill="#ffffff" stroke="transparent" points="-4,4 -4,-117 216,-117 216,4 -4,4"/>
<!-- Reference -->
<g id="node1" class="node">
<title>Reference</title>
<g id="a_node1_0"><a xlink:href="/html/IODEFv2/Reference.html" xlink:title="The Reference class is an external reference to relevant information such as a vulnerability, IDS alert, malware sample, advisory, or attack technique. ">
<polygon fill="#92765a" stroke="transparent" points="8,-87.5 8,-108.5 204,-108.5 204,-87.5 8,-87.5"/>
<polygon fill="none" stroke="#000000" points="8,-87.5 8,-108.5 204,-108.5 204,-87.5 8,-87.5"/>
<text text-anchor="start" x="74.5" y="-94.3" font-family="Nimbus Sans L" font-size="14.00" fill="#000000">Reference</text>
</a>
</g>
<g id="a_node1_1"><a xlink:href="/html/IODEFv2/Reference.html" xlink:title="Reference identifier per [RFC7495].">
<polygon fill="#b79370" stroke="transparent" points="8,-66.5 8,-87.5 204,-87.5 204,-66.5 8,-66.5"/>
<polygon fill="none" stroke="#000000" points="8,-66.5 8,-87.5 204,-87.5 204,-66.5 8,-66.5"/>
<text text-anchor="start" x="82.5" y="-73.3" font-family="Nimbus Sans L" font-size="14.00" fill="#000000">[] &#160;(0..1)</text>
</a>
</g>
<g id="a_node1_2"><a xlink:href="/html/IODEFv2/Reference.html" xlink:title="A URL to a reference.">
<polygon fill="#b79370" stroke="transparent" points="8,-45.5 8,-66.5 204,-66.5 204,-45.5 8,-45.5"/>
<polygon fill="none" stroke="#000000" points="8,-45.5 8,-66.5 204,-66.5 204,-45.5 8,-45.5"/>
<text text-anchor="start" x="57.5" y="-52.3" font-family="Nimbus Sans L" font-size="14.00" fill="#000000">[URL] URL (0..*)</text>
</a>
</g>
<g id="a_node1_3"><a xlink:href="/html/IODEFv2/Reference.html" xlink:title="A free&#45;form text description of this reference.">
<polygon fill="#b79370" stroke="transparent" points="8,-24.5 8,-45.5 204,-45.5 204,-24.5 8,-24.5"/>
<polygon fill="none" stroke="#000000" points="8,-24.5 8,-45.5 204,-45.5 204,-24.5 8,-24.5"/>
<text text-anchor="start" x="11" y="-31.3" font-family="Nimbus Sans L" font-size="14.00" fill="#000000">[ML_STRING] Description (0..*)</text>
</a>
</g>
<g id="a_node1_4"><a xlink:href="/html/IODEFv2/Reference.html" xlink:title="See Section 3.3.2.">
<polygon fill="#b79370" stroke="transparent" points="8,-3.5 8,-24.5 204,-24.5 204,-3.5 8,-3.5"/>
<polygon fill="none" stroke="#000000" points="8,-3.5 8,-24.5 204,-24.5 204,-3.5 8,-3.5"/>
<text text-anchor="start" x="35" y="-10.3" font-family="Nimbus Sans L" font-size="14.00" fill="#000000">[ID] observable&#45;id (0..1)</text>
</a>
</g>
</g>
</g>
</svg>
