<?xml version="1.0" encoding="UTF-8" standalone="no"?>
<!DOCTYPE svg PUBLIC "-//W3C//DTD SVG 1.1//EN"
 "http://www.w3.org/Graphics/SVG/1.1/DTD/svg11.dtd">
<!-- Generated by graphviz version 2.40.1 (0)
 -->
<!-- Title: Telephone Pages: 1 -->
<svg width="236pt" height="121pt"
 viewBox="0.00 0.00 236.00 121.00" xmlns="http://www.w3.org/2000/svg" xmlns:xlink="http://www.w3.org/1999/xlink">
<g id="graph0" class="graph" transform="scale(1 1) rotate(0) translate(4 117)">
<title>Telephone</title>
<polygon fill="#ffffff" stroke="transparent" points="-4,4 -4,-117 232,-117 232,4 -4,4"/>
<!-- Telephone -->
<g id="node1" class="node">
<title>Telephone</title>
<g id="a_node1_0"><a xlink:href="/idmef_parser/IODEFv2/Telephone.html" xlink:title="The Telephone class describes a telephone number and associated annotation. ">
<polygon fill="#cecece" stroke="transparent" points="8,-87.5 8,-108.5 220,-108.5 220,-87.5 8,-87.5"/>
<polygon fill="none" stroke="#000000" points="8,-87.5 8,-108.5 220,-108.5 220,-87.5 8,-87.5"/>
<text text-anchor="start" x="82.5" y="-94.3" font-family="Nimbus Sans L" font-size="14.00" fill="#000000">Telephone</text>
</a>
</g>
<g id="a_node1_1"><a xlink:href="/idmef_parser/IODEFv2/Telephone.html" xlink:title="A telephone number.">
<polygon fill="none" stroke="#000000" points="8,-66.5 8,-87.5 220,-87.5 220,-66.5 8,-66.5"/>
<text text-anchor="start" x="11" y="-73.3" font-family="Nimbus Sans L" font-size="14.00" fill="#000000">[PHONE] TelephoneNumber (1..1)</text>
</a>
</g>
<g id="a_node1_2"><a xlink:href="/idmef_parser/IODEFv2/Telephone.html" xlink:title="A free&#45;form text description of the phone number.">
<polygon fill="none" stroke="#000000" points="8,-45.5 8,-66.5 220,-66.5 220,-45.5 8,-45.5"/>
<text text-anchor="start" x="19" y="-52.3" font-family="Nimbus Sans L" font-size="14.00" fill="#000000">[ML_STRING] Description (0..*)</text>
</a>
</g>
<g id="a_node1_3"><a xlink:href="/idmef_parser/IODEFv2/Telephone.html" xlink:title="Categorizes the type of telephone number described in the TelephoneNumber class. &#160;These values are maintained in the &quot;Telephone&#45;type&quot; IANA registry per Section 10.2.">
<polygon fill="none" stroke="#000000" points="8,-24.5 8,-45.5 220,-45.5 220,-24.5 8,-24.5"/>
<text text-anchor="start" x="57.5" y="-31.3" font-family="Nimbus Sans L" font-size="14.00" fill="#000000">[ENUM] type (0..1)</text>
</a>
</g>
<g id="a_node1_4"><a xlink:href="/idmef_parser/IODEFv2/Telephone.html" xlink:title="A means by which to extend the type attribute. See Section 5.1.1.">
<polygon fill="none" stroke="#000000" points="8,-3.5 8,-24.5 220,-24.5 220,-3.5 8,-3.5"/>
<text text-anchor="start" x="41.5" y="-10.3" font-family="Nimbus Sans L" font-size="14.00" fill="#000000">[STRING] ext&#45;type (0..1)</text>
</a>
</g>
</g>
</g>
</svg>
