<?xml version="1.0" encoding="UTF-8" standalone="no"?>
<!DOCTYPE svg PUBLIC "-//W3C//DTD SVG 1.1//EN"
 "http://www.w3.org/Graphics/SVG/1.1/DTD/svg11.dtd">
<!-- Generated by graphviz version 2.40.1 (0)
 -->
<!-- Title: System Pages: 1 -->
<svg width="798pt" height="705pt"
 viewBox="0.00 0.00 798.00 704.50" xmlns="http://www.w3.org/2000/svg" xmlns:xlink="http://www.w3.org/1999/xlink">
<g id="graph0" class="graph" transform="scale(1 1) rotate(0) translate(4 700.5)">
<title>System</title>
<polygon fill="#ffffff" stroke="transparent" points="-4,4 -4,-700.5 794,-700.5 794,4 -4,4"/>
<!-- System -->
<g id="node1" class="node">
<title>System</title>
<g id="a_node1_0"><a xlink:href="/idmef_parser/IODEF/System.html" xlink:title="The System class describes a system or network involved in an event. The systems or networks represented by this class are categorized according to the role they played in the incident through the category attribute. The value of this category attribute dictates the semantics of the aggregated classes in the System class. If the category attribute has a value of &quot;source&quot;, then the aggregated classes denote the machine and service from which the activity is originating. With a category attribute value of &quot;target&quot; or &quot;intermediary&quot;, then the machine or service is the one targeted in the activity. A value of &quot;sensor&quot; dictates that this System was part of an instrumentation to monitor the network. ">
<polygon fill="#cecece" stroke="transparent" points="8,-336 8,-357 214,-357 214,-336 8,-336"/>
<polygon fill="none" stroke="#000000" points="8,-336 8,-357 214,-357 214,-336 8,-336"/>
<text text-anchor="start" x="88" y="-342.8" font-family="Nimbus Sans L" font-size="14.00" fill="#000000">System</text>
</a>
</g>
<g id="a_node1_1"><a xlink:href="/idmef_parser/IODEF/System.html" xlink:title="A free&#45;form text description of the System.">
<polygon fill="none" stroke="#000000" points="8,-315 8,-336 214,-336 214,-315 8,-315"/>
<text text-anchor="start" x="16" y="-321.8" font-family="Nimbus Sans L" font-size="14.00" fill="#000000">[ML_STRING] Description (0..*)</text>
</a>
</g>
<g id="a_node1_2"><a xlink:href="/idmef_parser/IODEF/System.html" xlink:title="This attribute is defined in Section 3.2.">
<polygon fill="none" stroke="#000000" points="8,-294 8,-315 214,-315 214,-294 8,-294"/>
<text text-anchor="start" x="23.5" y="-300.8" font-family="Nimbus Sans L" font-size="14.00" fill="#000000">[ENUM] restriction (Optional)</text>
</a>
</g>
<g id="a_node1_3"><a xlink:href="/idmef_parser/IODEF/System.html" xlink:title="Classifies the role the host or network played in the incident. &#160;The possible values are:">
<polygon fill="none" stroke="#000000" points="8,-273 8,-294 214,-294 214,-273 8,-273"/>
<text text-anchor="start" x="25" y="-279.8" font-family="Nimbus Sans L" font-size="14.00" fill="#000000">[ENUM] category (Required)</text>
</a>
</g>
<g id="a_node1_4"><a xlink:href="/idmef_parser/IODEF/System.html" xlink:title="A means by which to extend the category attribute. &#160;See Section 5.1.">
<polygon fill="none" stroke="#000000" points="8,-252 8,-273 214,-273 214,-252 8,-252"/>
<text text-anchor="start" x="11" y="-258.8" font-family="Nimbus Sans L" font-size="14.00" fill="#000000">[STRING] ext&#45;category (Optional)</text>
</a>
</g>
<g id="a_node1_5"><a xlink:href="/idmef_parser/IODEF/System.html" xlink:title="Specifies the interface on which the event(s) on this System originated. &#160;If the Node class specifies a network rather than a host, this attribute has no meaning.">
<polygon fill="none" stroke="#000000" points="8,-231 8,-252 214,-252 214,-231 8,-231"/>
<text text-anchor="start" x="22" y="-237.8" font-family="Nimbus Sans L" font-size="14.00" fill="#000000">[STRING] interface (Optional)</text>
</a>
</g>
<g id="a_node1_6"><a xlink:href="/idmef_parser/IODEF/System.html" xlink:title="An indication of confidence in whether this System was the true target or attacking host. &#160;The permitted values for this attribute are shown below. &#160;The default value is &quot;unknown&quot;.">
<polygon fill="none" stroke="#000000" points="8,-210 8,-231 214,-231 214,-210 8,-210"/>
<text text-anchor="start" x="29" y="-216.8" font-family="Nimbus Sans L" font-size="14.00" fill="#000000">[ENUM] spoofed (Optional)</text>
</a>
</g>
</g>
<!-- Node -->
<g id="node2" class="node">
<title>Node</title>
<g id="a_node2_7"><a xlink:href="/idmef_parser/IODEF/Node.html" xlink:title="The Node class names a system (e.g., PC, router) or network. ">
<polygon fill="#cecece" stroke="transparent" points="297,-519 297,-540 494,-540 494,-519 297,-519"/>
<polygon fill="none" stroke="#000000" points="297,-519 297,-540 494,-540 494,-519 297,-519"/>
<text text-anchor="start" x="379" y="-525.8" font-family="Nimbus Sans L" font-size="14.00" fill="#000000">Node</text>
</a>
</g>
<g id="a_node2_8"><a xlink:href="/idmef_parser/IODEF/Node.html" xlink:title="The name of the Node (e.g., fully qualified domain name). &#160;This information MUST be provided if no Address information is given.">
<polygon fill="none" stroke="#000000" points="297,-498 297,-519 494,-519 494,-498 297,-498"/>
<text text-anchor="start" x="300" y="-504.8" font-family="Nimbus Sans L" font-size="14.00" fill="#000000">[ML_STRING] NodeName (0..*)</text>
</a>
</g>
<g id="a_node2_9"><a xlink:href="/idmef_parser/IODEF/Node.html" xlink:title="A free&#45;from description of the physical location of the equipment.">
<polygon fill="none" stroke="#000000" points="297,-477 297,-498 494,-498 494,-477 297,-477"/>
<text text-anchor="start" x="307.5" y="-483.8" font-family="Nimbus Sans L" font-size="14.00" fill="#000000">[ML_STRING] Location (0..1)</text>
</a>
</g>
<g id="a_node2_10"><a xlink:href="/idmef_parser/IODEF/Node.html" xlink:title="A timestamp of when the resolution between the name and address was performed. &#160;This information SHOULD be provided if both an Address and NodeName are specified.">
<polygon fill="none" stroke="#000000" points="297,-456 297,-477 494,-477 494,-456 297,-456"/>
<text text-anchor="start" x="342.5" y="-462.8" font-family="Nimbus Sans L" font-size="14.00" fill="#000000">[] DateTime (0..1)</text>
</a>
</g>
</g>
<!-- System&#45;&gt;Node -->
<g id="edge4" class="edge">
<title>System&#45;&gt;Node</title>
<path fill="none" stroke="#000000" d="M182.4855,-361.8275C200.4056,-379.3432 220.1945,-397.1295 240,-412 256.4962,-424.3857 274.9805,-436.1815 293.2808,-446.8471"/>
<polygon fill="#000000" stroke="#000000" points="291.8251,-450.0471 302.2403,-451.9897 295.3098,-443.9761 291.8251,-450.0471"/>
<text text-anchor="middle" x="251.5" y="-428.8" font-family="Times,serif" font-size="14.00" fill="#000000">1..1</text>
</g>
<!-- Counter -->
<g id="node5" class="node">
<title>Counter</title>
<g id="a_node5_11"><a xlink:href="/idmef_parser/IODEF/Counter.html" xlink:title="The Counter class summarize multiple occurrences of some event, or conveys counts or rates on various features (e.g., packets, sessions, events). ">
<polygon fill="#cecece" stroke="transparent" points="578,-429 578,-450 781,-450 781,-429 578,-429"/>
<polygon fill="none" stroke="#000000" points="578,-429 578,-450 781,-450 781,-429 578,-429"/>
<text text-anchor="start" x="655" y="-435.8" font-family="Nimbus Sans L" font-size="14.00" fill="#000000">Counter</text>
</a>
</g>
<g id="a_node5_12"><a xlink:href="/idmef_parser/IODEF/Counter.html" xlink:title="Specifies the units of the element content.">
<polygon fill="none" stroke="#000000" points="578,-408 578,-429 781,-429 781,-408 578,-408"/>
<text text-anchor="start" x="607" y="-414.8" font-family="Nimbus Sans L" font-size="14.00" fill="#000000">[ENUM] type (Required)</text>
</a>
</g>
<g id="a_node5_13"><a xlink:href="/idmef_parser/IODEF/Counter.html" xlink:title="A means by which to extend the type attribute. See Section 5.1.">
<polygon fill="none" stroke="#000000" points="578,-387 578,-408 781,-408 781,-387 578,-387"/>
<text text-anchor="start" x="592.5" y="-393.8" font-family="Nimbus Sans L" font-size="14.00" fill="#000000">[STRING] ext&#45;type (Optional)</text>
</a>
</g>
<g id="a_node5_14"><a xlink:href="/idmef_parser/IODEF/Counter.html" xlink:title="If present, the Counter class represents a rate rather than a count over the entire event. &#160;In that case, this attribute specifies the denominator of the rate (where the type attribute specified the nominator). &#160;The possible values of this attribute are defined in Section 3.10.2">
<polygon fill="none" stroke="#000000" points="578,-366 578,-387 781,-387 781,-366 578,-366"/>
<text text-anchor="start" x="597" y="-372.8" font-family="Nimbus Sans L" font-size="14.00" fill="#000000">[ENUM] duration (Optional)</text>
</a>
</g>
<g id="a_node5_15"><a xlink:href="/idmef_parser/IODEF/Counter.html" xlink:title="A means by which to extend the duration attribute. &#160;See Section 5.1.">
<polygon fill="none" stroke="#000000" points="578,-345 578,-366 781,-366 781,-345 578,-345"/>
<text text-anchor="start" x="581" y="-351.8" font-family="Nimbus Sans L" font-size="14.00" fill="#000000">[STRING] ext&#45;duration (Optional)</text>
</a>
</g>
</g>
<!-- System&#45;&gt;Counter -->
<g id="edge8" class="edge">
<title>System&#45;&gt;Counter</title>
<path fill="none" stroke="#000000" d="M222.2535,-348.9185C241.3314,-357.7037 261.3509,-365.554 281,-371 372.0437,-396.2339 479.0716,-402.2416 559.1963,-402.3481"/>
<polygon fill="#000000" stroke="#000000" points="559.3322,-405.848 569.3261,-402.3304 559.3199,-398.848 559.3322,-405.848"/>
<text text-anchor="middle" x="395" y="-404.8" font-family="Times,serif" font-size="14.00" fill="#000000">0..*</text>
</g>
<!-- Service -->
<g id="node6" class="node">
<title>Service</title>
<g id="a_node6_16"><a xlink:href="/idmef_parser/IODEF/Service.html" xlink:title="The Service class describes a network service of a host or network. The service is identified by specific port or list of ports, along with the application listening on that port. ">
<polygon fill="#cecece" stroke="transparent" points="289,-336 289,-357 501,-357 501,-336 289,-336"/>
<polygon fill="none" stroke="#000000" points="289,-336 289,-357 501,-357 501,-336 289,-336"/>
<text text-anchor="start" x="372" y="-342.8" font-family="Nimbus Sans L" font-size="14.00" fill="#000000">Service</text>
</a>
</g>
<g id="a_node6_17"><a xlink:href="/idmef_parser/IODEF/Service.html" xlink:title="A port number.">
<polygon fill="none" stroke="#000000" points="289,-315 289,-336 501,-336 501,-315 289,-315"/>
<text text-anchor="start" x="328.5" y="-321.8" font-family="Nimbus Sans L" font-size="14.00" fill="#000000">[INTEGER] Port (0..1)</text>
</a>
</g>
<g id="a_node6_18"><a xlink:href="/idmef_parser/IODEF/Service.html" xlink:title="A list of port numbers formatted according to Section 2.10.">
<polygon fill="none" stroke="#000000" points="289,-294 289,-315 501,-315 501,-294 289,-294"/>
<text text-anchor="start" x="317.5" y="-300.8" font-family="Nimbus Sans L" font-size="14.00" fill="#000000">[PORTLIST] Portlist (0..1)</text>
</a>
</g>
<g id="a_node6_19"><a xlink:href="/idmef_parser/IODEF/Service.html" xlink:title="A layer&#45;4 protocol&#45;specific code field (e.g., ICMP code field).">
<polygon fill="none" stroke="#000000" points="289,-273 289,-294 501,-294 501,-273 289,-273"/>
<text text-anchor="start" x="309" y="-279.8" font-family="Nimbus Sans L" font-size="14.00" fill="#000000">[INTEGER] ProtoCode (0..1)</text>
</a>
</g>
<g id="a_node6_20"><a xlink:href="/idmef_parser/IODEF/Service.html" xlink:title="A layer&#45;4 protocol specific type field (e.g., ICMP type field).">
<polygon fill="none" stroke="#000000" points="289,-252 289,-273 501,-273 501,-252 289,-252"/>
<text text-anchor="start" x="311.5" y="-258.8" font-family="Nimbus Sans L" font-size="14.00" fill="#000000">[INTEGER] ProtoType (0..1)</text>
</a>
</g>
<g id="a_node6_21"><a xlink:href="/idmef_parser/IODEF/Service.html" xlink:title="A layer&#45;4 protocol specific flag field (e.g., TCP flag field).">
<polygon fill="none" stroke="#000000" points="289,-231 289,-252 501,-252 501,-231 289,-231"/>
<text text-anchor="start" x="308.5" y="-237.8" font-family="Nimbus Sans L" font-size="14.00" fill="#000000">[INTEGER] ProtoFlags (0..1)</text>
</a>
</g>
<g id="a_node6_22"><a xlink:href="/idmef_parser/IODEF/Service.html" xlink:title="The IANA protocol number.">
<polygon fill="none" stroke="#000000" points="289,-210 289,-231 501,-231 501,-210 289,-210"/>
<text text-anchor="start" x="292" y="-216.8" font-family="Nimbus Sans L" font-size="14.00" fill="#000000">[INTEGER] ip_protocol (Required)</text>
</a>
</g>
</g>
<!-- System&#45;&gt;Service -->
<g id="edge6" class="edge">
<title>System&#45;&gt;Service</title>
<path fill="none" stroke="#000000" d="M222.022,-284C237.9975,-284 254.5228,-284 270.7349,-284"/>
<polygon fill="#000000" stroke="#000000" points="270.7811,-287.5001 280.781,-284 270.781,-280.5001 270.7811,-287.5001"/>
<text text-anchor="middle" x="251.5" y="-287.8" font-family="Times,serif" font-size="14.00" fill="#000000">0..*</text>
</g>
<!-- OperatingSystem -->
<g id="node8" class="node">
<title>OperatingSystem</title>
<g id="a_node8_23"><a xlink:href="/idmef_parser/IODEF/OperatingSystem.html" xlink:title="The OperatingSystem class describes the operating system running on a System. The definition is identical to the Application class (Section 3.17.1). ">
<polygon fill="#cecece" stroke="transparent" points="339,-159 339,-180 451,-180 451,-159 339,-159"/>
<polygon fill="none" stroke="#000000" points="339,-159 339,-180 451,-180 451,-159 339,-159"/>
<text text-anchor="start" x="342" y="-165.8" font-family="Nimbus Sans L" font-size="14.00" fill="#000000">OperatingSystem</text>
</a>
</g>
</g>
<!-- System&#45;&gt;OperatingSystem -->
<g id="edge7" class="edge">
<title>System&#45;&gt;OperatingSystem</title>
<path fill="none" stroke="#000000" d="M222.322,-223.1773C241.5608,-213.9765 261.6139,-205.1776 281,-198 293.7647,-193.2739 307.6285,-189.108 321.149,-185.5317"/>
<polygon fill="#000000" stroke="#000000" points="322.0931,-188.9029 330.9127,-183.0322 320.3571,-182.1216 322.0931,-188.9029"/>
<text text-anchor="middle" x="251.5" y="-216.8" font-family="Times,serif" font-size="14.00" fill="#000000">0..1</text>
</g>
<!-- AdditionalData -->
<g id="node9" class="node">
<title>AdditionalData</title>
<g id="a_node9_24"><a xlink:href="/idmef_parser/IODEF/AdditionalData.html" xlink:title="The AdditionalData class serves as an extension mechanism for information not otherwise represented in the data model. For relatively simple information, atomic data types (e.g., integers, strings) are provided with a mechanism to annotate their meaning. The class can also be used to extend the data model (and the associated Schema) to support proprietary extensions by encapsulating entire XML documents conforming to another Schema (e.g., IDMEF). A detailed discussion for extending the data model and the schema can be found in Section 5. ">
<polygon fill="#cecece" stroke="transparent" points="302,-109 302,-130 489,-130 489,-109 302,-109"/>
<polygon fill="none" stroke="#000000" points="302,-109 302,-130 489,-130 489,-109 302,-109"/>
<text text-anchor="start" x="351.5" y="-115.8" font-family="Nimbus Sans L" font-size="14.00" fill="#000000">AdditionalData</text>
</a>
</g>
<g id="a_node9_25"><a xlink:href="/idmef_parser/IODEF/AdditionalData.html" xlink:title="The data type of the element content. &#160;The permitted values for this attribute are shown below. &#160;The default value is &quot;string&quot;.">
<polygon fill="none" stroke="#000000" points="302,-88 302,-109 489,-109 489,-88 302,-88"/>
<text text-anchor="start" x="319" y="-94.8" font-family="Nimbus Sans L" font-size="14.00" fill="#000000">[ENUM] dtype (Required)</text>
</a>
</g>
<g id="a_node9_26"><a xlink:href="/idmef_parser/IODEF/AdditionalData.html" xlink:title="A means by which to extend the dtype attribute. &#160;See Section 5.1.">
<polygon fill="none" stroke="#000000" points="302,-67 302,-88 489,-88 489,-67 302,-67"/>
<text text-anchor="start" x="305" y="-73.8" font-family="Nimbus Sans L" font-size="14.00" fill="#000000">[STRING] ext&#45;dtype (Optional)</text>
</a>
</g>
<g id="a_node9_27"><a xlink:href="/idmef_parser/IODEF/AdditionalData.html" xlink:title="A free&#45;form description of the element content.">
<polygon fill="none" stroke="#000000" points="302,-46 302,-67 489,-67 489,-46 302,-46"/>
<text text-anchor="start" x="306" y="-52.8" font-family="Nimbus Sans L" font-size="14.00" fill="#000000">[STRING] meaning (Optional)</text>
</a>
</g>
<g id="a_node9_28"><a xlink:href="/idmef_parser/IODEF/AdditionalData.html" xlink:title="An identifier referencing the format and semantics of the element content.">
<polygon fill="none" stroke="#000000" points="302,-25 302,-46 489,-46 489,-25 302,-25"/>
<text text-anchor="start" x="307.5" y="-31.8" font-family="Nimbus Sans L" font-size="14.00" fill="#000000">[STRING] formatid (Optional)</text>
</a>
</g>
<g id="a_node9_29"><a xlink:href="/idmef_parser/IODEF/AdditionalData.html" xlink:title="This attribute has been defined in Section 3.2.">
<polygon fill="none" stroke="#000000" points="302,-4 302,-25 489,-25 489,-4 302,-4"/>
<text text-anchor="start" x="308" y="-10.8" font-family="Nimbus Sans L" font-size="14.00" fill="#000000">[ENUM] restriction (Optional)</text>
</a>
</g>
</g>
<!-- System&#45;&gt;AdditionalData -->
<g id="edge9" class="edge">
<title>System&#45;&gt;AdditionalData</title>
<path fill="none" stroke="#000000" d="M200.9064,-206.4731C226.3672,-185.3352 254.4003,-162.8134 281,-143 282.3771,-141.9743 283.7671,-140.946 285.1683,-139.916"/>
<polygon fill="#000000" stroke="#000000" points="287.2696,-142.7156 293.3027,-134.0062 283.1552,-137.0524 287.2696,-142.7156"/>
<text text-anchor="middle" x="251.5" y="-175.8" font-family="Times,serif" font-size="14.00" fill="#000000">0..*</text>
</g>
<!-- Address -->
<g id="node3" class="node">
<title>Address</title>
<g id="a_node3_30"><a xlink:href="/idmef_parser/IODEF/Address.html" xlink:title="The Address class represents a hardware (layer&#45;2), network (layer&#45;3), or application (layer&#45;7) address. ">
<polygon fill="#cecece" stroke="transparent" points="576,-671 576,-692 782,-692 782,-671 576,-671"/>
<polygon fill="none" stroke="#000000" points="576,-671 576,-692 782,-692 782,-671 576,-671"/>
<text text-anchor="start" x="654" y="-677.8" font-family="Nimbus Sans L" font-size="14.00" fill="#000000">Address</text>
</a>
</g>
<g id="a_node3_31"><a xlink:href="/idmef_parser/IODEF/Address.html" xlink:title="The type of address represented. &#160;The permitted values for this attribute are shown below. &#160;The default value is &quot;ipv4&#45;addr&quot;.">
<polygon fill="none" stroke="#000000" points="576,-650 576,-671 782,-671 782,-650 576,-650"/>
<text text-anchor="start" x="593" y="-656.8" font-family="Nimbus Sans L" font-size="14.00" fill="#000000">[ENUM] category (Required)</text>
</a>
</g>
<g id="a_node3_32"><a xlink:href="/idmef_parser/IODEF/Address.html" xlink:title="A means by which to extend the category attribute. &#160;See Section 5.1.">
<polygon fill="none" stroke="#000000" points="576,-629 576,-650 782,-650 782,-629 576,-629"/>
<text text-anchor="start" x="579" y="-635.8" font-family="Nimbus Sans L" font-size="14.00" fill="#000000">[STRING] ext&#45;category (Optional)</text>
</a>
</g>
<g id="a_node3_33"><a xlink:href="/idmef_parser/IODEF/Address.html" xlink:title="The name of the Virtual LAN to which the address belongs.">
<polygon fill="none" stroke="#000000" points="576,-608 576,-629 782,-629 782,-608 576,-608"/>
<text text-anchor="start" x="584" y="-614.8" font-family="Nimbus Sans L" font-size="14.00" fill="#000000">[STRING] vlan&#45;name (Optional)</text>
</a>
</g>
<g id="a_node3_34"><a xlink:href="/idmef_parser/IODEF/Address.html" xlink:title="The number of the Virtual LAN to which the address belongs.">
<polygon fill="none" stroke="#000000" points="576,-587 576,-608 782,-608 782,-587 576,-587"/>
<text text-anchor="start" x="587.5" y="-593.8" font-family="Nimbus Sans L" font-size="14.00" fill="#000000">[STRING] vlan&#45;num (Optional)</text>
</a>
</g>
</g>
<!-- Node&#45;&gt;Address -->
<g id="edge1" class="edge">
<title>Node&#45;&gt;Address</title>
<path fill="none" stroke="#000000" d="M487.2067,-544.1033C510.0419,-555.5209 534.8441,-567.922 558.7985,-579.8992"/>
<polygon fill="#000000" stroke="#000000" points="557.4223,-583.1243 567.9319,-584.4659 560.5529,-576.8633 557.4223,-583.1243"/>
<text text-anchor="middle" x="538.5" y="-576.8" font-family="Times,serif" font-size="14.00" fill="#000000">0..*</text>
</g>
<!-- NodeRole -->
<g id="node4" class="node">
<title>NodeRole</title>
<g id="a_node4_35"><a xlink:href="/idmef_parser/IODEF/NodeRole.html" xlink:title="The NodeRole class describes the intended function performed by a particular host. ">
<polygon fill="#cecece" stroke="transparent" points="576,-540 576,-561 782,-561 782,-540 576,-540"/>
<polygon fill="none" stroke="#000000" points="576,-540 576,-561 782,-561 782,-540 576,-540"/>
<text text-anchor="start" x="648.5" y="-546.8" font-family="Nimbus Sans L" font-size="14.00" fill="#000000">NodeRole</text>
</a>
</g>
<g id="a_node4_36"><a xlink:href="/idmef_parser/IODEF/NodeRole.html" xlink:title="Functionality provided by a node.">
<polygon fill="none" stroke="#000000" points="576,-519 576,-540 782,-540 782,-519 576,-519"/>
<text text-anchor="start" x="593" y="-525.8" font-family="Nimbus Sans L" font-size="14.00" fill="#000000">[ENUM] category (Required)</text>
</a>
</g>
<g id="a_node4_37"><a xlink:href="/idmef_parser/IODEF/NodeRole.html" xlink:title="A means by which to extend the category attribute. &#160;See Section 5.1.">
<polygon fill="none" stroke="#000000" points="576,-498 576,-519 782,-519 782,-498 576,-498"/>
<text text-anchor="start" x="579" y="-504.8" font-family="Nimbus Sans L" font-size="14.00" fill="#000000">[STRING] ext&#45;category (Optional)</text>
</a>
</g>
<g id="a_node4_38"><a xlink:href="/idmef_parser/IODEF/NodeRole.html" xlink:title="A valid language code per RFC 4646 [7] constrained by the definition of &quot;xs:language&quot;. &#160;The interpretation of this code is described in Section 6.">
<polygon fill="none" stroke="#000000" points="576,-477 576,-498 782,-498 782,-477 576,-477"/>
<text text-anchor="start" x="606.5" y="-483.8" font-family="Nimbus Sans L" font-size="14.00" fill="#000000">[ENUM] lang (Required)</text>
</a>
</g>
</g>
<!-- Node&#45;&gt;NodeRole -->
<g id="edge2" class="edge">
<title>Node&#45;&gt;NodeRole</title>
<path fill="none" stroke="#000000" d="M501.5591,-505.8794C519.8372,-507.2309 538.9522,-508.6444 557.5842,-510.0221"/>
<polygon fill="#000000" stroke="#000000" points="557.3447,-513.5138 567.5756,-510.7609 557.8609,-506.5329 557.3447,-513.5138"/>
<text text-anchor="middle" x="538.5" y="-512.8" font-family="Times,serif" font-size="14.00" fill="#000000">0..*</text>
</g>
<!-- Node&#45;&gt;Counter -->
<g id="edge3" class="edge">
<title>Node&#45;&gt;Counter</title>
<path fill="none" stroke="#000000" d="M501.5591,-460.4792C520.631,-453.7637 540.614,-446.7275 560.0087,-439.8983"/>
<polygon fill="#000000" stroke="#000000" points="561.206,-443.1875 569.4759,-436.5648 558.8811,-436.5848 561.206,-443.1875"/>
<text text-anchor="middle" x="538.5" y="-453.8" font-family="Times,serif" font-size="14.00" fill="#000000">0..*</text>
</g>
<!-- Application -->
<g id="node7" class="node">
<title>Application</title>
<g id="a_node7_39"><a xlink:href="/idmef_parser/IODEF/Application.html" xlink:title="The Application class describes an application running on a System providing a Service. ">
<polygon fill="#cecece" stroke="transparent" points="590,-298 590,-319 769,-319 769,-298 590,-298"/>
<polygon fill="none" stroke="#000000" points="590,-298 590,-319 769,-319 769,-298 590,-298"/>
<text text-anchor="start" x="646" y="-304.8" font-family="Nimbus Sans L" font-size="14.00" fill="#000000">Application</text>
</a>
</g>
<g id="a_node7_40"><a xlink:href="/idmef_parser/IODEF/Application.html" xlink:title="A URL describing the application.">
<polygon fill="none" stroke="#000000" points="590,-277 590,-298 769,-298 769,-277 590,-277"/>
<text text-anchor="start" x="629.5" y="-283.8" font-family="Nimbus Sans L" font-size="14.00" fill="#000000">[URL] URL (0..1)</text>
</a>
</g>
<g id="a_node7_41"><a xlink:href="/idmef_parser/IODEF/Application.html" xlink:title="An identifier that can be used to reference this software.">
<polygon fill="none" stroke="#000000" points="590,-256 590,-277 769,-277 769,-256 590,-256"/>
<text text-anchor="start" x="602.5" y="-262.8" font-family="Nimbus Sans L" font-size="14.00" fill="#000000">[STRING] swid (Optional)</text>
</a>
</g>
<g id="a_node7_42"><a xlink:href="/idmef_parser/IODEF/Application.html" xlink:title="An identifier that can be used to reference a particular configuration of this software.">
<polygon fill="none" stroke="#000000" points="590,-235 590,-256 769,-256 769,-235 590,-235"/>
<text text-anchor="start" x="593" y="-241.8" font-family="Nimbus Sans L" font-size="14.00" fill="#000000">[STRING] configid (Optional)</text>
</a>
</g>
<g id="a_node7_43"><a xlink:href="/idmef_parser/IODEF/Application.html" xlink:title="Vendor name of the software.">
<polygon fill="none" stroke="#000000" points="590,-214 590,-235 769,-235 769,-214 590,-214"/>
<text text-anchor="start" x="595.5" y="-220.8" font-family="Nimbus Sans L" font-size="14.00" fill="#000000">[STRING] vendor (Optional)</text>
</a>
</g>
<g id="a_node7_44"><a xlink:href="/idmef_parser/IODEF/Application.html" xlink:title="Family of the software.">
<polygon fill="none" stroke="#000000" points="590,-193 590,-214 769,-214 769,-193 590,-193"/>
<text text-anchor="start" x="598" y="-199.8" font-family="Nimbus Sans L" font-size="14.00" fill="#000000">[STRING] family (Optional)</text>
</a>
</g>
<g id="a_node7_45"><a xlink:href="/idmef_parser/IODEF/Application.html" xlink:title="Name of the software.">
<polygon fill="none" stroke="#000000" points="590,-172 590,-193 769,-193 769,-172 590,-172"/>
<text text-anchor="start" x="599" y="-178.8" font-family="Nimbus Sans L" font-size="14.00" fill="#000000">[STRING] name (Optional)</text>
</a>
</g>
<g id="a_node7_46"><a xlink:href="/idmef_parser/IODEF/Application.html" xlink:title="Version of the software.">
<polygon fill="none" stroke="#000000" points="590,-151 590,-172 769,-172 769,-151 590,-151"/>
<text text-anchor="start" x="594.5" y="-157.8" font-family="Nimbus Sans L" font-size="14.00" fill="#000000">[STRING] version (Optional)</text>
</a>
</g>
<g id="a_node7_47"><a xlink:href="/idmef_parser/IODEF/Application.html" xlink:title="Patch or service pack level of the software.">
<polygon fill="none" stroke="#000000" points="590,-130 590,-151 769,-151 769,-130 590,-130"/>
<text text-anchor="start" x="599.5" y="-136.8" font-family="Nimbus Sans L" font-size="14.00" fill="#000000">[STRING] patch (Optional)</text>
</a>
</g>
</g>
<!-- Service&#45;&gt;Application -->
<g id="edge5" class="edge">
<title>Service&#45;&gt;Application</title>
<path fill="none" stroke="#000000" d="M509.2861,-260.2575C529.8171,-255.9922 551.1523,-251.5599 571.4836,-247.3362"/>
<polygon fill="#000000" stroke="#000000" points="572.2969,-250.742 581.3759,-245.2811 570.873,-243.8883 572.2969,-250.742"/>
<text text-anchor="middle" x="538.5" y="-259.8" font-family="Times,serif" font-size="14.00" fill="#000000">0..*</text>
</g>
</g>
</svg>
