<?xml version="1.0" encoding="UTF-8" standalone="no"?>
<!DOCTYPE svg PUBLIC "-//W3C//DTD SVG 1.1//EN"
 "http://www.w3.org/Graphics/SVG/1.1/DTD/svg11.dtd">
<!-- Generated by graphviz version 2.40.1 (0)
 -->
<!-- Title: Record Pages: 1 -->
<svg width="760pt" height="585pt"
 viewBox="0.00 0.00 760.00 584.50" xmlns="http://www.w3.org/2000/svg" xmlns:xlink="http://www.w3.org/1999/xlink">
<g id="graph0" class="graph" transform="scale(1 1) rotate(0) translate(4 580.5)">
<title>Record</title>
<polygon fill="#ffffff" stroke="transparent" points="-4,4 -4,-580.5 756,-580.5 756,4 -4,4"/>
<!-- Record -->
<g id="node1" class="node">
<title>Record</title>
<g id="a_node1_0"><a xlink:href="/html/IODEFv1/Record.html" xlink:title="The Record class is a container class for log and audit data that provides supportive information about the incident. The source of this data will often be the output of monitoring tools. These logs should substantiate the activity described in the document. ">
<polygon fill="#cccc52" stroke="transparent" points="8.5,-227 8.5,-248 189.5,-248 189.5,-227 8.5,-227"/>
<polygon fill="none" stroke="#000000" points="8.5,-227 8.5,-248 189.5,-248 189.5,-227 8.5,-227"/>
<text text-anchor="start" x="77" y="-233.8" font-family="Nimbus Sans L" font-size="14.00" fill="#000000">Record</text>
</a>
</g>
<g id="a_node1_1"><a xlink:href="/html/IODEFv1/Record.html" xlink:title="This attribute has been defined in Section 3.2.">
<polygon fill="#ffff66" stroke="transparent" points="8.5,-206 8.5,-227 189.5,-227 189.5,-206 8.5,-206"/>
<polygon fill="none" stroke="#000000" points="8.5,-206 8.5,-227 189.5,-227 189.5,-206 8.5,-206"/>
<text text-anchor="start" x="11.5" y="-212.8" font-family="Nimbus Sans L" font-size="14.00" fill="#000000">[ENUM] restriction (Optional)</text>
</a>
</g>
</g>
<!-- RecordData -->
<g id="node2" class="node">
<title>RecordData</title>
<g id="a_node2_2"><a xlink:href="/html/IODEFv1/RecordData.html" xlink:title="The RecordData class groups log or audit data from a given sensor (e.g., IDS, firewall log) and provides a way to annotate the output. ">
<polygon fill="#cccc52" stroke="transparent" points="264,-248 264,-269 460,-269 460,-248 264,-248"/>
<polygon fill="none" stroke="#000000" points="264,-248 264,-269 460,-269 460,-248 264,-248"/>
<text text-anchor="start" x="325.5" y="-254.8" font-family="Nimbus Sans L" font-size="14.00" fill="#000000">RecordData</text>
</a>
</g>
<g id="a_node2_3"><a xlink:href="/html/IODEFv1/RecordData.html" xlink:title="Timestamp of the RecordItem data.">
<polygon fill="#ffff66" stroke="transparent" points="264,-227 264,-248 460,-248 460,-227 264,-227"/>
<polygon fill="none" stroke="#000000" points="264,-227 264,-248 460,-248 460,-227 264,-227"/>
<text text-anchor="start" x="309" y="-233.8" font-family="Nimbus Sans L" font-size="14.00" fill="#000000">[] DateTime (0..1)</text>
</a>
</g>
<g id="a_node2_4"><a xlink:href="/html/IODEFv1/RecordData.html" xlink:title="Free&#45;form textual description of the provided RecordItem data. &#160;At minimum, this description should convey the significance of the provided RecordItem data.">
<polygon fill="#ffff66" stroke="transparent" points="264,-206 264,-227 460,-227 460,-206 264,-206"/>
<polygon fill="none" stroke="#000000" points="264,-206 264,-227 460,-227 460,-206 264,-206"/>
<text text-anchor="start" x="267" y="-212.8" font-family="Nimbus Sans L" font-size="14.00" fill="#000000">[ML_STRING] Description (0..*)</text>
</a>
</g>
<g id="a_node2_5"><a xlink:href="/html/IODEFv1/RecordData.html" xlink:title="This attribute has been defined in Section 3.2.">
<polygon fill="#ffff66" stroke="transparent" points="264,-185 264,-206 460,-206 460,-185 264,-185"/>
<polygon fill="none" stroke="#000000" points="264,-185 264,-206 460,-206 460,-185 264,-185"/>
<text text-anchor="start" x="274.5" y="-191.8" font-family="Nimbus Sans L" font-size="14.00" fill="#000000">[ENUM] restriction (Optional)</text>
</a>
</g>
</g>
<!-- Record&#45;&gt;RecordData -->
<g id="edge5" class="edge">
<title>Record&#45;&gt;RecordData</title>
<path fill="none" stroke="#000000" d="M197.3674,-227C213.2097,-227 229.7297,-227 245.929,-227"/>
<polygon fill="#000000" stroke="#000000" points="245.965,-230.5001 255.9649,-227 245.9649,-223.5001 245.965,-230.5001"/>
<text text-anchor="middle" x="226.5" y="-230.8" font-family="Times,serif" font-size="14.00" fill="#000000">1..*</text>
</g>
<!-- Application -->
<g id="node3" class="node">
<title>Application</title>
<g id="a_node3_6"><a xlink:href="/html/IODEFv1/Application.html" xlink:title="The Application class describes an application running on a System providing a Service. ">
<polygon fill="#cca3a3" stroke="transparent" points="550.5,-551 550.5,-572 729.5,-572 729.5,-551 550.5,-551"/>
<polygon fill="none" stroke="#000000" points="550.5,-551 550.5,-572 729.5,-572 729.5,-551 550.5,-551"/>
<text text-anchor="start" x="606.5" y="-557.8" font-family="Nimbus Sans L" font-size="14.00" fill="#000000">Application</text>
</a>
</g>
<g id="a_node3_7"><a xlink:href="/html/IODEFv1/Application.html" xlink:title="A URL describing the application.">
<polygon fill="#ffcccc" stroke="transparent" points="550.5,-530 550.5,-551 729.5,-551 729.5,-530 550.5,-530"/>
<polygon fill="none" stroke="#000000" points="550.5,-530 550.5,-551 729.5,-551 729.5,-530 550.5,-530"/>
<text text-anchor="start" x="590" y="-536.8" font-family="Nimbus Sans L" font-size="14.00" fill="#000000">[URL] URL (0..1)</text>
</a>
</g>
<g id="a_node3_8"><a xlink:href="/html/IODEFv1/Application.html" xlink:title="An identifier that can be used to reference this software.">
<polygon fill="#ffcccc" stroke="transparent" points="550.5,-509 550.5,-530 729.5,-530 729.5,-509 550.5,-509"/>
<polygon fill="none" stroke="#000000" points="550.5,-509 550.5,-530 729.5,-530 729.5,-509 550.5,-509"/>
<text text-anchor="start" x="563" y="-515.8" font-family="Nimbus Sans L" font-size="14.00" fill="#000000">[STRING] swid (Optional)</text>
</a>
</g>
<g id="a_node3_9"><a xlink:href="/html/IODEFv1/Application.html" xlink:title="An identifier that can be used to reference a particular configuration of this software.">
<polygon fill="#ffcccc" stroke="transparent" points="550.5,-488 550.5,-509 729.5,-509 729.5,-488 550.5,-488"/>
<polygon fill="none" stroke="#000000" points="550.5,-488 550.5,-509 729.5,-509 729.5,-488 550.5,-488"/>
<text text-anchor="start" x="553.5" y="-494.8" font-family="Nimbus Sans L" font-size="14.00" fill="#000000">[STRING] configid (Optional)</text>
</a>
</g>
<g id="a_node3_10"><a xlink:href="/html/IODEFv1/Application.html" xlink:title="Vendor name of the software.">
<polygon fill="#ffcccc" stroke="transparent" points="550.5,-467 550.5,-488 729.5,-488 729.5,-467 550.5,-467"/>
<polygon fill="none" stroke="#000000" points="550.5,-467 550.5,-488 729.5,-488 729.5,-467 550.5,-467"/>
<text text-anchor="start" x="556" y="-473.8" font-family="Nimbus Sans L" font-size="14.00" fill="#000000">[STRING] vendor (Optional)</text>
</a>
</g>
<g id="a_node3_11"><a xlink:href="/html/IODEFv1/Application.html" xlink:title="Family of the software.">
<polygon fill="#ffcccc" stroke="transparent" points="550.5,-446 550.5,-467 729.5,-467 729.5,-446 550.5,-446"/>
<polygon fill="none" stroke="#000000" points="550.5,-446 550.5,-467 729.5,-467 729.5,-446 550.5,-446"/>
<text text-anchor="start" x="558.5" y="-452.8" font-family="Nimbus Sans L" font-size="14.00" fill="#000000">[STRING] family (Optional)</text>
</a>
</g>
<g id="a_node3_12"><a xlink:href="/html/IODEFv1/Application.html" xlink:title="Name of the software.">
<polygon fill="#ffcccc" stroke="transparent" points="550.5,-425 550.5,-446 729.5,-446 729.5,-425 550.5,-425"/>
<polygon fill="none" stroke="#000000" points="550.5,-425 550.5,-446 729.5,-446 729.5,-425 550.5,-425"/>
<text text-anchor="start" x="559.5" y="-431.8" font-family="Nimbus Sans L" font-size="14.00" fill="#000000">[STRING] name (Optional)</text>
</a>
</g>
<g id="a_node3_13"><a xlink:href="/html/IODEFv1/Application.html" xlink:title="Version of the software.">
<polygon fill="#ffcccc" stroke="transparent" points="550.5,-404 550.5,-425 729.5,-425 729.5,-404 550.5,-404"/>
<polygon fill="none" stroke="#000000" points="550.5,-404 550.5,-425 729.5,-425 729.5,-404 550.5,-404"/>
<text text-anchor="start" x="555" y="-410.8" font-family="Nimbus Sans L" font-size="14.00" fill="#000000">[STRING] version (Optional)</text>
</a>
</g>
<g id="a_node3_14"><a xlink:href="/html/IODEFv1/Application.html" xlink:title="Patch or service pack level of the software.">
<polygon fill="#ffcccc" stroke="transparent" points="550.5,-383 550.5,-404 729.5,-404 729.5,-383 550.5,-383"/>
<polygon fill="none" stroke="#000000" points="550.5,-383 550.5,-404 729.5,-404 729.5,-383 550.5,-383"/>
<text text-anchor="start" x="560" y="-389.8" font-family="Nimbus Sans L" font-size="14.00" fill="#000000">[STRING] patch (Optional)</text>
</a>
</g>
</g>
<!-- RecordData&#45;&gt;Application -->
<g id="edge1" class="edge">
<title>RecordData&#45;&gt;Application</title>
<path fill="none" stroke="#000000" d="M412.8978,-273.0373C446.8472,-303.7447 492.7171,-345.2342 534.3076,-382.853"/>
<polygon fill="#000000" stroke="#000000" points="531.9851,-385.4716 541.7493,-389.584 536.6808,-380.2802 531.9851,-385.4716"/>
<text text-anchor="middle" x="497.5" y="-355.8" font-family="Times,serif" font-size="14.00" fill="#000000">0..1</text>
</g>
<!-- RecordPattern -->
<g id="node4" class="node">
<title>RecordPattern</title>
<g id="a_node4_15"><a xlink:href="/html/IODEFv1/RecordPattern.html" xlink:title="The RecordPattern class describes where in the content of the RecordItem relevant information can be found. It provides a way to reference subsets of information, identified by a pattern, in a large log file, audit trail, or forensic data. ">
<polygon fill="#cccc52" stroke="transparent" points="535.5,-336 535.5,-357 744.5,-357 744.5,-336 535.5,-336"/>
<polygon fill="none" stroke="#000000" points="535.5,-336 535.5,-357 744.5,-357 744.5,-336 535.5,-336"/>
<text text-anchor="start" x="596.5" y="-342.8" font-family="Nimbus Sans L" font-size="14.00" fill="#000000">RecordPattern</text>
</a>
</g>
<g id="a_node4_16"><a xlink:href="/html/IODEFv1/RecordPattern.html" xlink:title="Describes the type of pattern being specified in the element content. &#160;The default is &quot;regex&quot;.">
<polygon fill="#ffff66" stroke="transparent" points="535.5,-315 535.5,-336 744.5,-336 744.5,-315 535.5,-315"/>
<polygon fill="none" stroke="#000000" points="535.5,-315 535.5,-336 744.5,-336 744.5,-315 535.5,-315"/>
<text text-anchor="start" x="567.5" y="-321.8" font-family="Nimbus Sans L" font-size="14.00" fill="#000000">[ENUM] type (Required)</text>
</a>
</g>
<g id="a_node4_17"><a xlink:href="/html/IODEFv1/RecordPattern.html" xlink:title="A means by which to extend the type attribute. See Section 5.1.">
<polygon fill="#ffff66" stroke="transparent" points="535.5,-294 535.5,-315 744.5,-315 744.5,-294 535.5,-294"/>
<polygon fill="none" stroke="#000000" points="535.5,-294 535.5,-315 744.5,-315 744.5,-294 535.5,-294"/>
<text text-anchor="start" x="553" y="-300.8" font-family="Nimbus Sans L" font-size="14.00" fill="#000000">[STRING] ext&#45;type (Optional)</text>
</a>
</g>
<g id="a_node4_18"><a xlink:href="/html/IODEFv1/RecordPattern.html" xlink:title="Amount of units (determined by the offsetunit attribute) to seek into the RecordItem data before matching the pattern.">
<polygon fill="#ffff66" stroke="transparent" points="535.5,-273 535.5,-294 744.5,-294 744.5,-273 535.5,-273"/>
<polygon fill="none" stroke="#000000" points="535.5,-273 535.5,-294 744.5,-294 744.5,-273 535.5,-273"/>
<text text-anchor="start" x="555.5" y="-279.8" font-family="Nimbus Sans L" font-size="14.00" fill="#000000">[INTEGER] offset (Optional)</text>
</a>
</g>
<g id="a_node4_19"><a xlink:href="/html/IODEFv1/RecordPattern.html" xlink:title="Describes the units of the offset attribute. The default is &quot;line&quot;.">
<polygon fill="#ffff66" stroke="transparent" points="535.5,-252 535.5,-273 744.5,-273 744.5,-252 535.5,-252"/>
<polygon fill="none" stroke="#000000" points="535.5,-252 535.5,-273 744.5,-273 744.5,-252 535.5,-252"/>
<text text-anchor="start" x="554.5" y="-258.8" font-family="Nimbus Sans L" font-size="14.00" fill="#000000">[ENUM] offsetunit (Optional)</text>
</a>
</g>
<g id="a_node4_20"><a xlink:href="/html/IODEFv1/RecordPattern.html" xlink:title="A means by which to extend the offsetunit attribute. &#160;See Section 5.1.">
<polygon fill="#ffff66" stroke="transparent" points="535.5,-231 535.5,-252 744.5,-252 744.5,-231 535.5,-231"/>
<polygon fill="none" stroke="#000000" points="535.5,-231 535.5,-252 744.5,-252 744.5,-231 535.5,-231"/>
<text text-anchor="start" x="538.5" y="-237.8" font-family="Nimbus Sans L" font-size="14.00" fill="#000000">[STRING] ext&#45;offsetunit (Optional)</text>
</a>
</g>
<g id="a_node4_21"><a xlink:href="/html/IODEFv1/RecordPattern.html" xlink:title="Number of types to apply the specified pattern.">
<polygon fill="#ffff66" stroke="transparent" points="535.5,-210 535.5,-231 744.5,-231 744.5,-210 535.5,-210"/>
<polygon fill="none" stroke="#000000" points="535.5,-210 535.5,-231 744.5,-231 744.5,-210 535.5,-210"/>
<text text-anchor="start" x="546.5" y="-216.8" font-family="Nimbus Sans L" font-size="14.00" fill="#000000">[INTEGER] instance (Optional)</text>
</a>
</g>
</g>
<!-- RecordData&#45;&gt;RecordPattern -->
<g id="edge2" class="edge">
<title>RecordData&#45;&gt;RecordPattern</title>
<path fill="none" stroke="#000000" d="M468.0987,-248.7932C483.9372,-252.0466 500.3776,-255.4235 516.529,-258.7411"/>
<polygon fill="#000000" stroke="#000000" points="516.0405,-262.2138 526.5402,-260.7975 517.449,-255.3569 516.0405,-262.2138"/>
<text text-anchor="middle" x="497.5" y="-258.8" font-family="Times,serif" font-size="14.00" fill="#000000">0..*</text>
</g>
<!-- RecordItem -->
<g id="node5" class="node">
<title>RecordItem</title>
<g id="a_node5_22"><a xlink:href="/html/IODEFv1/RecordItem.html" xlink:title="The RecordItem class provides a way to incorporate relevant logs, audit trails, or forensic data to support the conclusions made during the course of analyzing the incident. The class supports both the direct encapsulation of the data, as well as, provides primitives to reference data stored elsewhere. This class is identical to AdditionalData class (Section 3.6). ">
<polygon fill="#cccc52" stroke="transparent" points="601.5,-159 601.5,-180 678.5,-180 678.5,-159 601.5,-159"/>
<polygon fill="none" stroke="#000000" points="601.5,-159 601.5,-180 678.5,-180 678.5,-159 601.5,-159"/>
<text text-anchor="start" x="604.5" y="-165.8" font-family="Nimbus Sans L" font-size="14.00" fill="#000000">RecordItem</text>
</a>
</g>
</g>
<!-- RecordData&#45;&gt;RecordItem -->
<g id="edge3" class="edge">
<title>RecordData&#45;&gt;RecordItem</title>
<path fill="none" stroke="#000000" d="M468.0987,-205.2068C507.2014,-197.1749 549.9722,-188.3895 583.007,-181.604"/>
<polygon fill="#000000" stroke="#000000" points="583.8405,-185.0059 592.9318,-179.5654 582.432,-178.1491 583.8405,-185.0059"/>
<text text-anchor="middle" x="497.5" y="-203.8" font-family="Times,serif" font-size="14.00" fill="#000000">1..*</text>
</g>
<!-- AdditionalData -->
<g id="node6" class="node">
<title>AdditionalData</title>
<g id="a_node6_23"><a xlink:href="/html/IODEFv1/AdditionalData.html" xlink:title="The AdditionalData class serves as an extension mechanism for information not otherwise represented in the data model. For relatively simple information, atomic data types (e.g., integers, strings) are provided with a mechanism to annotate their meaning. The class can also be used to extend the data model (and the associated Schema) to support proprietary extensions by encapsulating entire XML documents conforming to another Schema (e.g., IDMEF). A detailed discussion for extending the data model and the schema can be found in Section 5. ">
<polygon fill="#87689e" stroke="transparent" points="546.5,-109 546.5,-130 733.5,-130 733.5,-109 546.5,-109"/>
<polygon fill="none" stroke="#000000" points="546.5,-109 546.5,-130 733.5,-130 733.5,-109 546.5,-109"/>
<text text-anchor="start" x="596" y="-115.8" font-family="Nimbus Sans L" font-size="14.00" fill="#000000">AdditionalData</text>
</a>
</g>
<g id="a_node6_24"><a xlink:href="/html/IODEFv1/AdditionalData.html" xlink:title="The data type of the element content. &#160;The permitted values for this attribute are shown below. &#160;The default value is &quot;string&quot;.">
<polygon fill="#a982c6" stroke="transparent" points="546.5,-88 546.5,-109 733.5,-109 733.5,-88 546.5,-88"/>
<polygon fill="none" stroke="#000000" points="546.5,-88 546.5,-109 733.5,-109 733.5,-88 546.5,-88"/>
<text text-anchor="start" x="563.5" y="-94.8" font-family="Nimbus Sans L" font-size="14.00" fill="#000000">[ENUM] dtype (Required)</text>
</a>
</g>
<g id="a_node6_25"><a xlink:href="/html/IODEFv1/AdditionalData.html" xlink:title="A means by which to extend the dtype attribute. &#160;See Section 5.1.">
<polygon fill="#a982c6" stroke="transparent" points="546.5,-67 546.5,-88 733.5,-88 733.5,-67 546.5,-67"/>
<polygon fill="none" stroke="#000000" points="546.5,-67 546.5,-88 733.5,-88 733.5,-67 546.5,-67"/>
<text text-anchor="start" x="549.5" y="-73.8" font-family="Nimbus Sans L" font-size="14.00" fill="#000000">[STRING] ext&#45;dtype (Optional)</text>
</a>
</g>
<g id="a_node6_26"><a xlink:href="/html/IODEFv1/AdditionalData.html" xlink:title="A free&#45;form description of the element content.">
<polygon fill="#a982c6" stroke="transparent" points="546.5,-46 546.5,-67 733.5,-67 733.5,-46 546.5,-46"/>
<polygon fill="none" stroke="#000000" points="546.5,-46 546.5,-67 733.5,-67 733.5,-46 546.5,-46"/>
<text text-anchor="start" x="550.5" y="-52.8" font-family="Nimbus Sans L" font-size="14.00" fill="#000000">[STRING] meaning (Optional)</text>
</a>
</g>
<g id="a_node6_27"><a xlink:href="/html/IODEFv1/AdditionalData.html" xlink:title="An identifier referencing the format and semantics of the element content.">
<polygon fill="#a982c6" stroke="transparent" points="546.5,-25 546.5,-46 733.5,-46 733.5,-25 546.5,-25"/>
<polygon fill="none" stroke="#000000" points="546.5,-25 546.5,-46 733.5,-46 733.5,-25 546.5,-25"/>
<text text-anchor="start" x="552" y="-31.8" font-family="Nimbus Sans L" font-size="14.00" fill="#000000">[STRING] formatid (Optional)</text>
</a>
</g>
<g id="a_node6_28"><a xlink:href="/html/IODEFv1/AdditionalData.html" xlink:title="This attribute has been defined in Section 3.2.">
<polygon fill="#a982c6" stroke="transparent" points="546.5,-4 546.5,-25 733.5,-25 733.5,-4 546.5,-4"/>
<polygon fill="none" stroke="#000000" points="546.5,-4 546.5,-25 733.5,-25 733.5,-4 546.5,-4"/>
<text text-anchor="start" x="552.5" y="-10.8" font-family="Nimbus Sans L" font-size="14.00" fill="#000000">[ENUM] restriction (Optional)</text>
</a>
</g>
</g>
<!-- RecordData&#45;&gt;AdditionalData -->
<g id="edge4" class="edge">
<title>RecordData&#45;&gt;AdditionalData</title>
<path fill="none" stroke="#000000" d="M441.8922,-180.936C469.0267,-165.2909 499.8478,-147.5202 528.9423,-130.745"/>
<polygon fill="#000000" stroke="#000000" points="530.9952,-133.6015 537.9101,-125.5743 527.4987,-127.5373 530.9952,-133.6015"/>
<text text-anchor="middle" x="497.5" y="-154.8" font-family="Times,serif" font-size="14.00" fill="#000000">0..1</text>
</g>
</g>
</svg>
