<?xml version="1.0" encoding="UTF-8" standalone="no"?>
<!DOCTYPE svg PUBLIC "-//W3C//DTD SVG 1.1//EN"
 "http://www.w3.org/Graphics/SVG/1.1/DTD/svg11.dtd">
<!-- Generated by graphviz version 2.40.1 (0)
 -->
<!-- Title: RecordData Pages: 1 -->
<svg width="504pt" height="585pt"
 viewBox="0.00 0.00 504.00 584.50" xmlns="http://www.w3.org/2000/svg" xmlns:xlink="http://www.w3.org/1999/xlink">
<g id="graph0" class="graph" transform="scale(1 1) rotate(0) translate(4 580.5)">
<title>RecordData</title>
<polygon fill="#ffffff" stroke="transparent" points="-4,4 -4,-580.5 500,-580.5 500,4 -4,4"/>
<!-- RecordData -->
<g id="node1" class="node">
<title>RecordData</title>
<g id="a_node1_0"><a xlink:href="/idmef_parser/IODEFv1/RecordData.html" xlink:title="The RecordData class groups log or audit data from a given sensor (e.g., IDS, firewall log) and provides a way to annotate the output. ">
<polygon fill="#cccc52" stroke="transparent" points="8,-248 8,-269 204,-269 204,-248 8,-248"/>
<polygon fill="none" stroke="#000000" points="8,-248 8,-269 204,-269 204,-248 8,-248"/>
<text text-anchor="start" x="69.5" y="-254.8" font-family="Nimbus Sans L" font-size="14.00" fill="#000000">RecordData</text>
</a>
</g>
<g id="a_node1_1"><a xlink:href="/idmef_parser/IODEFv1/RecordData.html" xlink:title="Timestamp of the RecordItem data.">
<polygon fill="#ffff66" stroke="transparent" points="8,-227 8,-248 204,-248 204,-227 8,-227"/>
<polygon fill="none" stroke="#000000" points="8,-227 8,-248 204,-248 204,-227 8,-227"/>
<text text-anchor="start" x="53" y="-233.8" font-family="Nimbus Sans L" font-size="14.00" fill="#000000">[] DateTime (0..1)</text>
</a>
</g>
<g id="a_node1_2"><a xlink:href="/idmef_parser/IODEFv1/RecordData.html" xlink:title="Free&#45;form textual description of the provided RecordItem data. &#160;At minimum, this description should convey the significance of the provided RecordItem data.">
<polygon fill="#ffff66" stroke="transparent" points="8,-206 8,-227 204,-227 204,-206 8,-206"/>
<polygon fill="none" stroke="#000000" points="8,-206 8,-227 204,-227 204,-206 8,-206"/>
<text text-anchor="start" x="11" y="-212.8" font-family="Nimbus Sans L" font-size="14.00" fill="#000000">[ML_STRING] Description (0..*)</text>
</a>
</g>
<g id="a_node1_3"><a xlink:href="/idmef_parser/IODEFv1/RecordData.html" xlink:title="This attribute has been defined in Section 3.2.">
<polygon fill="#ffff66" stroke="transparent" points="8,-185 8,-206 204,-206 204,-185 8,-185"/>
<polygon fill="none" stroke="#000000" points="8,-185 8,-206 204,-206 204,-185 8,-185"/>
<text text-anchor="start" x="18.5" y="-191.8" font-family="Nimbus Sans L" font-size="14.00" fill="#000000">[ENUM] restriction (Optional)</text>
</a>
</g>
</g>
<!-- Application -->
<g id="node2" class="node">
<title>Application</title>
<g id="a_node2_4"><a xlink:href="/idmef_parser/IODEFv1/Application.html" xlink:title="The Application class describes an application running on a System providing a Service. ">
<polygon fill="#cca3a3" stroke="transparent" points="294.5,-551 294.5,-572 473.5,-572 473.5,-551 294.5,-551"/>
<polygon fill="none" stroke="#000000" points="294.5,-551 294.5,-572 473.5,-572 473.5,-551 294.5,-551"/>
<text text-anchor="start" x="350.5" y="-557.8" font-family="Nimbus Sans L" font-size="14.00" fill="#000000">Application</text>
</a>
</g>
<g id="a_node2_5"><a xlink:href="/idmef_parser/IODEFv1/Application.html" xlink:title="A URL describing the application.">
<polygon fill="#ffcccc" stroke="transparent" points="294.5,-530 294.5,-551 473.5,-551 473.5,-530 294.5,-530"/>
<polygon fill="none" stroke="#000000" points="294.5,-530 294.5,-551 473.5,-551 473.5,-530 294.5,-530"/>
<text text-anchor="start" x="334" y="-536.8" font-family="Nimbus Sans L" font-size="14.00" fill="#000000">[URL] URL (0..1)</text>
</a>
</g>
<g id="a_node2_6"><a xlink:href="/idmef_parser/IODEFv1/Application.html" xlink:title="An identifier that can be used to reference this software.">
<polygon fill="#ffcccc" stroke="transparent" points="294.5,-509 294.5,-530 473.5,-530 473.5,-509 294.5,-509"/>
<polygon fill="none" stroke="#000000" points="294.5,-509 294.5,-530 473.5,-530 473.5,-509 294.5,-509"/>
<text text-anchor="start" x="307" y="-515.8" font-family="Nimbus Sans L" font-size="14.00" fill="#000000">[STRING] swid (Optional)</text>
</a>
</g>
<g id="a_node2_7"><a xlink:href="/idmef_parser/IODEFv1/Application.html" xlink:title="An identifier that can be used to reference a particular configuration of this software.">
<polygon fill="#ffcccc" stroke="transparent" points="294.5,-488 294.5,-509 473.5,-509 473.5,-488 294.5,-488"/>
<polygon fill="none" stroke="#000000" points="294.5,-488 294.5,-509 473.5,-509 473.5,-488 294.5,-488"/>
<text text-anchor="start" x="297.5" y="-494.8" font-family="Nimbus Sans L" font-size="14.00" fill="#000000">[STRING] configid (Optional)</text>
</a>
</g>
<g id="a_node2_8"><a xlink:href="/idmef_parser/IODEFv1/Application.html" xlink:title="Vendor name of the software.">
<polygon fill="#ffcccc" stroke="transparent" points="294.5,-467 294.5,-488 473.5,-488 473.5,-467 294.5,-467"/>
<polygon fill="none" stroke="#000000" points="294.5,-467 294.5,-488 473.5,-488 473.5,-467 294.5,-467"/>
<text text-anchor="start" x="300" y="-473.8" font-family="Nimbus Sans L" font-size="14.00" fill="#000000">[STRING] vendor (Optional)</text>
</a>
</g>
<g id="a_node2_9"><a xlink:href="/idmef_parser/IODEFv1/Application.html" xlink:title="Family of the software.">
<polygon fill="#ffcccc" stroke="transparent" points="294.5,-446 294.5,-467 473.5,-467 473.5,-446 294.5,-446"/>
<polygon fill="none" stroke="#000000" points="294.5,-446 294.5,-467 473.5,-467 473.5,-446 294.5,-446"/>
<text text-anchor="start" x="302.5" y="-452.8" font-family="Nimbus Sans L" font-size="14.00" fill="#000000">[STRING] family (Optional)</text>
</a>
</g>
<g id="a_node2_10"><a xlink:href="/idmef_parser/IODEFv1/Application.html" xlink:title="Name of the software.">
<polygon fill="#ffcccc" stroke="transparent" points="294.5,-425 294.5,-446 473.5,-446 473.5,-425 294.5,-425"/>
<polygon fill="none" stroke="#000000" points="294.5,-425 294.5,-446 473.5,-446 473.5,-425 294.5,-425"/>
<text text-anchor="start" x="303.5" y="-431.8" font-family="Nimbus Sans L" font-size="14.00" fill="#000000">[STRING] name (Optional)</text>
</a>
</g>
<g id="a_node2_11"><a xlink:href="/idmef_parser/IODEFv1/Application.html" xlink:title="Version of the software.">
<polygon fill="#ffcccc" stroke="transparent" points="294.5,-404 294.5,-425 473.5,-425 473.5,-404 294.5,-404"/>
<polygon fill="none" stroke="#000000" points="294.5,-404 294.5,-425 473.5,-425 473.5,-404 294.5,-404"/>
<text text-anchor="start" x="299" y="-410.8" font-family="Nimbus Sans L" font-size="14.00" fill="#000000">[STRING] version (Optional)</text>
</a>
</g>
<g id="a_node2_12"><a xlink:href="/idmef_parser/IODEFv1/Application.html" xlink:title="Patch or service pack level of the software.">
<polygon fill="#ffcccc" stroke="transparent" points="294.5,-383 294.5,-404 473.5,-404 473.5,-383 294.5,-383"/>
<polygon fill="none" stroke="#000000" points="294.5,-383 294.5,-404 473.5,-404 473.5,-383 294.5,-383"/>
<text text-anchor="start" x="304" y="-389.8" font-family="Nimbus Sans L" font-size="14.00" fill="#000000">[STRING] patch (Optional)</text>
</a>
</g>
</g>
<!-- RecordData&#45;&gt;Application -->
<g id="edge1" class="edge">
<title>RecordData&#45;&gt;Application</title>
<path fill="none" stroke="#000000" d="M156.8978,-273.0373C190.8472,-303.7447 236.7171,-345.2342 278.3076,-382.853"/>
<polygon fill="#000000" stroke="#000000" points="275.9851,-385.4716 285.7493,-389.584 280.6808,-380.2802 275.9851,-385.4716"/>
<text text-anchor="middle" x="241.5" y="-355.8" font-family="Times,serif" font-size="14.00" fill="#000000">0..1</text>
</g>
<!-- RecordPattern -->
<g id="node3" class="node">
<title>RecordPattern</title>
<g id="a_node3_13"><a xlink:href="/idmef_parser/IODEFv1/RecordPattern.html" xlink:title="The RecordPattern class describes where in the content of the RecordItem relevant information can be found. It provides a way to reference subsets of information, identified by a pattern, in a large log file, audit trail, or forensic data. ">
<polygon fill="#cccc52" stroke="transparent" points="279.5,-336 279.5,-357 488.5,-357 488.5,-336 279.5,-336"/>
<polygon fill="none" stroke="#000000" points="279.5,-336 279.5,-357 488.5,-357 488.5,-336 279.5,-336"/>
<text text-anchor="start" x="340.5" y="-342.8" font-family="Nimbus Sans L" font-size="14.00" fill="#000000">RecordPattern</text>
</a>
</g>
<g id="a_node3_14"><a xlink:href="/idmef_parser/IODEFv1/RecordPattern.html" xlink:title="Describes the type of pattern being specified in the element content. &#160;The default is &quot;regex&quot;.">
<polygon fill="#ffff66" stroke="transparent" points="279.5,-315 279.5,-336 488.5,-336 488.5,-315 279.5,-315"/>
<polygon fill="none" stroke="#000000" points="279.5,-315 279.5,-336 488.5,-336 488.5,-315 279.5,-315"/>
<text text-anchor="start" x="311.5" y="-321.8" font-family="Nimbus Sans L" font-size="14.00" fill="#000000">[ENUM] type (Required)</text>
</a>
</g>
<g id="a_node3_15"><a xlink:href="/idmef_parser/IODEFv1/RecordPattern.html" xlink:title="A means by which to extend the type attribute. See Section 5.1.">
<polygon fill="#ffff66" stroke="transparent" points="279.5,-294 279.5,-315 488.5,-315 488.5,-294 279.5,-294"/>
<polygon fill="none" stroke="#000000" points="279.5,-294 279.5,-315 488.5,-315 488.5,-294 279.5,-294"/>
<text text-anchor="start" x="297" y="-300.8" font-family="Nimbus Sans L" font-size="14.00" fill="#000000">[STRING] ext&#45;type (Optional)</text>
</a>
</g>
<g id="a_node3_16"><a xlink:href="/idmef_parser/IODEFv1/RecordPattern.html" xlink:title="Amount of units (determined by the offsetunit attribute) to seek into the RecordItem data before matching the pattern.">
<polygon fill="#ffff66" stroke="transparent" points="279.5,-273 279.5,-294 488.5,-294 488.5,-273 279.5,-273"/>
<polygon fill="none" stroke="#000000" points="279.5,-273 279.5,-294 488.5,-294 488.5,-273 279.5,-273"/>
<text text-anchor="start" x="299.5" y="-279.8" font-family="Nimbus Sans L" font-size="14.00" fill="#000000">[INTEGER] offset (Optional)</text>
</a>
</g>
<g id="a_node3_17"><a xlink:href="/idmef_parser/IODEFv1/RecordPattern.html" xlink:title="Describes the units of the offset attribute. The default is &quot;line&quot;.">
<polygon fill="#ffff66" stroke="transparent" points="279.5,-252 279.5,-273 488.5,-273 488.5,-252 279.5,-252"/>
<polygon fill="none" stroke="#000000" points="279.5,-252 279.5,-273 488.5,-273 488.5,-252 279.5,-252"/>
<text text-anchor="start" x="298.5" y="-258.8" font-family="Nimbus Sans L" font-size="14.00" fill="#000000">[ENUM] offsetunit (Optional)</text>
</a>
</g>
<g id="a_node3_18"><a xlink:href="/idmef_parser/IODEFv1/RecordPattern.html" xlink:title="A means by which to extend the offsetunit attribute. &#160;See Section 5.1.">
<polygon fill="#ffff66" stroke="transparent" points="279.5,-231 279.5,-252 488.5,-252 488.5,-231 279.5,-231"/>
<polygon fill="none" stroke="#000000" points="279.5,-231 279.5,-252 488.5,-252 488.5,-231 279.5,-231"/>
<text text-anchor="start" x="282.5" y="-237.8" font-family="Nimbus Sans L" font-size="14.00" fill="#000000">[STRING] ext&#45;offsetunit (Optional)</text>
</a>
</g>
<g id="a_node3_19"><a xlink:href="/idmef_parser/IODEFv1/RecordPattern.html" xlink:title="Number of types to apply the specified pattern.">
<polygon fill="#ffff66" stroke="transparent" points="279.5,-210 279.5,-231 488.5,-231 488.5,-210 279.5,-210"/>
<polygon fill="none" stroke="#000000" points="279.5,-210 279.5,-231 488.5,-231 488.5,-210 279.5,-210"/>
<text text-anchor="start" x="290.5" y="-216.8" font-family="Nimbus Sans L" font-size="14.00" fill="#000000">[INTEGER] instance (Optional)</text>
</a>
</g>
</g>
<!-- RecordData&#45;&gt;RecordPattern -->
<g id="edge2" class="edge">
<title>RecordData&#45;&gt;RecordPattern</title>
<path fill="none" stroke="#000000" d="M212.0987,-248.7932C227.9372,-252.0466 244.3776,-255.4235 260.529,-258.7411"/>
<polygon fill="#000000" stroke="#000000" points="260.0405,-262.2138 270.5402,-260.7975 261.449,-255.3569 260.0405,-262.2138"/>
<text text-anchor="middle" x="241.5" y="-258.8" font-family="Times,serif" font-size="14.00" fill="#000000">0..*</text>
</g>
<!-- RecordItem -->
<g id="node4" class="node">
<title>RecordItem</title>
<g id="a_node4_20"><a xlink:href="/idmef_parser/IODEFv1/RecordItem.html" xlink:title="The RecordItem class provides a way to incorporate relevant logs, audit trails, or forensic data to support the conclusions made during the course of analyzing the incident. The class supports both the direct encapsulation of the data, as well as, provides primitives to reference data stored elsewhere. This class is identical to AdditionalData class (Section 3.6). ">
<polygon fill="#cccc52" stroke="transparent" points="345.5,-159 345.5,-180 422.5,-180 422.5,-159 345.5,-159"/>
<polygon fill="none" stroke="#000000" points="345.5,-159 345.5,-180 422.5,-180 422.5,-159 345.5,-159"/>
<text text-anchor="start" x="348.5" y="-165.8" font-family="Nimbus Sans L" font-size="14.00" fill="#000000">RecordItem</text>
</a>
</g>
</g>
<!-- RecordData&#45;&gt;RecordItem -->
<g id="edge3" class="edge">
<title>RecordData&#45;&gt;RecordItem</title>
<path fill="none" stroke="#000000" d="M212.0987,-205.2068C251.2014,-197.1749 293.9722,-188.3895 327.007,-181.604"/>
<polygon fill="#000000" stroke="#000000" points="327.8405,-185.0059 336.9318,-179.5654 326.432,-178.1491 327.8405,-185.0059"/>
<text text-anchor="middle" x="241.5" y="-203.8" font-family="Times,serif" font-size="14.00" fill="#000000">1..*</text>
</g>
<!-- AdditionalData -->
<g id="node5" class="node">
<title>AdditionalData</title>
<g id="a_node5_21"><a xlink:href="/idmef_parser/IODEFv1/AdditionalData.html" xlink:title="The AdditionalData class serves as an extension mechanism for information not otherwise represented in the data model. For relatively simple information, atomic data types (e.g., integers, strings) are provided with a mechanism to annotate their meaning. The class can also be used to extend the data model (and the associated Schema) to support proprietary extensions by encapsulating entire XML documents conforming to another Schema (e.g., IDMEF). A detailed discussion for extending the data model and the schema can be found in Section 5. ">
<polygon fill="#87689e" stroke="transparent" points="290.5,-109 290.5,-130 477.5,-130 477.5,-109 290.5,-109"/>
<polygon fill="none" stroke="#000000" points="290.5,-109 290.5,-130 477.5,-130 477.5,-109 290.5,-109"/>
<text text-anchor="start" x="340" y="-115.8" font-family="Nimbus Sans L" font-size="14.00" fill="#000000">AdditionalData</text>
</a>
</g>
<g id="a_node5_22"><a xlink:href="/idmef_parser/IODEFv1/AdditionalData.html" xlink:title="The data type of the element content. &#160;The permitted values for this attribute are shown below. &#160;The default value is &quot;string&quot;.">
<polygon fill="#a982c6" stroke="transparent" points="290.5,-88 290.5,-109 477.5,-109 477.5,-88 290.5,-88"/>
<polygon fill="none" stroke="#000000" points="290.5,-88 290.5,-109 477.5,-109 477.5,-88 290.5,-88"/>
<text text-anchor="start" x="307.5" y="-94.8" font-family="Nimbus Sans L" font-size="14.00" fill="#000000">[ENUM] dtype (Required)</text>
</a>
</g>
<g id="a_node5_23"><a xlink:href="/idmef_parser/IODEFv1/AdditionalData.html" xlink:title="A means by which to extend the dtype attribute. &#160;See Section 5.1.">
<polygon fill="#a982c6" stroke="transparent" points="290.5,-67 290.5,-88 477.5,-88 477.5,-67 290.5,-67"/>
<polygon fill="none" stroke="#000000" points="290.5,-67 290.5,-88 477.5,-88 477.5,-67 290.5,-67"/>
<text text-anchor="start" x="293.5" y="-73.8" font-family="Nimbus Sans L" font-size="14.00" fill="#000000">[STRING] ext&#45;dtype (Optional)</text>
</a>
</g>
<g id="a_node5_24"><a xlink:href="/idmef_parser/IODEFv1/AdditionalData.html" xlink:title="A free&#45;form description of the element content.">
<polygon fill="#a982c6" stroke="transparent" points="290.5,-46 290.5,-67 477.5,-67 477.5,-46 290.5,-46"/>
<polygon fill="none" stroke="#000000" points="290.5,-46 290.5,-67 477.5,-67 477.5,-46 290.5,-46"/>
<text text-anchor="start" x="294.5" y="-52.8" font-family="Nimbus Sans L" font-size="14.00" fill="#000000">[STRING] meaning (Optional)</text>
</a>
</g>
<g id="a_node5_25"><a xlink:href="/idmef_parser/IODEFv1/AdditionalData.html" xlink:title="An identifier referencing the format and semantics of the element content.">
<polygon fill="#a982c6" stroke="transparent" points="290.5,-25 290.5,-46 477.5,-46 477.5,-25 290.5,-25"/>
<polygon fill="none" stroke="#000000" points="290.5,-25 290.5,-46 477.5,-46 477.5,-25 290.5,-25"/>
<text text-anchor="start" x="296" y="-31.8" font-family="Nimbus Sans L" font-size="14.00" fill="#000000">[STRING] formatid (Optional)</text>
</a>
</g>
<g id="a_node5_26"><a xlink:href="/idmef_parser/IODEFv1/AdditionalData.html" xlink:title="This attribute has been defined in Section 3.2.">
<polygon fill="#a982c6" stroke="transparent" points="290.5,-4 290.5,-25 477.5,-25 477.5,-4 290.5,-4"/>
<polygon fill="none" stroke="#000000" points="290.5,-4 290.5,-25 477.5,-25 477.5,-4 290.5,-4"/>
<text text-anchor="start" x="296.5" y="-10.8" font-family="Nimbus Sans L" font-size="14.00" fill="#000000">[ENUM] restriction (Optional)</text>
</a>
</g>
</g>
<!-- RecordData&#45;&gt;AdditionalData -->
<g id="edge4" class="edge">
<title>RecordData&#45;&gt;AdditionalData</title>
<path fill="none" stroke="#000000" d="M185.8922,-180.936C213.0267,-165.2909 243.8478,-147.5202 272.9423,-130.745"/>
<polygon fill="#000000" stroke="#000000" points="274.9952,-133.6015 281.9101,-125.5743 271.4987,-127.5373 274.9952,-133.6015"/>
<text text-anchor="middle" x="241.5" y="-154.8" font-family="Times,serif" font-size="14.00" fill="#000000">0..1</text>
</g>
</g>
</svg>
